<svg xmlns="http://www.w3.org/2000/svg" id="Capa_1" height="512" viewBox="0 0 512 512" width="512"><title>1001</title><g class="nc-icon-wrapper" fill="#000000"><path d="M187.139 305.429c-10.713 0-19.429 8.716-19.429 19.429v88.393h38.857v-88.393c0-10.713-8.715-19.429-19.428-19.429z" fill="#000000"/><path d="M137.71 413.25v-88.393c0-27.255 22.174-49.429 49.429-49.429 13.377 0 25.523 5.35 34.431 14.013 8.908-8.663 21.053-14.013 34.431-14.013 13.376 0 25.521 5.35 34.429 14.011 8.908-8.661 21.052-14.011 34.428-14.011 27.255 0 49.429 22.174 49.429 49.429v88.393h68.854v-94.37c0-49.387-32.136-91.503-76.596-106.478 9.573-11.921 15.682-26.54 17.354-42.496 3.005-28.675-8.973-56.135-32.042-73.457l-52.278-39.254C281.684 43.759 271 22.377 271 0h-30c0 22.377-10.684 43.759-28.578 57.195l-52.28 39.254c-23.069 17.322-35.047 44.782-32.041 73.457 1.673 15.956 7.781 30.575 17.354 42.496-44.46 14.975-76.596 57.091-76.596 106.478v94.37zm133.431-269.5h30.282v30h-30.282zm-60.564 0h30.282v30h-30.282z" fill="#000000"/><path d="M482.666 443.25H29.334C12.068 450.966 0 468.291 0 488.393V512h512v-23.607c0-20.102-12.068-37.427-29.334-45.143z" fill="#000000"/><path d="M256 305.429c-10.713 0-19.429 8.716-19.429 19.429v88.393h38.857v-88.393c.001-10.713-8.715-19.429-19.428-19.429z" fill="#000000"/><path d="M344.286 324.857c0-10.713-8.716-19.429-19.429-19.429s-19.428 8.716-19.428 19.429v88.393h38.857z" fill="#000000"/></g></svg>