<svg xmlns="http://www.w3.org/2000/svg" version="1.1" id="Capa_1" x="0" y="0" viewBox="0 0 512 512" xml:space="preserve" width="512" height="512" enable-background="new 0 0 512 512"><title>10x10</title><g class="nc-icon-wrapper" fill="#000000"><path fill="#000000" d="M294.036 218.764h-76.072l-27.928 27.927h131.928z"/><path fill="#000000" d="M223.418 134.982h65.164v65.164h-65.164z"/><path fill="#000000" d="M204.8 129.527L176.873 101.6v131.927L204.8 205.6z"/><path fill="#000000" d="M46.545 134.982h65.164v65.164H46.545z"/><path fill="#000000" d="M117.164 116.364l27.927-27.928H13.164l27.927 27.928z"/><path fill="#000000" d="M400.291 311.855h65.164v65.164h-65.164z"/><path fill="#000000" d="M223.418 311.855h65.164v65.164h-65.164z"/><path fill="#000000" d="M470.909 293.236l27.927-27.927H366.909l27.927 27.927z"/><path fill="#000000" d="M321.964 265.309H190.036l27.928 27.927h76.072z"/><path fill="#000000" d="M294.036 116.364l27.928-27.928H190.036l27.928 27.928z"/><path fill="#000000" d="M307.2 205.6l27.927 27.927V101.6L307.2 129.527z"/><path fill="#000000" d="M27.927 129.527L0 101.6v131.927L27.927 205.6z"/><path fill="#000000" d="M484.073 306.4v76.073L512 410.4V278.473z"/><path fill="#000000" d="M394.836 395.636l-27.927 27.928h131.927l-27.927-27.928z"/><path fill="#000000" d="M307.2 382.473l27.927 27.927V278.473L307.2 306.4z"/><path fill="#000000" d="M381.673 306.4l-27.928-27.927V410.4l27.928-27.927z"/><path fill="#000000" d="M217.964 395.636l-27.928 27.928h131.928l-27.928-27.928z"/><path fill="#000000" d="M130.327 205.6l27.928 27.927V101.6l-27.928 27.927z"/><path fill="#000000" d="M41.091 218.764l-27.927 27.927h131.927l-27.927-27.927z"/><path fill="#000000" d="M204.8 306.4l-27.927-27.927V410.4l27.927-27.927z"/></g></svg>