<svg version="1.1" id="Capa_1" xmlns="http://www.w3.org/2000/svg" x="0" y="0" width="580" height="580" viewBox="0 0 580.109 580.109" xml:space="preserve" enable-background="new 0 0 580.109 580.109"><title>1player</title><g class="nc-icon-wrapper" fill="#000000"><path d="M99.371 389.22c39.786-32.662 52.853-61.169 162.125-61.169 12.748 0 24.131.403 34.456 1.138 19.939-62.528 78.563-107.945 147.615-107.945 25.648 0 49.835 6.304 71.163 17.381-11.646-59.878-32.858-109.56-45.38-130.307-19.896-32.956-92.938-54.633-116.696-30.881-23.758 23.764-91.158 21.389-91.158 21.389s-67.406 2.375-91.157-21.377c-23.758-23.751-96.8-2.081-116.696 30.881-19.897 32.957-61.764 138.961-52.26 242.885 9.499 103.93 58.196 70.667 97.988 38.005z"/><path d="M314.673 331.049a136.247 136.247 0 0 0-7.662 45.111c0 75.416 61.139 136.549 136.55 136.549 75.41 0 136.549-61.139 136.549-136.549 0-47.657-24.425-89.585-61.426-114.017-21.555-14.229-47.363-22.534-75.123-22.534-59.597-.005-110.252 38.196-128.888 91.44zm85.429 37.633v67.338a6.122 6.122 0 0 1-6.119 6.12h-12.95a6.123 6.123 0 0 1-6.12-6.12v-82.699c0-3.379-1.989-4.223-4.621-2.1-6.628 5.361-14.021 9.688-22.172 12.975-3.134 1.261-5.747-.637-5.747-4.015v-10.618c0-3.379 2.619-6.959 5.68-8.391a61.402 61.402 0 0 0 3.666-1.879c3.855-2.13 7.882-4.822 12.08-8.091 5.863-4.565 10.325-9.712 13.391-15.435 1.592-2.98 5.221-5.588 8.599-5.588h8.201a6.123 6.123 0 0 1 6.12 6.12v52.382h-.008zm49.334-57.969h36.463c16.139 0 26.652.654 31.555 1.971 1.909.501 3.715 1.205 5.471 2.007 3.409 1.555 6.555 3.617 9.364 6.298 2.448 2.331 5.808 6.72 7.344 9.73 2.907 5.704 4.357 12.516 4.357 20.423 0 8.065-1.463 14.853-4.395 20.349-2.931 5.496-6.646 9.816-11.162 12.956s-9.101 5.214-13.765 6.23c-.098.018-.227.03-.324.049-6.321 1.218-15.367 1.83-27.197 1.83h-11.181a6.121 6.121 0 0 0-6.12 6.119v37.339a6.123 6.123 0 0 1-6.12 6.12h-14.297a6.122 6.122 0 0 1-6.119-6.12V316.833a6.13 6.13 0 0 1 6.126-6.12z"/><path d="M475.972 370.243h8.402c10.459 0 17.454-.686 20.979-2.062 1.732-.674 3.28-1.536 4.646-2.589 2.338-1.8 5.11-5.863 5.937-8.739.478-1.671.716-3.452.716-5.35 0-4.779-1.401-8.727-4.211-11.836-2.809-3.108-6.364-5.049-10.667-5.826-3.17-.6-9.535-.894-19.095-.894h-6.701a6.123 6.123 0 0 0-6.12 6.12v25.056a6.114 6.114 0 0 0 6.114 6.12z"/></g></svg>