<svg xmlns="http://www.w3.org/2000/svg" height="512" viewBox="0 -36 512 512" width="512"><title>2d</title><g class="nc-icon-wrapper" fill="#000000"><path d="M452 0H60C26.914 0 0 26.914 0 60v240c0 33.086 26.914 60 60 60h176v40H132v40h248v-40H276v-40h176c33.086 0 60-26.914 60-60V60c0-33.086-26.914-60-60-60zm20 300c0 11.027-8.973 20-20 20H60c-11.027 0-20-8.973-20-20V60c0-11.027 8.973-20 20-20h392c11.027 0 20 8.973 20 20zM336 100.121h-60v160h60c33.086 0 60-26.914 60-60v-40c0-33.082-26.914-60-60-60zm20 100c0 11.027-8.973 20-20 20h-20v-80h20c11.027 0 20 8.973 20 20zm-156.066 15.867a687.962 687.962 0 0 1-3.996 4.133H237v40H129v-30.96l6.465-5.946c.156-.145 16.012-14.738 32.52-31.723 25.312-26.043 32.175-37.125 33.874-40.414-.953-6.012-6.648-10.957-13.062-10.957H129v-40h59.797c29.336 0 53.203 23.652 53.203 52.727 0 11.91-7.035 26.629-42.066 63.14zm0 0" fill="#000000"/></g></svg>