<svg xmlns="http://www.w3.org/2000/svg" version="1.1" id="Capa_1" x="0" y="0" width="512" height="512" viewBox="0 0 580.113 580.113" xml:space="preserve" enable-background="new 0 0 580.113 580.113"><title>2player</title><g class="nc-icon-wrapper" fill="#000000"><path d="M99.369 389.222c39.786-32.662 52.853-61.169 162.125-61.169 12.748 0 24.137.403 34.456 1.138 19.938-62.528 78.562-107.945 147.614-107.945 25.648 0 49.835 6.304 71.163 17.381-11.646-59.878-32.858-109.56-45.38-130.307-19.896-32.956-92.938-54.633-116.696-30.881-23.752 23.764-91.157 21.389-91.157 21.389s-67.406 2.375-91.157-21.377c-23.752-23.751-96.8-2.081-116.696 30.881C33.75 141.289-8.116 247.293 1.382 351.217c9.504 103.93 58.201 70.667 97.987 38.005z" fill="#000000"/><path d="M518.688 262.146c-21.555-14.229-47.363-22.534-75.123-22.534-59.603 0-110.252 38.201-128.888 91.439a136.273 136.273 0 0 0-7.662 45.111c0 75.416 61.139 136.549 136.55 136.549 75.416 0 136.549-61.139 136.549-136.549-.001-47.657-24.426-89.585-61.426-114.016zm-136.507 156.6h37.785a6.12 6.12 0 0 1 6.119 6.119v11.157a6.122 6.122 0 0 1-6.119 6.12H343.9c-3.378 0-5.856-2.735-5.152-6.041 1.413-6.64 3.959-13.011 7.638-19.106 4.779-7.919 14.223-18.421 28.329-31.512 10.876-10.135 17.681-17.105 20.496-20.985.122-.172.288-.373.392-.526 3.464-5.202 5.202-10.337 5.202-15.423 0-2.974-.422-5.581-1.267-7.827-1.193-3.164-5.215-7.209-8.372-8.415-2.154-.826-4.615-1.236-7.394-1.236-5.257 0-9.443 1.585-12.552 4.749-2.154 2.197-3.679 5.41-4.565 9.621-.006.03-.019.061-.024.092-.691 3.311-3.514 5.796-6.879 5.459l-12.926-1.291c-3.366-.337-5.832-3.336-5.189-6.652.44-2.265 1.04-4.327 1.683-6.341 2.418-7.552 6.206-13.421 11.487-17.467 7.889-6.034 17.748-9.051 29.584-9.051 12.969 0 23.158 3.494 30.569 10.489 7.412 6.995 11.114 15.686 11.114 26.09 0 5.918-1.059 11.548-3.183 16.897-2.087 5.257-5.386 10.765-9.865 16.518-.079.098-.141.195-.221.294-3.048 3.886-8.543 9.474-16.493 16.763-7.949 7.289-12.986 12.13-15.104 14.522a49.393 49.393 0 0 0-2.747 3.366c-1.428 1.914.341 3.617 3.72 3.617zm167.168-67.596c0 8.066-1.463 14.854-4.395 20.349-2.932 5.496-6.646 9.816-11.163 12.956s-9.101 5.215-13.764 6.23c-1.757.349-3.782.637-5.979.888-5.716.654-12.864.991-21.542.991h-11.182a6.122 6.122 0 0 0-6.12 6.12V436.022a6.122 6.122 0 0 1-6.119 6.12h-14.297a6.123 6.123 0 0 1-6.12-6.12V316.834a6.122 6.122 0 0 1 6.12-6.119h36.463c16.139 0 26.652.654 31.555 1.971.031.006.062.024.098.03 5.588 1.48 10.502 4.235 14.737 8.274 2.448 2.331 5.808 6.72 7.344 9.73 2.912 5.711 4.364 12.517 4.364 20.43z" fill="#000000"/><path d="M517.794 339.674c-2.81-3.108-6.365-5.049-10.668-5.826-3.17-.6-9.534-.894-19.094-.894h-6.701a6.122 6.122 0 0 0-6.12 6.12v25.056a6.122 6.122 0 0 0 6.12 6.12h8.402c10.459 0 17.454-.686 20.979-2.062 1.731-.673 3.28-1.536 4.645-2.589 2.094-1.609 4.462-5.006 5.545-7.772.129-.318.307-.667.392-.967.478-1.671.717-3.452.717-5.349 0-.961-.099-1.867-.209-2.761-.459-3.555-1.762-6.596-4.008-9.076z" fill="#000000"/></g></svg>