<svg xmlns="http://www.w3.org/2000/svg" version="1.1" id="Capa_1" x="0" y="0" viewBox="0 0 366.52 366.52" xml:space="preserve" width="512" height="512" enable-background="new 0 0 366.52 366.52"><title>3d</title><g class="nc-icon-wrapper" fill="#000000"><path d="M332.88 49.22H33.6C15.071 49.286.066 64.291 0 82.82V283.7c.066 18.529 15.071 33.534 33.6 33.6h299.32c18.529-.066 33.534-15.071 33.6-33.6V82.82c-.066-18.545-15.095-33.556-33.64-33.6zm2.36 211.08c-.044 14.209-11.551 25.716-25.76 25.76h-252c-14.269.221-26.016-11.167-26.237-25.437a17.39 17.39 0 0 1-.003-.323V106.22C31.284 92.011 42.791 80.504 57 80.46h252c14.269-.221 26.016 11.167 26.237 25.437.002.108.003.215.003.323V260.3z" fill="#000000"/><path d="M267.84 133.54a39.042 39.042 0 0 0-16-8.56 84.825 84.825 0 0 0-21.12-2.28h-31.48c-6.906-1.29-13.55 3.262-14.84 10.167a12.702 12.702 0 0 0 0 4.673v87.76a35.104 35.104 0 0 0 1.04 9.4 9.238 9.238 0 0 0 4.36 5.64 19.995 19.995 0 0 0 9.96 2h31.48c4.953.04 9.901-.308 14.8-1.04a46.892 46.892 0 0 0 12.28-3.68 41.187 41.187 0 0 0 10.52-6.92 49.836 49.836 0 0 0 10.04-12.8 58.867 58.867 0 0 0 5.8-16 95.2 95.2 0 0 0 1.88-19.68c-.027-21.76-6.267-37.987-18.72-48.68zM249.8 217.5v.04a19.998 19.998 0 0 1-6.36 3.68c-2.3.82-4.691 1.357-7.12 1.6-2.28.24-5.44.32-9.48.32h-18.36V141.9h16a65.788 65.788 0 0 1 18.92 2.4 24 24 0 0 1 13.16 11.24c3.573 5.867 5.36 14.707 5.36 26.52.027 16.8-4.013 28.613-12.12 35.44z" fill="#000000"/><path d="M161.2 194.78a30.283 30.283 0 0 0-6.44-9.96 45.085 45.085 0 0 0-10.76-8 47.35 47.35 0 0 0 10.16-11.4 26.354 26.354 0 0 0 3.56-13.96 28 28 0 0 0-2.48-11.4 26.962 26.962 0 0 0-7.28-9.44 33.591 33.591 0 0 0-11.36-6.24 45.52 45.52 0 0 0-14.44-2.16 49.878 49.878 0 0 0-16.4 2.56 37.843 37.843 0 0 0-12.24 6.84 32.378 32.378 0 0 0-7.52 8.92 18.533 18.533 0 0 0-2.56 8.92 9.278 9.278 0 0 0 2.72 7.04 8.362 8.362 0 0 0 6 2.64 11.311 11.311 0 0 0 4.88-.96 5.6 5.6 0 0 0 2.92-2.72c.96-2.12 1.96-4.36 3.08-6.76a27.15 27.15 0 0 1 3.56-5.88 13.086 13.086 0 0 1 5.12-3.56 20.882 20.882 0 0 1 8-1.4 15.283 15.283 0 0 1 11.68 4.52 15.038 15.038 0 0 1 4.36 10.8 15.402 15.402 0 0 1-5.44 12.68 20.001 20.001 0 0 1-12.96 4.4h-3.32a13.564 13.564 0 0 0-8.72 2.4 7.72 7.72 0 0 0-2.96 6.32 8 8 0 0 0 2.44 6.24 9.884 9.884 0 0 0 6.92 2.24c.68 0 2.12 0 4.4-.32 2.28-.32 4-.32 5.08-.32a19.198 19.198 0 0 1 14.52 5.44 20.681 20.681 0 0 1 5.4 15 21.081 21.081 0 0 1-3.08 11.36 20.441 20.441 0 0 1-7.76 7.4 20.799 20.799 0 0 1-9.76 2.48 17.243 17.243 0 0 1-13.68-5.52 55.117 55.117 0 0 1-9.12-16.84 6.28 6.28 0 0 0-2.76-3.2 7.998 7.998 0 0 0-4.4-1.36 10.679 10.679 0 0 0-7.64 2.88 9.997 9.997 0 0 0-3.08 7.64 23.437 23.437 0 0 0 2.56 9.32 40.004 40.004 0 0 0 7.56 10.88 40.601 40.601 0 0 0 12.8 8.76 41.969 41.969 0 0 0 17.56 3.52 48.68 48.68 0 0 0 17.56-3.08 41.267 41.267 0 0 0 13.76-8.48 36.92 36.92 0 0 0 8.8-12.36 36.003 36.003 0 0 0 2.96-14.36 29.842 29.842 0 0 0-2.2-11.52z" fill="#000000"/></g></svg>