<svg xmlns="http://www.w3.org/2000/svg" id="Capa_1" height="512" viewBox="0 0 512.14 512.14" width="512"><title>accessories</title><g class="nc-icon-wrapper" fill="#000000"><path d="M24.917 356.75v86.28l74.72-43.14z" fill="#000000"/><path d="M114.637 512.14v-86.27l-74.72 43.14z" fill="#000000"/><path d="M144.637 512.14l74.71-43.13-74.71-43.14z" fill="#000000"/><path d="M114.637 373.91v-86.28l-74.72 43.14z" fill="#000000"/><path d="M219.347 330.77l-74.71-43.14v86.28z" fill="#000000"/><path d="M159.627 399.89l74.72 43.14v-86.28z" fill="#000000"/><path d="M144.637 234.236c19.941-6.368 34.424-25.068 34.424-47.093 0-22.027-14.486-40.728-34.429-47.095v-8.465c29.548-6.823 51.643-33.35 51.643-64.94C196.276 29.896 166.38 0 129.633 0S62.99 29.896 62.99 66.643h30C92.99 46.438 109.428 30 129.633 30s36.643 16.438 36.643 36.643-16.438 36.643-36.643 36.643h-15v36.762c-19.943 6.367-34.429 25.068-34.429 47.095 0 22.028 14.488 40.731 34.433 47.096v53.391l15-8.66 15 8.66z" fill="#000000"/><g><path d="M277.793 356.75v86.28l74.72-43.14z" fill="#000000"/><path d="M367.513 512.14v-86.27l-74.72 43.14z" fill="#000000"/><path d="M397.513 512.14l74.71-43.13-74.71-43.14z" fill="#000000"/><path d="M367.513 373.91v-86.28l-74.72 43.14z" fill="#000000"/><path d="M472.223 330.77l-74.71-43.14v86.28z" fill="#000000"/><path d="M412.503 399.89l74.72 43.14v-86.28z" fill="#000000"/><path d="M397.513 234.236c19.941-6.368 34.424-25.068 34.424-47.093 0-22.027-14.486-40.728-34.429-47.095v-8.465c29.548-6.823 51.643-33.35 51.643-64.94C449.152 29.896 419.256 0 382.509 0s-66.643 29.896-66.643 66.643h30c0-20.205 16.438-36.643 36.643-36.643s36.643 16.438 36.643 36.643-16.438 36.643-36.643 36.643h-15v36.762c-19.943 6.367-34.429 25.068-34.429 47.095 0 22.028 14.488 40.731 34.433 47.096v53.391l15-8.66 15 8.66z" fill="#000000"/></g></g></svg>