<svg xmlns="http://www.w3.org/2000/svg" version="1.1" id="Capa_1" x="0" y="0" width="512" height="512" viewBox="0 0 517.267 517.267" xml:space="preserve" enable-background="new 0 0 517.267 517.267"><title>action</title><g class="nc-icon-wrapper" fill="#000000"><path d="M46.56 367.44c25.857 0 46.818-20.961 46.818-46.789 0-25.685-20.951-46.646-46.818-46.646-25.685 0-46.56 20.952-46.56 46.646 0 25.828 20.884 46.789 46.56 46.789z" fill="#000000"/><path d="M85.565 376.114a14.002 14.002 0 0 0 5.919 19.087l167.248 86.817 14.898 9.792a30.787 30.787 0 0 0 25.063 3.959l195.897-53.722c16.409-4.495 26.067-21.449 21.572-37.849-4.513-16.409-21.458-26.058-37.857-21.563l-177.05 48.549.345-1.463-51.82-30.304 19.966-39.933a14.004 14.004 0 0 0-6.444-18.905l-94.009-45.508c-9.505-4.6-22.883-1.636-26.421 8.31-1.138 3.193-2.008 6.502-2.735 9.858L133.3 211.848c-.794-11.752-10.997-20.655-22.721-19.842-11.752.793-20.636 10.958-19.842 22.711l9.084 134.716-14.256 26.681z" fill="#000000"/><path d="M377.642 369.668a9.56 9.56 0 0 0 9.562-9.562V214.278c0-5.278-4.274-9.562-9.562-9.562s-9.562 4.284-9.562 9.562v145.828c-.001 5.278 4.283 9.562 9.562 9.562z" fill="#000000"/><path d="M344.078 309.903a9.56 9.56 0 0 0 9.562-9.562V154.512c0-5.278-4.274-9.562-9.562-9.562s-9.562 4.284-9.562 9.562V300.34c0 5.279 4.283 9.563 9.562 9.563z" fill="#000000"/><path d="M175.969 245.117a9.56 9.56 0 0 0 9.562-9.562V89.726c0-5.278-4.274-9.562-9.562-9.562s-9.562 4.284-9.562 9.562v145.828c-.001 5.279 4.283 9.563 9.562 9.563z" fill="#000000"/><path d="M209.533 185.351a9.56 9.56 0 0 0 9.562-9.562V29.96c0-5.278-4.274-9.562-9.562-9.562s-9.562 4.284-9.562 9.562v145.828a9.56 9.56 0 0 0 9.562 9.563z" fill="#000000"/></g></svg>