<svg xmlns="http://www.w3.org/2000/svg" id="bold" height="512" viewBox="0 0 24 24" width="512"><title>addicting</title><g class="nc-icon-wrapper" fill="#000000"><path d="M18.359 2H5.641C2.531 2 0 4.467 0 7.5S2.531 13 5.641 13a5.74 5.74 0 0 0 4.264-1.9h4.189a5.74 5.74 0 0 0 4.264 1.9C21.469 13 24 10.533 24 7.5S21.469 2 18.359 2zM7.5 8.5h-1v1a1 1 0 0 1-2 0v-1h-1a1 1 0 0 1 0-2h1v-1a1 1 0 0 1 2 0v1h1a1 1 0 0 1 0 2zm11-4c.551 0 1 .449 1 1s-.449 1-1 1-1-.449-1-1 .449-1 1-1zm-2 4c-.551 0-1-.449-1-1s.449-1 1-1 1 .449 1 1-.449 1-1 1zm2 2c-.551 0-1-.449-1-1s.449-1 1-1 1 .449 1 1-.449 1-1 1zm2-2c-.551 0-1-.449-1-1s.449-1 1-1 1 .449 1 1-.449 1-1 1z" fill="#000000"/><path d="M10.95 17.65a.75.75 0 0 0-1.2.6v.686a32.828 32.828 0 0 1-1.783-.142C3.092 18.292 1.5 17.104 1.5 16.75c0-.108.329-.617 1.928-1.149a.748.748 0 0 0 .577-.731c0-.493-.519-.865-.988-.713C1.015 14.812 0 15.684 0 16.75c0 2.466 5.464 3.294 7.808 3.536.62.068 1.271.118 1.942.154v.81c0 .62.71.967 1.2.6l2-1.5c.398-.299.4-.9 0-1.2z" fill="#000000"/><path d="M20.978 14.157a.75.75 0 1 0-.465 1.427c1.622.528 1.987 1.032 1.987 1.167 0 .443-2.057 1.678-7.148 2.103a.75.75 0 0 0 .125 1.495C18.039 20.133 24 19.354 24 16.75c0-1.067-1.017-1.94-3.022-2.593z" fill="#000000"/></g></svg>