<svg xmlns="http://www.w3.org/2000/svg" version="1.1" id="Layer_1" x="0" y="0" viewBox="0 0 512.009 512.009" xml:space="preserve" width="512" height="512" enable-background="new 0 0 512.009 512.009"><title>adventure</title><g class="nc-icon-wrapper" fill="#000000"><path d="M490.672 245.341c0-94.062 21-231.667 21.208-233.042a10.664 10.664 0 0 0-3.656-9.76 10.689 10.689 0 0 0-10.24-1.99c-.635.208-64.729 20.792-209.979 20.792C162.265 21.341 13.661.331 12.182.112c-3.771-.542-7.344.906-9.708 3.74A10.643 10.643 0 0 0 .567 14.081c.208.615 20.771 62.563 20.771 145.927 0 4.938 3.396 9.229 8.198 10.375 20.844 4.958 55.802 19.906 55.802 64.292 0 40.417-17.25 60.76-54.271 64.042a10.664 10.664 0 0 0-9.729 10.625c0 114.24-20.719 188.344-20.927 189.073a10.67 10.67 0 0 0 2.365 10.094c2.479 2.719 6.198 4 9.802 3.323 1.167-.208 117.115-21.156 179.427-21.156 94.365 0 306.146 21.063 308.271 21.281a10.632 10.632 0 0 0 8.844-3.323 10.651 10.651 0 0 0 2.74-9.042c-.209-1.271-21.188-128.584-21.188-254.251zM351.703 111.977a10.648 10.648 0 0 1 15 1.604c8.76 10.875 12.021 20.812 12.365 21.906 1.76 5.625-1.375 11.604-6.99 13.365-1.063.333-2.135.49-3.188.49-4.542 0-8.75-2.917-10.177-7.479 0 0-2.385-7.156-8.615-14.885-3.697-4.595-2.979-11.303 1.605-15.001zm-69.271-25.865c13.823-.979 29.76-1.677 43.427 1.635 5.729 1.375 9.25 7.146 7.865 12.865-1.177 4.885-5.542 8.167-10.354 8.167-.833 0-1.677-.094-2.51-.302-11.417-2.75-25.135-1.906-36.906-1.094-6 .521-10.99-4.01-11.396-9.875-.418-5.885 3.999-10.979 9.874-11.396zm-81.563 26.344c10.719-8.375 24.063-14.885 39.667-19.354 5.646-1.656 11.573 1.656 13.188 7.313 1.625 5.656-1.646 11.573-7.313 13.188-12.948 3.719-23.854 8.99-32.396 15.667a10.669 10.669 0 0 1-6.563 2.26 10.655 10.655 0 0 1-8.417-4.094c-3.624-4.647-2.801-11.355 1.834-14.98zm-34.583 79.802c.031-16.865 2.542-31.094 7.396-43.417 2.167-5.49 8.375-8.167 13.844-6 5.479 2.156 8.167 8.354 6.01 13.833-3.969 10.042-5.979 21.927-5.979 35.333 0 5.885-4.771 10.781-10.656 10.781h-.01c-5.885 0-10.646-4.646-10.656-10.531h.051zm-24.594 190.656a10.67 10.67 0 0 1-13.656-6.407c-2.927-8.094-4.479-16.573-4.479-24.5 0-5.896 4.771-10.667 10.667-10.667s10.667 4.771 10.667 10.667c0 5.479 1.104 11.448 3.208 17.25 2 5.532-.865 11.647-6.407 13.657zm58.24 43.761c-17.542 0-31.833-4.448-44.188-13.229-4.802-3.417-5.927-10.073-2.521-14.875 3.427-4.781 10.063-5.948 14.875-2.521 8.677 6.167 18.813 9.292 30.125 9.292 5.896 0 11.521 4.771 11.521 10.667 0 5.895-3.916 10.666-9.812 10.666zm23.823-164.125c-1.833 3.813-5.646 6.031-9.615 6.031-1.552 0-3.135-.344-4.625-1.063-15.75-7.594-26.844-17.854-33.917-31.354-2.729-5.219-.719-11.667 4.5-14.396 5.229-2.771 11.667-.708 14.396 4.5 4.938 9.417 12.656 16.427 24.292 22.042 5.302 2.563 7.531 8.938 4.969 14.24zm59.406 141.812c-10.917 8.302-24.635 14.354-40.781 17.99-.792.177-1.573.26-2.354.26-4.875 0-9.281-3.365-10.396-8.323-1.292-5.75 2.313-11.458 8.063-12.75 13.135-2.958 24.094-7.719 32.552-14.156 4.688-3.563 11.396-2.656 14.948 2.031 3.562 4.688 2.656 11.386-2.032 14.948zm-1.812-107.917c-8.458-7.417-21.052-11.708-32.198-15.156-5.635-1.74-8.781-7.708-7.042-13.333 1.74-5.635 7.719-8.781 13.333-7.042 13.25 4.094 28.354 9.313 39.969 19.49 4.427 3.885 4.875 10.625.99 15.052a10.635 10.635 0 0 1-8.021 3.635c-2.5 0-5.011-.875-7.031-2.646zm28.583 70.678c-1.521 4.406-5.656 7.167-10.073 7.167-1.156 0-2.333-.188-3.5-.594-5.563-1.927-8.51-8-6.573-13.573 2.948-8.5 4.438-18.406 4.438-29.448 0-2.073-.073-4.052-.219-5.969-.448-5.875 3.948-11 9.823-11.448 5.854-.427 11 3.958 11.448 9.823.188 2.438.281 4.958.281 7.594 0 13.427-1.896 25.687-5.625 36.448zm74.073 59.552c-11.76 0-21.333-9.573-21.333-21.333s9.573-21.333 21.333-21.333 21.333 9.573 21.333 21.333-9.573 21.333-21.333 21.333zm38.667-194.636a10.687 10.687 0 0 1 3.979 7.75 10.631 10.631 0 0 1-3.104 8.125l-9.427 9.417a10.653 10.653 0 0 1-7.542 3.125c-.198 0-.396-.01-.594-.021a10.673 10.673 0 0 1-7.74-3.979l-29.359-36.702-29.359 36.702a10.664 10.664 0 0 1-7.74 3.979c-.198.01-.396.021-.594.021a10.655 10.655 0 0 1-7.542-3.125l-9.427-9.417a10.631 10.631 0 0 1-3.104-8.125 10.694 10.694 0 0 1 3.979-7.75l36.706-29.365-36.706-29.365a10.687 10.687 0 0 1-3.979-7.75 10.631 10.631 0 0 1 3.104-8.125l9.427-9.417c2.156-2.146 5.219-3.135 8.135-3.104a10.673 10.673 0 0 1 7.74 3.979l29.359 36.702 29.359-36.702a10.664 10.664 0 0 1 7.74-3.979c2.979-.073 5.99.958 8.135 3.104l9.427 9.417a10.631 10.631 0 0 1 3.104 8.125 10.694 10.694 0 0 1-3.979 7.75l-36.706 29.365 36.708 29.365z" fill="#000000"/></g></svg>