<svg xmlns="http://www.w3.org/2000/svg" height="512" viewBox="0 0 512 512" width="512"><title>air hockey</title><g class="nc-icon-wrapper" fill="#000000"><path d="M320 356.57c-96 0-146.285 23.774-146.285 36.575 0 12.796 50.285 36.57 146.285 36.57s146.285-23.774 146.285-36.57c0-12.801-50.238-36.575-146.285-36.575zm-36.277 36.848a333.193 333.193 0 0 0-36.95 2.926 8.918 8.918 0 0 1-.136 3.234 9.143 9.143 0 0 1-8.914 7.133 9.01 9.01 0 0 1-2.02-.219c-4.875-1.097-16.273-3.656-16.273-13.347 0-6.723 0-15.938 63.707-17.997h.293c5.047-.078 9.207 3.954 9.285 9.004.078 5.047-3.953 9.203-9.004 9.282zm73.14 18h-.293c-5.047.078-9.207-3.95-9.285-9s3.953-9.207 9.004-9.285a335.075 335.075 0 0 0 36.945-2.914 9.132 9.132 0 0 1 2.88-7.977 9.136 9.136 0 0 1 8.19-2.183c4.876 1.097 16.278 3.656 16.278 13.347-.012 6.75-.012 15.957-63.719 18.024zm0 0" fill="#000000"/><path d="M320 320c-71.313 0-128.082 14.629-160.914 34.121a8.863 8.863 0 0 1-.797.45C138.81 366.37 128 379.93 128 393.144c0 35.316 77.148 73.14 192 73.14s192-37.824 192-73.14C512 357.825 434.852 320 320 320zm0 128c-81.781 0-164.57-18.844-164.57-54.855 0-36.016 82.789-54.86 164.57-54.86s164.57 18.844 164.57 54.86C484.57 429.156 401.781 448 320 448zm0 0" fill="#000000"/><path d="M246.855 209.09V54.855C246.855 24.56 222.297 0 192 0s-54.855 24.559-54.855 54.855V209.09c3.773 3.758 22.992 10.34 54.855 10.34s51.082-6.582 54.855-10.34zm0 0" fill="#000000"/><path d="M128 431.023v7.832C128 474.175 205.148 512 320 512s192-37.824 192-73.145v-7.832c-32.54 31.844-105.344 53.547-192 53.547s-159.46-21.703-192-53.547zm0 0" fill="#000000"/><path d="M0 182.855C0 218.175 77.148 256 192 256s192-37.824 192-73.145c0-28.34-49.371-55.933-118.855-67.328v94.758c0 26.66-65.665 27.43-73.145 27.43s-73.145-.77-73.145-27.43v-94.758C49.371 126.922 0 154.516 0 182.855zm290.36 25.985c37.87-9.469 47.925-21.137 47.925-25.985 0-3.007-3.234-6.902-8.887-10.695-4.191-2.816-5.304-8.5-2.488-12.691 2.82-4.192 8.5-5.305 12.692-2.485a31.995 31.995 0 0 1 16.968 25.871c0 18.497-21.367 33.63-61.785 43.715a8.89 8.89 0 0 1-2.222.282 9.138 9.138 0 0 1-9.055-8.032 9.14 9.14 0 0 1 6.851-9.98zM93.64 156.863c-37.87 9.48-47.925 21.149-47.925 25.992 0 3.204 3.656 6.641 5.785 8.403 3.914 3.199 4.492 8.96 1.297 12.87-3.2 3.911-8.961 4.49-12.871 1.294a29.255 29.255 0 0 1-12.496-22.567c0-18.496 21.367-33.625 61.785-43.718a9.143 9.143 0 1 1 4.426 17.727zm0 0" fill="#000000"/><path d="M320 301.715c11.813 0 23.36.422 34.586 1.195C373.523 291.3 384 277.941 384 265.145v-44.41c-32.54 31.847-105.344 53.55-192 53.55S32.54 252.582 0 220.735v44.41c0 33.296 67.238 64.539 153.46 71.578 38.157-21.43 98.013-35.008 166.54-35.008zm0 0" fill="#000000"/></g></svg>