<svg version="1.1" id="Capa_1" xmlns="http://www.w3.org/2000/svg" x="0" y="0" viewBox="0 0 612.001 612.001" xml:space="preserve" enable-background="new 0 0 612.001 612.001" width="612.001" height="612.001"><title>alien</title><g class="nc-icon-wrapper" fill="#000000"><path d="M64.601 236.822C64.601 394.256 192.786 612 306.001 612 412.582 612 547.4 394.256 547.4 236.822S439.322 0 306 0 64.601 79.388 64.601 236.822zm304.12 116.415c29.475-29.475 70.598-40.195 108.552-32.173 8.021 37.954-2.698 79.077-32.173 108.552-29.475 29.475-70.598 40.195-108.552 32.173-8.022-37.955 2.698-79.078 32.173-108.552zm-233.994-32.174c37.954-8.021 79.077 2.698 108.552 32.173 29.475 29.475 40.195 70.598 32.173 108.552-37.954 8.021-79.077-2.698-108.552-32.173-29.475-29.476-40.194-70.598-32.173-108.552z"/></g></svg>