<svg xmlns="http://www.w3.org/2000/svg" id="Layer_1" height="512" viewBox="0 0 512.291 512.291" width="512"><title>american</title><g class="nc-icon-wrapper" fill="#000000"><path d="M509.801 190.721L321.603 2.524a420.864 420.864 0 0 0-37.284 5.649l219.85 219.85a419.753 419.753 0 0 0 5.632-37.302z" fill="#000000"/><path d="M2.491 321.57l188.198 188.198a420.94 420.94 0 0 0 37.285-5.649L8.123 284.268a419.02 419.02 0 0 0-5.632 37.302z" fill="#000000"/><path d="M14.711 487.456l2.313 7.813 7.813 2.313c2.029.601 50.463 14.71 117.848 14.71 2.636 0 5.316-.025 8.03-.072L.069 361.574c-1.216 71.41 13.972 123.621 14.642 125.882z" fill="#000000"/><path d="M103.03 103.03c-35.711 35.711-62.579 78.245-79.855 126.419a368.686 368.686 0 0 0-6.729 20.717l245.61 245.61c49.764-14.598 101.591-40.901 147.205-86.515 35.711-35.711 62.579-78.245 79.855-126.419a368.686 368.686 0 0 0 6.729-20.717l-245.61-245.61C200.471 31.113 148.644 57.416 103.03 103.03zm195.639 40.456l70.136 70.136-21.213 21.213-24.462-24.462-23.444 23.444 24.462 24.462-21.213 21.213-24.462-24.462-23.443 23.443 24.462 24.462-21.213 21.213-24.462-24.462-23.444 23.444 24.462 24.462-21.213 21.213-70.136-70.136 21.213-21.213 24.462 24.462 23.444-23.444-24.462-24.462 21.213-21.213 24.462 24.462 23.443-23.443-24.462-24.462 21.213-21.213 24.462 24.462 23.444-23.444-24.462-24.462z" fill="#000000"/><path d="M497.581 24.836l-2.313-7.813-7.813-2.313C485.426 14.109 436.992 0 369.607 0c-2.636 0-5.316.025-8.03.072l150.644 150.644c1.217-71.409-13.971-123.619-14.64-125.88z" fill="#000000"/></g></svg>