<svg xmlns="http://www.w3.org/2000/svg" version="1.1" id="Capa_1" x="0" y="0" width="512" height="512" viewBox="0 0 43 43" xml:space="preserve" enable-background="new 0 0 43 43"><title>anime</title><g class="nc-icon-wrapper" fill="#000000"><path d="M26.082 25.409c-.163-.525-.016-1.065.416-1.523.402-.428 1.051-.782 1.924-1.055.503-.156 1.104-.234 1.782-.234 1.303 0 2.471.287 2.521.3a.497.497 0 0 1 .251.815c-.069.079-1.727 1.938-3.506 2.492-.602.188-1.14.28-1.603.28-1.308 0-1.683-.752-1.785-1.075zm-4.584 3.807c1.38 0 2.5-.446 2.5-1 0-.553-1.12-1-2.5-1s-2.5.447-2.5 1c0 .554 1.12 1 2.5 1zm-7.973-2.941c.6.188 1.138.281 1.601.281 1.313 0 1.688-.752 1.789-1.076.163-.524.016-1.064-.416-1.522-.403-.429-1.051-.783-1.924-1.056-.503-.155-1.103-.234-1.782-.234-1.303 0-2.471.288-2.52.3a.5.5 0 0 0-.253.816c.068.078 1.724 1.939 3.505 2.491zM4.04 13.831c.084-.175 1.012-2.023 2.995-4.087-2.17-.026-4.606-1.017-5.045-1.456-.659-.66.429-2.815 2.431-4.817C6.423 1.468 8.579.38 9.238 1.04c.486.486 1.652 3.421 1.429 5.731 2.668-1.688 6.224-3.014 10.832-3.014 4.587 0 8.149 1.332 10.832 3.024-.228-2.312.942-5.255 1.429-5.742.659-.659 2.816.429 4.817 2.431 2.001 2.002 3.09 4.158 2.431 4.817-.438.438-2.867 1.427-5.033 1.456 1.983 2.041 2.934 3.861 3.021 4.034.022.046.045.092.065.138.826 1.816 1.305 4.367 1.529 6.5C42.055 21.617 43 23.49 43 25.591c0 2.939-1.85 5.436-4.389 6.268-3.258 6.255-9.812 10.295-17.081 10.295-7.263 0-13.807-4.028-17.068-10.271C1.885 31.076 0 28.561 0 25.591c0-2.134.974-4.033 2.479-5.232.229-2.124.706-4.646 1.524-6.445a.903.903 0 0 1 .037-.083zm-.042 11.76c0 1.415.998 2.563 2.243 2.563.31 0 .605-.071.874-.2 2.033 5.928 7.712 10.2 14.416 10.2 6.696 0 12.37-4.264 14.409-10.182.254.113.526.182.815.182 1.245 0 2.243-1.146 2.243-2.563s-.998-2.562-2.243-2.562l-.006.002c0-.05-.004-.107-.005-.158a12.73 12.73 0 0 1-1.164 1.657c.417-1.429.645-2.896.645-4.355 0-.38-.029-.746-.06-1.11-3.245.725-7.747-.25-11.949-2.9-2.202-1.39-4.025-3.054-5.372-4.79-2.404 1.34-4.682 4.126-11.939 7.014a13.23 13.23 0 0 0-.132 1.786c0 1.458.227 2.928.644 4.355a12.571 12.571 0 0 1-1.104-1.556l-.002.062c-.024-.001-.046-.008-.069-.008-1.246 0-2.244 1.148-2.244 2.563z" fill="#000000"/></g></svg>