<svg xmlns="http://www.w3.org/2000/svg" id="Capa_1" height="512" viewBox="0 0 512 512" width="512"><title>arcade</title><g class="nc-icon-wrapper" fill="#000000"><path d="M436 82H76c-8.284 0-15-6.716-15-15V15c0-8.284 6.716-15 15-15h360c8.284 0 15 6.716 15 15v52c0 8.284-6.716 15-15 15z" fill="#000000"/><path d="M181 212c33.084 0 60 26.916 60 60h180V112H91v160h30c0-33.084 26.916-60 60-60z" fill="#000000"/><path d="M446.812 362l-20-60H232.928c-7.962 13.728-21.204 24.025-36.928 28.091V362h110v-15c0-8.284 6.716-15 15-15s15 6.716 15 15v15h30v-15c0-8.284 6.716-15 15-15s15 6.716 15 15v15z" fill="#000000"/><path d="M129.072 302H85.188l-20 60H166v-31.909c-15.724-4.066-28.966-14.363-36.928-28.091z" fill="#000000"/><path d="M181 302c-16.542 0-30-13.458-30-30s13.458-30 30-30 30 13.458 30 30-13.458 30-30 30z" fill="#000000"/><path d="M61 392v105c0 8.284 6.716 15 15 15h360c8.284 0 15-6.716 15-15V392zm75 75c-8.284 0-15-6.716-15-15s6.716-15 15-15 15 6.716 15 15-6.716 15-15 15zm180 0H196c-8.284 0-15-6.716-15-15s6.716-15 15-15h120c8.284 0 15 6.716 15 15s-6.716 15-15 15zm60 0c-8.284 0-15-6.716-15-15s6.716-15 15-15 15 6.716 15 15-6.716 15-15 15z" fill="#000000"/></g></svg>