<svg xmlns="http://www.w3.org/2000/svg" version="1.1" id="Capa_1" x="0" y="0" viewBox="0 0 511.999 511.999" xml:space="preserve" width="512" height="512" enable-background="new 0 0 511.999 511.999"><title>archery</title><g class="nc-icon-wrapper" fill="#000000"><path d="M490.528 1.324l-84.987 42.495a15.015 15.015 0 0 0-8.31 13.433v36.27L168.473 322.278l-54.932-18.31a15.025 15.025 0 0 0-15.374 3.631l-84.986 84.987c-7.836 7.836-4.763 21.299 5.872 24.877l56.612 18.87 18.872 56.614c3.571 10.613 16.994 13.757 24.877 5.872l84.987-84.987a15.03 15.03 0 0 0 3.631-15.376l-18.31-54.932 228.756-228.756h36.268a15.022 15.022 0 0 0 13.435-8.31l42.494-84.987c5.789-11.556-8.589-25.934-20.147-20.147z" fill="#000000"/><path d="M416.868 435.079c-1.966-1.964-4.109-3.633-6.318-5.159 29.84-78.828 18.546-167.569-28.728-236.002l-64.054 64.054c38.55 57.332 50.406 125.097 50.983 167.008-1.044.404-2.026.949-3.045 1.432l-108.188-108.19-21.246 21.246L344.461 447.66c-7.94 16.738-5.164 37.328 8.668 51.16 17.575 17.573 46.166 17.573 63.74 0 17.572-17.575 17.572-46.166-.001-63.741z" fill="#000000"/><path d="M254.027 194.232l64.054-64.054c-68.432-47.274-157.172-58.57-236-28.728-1.525-2.209-3.195-4.354-5.159-6.318-17.575-17.575-46.166-17.575-63.74 0-17.575 17.575-17.575 46.166 0 63.74 13.832 13.832 34.421 16.605 51.159 8.668L172.53 275.729l21.248-21.248-108.191-108.19c.483-1.016 1.031-1.999 1.434-3.043 41.911.576 109.676 12.435 167.006 50.984z" fill="#000000"/></g></svg>