<svg xmlns="http://www.w3.org/2000/svg" id="Capa_1" height="512" viewBox="0 0 512 512" width="512"><title>art</title><g class="nc-icon-wrapper" fill="#000000"><circle cx="116" cy="316" r="15" fill="#000000"/><circle cx="116" cy="196" r="15" fill="#000000"/><circle cx="196" cy="411" r="15" fill="#000000"/><circle cx="196" cy="101" r="15" fill="#000000"/><path d="M308.271 334.838c-5.514-8.576-11.215-17.445-16.374-26.228-19.061-32.451-19.061-72.77 0-105.221 5.159-8.782 10.86-17.651 16.374-26.228 15.558-24.201 30.252-47.06 35.635-70.816 6.571-28.998-2.582-54.509-27.208-75.823-16.794-14.535-37.528-24.355-59.962-28.399-21.613-3.899-44.407-2.393-65.915 4.353C141.562 21.919 97.184 54.483 65.86 98.17 33.241 143.665 16 198.241 16 256s17.241 112.335 49.86 157.83c31.323 43.687 75.702 76.251 124.961 91.694 13.71 4.299 27.938 6.469 42.053 6.469 8.029 0 16.025-.703 23.862-2.116 22.434-4.044 43.168-13.864 59.961-28.399 24.626-21.314 33.779-46.825 27.208-75.823-5.383-23.758-20.077-46.616-35.634-70.817zM116 151c24.813 0 45 20.187 45 45s-20.187 45-45 45-45-20.187-45-45 20.187-45 45-45zm0 210c-24.813 0-45-20.187-45-45s20.187-45 45-45 45 20.187 45 45-20.187 45-45 45zm80 95c-24.813 0-45-20.187-45-45s20.187-45 45-45 45 20.187 45 45-20.187 45-45 45zm0-310c-24.813 0-45-20.187-45-45s20.187-45 45-45 45 20.187 45 45-20.187 45-45 45z" fill="#000000"/><g><path d="M478.202 63.99L445.955 7.558a15 15 0 0 0-26.046 0L387.661 63.99c-9.328 16.324-9.264 35.778.174 52.04a52.934 52.934 0 0 0 8.473 10.97h73.247a52.9 52.9 0 0 0 8.473-10.97c9.438-16.261 9.503-35.716.174-52.04z" fill="#000000"/><path d="M374.33 242h117.205l4.318-46.783c.902-9.777-2.374-19.546-8.99-26.801S470.821 157 461.001 157h-56.138c-9.819 0-19.246 4.161-25.862 11.416s-9.893 17.023-8.99 26.801z" fill="#000000"/><path d="M377.099 272l19.059 206.463C397.921 497.582 413.731 512 432.932 512c19.2 0 35.01-14.417 36.775-33.536L488.765 272z" fill="#000000"/></g></g></svg>