<svg xmlns="http://www.w3.org/2000/svg" height="512" viewBox="0 0 512.058 512" width="512"><title>asteroids</title><g class="nc-icon-wrapper" fill="#000000"><path d="M218.367 430.797a18.286 18.286 0 0 0-12.926 31.215c7.235 6.902 18.618 6.902 25.856 0a18.289 18.289 0 0 0-12.93-31.215zm0 0" fill="#000000"/><path d="M283.473 82.254a18.286 18.286 0 0 0-12.926 31.215c7.234 6.91 18.621 6.91 25.855 0a18.289 18.289 0 0 0-12.93-31.215zm0 0" fill="#000000"/><path d="M100.617 310.824a18.289 18.289 0 0 0-12.93 31.215c7.235 6.91 18.626 6.91 25.856 0a18.286 18.286 0 0 0-12.926-31.215zm0 0" fill="#000000"/><path d="M246.902 255.969a18.287 18.287 0 0 0-12.925 31.215c7.23 6.91 18.62 6.91 25.855 0a18.292 18.292 0 0 0 3.961-19.926 18.283 18.283 0 0 0-16.89-11.29zm0 0" fill="#000000"/><path d="M356.617 347.398a9.135 9.135 0 0 0-8.832 6.774 9.138 9.138 0 0 0 4.258 10.285 9.143 9.143 0 1 0 4.574-17.059zm0 0" fill="#000000"/><path d="M502.977 216.535l-35.73-94.91a143.837 143.837 0 0 0-89.602-84.691L280.73 6.543A142.938 142.938 0 0 0 158.22 24.418L73.363 81.047A144.057 144.057 0 0 0 9.582 187.516L.586 289a140.35 140.35 0 0 0 43.512 114.938l73.672 69.55a140.594 140.594 0 0 0 117.73 36.989l101.004-14.278c43.05-6.246 81-31.554 103.312-68.902l51.887-87.992v-.063a140.884 140.884 0 0 0 11.274-122.707zM126.473 354.97c-12.34 12.336-31.672 14.234-46.18 4.539-14.504-9.695-20.14-28.29-13.461-44.406 6.68-16.118 23.816-25.274 40.926-21.864 17.113 3.407 29.433 18.426 29.43 35.875a36.35 36.35 0 0 1-10.715 25.856zM91.94 218.94c-21.593-21.59-24.925-55.425-7.964-80.812 16.964-25.39 49.5-35.258 77.707-23.574 28.21 11.683 44.238 41.672 38.277 71.617-5.957 29.945-32.238 51.512-62.773 51.512A63.604 63.604 0 0 1 91.94 218.94zm109.247 146.743a8.77 8.77 0 0 1-5.668 8.41 9.085 9.085 0 0 1-3.473.73 9.04 9.04 0 0 1-6.492-2.648 9.043 9.043 0 0 1-2.653-6.492c.012-1.2.262-2.383.73-3.485a10.5 10.5 0 0 1 1.923-3.008 9.322 9.322 0 0 1 9.965-1.93 10.878 10.878 0 0 1 3.015 1.93 10.5 10.5 0 0 1 1.922 3.008 9.128 9.128 0 0 1 .73 3.485zm43.035 109.257c-12.336 12.332-31.672 14.235-46.176 4.54-14.504-9.692-20.145-28.282-13.465-44.403 6.676-16.117 23.809-25.273 40.922-21.871 17.11 3.406 29.434 18.422 29.434 35.867a36.344 36.344 0 0 1-10.715 25.867zm27.43-93.625a9.427 9.427 0 0 1-3.016 1.922 9.19 9.19 0 0 1-3.45.73 9.056 9.056 0 0 1-6.492-2.652 9.04 9.04 0 0 1-2.648-6.492 9.085 9.085 0 0 1 .73-3.472 10.556 10.556 0 0 1 1.918-3.016 9.298 9.298 0 0 1 9.97-1.922 8.234 8.234 0 0 1 4.937 4.938 9.233 9.233 0 0 1 .73 3.472 9.624 9.624 0 0 1-2.652 6.492zm1.077-81.207c-12.351 12.325-31.687 14.204-46.18 4.496-14.495-9.71-20.112-28.308-13.421-44.417 6.695-16.114 23.836-25.25 40.945-21.829 17.11 3.418 29.418 18.45 29.399 35.895a36.326 36.326 0 0 1-10.715 25.855zm8.067-110.82a9.625 9.625 0 0 1-3.02 1.922 9.184 9.184 0 0 1-3.445.758 9.043 9.043 0 0 1-6.492-2.653 9.043 9.043 0 0 1-2.652-6.492 9.198 9.198 0 0 1 .73-3.48 10.446 10.446 0 0 1 1.922-3.008 9.322 9.322 0 0 1 9.965-1.93 10.777 10.777 0 0 1 3.02 1.93 10.517 10.517 0 0 1 1.917 3.008 9.124 9.124 0 0 1 .73 3.48 9.608 9.608 0 0 1-2.648 6.465zm28.504-62.894c-12.348 12.324-31.684 14.203-46.18 4.496-14.496-9.711-20.113-28.305-13.418-44.418 6.692-16.11 23.836-25.25 40.942-21.828 17.109 3.421 29.418 18.449 29.402 35.894a36.33 36.33 0 0 1-10.719 25.856zm66.68 249.539c-9.266 9.234-23.766 10.64-34.637 3.355-10.867-7.285-15.078-21.23-10.055-33.312 5.027-12.082 17.883-18.934 30.715-16.364 12.828 2.57 22.059 13.844 22.043 26.926a27.349 27.349 0 0 1-8.04 19.402zm60.269-49.473a9.44 9.44 0 0 1-3.016 1.918 9.166 9.166 0 0 1-3.476.734 9.072 9.072 0 0 1-6.492-2.652 9.055 9.055 0 0 1-1.918-9.965 10.557 10.557 0 0 1 1.922-3.02 9.296 9.296 0 0 1 9.964-1.917 8.224 8.224 0 0 1 4.938 4.937 9.143 9.143 0 0 1 .73 3.473 9.606 9.606 0 0 1-2.652 6.492zm20.473-80.094c-21.594 21.586-55.426 24.914-80.813 7.95-25.383-16.965-35.25-49.5-23.562-77.708s41.672-44.23 71.617-38.27c29.945 5.958 51.512 32.24 51.508 62.774a63.568 63.568 0 0 1-18.75 45.254zm0 0" fill="#000000"/><path d="M411.473 155.398c-21.809 0-40.582 15.407-44.836 36.797-4.254 21.39 7.195 42.809 27.343 51.153 20.153 8.343 43.391 1.293 55.504-16.844 12.118-18.133 9.735-42.3-5.691-57.723a45.401 45.401 0 0 0-32.32-13.383zm0 0" fill="#000000"/><path d="M169.508 141.355c-15.422-15.421-39.59-17.796-57.723-5.68-18.129 12.118-25.176 35.36-16.828 55.505 8.344 20.148 29.762 31.593 51.152 27.34 21.391-4.258 36.793-23.028 36.793-44.836a45.398 45.398 0 0 0-13.394-32.329zm0 0" fill="#000000"/></g></svg>