<svg id="bold" height="512" viewBox="0 0 24 24" width="512" xmlns="http://www.w3.org/2000/svg"><title>autumn</title><g class="nc-icon-wrapper" fill="#000000"><path d="M19.09 17.686c.321-.243.62-.503.896-.778 2.826-2.825 3.036-7.096 3.043-7.276.009-.21-.07-.414-.219-.562s-.343-.239-.563-.218c-.124.005-2.642.132-5.086 1.445C17.14 4.784 12.712.425 12.523.242a.75.75 0 0 0-1.045 0c-.189.182-4.617 4.541-4.638 10.054-2.444-1.313-4.962-1.44-5.086-1.445-.235-.024-.414.069-.564.217a.753.753 0 0 0-.218.563c.007.181.217 4.451 3.043 7.276.275.275.574.535.896.778a10.062 10.062 0 0 0-2.728 1.683.75.75 0 0 0-.002 1.105c.102.094 2.525 2.291 5.589 2.291 1.206 0 2.31-.339 3.229-.768v1.033a1 1 0 1 0 2 0v-1.033c.92.429 2.023.768 3.229.768 3.063 0 5.487-2.197 5.589-2.291a.753.753 0 0 0-.001-1.105c-.057-.054-1.129-1.023-2.726-1.682z"/></g></svg>