<svg xmlns="http://www.w3.org/2000/svg" height="512" viewBox="-82 0 512 512.001" width="512"><title>baby</title><g class="nc-icon-wrapper" fill="#000000"><path d="M60.66 375.004C46.41 403.426 38.824 435 38.824 467.387 38.824 491.988 58.84 512 83.441 512c24.598 0 44.614-20.016 44.614-44.617 0-7.383.687-14.656 2.02-21.762-32.055-12.473-57.485-38.3-69.415-70.617zm0 0" fill="#000000"/><path d="M217.07 445.621a118.366 118.366 0 0 1 2.016 21.766c0 24.597 20.016 44.613 44.617 44.613s44.613-20.016 44.613-44.613c0-32.387-7.582-63.961-21.836-92.383-11.93 32.316-37.359 58.144-69.41 70.617zm0 0" fill="#000000"/><path d="M333.797 209.844c17.765-17.762 17.765-46.664 0-64.43-8.602-8.605-20.047-13.344-32.215-13.344s-23.61 4.739-32.21 13.344c-31.13 31.125-61.567 45.621-95.802 45.621-34.23 0-64.672-14.496-95.797-45.62-17.761-17.763-46.664-17.763-64.43 0C4.739 154.02 0 165.46 0 177.628s4.738 23.61 13.344 32.215c17.719 17.719 46.094 39.93 70.176 52.16v35.203h180.105v-35.203c24.078-12.23 52.453-34.438 70.172-52.16zm0 0" fill="#000000"/><path d="M83.516 327.465v5.988c0 49.656 40.398 90.055 90.054 90.055s90.055-40.399 90.055-90.055v-5.988zm0 0" fill="#000000"/><path d="M173.57 167.672c30.88 0 57.895-16.793 72.442-41.715a83.296 83.296 0 0 0 11.394-42.121C257.406 37.609 219.796 0 173.57 0S89.734 37.61 89.734 83.836c0 15.348 4.164 29.73 11.395 42.117 14.547 24.922 41.562 41.719 72.441 41.719zm0 0" fill="#000000"/></g></svg>