<svg xmlns="http://www.w3.org/2000/svg" id="Capa_1" height="512" viewBox="0 0 512 512" width="512"><title>baking</title><g class="nc-icon-wrapper" fill="#000000"><path d="M88.836 390.714h305.429v-238C394.265 68.507 325.757 0 241.55 0S88.836 68.507 88.836 152.714v72.978l-4.456-4.456c-19.271-19.272-50.631-19.272-69.902 0C5.142 230.572 0 242.985 0 256.188s5.142 25.615 14.478 34.951l74.358 74.359zm206.832-184.143h30v133.286h-30zm-68.857 0h30v133.286h-30zm-68.858 0h30v133.286h-30z" fill="#000000"/><path d="M462.571 413.143c-11.913 0-25.273 6.915-40.847 21.139-5.345 4.882-9.956 9.733-13.175 13.29h-14.285v-26.857H88.836v56.857h319.713c3.219 3.557 7.83 8.407 13.175 13.29C437.298 505.085 450.658 512 462.571 512 489.826 512 512 489.826 512 462.571s-22.174-49.428-49.429-49.428zm0 68.857c-4.753 0-16.358-8.59-27.031-19.439 10.651-10.842 22.25-19.418 27.031-19.418 10.713 0 19.429 8.715 19.429 19.428S473.284 482 462.571 482z" fill="#000000"/></g></svg>