<svg xmlns="http://www.w3.org/2000/svg" version="1.1" id="Capa_1" x="0" y="0" viewBox="0 0 512 512" xml:space="preserve" width="512" height="512" enable-background="new 0 0 512 512"><title>balloon</title><g class="nc-icon-wrapper" fill="#000000"><path d="M275.938 318.145c75.244-12.632 129.396-94.668 129.396-168.811C405.333 66.99 338.344 0 256 0S106.667 66.99 106.667 149.333c0 74.143 54.152 156.18 129.396 168.811l-20.594 27.46a10.663 10.663 0 0 0 8.532 17.063h20.535c-1.46 9.069-4.767 14.905-8.462 21.375-5.657 9.906-12.074 21.125-12.074 42.625s6.417 32.719 12.073 42.625c4.969 8.698 9.26 16.208 9.26 32.042 0 5.896 4.771 10.667 10.667 10.667s10.667-4.771 10.667-10.667c0-21.5-6.417-32.719-12.073-42.625-4.969-8.698-9.26-16.208-9.26-32.042s4.292-23.344 9.26-32.042c4.604-8.064 9.521-17.316 11.262-31.958H288c4.042 0 7.729-2.281 9.542-5.896a10.665 10.665 0 0 0-1.01-11.167l-20.594-27.459zm-57.855-245.26c-26.156 13.042-43.688 38.063-46.885 66.958-.604 5.458-5.229 9.49-10.594 9.49-.385 0-.792-.021-1.188-.063-5.854-.656-10.073-5.927-9.427-11.781 4.01-36.125 25.906-67.417 58.573-83.688a10.666 10.666 0 0 1 14.313 4.781c2.625 5.272.479 11.678-4.792 14.303z" fill="#000000"/><path d="M512 213.333c0-45.927-29.552-86.5-73.542-100.948-3.531-1.146-7.385-.417-10.208 1.979a10.685 10.685 0 0 0-3.677 9.729c1.427 9.552 2.094 17.573 2.094 25.24 0 57.292-29.427 118.479-74.958 155.896a10.685 10.685 0 0 0-3.896 8.417 10.662 10.662 0 0 0 4.177 8.292c11.639 8.922 24.233 14.703 37.052 17.458l-3.917 7.833a10.643 10.643 0 0 0 .469 10.375 10.67 10.67 0 0 0 9.073 5.063h1.139c2.223 10.451 7.424 17.113 11.861 22.667 5.021 6.271 8.333 10.406 8.333 20s-3.313 13.729-8.333 20c-5.792 7.25-13 16.26-13 33.333a10.66 10.66 0 0 0 10.667 10.667 10.66 10.66 0 0 0 10.667-10.667c0-9.594 3.313-13.729 8.333-20 5.792-7.25 13-16.26 13-33.333 0-17.073-7.208-26.083-13-33.333-2.784-3.477-4.956-6.374-6.417-9.832 2.901-.559 5.568-1.999 7.156-4.564a10.643 10.643 0 0 0 .469-10.375l-3.932-7.865c51.286-11.266 90.39-73.5 90.39-126.032z" fill="#000000"/><path d="M171.375 313.5c-51.458-35.938-86.042-101.917-86.042-164.167 0-21.708 4.167-43.063 12.375-63.479a10.66 10.66 0 0 0-2.229-11.396c-2.958-3.042-7.417-4.063-11.323-2.604C33.823 90.24 0 138.521 0 192c0 63.688 47.595 136.75 111.526 147.762l-3.734 7.467a10.643 10.643 0 0 0 .469 10.375c1.716 2.771 4.65 4.345 7.835 4.74-1.509 6.232-4.279 10.702-7.637 15.74C102.906 386.406 96 396.771 96 416c0 19.229 6.906 29.594 12.458 37.917 4.958 7.438 8.875 13.313 8.875 26.083 0 5.896 4.771 10.667 10.667 10.667s10.667-4.771 10.667-10.667c0-19.229-6.906-29.594-12.458-37.917-4.958-7.438-8.875-13.313-8.875-26.083 0-12.771 3.917-18.646 8.875-26.083 4.401-6.598 9.504-14.688 11.492-27.25h.966a10.67 10.67 0 0 0 9.073-5.063 10.643 10.643 0 0 0 .469-10.375l-3.867-7.736c8.494-1.493 16.967-3.742 25.326-7.525a10.666 10.666 0 0 0 6.229-8.74 10.679 10.679 0 0 0-4.522-9.728z" fill="#000000"/></g></svg>