<svg xmlns="http://www.w3.org/2000/svg" id="Capa_1" height="512" viewBox="0 0 512 512" width="512"><title>ball</title><g class="nc-icon-wrapper" fill="#000000"><circle cx="256" cy="146" r="25" fill="#000000"/><path d="M342.811 32.878c-15.494 32.259-31.592 59.267-44.077 78.55a54.874 54.874 0 0 1 10.3 20.03c28.758 3.222 56.984 10.406 84.07 21.414 42.95 17.455 81.439 44.058 114.399 79.067l3.708 3.939C503.457 136.621 438.85 53.08 350.012 17.882z" fill="#000000"/><path d="M196.232 19.89c14.576 30.348 29.704 55.835 41.561 74.221C243.496 92.104 249.62 91 256 91s12.504 1.104 18.207 3.111c11.857-18.386 26.985-43.873 41.561-74.221l5.498-11.447C300.421 2.943 278.549 0 256 0s-44.421 2.943-65.266 8.443z" fill="#000000"/><path d="M112.127 458.313c10.121-120.164 64.695-222.37 100.805-278.166a54.896 54.896 0 0 1-9.651-18.497c-44.055 5.533-115.102 25.166-176.941 90.854L1.075 279.338c7.07 77.856 49.138 145.75 110.31 187.784z" fill="#000000"/><path d="M485.66 252.504c-61.84-65.688-132.887-85.321-176.941-90.854a54.869 54.869 0 0 1-9.651 18.497c36.11 55.797 90.684 158.003 100.805 278.166l.742 8.809c61.172-42.033 103.24-109.927 110.31-187.784z" fill="#000000"/><path d="M4.496 231.939c32.96-35.01 71.449-61.612 114.399-79.067 27.086-11.008 55.312-18.192 84.07-21.414a54.874 54.874 0 0 1 10.3-20.03c-12.485-19.283-28.582-46.292-44.077-78.55l-7.203-14.995C73.15 53.081 8.542 136.622.788 235.878z" fill="#000000"/><path d="M369.979 460.831c-9.51-112.911-60.82-209.615-95.275-263.11C268.862 199.84 262.564 201 256 201s-12.862-1.16-18.704-3.279c-34.455 53.496-85.765 150.2-95.275 263.11l-1.968 23.369C174.883 501.969 214.291 512 256 512s81.117-10.031 115.947-27.8z" fill="#000000"/></g></svg>