<svg xmlns="http://www.w3.org/2000/svg" version="1.1" id="Capa_1" x="0" y="0" viewBox="0 0 512 512" xml:space="preserve" width="512" height="512" enable-background="new 0 0 512 512"><title>bar</title><g class="nc-icon-wrapper" fill="#000000"><path fill="#000000" d="M242.242 337.063h27.52l-13.765-41.275z"/><path d="M358.4 277.33h-8.533v34.133h8.533c9.412 0 17.067-7.654 17.067-17.067 0-9.412-7.655-17.066-17.067-17.066z" fill="#000000"/><path d="M153.6 277.33h-17.067v34.133H153.6c9.412 0 17.067-7.654 17.067-17.067 0-9.412-7.655-17.066-17.067-17.066z" fill="#000000"/><path d="M153.6 328.53h-17.067v34.133H153.6c9.412 0 17.067-7.654 17.067-17.067 0-9.412-7.655-17.066-17.067-17.066z" fill="#000000"/><path d="M410.386 234.662h-308.77c-10.223 22.229-28.194 40.192-50.415 50.415v69.837c22.221 10.223 40.192 28.194 50.415 50.415h308.77c10.223-22.221 28.186-40.192 50.415-50.415v-69.837c-22.229-10.223-40.192-28.185-50.415-50.415zM187.734 345.596c0 18.824-15.309 34.133-34.133 34.133h-25.6a8.536 8.536 0 0 1-8.533-8.533v-102.4a8.536 8.536 0 0 1 8.533-8.533h25.6c18.825 0 34.133 15.317 34.133 34.133 0 10.24-4.634 19.336-11.793 25.6 7.16 6.263 11.793 15.36 11.793 25.6zm105.097 33.698a8.531 8.531 0 0 1-2.697.444 8.553 8.553 0 0 1-8.098-5.837l-6.588-19.772h-38.895l-6.588 19.772a8.554 8.554 0 0 1-8.098 5.837 8.495 8.495 0 0 1-2.697-.444c-4.471-1.493-6.895-6.323-5.402-10.795l2.56-7.689c2.133-6.391 4.267-12.783 6.4-19.183l8.286-24.858c2.748-8.252 5.495-16.495 8.252-24.747 2.091-6.281 4.181-12.544 6.272-18.825 1.766-5.316 3.251-12.604 10.197-12.817 7.509-.239 9.079 7.885 10.94 13.466 2.099 6.281 4.19 12.561 6.281 18.833 2.714 8.132 5.419 16.265 8.132 24.388l8.141 24.448 6.332 18.97c.887 2.662 1.775 5.333 2.671 8.013a8.542 8.542 0 0 1-5.401 10.796zm97.724-13.56c3.021 3.618 2.526 9.003-1.092 12.015a8.497 8.497 0 0 1-5.461 1.98 8.497 8.497 0 0 1-6.554-3.072l-27.58-33.092v27.631a8.536 8.536 0 0 1-8.533 8.533 8.536 8.536 0 0 1-8.533-8.533v-102.4a8.536 8.536 0 0 1 8.533-8.533h17.067c18.825 0 34.133 15.317 34.133 34.133 0 18.458-14.754 33.451-33.075 34.022l31.095 37.316z" fill="#000000"/><path d="M503.467 243.2c-28.237 0-51.2-22.972-51.2-51.2a8.53 8.53 0 0 0-8.533-8.533h-14.319c-13.551-9.728-85.769-61.406-131.26-90.351-2.509-21.137-20.344-37.649-42.155-37.649s-39.646 16.512-42.155 37.649c-45.491 28.945-117.709 80.623-131.26 90.351H68.267A8.53 8.53 0 0 0 59.734 192c0 28.228-22.963 51.2-51.2 51.2a8.53 8.53 0 0 0-8.533 8.533v136.533a8.536 8.536 0 0 0 8.533 8.533c28.237 0 51.2 22.963 51.2 51.2a8.536 8.536 0 0 0 8.533 8.533h375.467a8.536 8.536 0 0 0 8.533-8.533c0-28.237 22.963-51.2 51.2-51.2a8.536 8.536 0 0 0 8.533-8.533V251.733a8.53 8.53 0 0 0-8.533-8.533zM256 72.533c14.114 0 25.6 11.477 25.6 25.6 0 14.114-11.486 25.6-25.6 25.6s-25.6-11.486-25.6-25.6c0-14.122 11.486-25.6 25.6-25.6zm-40.124 39.561C221.688 128.742 237.389 140.8 256 140.8s34.313-12.058 40.124-28.706c33.4 21.641 77.841 52.855 103.91 71.373H111.966c26.069-18.518 70.511-49.733 103.91-71.373zM477.867 360.55a8.527 8.527 0 0 1-5.419 7.945c-22.135 8.67-39.808 26.342-48.478 48.478a8.522 8.522 0 0 1-7.945 5.427H95.974a8.522 8.522 0 0 1-7.945-5.427c-8.67-22.135-26.342-39.808-48.478-48.478a8.528 8.528 0 0 1-5.419-7.945v-81.109a8.528 8.528 0 0 1 5.419-7.945c22.135-8.67 39.808-26.342 48.478-48.478a8.528 8.528 0 0 1 7.945-5.419h320.051a8.527 8.527 0 0 1 7.945 5.419c8.67 22.135 26.342 39.808 48.478 48.478a8.528 8.528 0 0 1 5.419 7.945v81.109z" fill="#000000"/></g></svg>