<svg xmlns="http://www.w3.org/2000/svg" version="1.1" id="Capa_1" x="0" y="0" viewBox="0 0 511.949 511.949" xml:space="preserve" width="512" height="512" enable-background="new 0 0 511.949 511.949"><title>baseball</title><g class="nc-icon-wrapper" fill="#000000"><path d="M289.901 483.74l-21.986.601-.254.005a9.143 9.143 0 0 1-.245-18.282l14.85-.408c-3.116-6.819-6.333-13.579-9.813-20.181l-21.934 2.911a9.142 9.142 0 0 1-2.401-18.125l14.633-1.941c-3.826-6.465-7.865-12.776-12.036-18.997l-21.244 5.126a9.143 9.143 0 0 1-4.285-17.777l14.16-3.417c-4.469-6.009-9.069-11.902-13.857-17.643l-20.504 7.284a9.145 9.145 0 0 1-6.125-17.233l13.801-4.901a417.983 417.983 0 0 0-15.664-16.093l-19.669 9.405a9.144 9.144 0 0 1-12.194-4.306 9.144 9.144 0 0 1 4.306-12.194l13.025-6.227a423.726 423.726 0 0 0-17.222-14.361l-18.419 11.316a9.142 9.142 0 1 1-9.571-15.58l12.301-7.559c-6.074-4.34-12.233-8.555-18.544-12.558l-17.231 13.251a9.141 9.141 0 0 1-11.143-14.492l11.605-8.927c-6.499-3.696-13.147-7.139-19.855-10.477l-15.808 15.033a9.14 9.14 0 0 1-15.206-4.474 9.142 9.142 0 0 1 2.608-8.777l10.555-10.039a402.342 402.342 0 0 0-20.774-8.414L41.6 271.907a9.144 9.144 0 1 1-13.92-11.857l9.577-11.239c-12.011-3.821-24.268-7.006-36.698-9.692C-7.465 360.776 71.732 471.1 189.564 502.411a204.49 204.49 0 0 0 24.634 5.326c4.089.741 7.978 1.201 11.875 1.665 1.23.211 2.475.326 3.723.344l1.214.08c5.16.661 10.356 1.014 15.558 1.058l.205.004.196-.049 1.299.054c16.86.639 33.74-.496 50.362-3.384a506.27 506.27 0 0 0-4.372-12.95c-1.335-3.665-2.917-7.205-4.357-10.819z" fill="#000000"/><path d="M511.827 248.9l-.018-.576.049-.58-.17-.835.049-.728a145.396 145.396 0 0 0-1.071-15.281l-.067-1.103a19.79 19.79 0 0 0-.299-3.196c-.446-4.254-.982-8.147-1.67-11.893a207.797 207.797 0 0 0-5.5-24.942 252.665 252.665 0 0 0-66-114.045C374.696 13.129 284.272-12.614 198.233 7.707c4.54 12.53 9.577 24.809 15.285 36.71l9.818-11.072a9.143 9.143 0 0 1 13.679 12.134l-14.496 16.348a408.467 408.467 0 0 0 11.223 19.398l8.479-11.858a9.144 9.144 0 0 1 15.793 1.512 9.141 9.141 0 0 1-.918 9.122l-12.689 17.744c4.236 6.182 8.576 12.284 13.138 18.208l7.224-12.733a9.14 9.14 0 0 1 15.902 9.018l-10.752 18.956c4.841 5.694 9.88 11.2 15.022 16.612l5.792-13.282a9.144 9.144 0 0 1 16.759 7.312l-8.656 19.846a392.15 392.15 0 0 0 16.623 15.052l4.363-13.787a9.145 9.145 0 1 1 17.438 5.518l-6.581 20.795c5.92 4.584 11.936 9.047 18.107 13.3l2.948-14.39a9.141 9.141 0 0 1 17.911 3.669l-4.368 21.337c6.354 3.939 12.834 7.669 19.409 11.256l1.414-14.513a9.142 9.142 0 0 1 18.197 1.777l-2.118 21.743c6.74 3.259 13.55 6.377 20.485 9.263l-.112-14.743a9.143 9.143 0 0 1 9.071-9.21h.071a9.146 9.146 0 0 1 9.143 9.076l.168 22.101c7.02 2.523 14.161 4.76 21.345 6.895l-1.66-14.723a9.142 9.142 0 1 1 18.169-2.053l2.462 21.816c3.819.932 7.583 2.015 11.44 2.836 5.924 1.271 12.266 2.398 18.869 3.472.307-6.495.431-12.941.197-19.269z" fill="#000000"/><path d="M477.742 279.803l-11.491 19.561a9.144 9.144 0 0 1-12.504 3.227 9.144 9.144 0 0 1-3.263-12.495l8.845-15.053c-8.041-2.34-16.015-4.849-23.86-7.655l-13.368 18.109a9.144 9.144 0 0 1-14.715-10.857l10.474-14.188a431.47 431.47 0 0 1-22.839-10.186l-15.385 16.829a9.145 9.145 0 0 1-13.501-12.339l11.966-13.086a404.897 404.897 0 0 1-21.684-12.473l-17.09 15.157a9.142 9.142 0 1 1-12.134-13.678l13.221-11.725c-6.894-4.694-13.61-9.63-20.209-14.718l-18.592 13.292a9.142 9.142 0 1 1-10.634-14.875l14.551-10.405a426.891 426.891 0 0 1-18.613-16.69L266.92 186.9a9.143 9.143 0 1 1-9.026-15.902l15.488-8.786c-5.784-6.016-11.424-12.169-16.849-18.522l-20.925 9.125a9.142 9.142 0 1 1-7.312-16.759l16.276-7.098c-5.124-6.575-10.023-13.325-14.76-20.208l-21.776 6.895a9.03 9.03 0 0 1-2.763.433 9.144 9.144 0 0 1-2.754-17.862l16.929-5.361a409.962 409.962 0 0 1-12.626-21.626l-22.324 4.567a8.947 8.947 0 0 1-1.839.188 9.143 9.143 0 0 1-1.821-18.098l17.125-3.506a417.767 417.767 0 0 1-17.479-41.978c-.283.091-.586.143-.869.238l-.362.379-2.772.701c-1.72.419-3.414.941-5.071 1.563-1.902.679-3.799 1.357-5.625 2.116-2.018.741-3.652 1.326-5.21 1.991A255.473 255.473 0 0 0 18.541 160.797a34.244 34.244 0 0 0-1.621 4.201l-.459 1.299c-.786 1.781-1.429 3.567-2.076 5.353-.5 1.491-1.018 3.027-1.46 4.643-1.835 5.366-3.054 9.433-4.009 13.397-.629 1.987-.969 3.277-1.312 4.567a261.065 261.065 0 0 0-5.08 26.578 417.281 417.281 0 0 1 42.452 11.204l1.092-17.492a9.143 9.143 0 0 1 18.25 1.142l-1.422 22.758a424.323 424.323 0 0 1 23.17 9.498l2.958-17.532a9.141 9.141 0 1 1 18.027 3.045l-3.799 22.527c7.472 3.735 14.838 7.647 22.06 11.808l4.771-17.112a9.144 9.144 0 0 1 17.616 4.911l-6.147 22.049c7.042 4.489 13.919 9.21 20.677 14.101l6.568-16.614a9.145 9.145 0 1 1 17.01 6.724l-8.47 21.426a422.057 422.057 0 0 1 19.114 16.103l8.298-15.89a9.142 9.142 0 0 1 15.823-.671 9.142 9.142 0 0 1 .387 9.135l-10.587 20.28c5.955 5.824 11.778 11.787 17.386 17.957l9.776-14.737a9.144 9.144 0 1 1 15.24 10.107l-12.654 19.071a438.756 438.756 0 0 1 15.371 19.72l11.31-13.685c3.218-3.893 8.982-4.441 12.875-1.223s4.441 8.982 1.223 12.875l-14.529 17.579a406.104 406.104 0 0 1 13.273 21.19l12.582-12.336c2.33-2.295 5.709-3.17 8.86-2.295a9.142 9.142 0 0 1 3.943 15.348l-16.071 15.755c3.874 7.378 7.476 14.922 10.917 22.558l13.659-10.835a9.141 9.141 0 0 1 12.823 1.494c3.132 3.947 2.481 9.684-1.457 12.827l-17.74 14.075c1.419 3.579 2.989 7.078 4.311 10.706a525.024 525.024 0 0 1 5.187 15.508c1.86-.444 3.62-.819 5.581-1.329a218.515 218.515 0 0 0 21.232-6.634 202.54 202.54 0 0 0 20.987-8.728 254.498 254.498 0 0 0 123.419-122.875 201.125 201.125 0 0 0 8.839-21.063 219.66 219.66 0 0 0 6.679-21.205c2.112-8.071 3.652-15.223 4.705-21.87a261.917 261.917 0 0 0 2.04-13.744c-7.444-1.187-14.563-2.438-21.2-3.867-3.777-.804-7.457-1.871-11.197-2.776z" fill="#000000"/></g></svg>