<svg xmlns="http://www.w3.org/2000/svg" height="512" viewBox="0 0 58 58" width="512"><title>basketball</title><g class="nc-icon-wrapper"><g id="Page-1" fill="none" fill-rule="evenodd"><g id="033---Ball" fill="#000" fill-rule="nonzero"><path id="Shape" d="M56.92 14.8c-3.944.859-9.406-1.328-13.731-5.583.2-.161.4-.33.6-.489a64.51 64.51 0 0 1 5.922-4.164A22 22 0 0 1 51.7 6.3a21.4 21.4 0 0 1 5.22 8.5zm-19.544-3.192C32.477 7.616 27.717 4.914 24.039 4A21.285 21.285 0 0 1 35.521.048a21.428 21.428 0 0 0 4.762 8.97 84.717 84.717 0 0 0-2.907 2.59zM37.57.052c3.68.17 7.253 1.293 10.369 3.258a67.757 67.757 0 0 0-5.386 3.842c-.244.192-.486.4-.729.593A20.1 20.1 0 0 1 37.57.052zM21.3 6.3c.218-.217.454-.408.679-.615 3.349.235 8.575 2.98 13.946 7.321-.226.22-.454.434-.678.658l-.117.117c-.9.9-1.767 1.828-2.616 2.76a20.614 20.614 0 0 0-16.049-2.811A21.436 21.436 0 0 1 21.3 6.3zm12.3 13.713c5.485 5.485 6.3 14.64 2.126 22.949a21.3 21.3 0 0 1-13.917-5.8A49.576 49.576 0 0 1 30 22.6a77.19 77.19 0 0 1 2.762-3.343c.315.263.597.516.838.756zm-17.855-4.068c5.672-1.459 11.187-.714 15.425 2.1a80.722 80.722 0 0 0-2.746 3.328 52.888 52.888 0 0 0-8.187 14.163 21.32 21.32 0 0 1-4.492-19.591zM51.7 36.7a21.332 21.332 0 0 1-13.735 6.226c4.044-8.834 2.937-18.438-2.955-24.33a17.18 17.18 0 0 0-.913-.836c.794-.868 1.6-1.729 2.443-2.573l.115-.115c.264-.263.533-.517.8-.776a71.204 71.204 0 0 1 3.916 3.612c5.48 5.481 9.772 11.548 11.477 16.222.13.367.225.674.307.961A20.643 20.643 0 0 1 51.7 36.7zm2.889-3.6c-1.883-4.89-6.263-11.061-11.8-16.6a70.993 70.993 0 0 0-3.876-3.583 81.024 81.024 0 0 1 2.724-2.421c4.139 4.137 9.181 6.495 13.477 6.495a10.4 10.4 0 0 0 2.338-.264 21.343 21.343 0 0 1-2.86 16.373z" fill="#616161"/><path id="Shape" d="M3 46a1 1 0 0 1-.707-1.707l9-9a1 1 0 0 1 1.414 1.414l-9 9A1 1 0 0 1 3 46z" fill="#616161"/><path id="Shape" d="M1 58a1 1 0 0 1-.707-1.707l15-15a1 1 0 0 1 1.414 1.414l-15 15A1 1 0 0 1 1 58z" fill="#616161"/><path id="Shape" d="M13 56a1 1 0 0 1-.707-1.707l8-8a1 1 0 0 1 1.414 1.414l-8 8A1 1 0 0 1 13 56z" fill="#616161"/></g></g></g></svg>