<svg xmlns="http://www.w3.org/2000/svg" id="Capa_1" height="512" viewBox="0 0 512 512" width="512"><title>bedroom</title><g class="nc-icon-wrapper" fill="#000000"><path d="M482 286.341H0v130.103h30.024v30.025h30v-30.025h391.952v30.025h30v-30.025H512V286.341z" fill="#000000"/><path d="M241 255.195c0-15.937-12.965-28.902-28.902-28.902h-63.123c-15.937 0-28.902 12.966-28.902 28.902v1.146H241z" fill="#000000"/><path d="M391.928 256.341v-1.146c0-15.937-12.965-28.902-28.902-28.902h-63.124c-15.937 0-28.902 12.966-28.902 28.902v1.146z" fill="#000000"/><path d="M90.072 256.341v-1.146c0-32.479 26.423-58.902 58.902-58.902h63.123c17.43 0 33.108 7.616 43.902 19.688 10.794-12.072 26.473-19.688 43.902-19.688h63.124c32.479 0 58.902 26.424 58.902 58.902v1.146h60.048V136.245h-70.724C372.076 91.212 315.902 65.531 256 65.531s-116.076 25.681-155.253 70.714H30.024v120.096z" fill="#000000"/></g></svg>