<svg xmlns="http://www.w3.org/2000/svg" version="1.1" id="Capa_1" x="0" y="0" viewBox="0 0 512 512" xml:space="preserve" width="512" height="512" enable-background="new 0 0 512 512"><title>billiards</title><g class="nc-icon-wrapper" fill="#000000"><path d="M256 0C114.624 0 0 114.624 0 256s114.624 256 256 256 256-114.624 256-256S397.376 0 256 0zm0 416c-88.352 0-160-71.648-160-160S167.648 96 256 96s160 71.648 160 160-71.648 160-160 160z" fill="#000000"/><path d="M300.64 256c11.904-10.176 19.36-24.32 19.36-40 0-30.88-28.704-56-64-56s-64 25.12-64 56c0 15.68 7.456 29.824 19.36 40-11.904 10.176-19.36 24.32-19.36 40 0 30.88 28.704 56 64 56s64-25.12 64-56c0-15.68-7.456-29.824-19.36-40zM256 320c-17.344 0-32-11.008-32-24 0-13.024 14.656-24 32-24s32 10.976 32 24c0 12.992-14.656 24-32 24zm0-80c-17.344 0-32-10.976-32-24s14.656-24 32-24 32 10.976 32 24-14.656 24-32 24z" fill="#000000"/></g></svg>