<svg id="Capa_1" height="512" viewBox="0 0 512 512" width="512" xmlns="http://www.w3.org/2000/svg"><title>bingo</title><g class="nc-icon-wrapper" fill="#000000"><path d="M121 152v30h30v-30zm0 0v30h30v-30zm0 0v30h30v-30zm120 0v30h30v-30zm0 0v30h30v-30zm-120 0v30h30v-30zm0 0v30h30v-30zm120 0v30h30v-30zm120 0v30h30v-30zm0 120v30h30v-30zm0-120v30h30v-30zm0 120v30h30v-30zM241 152v30h30v-30zm-120 0v30h30v-30zm0 0v30h30v-30zm0 120v30h30v-30zm120-120v30h30v-30zm0 120v30h30v-30zm120-120v30h30v-30zm0 120v30h30v-30zm0-120v30h30v-30zm0 120v30h30v-30zM241 152v30h30v-30zm0 120v30h30v-30zM121 152v30h30v-30zm0 120v30h30v-30zm0-120v30h30v-30zm0 120v30h30v-30zm0 120v30h30v-30zm120-240v30h30v-30zm0 120v30h30v-30zm0 120v30h30v-30zm120-240v30h30v-30zm0 120v30h30v-30zm0-120v30h30v-30zm0 120v30h30v-30zM241 152v30h30v-30zm0 120v30h30v-30zm0 120v30h30v-30zM121 152v30h30v-30zm0 120v30h30v-30zm0 120v30h30v-30zM31 0v512h450V0zm60 62h30v30H91zm90 390H91v-90h90zm0-120H91v-90h90zm0-120H91v-90h90zm120 240h-90v-90h90zm0-120h-90v-90h90zm0-120h-90v-90h90zm120 240h-90v-90h90zm0-120h-90v-90h90zm0-120h-90v-90h90zm0-120H151V62h270zm-30 300h-30v30h30zm0-120h-30v30h30zm0-120h-30v30h30zM271 392h-30v30h30zm0-120h-30v30h30zm0-120h-30v30h30zM151 392h-30v30h30zm0-120h-30v30h30zm0-120h-30v30h30zm-30 240v30h30v-30zm0-120v30h30v-30zm0-120v30h30v-30zm120 120v30h30v-30zm0-120v30h30v-30zm120 120v30h30v-30zm0-120v30h30v-30zm0 120v30h30v-30zm0-120v30h30v-30zM241 272v30h30v-30zm0-120v30h30v-30zM121 392v30h30v-30zm0-120v30h30v-30zm0-120v30h30v-30zm0 0v30h30v-30zm120 120v30h30v-30zm0-120v30h30v-30zm120 120v30h30v-30zm0-120v30h30v-30zm0 120v30h30v-30zm0-120v30h30v-30zM241 272v30h30v-30zm0-120v30h30v-30zm-120 0v30h30v-30zm0 0v30h30v-30zm120 0v30h30v-30zm120 0v30h30v-30zm0 0v30h30v-30zm-120 0v30h30v-30zm-120 0v30h30v-30zm0 0v30h30v-30zm120 0v30h30v-30zm0 0v30h30v-30zm-120 0v30h30v-30z"/></g></svg>