<svg version="1.1" id="Capa_1" xmlns="http://www.w3.org/2000/svg" x="0" y="0" viewBox="0 0 512 512" xml:space="preserve" enable-background="new 0 0 512 512" width="512" height="512"><title>bird</title><g class="nc-icon-wrapper" fill="#000000"><path d="M138.077 229.326a15.126 15.126 0 0 0-10.61-4.39c-3.95 0-7.819 1.6-10.609 4.39a15.132 15.132 0 0 0-4.391 10.61c0 3.94 1.601 7.81 4.391 10.6a15.072 15.072 0 0 0 10.609 4.4c3.95 0 7.811-1.6 10.61-4.4 2.79-2.79 4.39-6.65 4.39-10.6 0-3.949-1.6-7.82-4.39-10.61z"/><path d="M395.134 229.326a15.111 15.111 0 0 0-10.6-4.39c-3.95 0-7.809 1.6-10.61 4.39-2.79 2.79-4.39 6.661-4.39 10.61s1.6 7.81 4.39 10.6c2.79 2.801 6.66 4.4 10.61 4.4s7.809-1.6 10.6-4.4c2.801-2.79 4.4-6.66 4.4-10.6 0-3.949-1.6-7.82-4.4-10.61z"/><path d="M496.597 205.293l-37.728-75.409a14.57 14.57 0 0 0-.6-1.199L442.742 97.65c-11.823-23.629-33.06-45.741-59.8-62.262-26.739-16.521-56.016-25.621-82.439-25.621h-89.002c-26.423 0-55.7 9.099-82.44 25.621-26.739 16.52-47.977 38.633-59.8 62.262l-15.873 31.725-37.983 75.918C3.633 228.82-1.673 259.197.463 290.826c2.138 31.629 11.482 61.016 26.312 82.746l33.167 48.603c14.696 21.536 38.475 41.682 66.958 56.727s58.528 23.332 84.601 23.332h89.002c26.073 0 56.118-8.286 84.601-23.332 28.482-15.046 52.262-35.19 66.96-56.727l33.168-48.604c14.826-21.731 24.169-51.116 26.306-82.745 2.136-31.63-3.17-62.007-14.941-85.533zm-278.189 98.99l37.593-37.592 37.592 37.592 7.404 7.404-44.996 68.025-44.996-68.025 7.403-7.404zm242.044 52.379l-33.167 48.601c-24.776 36.302-82.835 66.971-126.781 66.971h-89.002c-43.949 0-102.007-30.668-126.78-66.97l-33.167-48.603c-24.502-35.9-28.77-99.072-9.32-137.945l35.714-71.382c10.503-4.756 21.734-7.163 33.454-7.163 44.883 0 81.398 36.515 81.398 81.398l.002 65.896-11.673 11.673a14.983 14.983 0 0 0-4.392 10.36 14.964 14.964 0 0 0 2.487 8.522l64.266 97.157a15 15 0 0 0 25.021 0l64.267-97.157a14.948 14.948 0 0 0 2.487-8.522 14.983 14.983 0 0 0-4.392-10.36L319.2 287.464v-65.895c0-44.883 36.515-81.398 81.399-81.398 11.721 0 22.954 2.409 33.458 7.167l35.711 71.378c19.447 38.87 15.18 102.041-9.316 137.946z"/></g></svg>