<svg height="512" viewBox="0 0 32 32" width="512" xmlns="http://www.w3.org/2000/svg"><title>birthday</title><g class="nc-icon-wrapper" fill="#000000"><path d="M28 19h-1v-7c0-1.654-1.346-3-3-3h-1V6.788A2.503 2.503 0 0 0 24.5 4.5c0-1.093-1.228-2.58-1.756-3.168-.379-.423-1.109-.423-1.488 0C20.728 1.92 19.5 3.407 19.5 4.5c0 1.022.619 1.901 1.5 2.288V9h-4V6.788A2.503 2.503 0 0 0 18.5 4.5c0-1.093-1.228-2.58-1.756-3.168-.379-.423-1.109-.423-1.488 0C14.728 1.92 13.5 3.407 13.5 4.5c0 1.022.619 1.901 1.5 2.288V9h-4V6.788A2.503 2.503 0 0 0 12.5 4.5c0-1.093-1.228-2.58-1.756-3.168-.379-.423-1.109-.423-1.488 0C8.728 1.92 7.5 3.407 7.5 4.5c0 1.022.619 1.901 1.5 2.288V9H8c-1.654 0-3 1.346-3 3v7H4c-1.654 0-3 1.346-3 3v8a1 1 0 0 0 1 1h28a1 1 0 0 0 1-1v-8c0-1.654-1.346-3-3-3zM22 3.608c.278.396.476.742.5.892 0 .276-.224.5-.5.5s-.5-.224-.501-.475c.024-.164.223-.518.501-.917zm-6 0c.278.396.476.742.5.892 0 .276-.224.5-.5.5s-.5-.224-.501-.475c.024-.164.223-.518.501-.917zm-6 0c.278.396.476.742.5.892 0 .276-.224.5-.5.5s-.5-.224-.501-.475c.024-.164.223-.518.501-.917zM7 17.815c.314.113.647.185 1 .185 1.654 0 3-1.346 3-3 0-.551.449-1 1-1s1 .449 1 1c0 1.654 1.346 3 3 3s3-1.346 3-3c0-.551.449-1 1-1s1 .449 1 1c0 1.654 1.346 3 3 3 .353 0 .686-.072 1-.184V19H7zM29 29H3v-1.185c.314.113.647.185 1 .185 1.654 0 3-1.346 3-3 0-.551.449-1 1-1s1 .449 1 1c0 1.654 1.346 3 3 3s3-1.346 3-3c0-.551.449-1 1-1s1 .449 1 1c0 1.654 1.346 3 3 3s3-1.346 3-3c0-.551.449-1 1-1s1 .449 1 1c0 1.654 1.346 3 3 3 .353 0 .686-.072 1-.184z" id="_x30_1_birthday_cake"/></g></svg>