<svg xmlns="http://www.w3.org/2000/svg" id="Layer_3" height="512" viewBox="0 0 64 64" width="512"><title>boardcard</title><g class="nc-icon-wrapper" fill="#000000"><path d="M16.999 26.643l8.848-8.109a6.658 6.658 0 0 0 2.151-4.894A6.646 6.646 0 0 0 21.36 7a3.4 3.4 0 0 0-2.838 1.518l-.69 1.036A1.005 1.005 0 0 1 17 10h-.001a.998.998 0 0 1-.831-.445l-.691-1.036A3.403 3.403 0 0 0 12.639 7a6.648 6.648 0 0 0-6.64 6.64c0 1.855.784 3.64 2.152 4.894z" fill="#000000"/><path d="M27.999 33H6c-1.654 0-3 1.346-3 3v22c0 1.654 1.346 3 3 3h21.999c1.654 0 3-1.346 3-3V36c0-1.655-1.346-3-3-3zm-5 21.999a7 7 0 0 1-2.032-.3c.191.653.457 1.277.794 1.867l1.106 1.937a.998.998 0 0 1-.868 1.496H12a.998.998 0 0 1-.869-1.496l1.106-1.937a8.616 8.616 0 0 0 .794-1.867A7.008 7.008 0 0 1 4 47.998c0-3.521 2.611-6.442 6-6.929v-.071c0-3.86 3.14-7 7-7 3.859 0 6.999 3.14 6.999 7v.071c3.389.486 6 3.408 6 6.929a7.008 7.008 0 0 1-7 7.001z" fill="#000000"/><path d="M6 30.999h21.999c1.654 0 3-1.346 3-3V6c0-1.654-1.346-3-3-3H6C4.346 3 3 4.345 3 6v22a3.003 3.003 0 0 0 3 2.999zM12.639 5c1.73 0 3.343.82 4.36 2.208A5.394 5.394 0 0 1 21.36 5c4.763 0 8.638 3.875 8.638 8.639a8.66 8.66 0 0 1-2.801 6.368l-9.522 8.729a.996.996 0 0 1-1.351 0l-9.523-8.729a8.66 8.66 0 0 1-2.802-6.368C3.999 8.875 7.874 5 12.639 5z" fill="#000000"/><path d="M23.019 43l-.11.004a1.002 1.002 0 0 1-.987-1.164 4.98 4.98 0 0 0 .077-.84c0-2.757-2.242-5-4.999-5-2.758 0-5 2.243-5 5 0 .258.024.533.076.84a.998.998 0 0 1-.229.817c-.195.225-.447.382-.774.347-.021 0-.084-.003-.104-.005C8.242 43 6 45.242 6 47.999s2.242 5 5 5a4.972 4.972 0 0 0 2.804-.86 1.001 1.001 0 0 1 1.558.912 10.878 10.878 0 0 1-1.388 4.507l-.252.44h6.554l-.252-.44a10.877 10.877 0 0 1-1.388-4.508 1.002 1.002 0 0 1 1.558-.911c.829.563 1.799.86 2.804.86 2.758 0 5-2.243 5-5A5.002 5.002 0 0 0 23.019 43z" fill="#000000"/><path d="M57.999 33H36c-1.654 0-3 1.346-3 3v22c0 1.654 1.346 3 3 3h21.999c1.654 0 3-1.346 3-3V36c0-1.655-1.346-3-3-3zM56.8 47.599l-9 12a1 1 0 0 1-1.601 0l-9-12a.999.999 0 0 1 0-1.2l9-12c.379-.503 1.222-.504 1.601 0l9 12c.266.356.266.845 0 1.2z" fill="#000000"/><path d="M54.986 12.826l-7.987-6.535-7.987 6.535c-1.076.88-1.77 2.043-1.954 3.274-.226 1.516.192 2.981 1.179 4.124a5.106 5.106 0 0 0 3.869 1.774c.826 0 1.642-.24 2.358-.694a1.002 1.002 0 0 1 1.536.844v.245a12.86 12.86 0 0 1-1.28 5.605h4.56A12.838 12.838 0 0 1 48 22.394v-.245a.997.997 0 0 1 1.537-.843 4.383 4.383 0 0 0 2.356.694 5.102 5.102 0 0 0 3.869-1.774c.986-1.143 1.404-2.608 1.179-4.125-.185-1.231-.879-2.394-1.955-3.275z" fill="#000000"/><path d="M39.25 47L47 57.333 54.749 47 47 36.666z" fill="#000000"/><path d="M57.999 3H36c-1.654 0-3 1.346-3 3v22c0 1.654 1.346 3 3 3h21.999c1.654 0 3-1.346 3-3V6c0-1.655-1.346-3-3-3zm-.722 18.531a7.107 7.107 0 0 1-5.385 2.468c-.614 0-1.225-.09-1.812-.266a10.87 10.87 0 0 0 1.75 4.711.998.998 0 0 1-.833 1.554H43a1 1 0 0 1-.833-1.554 10.881 10.881 0 0 0 1.751-4.712 6.313 6.313 0 0 1-1.812.266 7.105 7.105 0 0 1-5.385-2.468 7.144 7.144 0 0 1-1.641-5.726c.258-1.724 1.204-3.332 2.665-4.527l8.621-7.054c.369-.299.897-.3 1.267 0l8.62 7.053c1.461 1.195 2.407 2.803 2.665 4.526a7.144 7.144 0 0 1-1.641 5.729z" fill="#000000"/></g></svg>