<svg xmlns="http://www.w3.org/2000/svg" height="512" viewBox="0 0 56 56" width="512"><title>board</title><g class="nc-icon-wrapper" fill="#000000"><g id="085---Board-Games"><path id="Shape" d="M0 6h6V0H2a2 2 0 0 0-2 2z" fill="#000000"/><path id="Rectangle-path" d="M0 8h6v5H0z" fill="#000000"/><path id="Rectangle-path" d="M0 22h6v5H0z" fill="#000000"/><path id="Rectangle-path" d="M0 15h6v5H0z" fill="#000000"/><path id="Rectangle-path" d="M8 50h5v6H8z" fill="#000000"/><path id="Rectangle-path" d="M29 50h5v6h-5z" fill="#000000"/><path id="Rectangle-path" d="M22 50h5v6h-5z" fill="#000000"/><path id="Rectangle-path" d="M15 50h5v6h-5z" fill="#000000"/><path id="Rectangle-path" d="M15 0h5v6h-5z" fill="#000000"/><path id="Rectangle-path" d="M22 0h5v6h-5z" fill="#000000"/><path id="Rectangle-path" d="M29 0h5v6h-5z" fill="#000000"/><path id="Rectangle-path" d="M36 50h5v6h-5z" fill="#000000"/><path id="Rectangle-path" d="M36 0h5v6h-5z" fill="#000000"/><path id="Rectangle-path" d="M0 43h6v5H0z" fill="#000000"/><path id="Shape" d="M6 56v-6H0v4a2 2 0 0 0 2 2z" fill="#000000"/><path id="Rectangle-path" d="M0 36h6v5H0z" fill="#000000"/><path id="Rectangle-path" d="M0 29h6v5H0z" fill="#000000"/><path id="Rectangle-path" d="M8 0h5v6H8z" fill="#000000"/><path id="Rectangle-path" d="M43 0h5v6h-5z" fill="#000000"/><path id="Shape" d="M8 48h40V8H8zm10-10a2 2 0 0 1 2-2h.379c1.878-3.7 2.736-7.915 2.746-13.516a6 6 0 1 1 9.75 0c.01 5.6.868 9.812 2.746 13.516H36a2 2 0 0 1 2 2v3a2 2 0 0 1-2 2H20a2 2 0 0 1-2-2zm-8-27a1 1 0 0 1 2 0v2a1 1 0 0 1-2 0zm0 6a1 1 0 0 1 2 0v28a1 1 0 0 1-2 0z" fill="#000000"/><path id="Shape" d="M50 56h4a2 2 0 0 0 2-2v-4h-6z" fill="#000000"/><path id="Rectangle-path" d="M50 29h6v5h-6z" fill="#000000"/><path id="Rectangle-path" d="M50 15h6v5h-6z" fill="#000000"/><path id="Rectangle-path" d="M50 36h6v5h-6z" fill="#000000"/><path id="Rectangle-path" d="M50 43h6v5h-6z" fill="#000000"/><path id="Shape" d="M54 0h-4v6h6V2a2 2 0 0 0-2-2z" fill="#000000"/><path id="Shape" d="M28 23a4 4 0 1 0 0-8 4 4 0 0 0 0 8zm0-7a1 1 0 0 1 .01 2A.918.918 0 0 0 27 19a1 1 0 0 1-2 0 2.916 2.916 0 0 1 3-3z" fill="#000000"/><path id="Shape" d="M30.906 24.246a5.977 5.977 0 0 1-5.812 0A30.97 30.97 0 0 1 22.61 36h10.78a30.97 30.97 0 0 1-2.484-11.754z" fill="#000000"/><path id="Rectangle-path" d="M50 22h6v5h-6z" fill="#000000"/><path id="Rectangle-path" d="M43 50h5v6h-5z" fill="#000000"/><path id="Shape" d="M36 41v-3H19.999L20 41z" fill="#000000"/><path id="Rectangle-path" d="M50 8h6v5h-6z" fill="#000000"/></g></g></svg>