<svg xmlns="http://www.w3.org/2000/svg" version="1.1" id="Capa_1" x="0" y="0" viewBox="0 0 54.355 54.355" xml:space="preserve" width="512" height="512" enable-background="new 0 0 54.355 54.355"><title>boat</title><g class="nc-icon-wrapper" fill="#000000"><path d="M39.401 21.761l-4.902-3.835H15.691v1.405h2.81l.703 5.617-1.184.224L7.2 27.941 3.759 33.15 0 33.076l1.523 3.354h43.561s9.291-10.109 9.271-14.187c-.009-1.8-7.065-1.444-14.954-.482zM20.61 24.693l-.703-5.359h4.215l.703 4.613c-1.65.284-3.091.539-4.215.746zm5.62-.986l-.701-4.375h5.176l.859 3.52c-1.879.286-3.685.581-5.334.855zm6.733-1.07l-.851-3.305h1.774l3.801 2.646c-1.576.204-3.166.428-4.724.659z" fill="#000000"/></g></svg>