<svg xmlns="http://www.w3.org/2000/svg" version="1.1" id="Capa_1" x="0" y="0" viewBox="0 0 512.005 512.005" xml:space="preserve" width="512" height="512" enable-background="new 0 0 512.005 512.005"><title>bowling</title><g class="nc-icon-wrapper" fill="#000000"><path d="M160 191.766c-88.352 0-160 71.648-160 160s71.648 160 160 160 160-71.648 160-160-71.648-160-160-160zm-47.36 160c-8.832 0-16.16-7.168-16.16-16s7.008-16 15.84-16h.32c8.832 0 16 7.168 16 16s-7.168 16-16 16zm32-64c-8.832 0-16.16-7.168-16.16-16s7.008-16 15.84-16h.32c8.832 0 16 7.168 16 16s-7.168 16-16 16zm32 64c-8.832 0-16.16-7.168-16.16-16s7.008-16 15.84-16h.32c8.832 0 16 7.168 16 16s-7.168 16-16 16z" fill="#000000"/><path d="M473.632 264.086c-19.872-31.136-31.136-67.232-33.216-104.32h-76.352c-2.112 36.768-13.344 73.024-33.28 104.288-.032.032-.032.096-.064.128 13.504 26.272 21.28 56 21.28 87.584 0 41.856-13.568 80.48-36.288 112.032.064.096.096.224.192.32l27.936 40.896a16.04 16.04 0 0 0 13.216 6.976h90.304a16.04 16.04 0 0 0 13.216-6.976l27.904-40.896c42.944-62.848 20.512-144.544-14.848-200.032z" fill="#000000"/><path d="M439.072 16.246c-19.008-21.632-54.784-21.664-73.824.032-9.632 10.976-14.08 25.632-12.16 40.192l4.992 38.4c2.688 10.784 4.256 21.824 5.248 32.896h77.824c.992-11.712 2.656-23.392 5.504-34.944l4.608-36.352c1.888-14.592-2.528-29.248-12.192-40.224z" fill="#000000"/></g></svg>