<svg xmlns="http://www.w3.org/2000/svg" height="512" viewBox="0 0 41 56" width="512"><title>boxing</title><g class="nc-icon-wrapper"><g id="Page-1" fill="none" fill-rule="evenodd"><g id="006---Glove" fill="#000" fill-rule="nonzero" transform="translate(-1)"><path id="Shape" d="M16.3 27.407c6.483.751 14.276-1.656 16.716-10.657 1.342-4.957.886-8.889-1.355-11.687C27.311-.364 17.59.006 17.486.011c-.025 0-.219-.009-.546-.009-1.928 0-8.5.3-12.557 4.275C2 6.618.859 9.882 1 13.978c.047 1.333.334 2.646.848 3.876a.97.97 0 0 1 .072.176c2.302 5.301 8.532 8.701 14.38 9.377zM4.087 12.043a1 1 0 0 1-.761-1.192C4.682 4.723 9.818 2.765 13.889 2.2a1 1 0 0 1 .275 1.982c-3.442.476-7.778 2.095-8.885 7.1a1 1 0 0 1-1.192.761z" fill="#616161"/><path id="Rectangle-path" d="M14 48h14v4H14z" fill="#616161"/><path id="Shape" d="M40.272 12.666c-1.234-.753-3.086-.194-4.579.511a23.573 23.573 0 0 1-.751 4.1c-2.462 9.085-9.685 12.261-16.392 12.261a21.972 21.972 0 0 1-16.408-7.391C2.515 28.092 3.606 36.156 6.615 42H10a1 1 0 0 1 0 2H7v11a1 1 0 0 0 1 1h19a1 1 0 0 0 1-1v-1H14a2 2 0 0 1-2-2v-4a2 2 0 0 1 2-2h14v-2H15a1 1 0 0 1 0-2h13.642C30.5 40.444 42 30.323 42 18c0-2.8-.6-4.646-1.728-5.334zm-16.7 25.515a1 1 0 1 1-1.146 1.638L18 36.721l-4.427 3.1a1 1 0 0 1-1.146-1.638l3.829-2.683-3.829-2.681a1 1 0 0 1 1.146-1.638L18 34.279l4.427-3.1a1 1 0 1 1 1.146 1.638L19.744 35.5z" fill="#616161"/></g></g></g></svg>