<svg xmlns="http://www.w3.org/2000/svg" version="1.1" id="Capa_1" x="0" y="0" viewBox="0 0 512 512" xml:space="preserve" width="512" height="512" enable-background="new 0 0 512 512"><title>boy</title><g class="nc-icon-wrapper" fill="#000000"><path d="M466 240h-15v90h15c24.853 0 46-20.147 46-45s-21.147-45-46-45z" fill="#000000"/><path d="M46 240c-24.853 0-46 20.147-46 45s21.147 45 46 45h15v-90H46z" fill="#000000"/><path fill="#000000" d="M211 180h90v30h-90z"/><path d="M420.099 150C412.899 78.6 355.901 0 286 0h-60C151.3 0 91 90.3 91 165v45h90v-60h150v60h120c33.199 0 61-27.191 61-60h-91.901z" fill="#000000"/><path d="M91 240v105c0 90.981 74.019 167 165 167s165-76.019 165-167V240H91zm90 30h30v30h-30v-30zm75 150c-26.646 0-51.519-14.355-64.937-37.471l25.957-15.059C225.077 381.372 240.019 390 256 390s30.923-8.628 38.979-22.529l25.957 15.059C307.519 405.645 282.646 420 256 420zm75-120h-30v-30h30v30z" fill="#000000"/></g></svg>