<svg xmlns="http://www.w3.org/2000/svg" version="1.1" id="Capa_1" x="0" y="0" viewBox="0 0 511.999 511.999" xml:space="preserve" width="512" height="512" enable-background="new 0 0 511.999 511.999"><title>brain</title><g class="nc-icon-wrapper" fill="#000000"><path d="M190.521 21.603c-34.963 0-65.406 19.655-80.904 48.487h58.966v30.039h-70.32c-31.097 7.063-54.389 34.916-54.389 68.119v30.796C18.652 205.702 0 228.714 0 255.999c0 27.014 18.287 49.828 43.128 56.74h66.561v-56.741h30.039v86.78H43.876v.971c0 33.203 23.29 61.056 54.386 68.119h70.322v30.039h-58.967c15.498 28.833 45.942 48.487 80.904 48.487h47.926V21.603h-47.926z" fill="#000000"/><path d="M468.125 199.044v-.454h-65.814v56.741h-30.039v-86.78l95.853.001v-.304c0-33.203-23.291-61.056-54.389-68.119h-70.319V70.09h58.966c-15.498-28.832-45.942-48.487-80.904-48.487h-47.926v468.793h47.926c34.963 0 65.406-19.656 80.904-48.487h-58.967V411.87h70.322c31.096-7.064 54.386-34.917 54.386-68.119v-30.796c25.223-6.657 43.875-29.669 43.875-56.954 0-27.286-18.651-50.299-43.874-56.957z" fill="#000000"/></g></svg>