<svg xmlns="http://www.w3.org/2000/svg" id="Layer_1" height="512" viewBox="0 0 512 512" width="512"><title>bridge</title><g class="nc-icon-wrapper" fill="#000000"><path d="M512 330.651v-30h-32.13v-147.19h-65.08l-.034-.067-.133.067h-4.388v2.204l-13.379 6.72c-43.534 21.866-92.295 33.423-141.012 33.423s-97.478-11.558-141.012-33.423l-13.069-6.564v-2.36h-4.698l-.133-.067-.034.067H32.13v147.19H0v30h32.13v79.831H0v30h133.894v-30h-32.13v-79.831h308.471v79.831h-32.13v30H512v-30h-32.13v-79.831zm-366.448-30h-43.788V189.388a342.387 342.387 0 0 0 43.788 18.225zm63.632 0h-33.632v-84.394a347.233 347.233 0 0 0 33.632 6.333zm63.632 0h-33.632V225.39c5.55.273 11.106.418 16.661.418 5.659 0 11.318-.151 16.971-.434zm63.632 0h-33.632v-78.105a347.297 347.297 0 0 0 33.632-6.365zm73.788 0h-43.788v-93.143a342.323 342.323 0 0 0 43.788-18.272z" fill="#000000"/><path d="M90.739 71.519H43.155l-8.822 51.942H99.56z" fill="#000000"/><path d="M468.845 71.519h-47.584l-8.821 51.942h65.227z" fill="#000000"/></g></svg>