<svg xmlns="http://www.w3.org/2000/svg" id="Layer_1" height="512" viewBox="0 0 512 512" width="512"><title>browser</title><g class="nc-icon-wrapper" fill="#000000"><path d="M475.047 40.484H36.953C16.545 40.484 0 57.029 0 77.437v67.492h512V77.437c0-20.408-16.544-36.953-36.953-36.953zM64.085 108.636c-8.861 0-16.045-7.184-16.045-16.045s7.183-16.045 16.045-16.045c8.861 0 16.045 7.184 16.045 16.045s-7.184 16.045-16.045 16.045zm65.24 0c-8.861 0-16.045-7.184-16.045-16.045s7.183-16.045 16.045-16.045c8.861 0 16.045 7.184 16.045 16.045s-7.184 16.045-16.045 16.045zm68.197 0c-8.861 0-16.045-7.184-16.045-16.045s7.184-16.045 16.045-16.045 16.045 7.184 16.045 16.045-7.183 16.045-16.045 16.045z" fill="#000000"/><path d="M0 176.808v257.755c0 20.409 16.545 36.953 36.953 36.953h438.094c20.409 0 36.953-16.544 36.953-36.953V176.808zm168.744 119.001l-20.864 60.698a15.94 15.94 0 0 1-29.96.516l-7.539-19.7-6.594 19.184a15.94 15.94 0 0 1-29.96.516l-23.23-60.698c-3.146-8.221.968-17.437 9.189-20.583 8.22-3.151 17.437.967 20.583 9.189l7.539 19.7 6.594-19.184c3.26-11.557 23.118-16.481 29.96-.516l7.539 19.7 6.594-19.184c2.862-8.324 11.93-12.75 20.255-9.893 8.327 2.862 12.756 11.931 9.894 20.255zm146.423 0l-20.864 60.698a15.94 15.94 0 0 1-29.96.516l-7.539-19.7-6.594 19.184a15.94 15.94 0 0 1-29.96.516l-23.23-60.698c-3.146-8.221.968-17.437 9.189-20.583 8.221-3.151 17.437.967 20.583 9.189l7.539 19.7 6.594-19.184c3.653-12.349 24.048-15.321 29.96-.516l7.539 19.7 6.594-19.184c2.862-8.324 11.929-12.75 20.255-9.893 8.327 2.862 12.756 11.931 9.894 20.255zm146.424 0l-20.864 60.698a15.94 15.94 0 0 1-29.96.516l-7.539-19.7-6.594 19.184a15.94 15.94 0 0 1-29.96.516l-23.231-60.698c-3.146-8.221.968-17.437 9.189-20.583 8.223-3.151 17.438.967 20.584 9.189l7.54 19.701 6.594-19.185c3.615-11.875 23.303-16.269 29.96-.516l7.539 19.7 6.594-19.184c2.862-8.324 11.931-12.75 20.255-9.893 8.325 2.862 12.754 11.931 9.893 20.255z" fill="#000000"/></g></svg>