<svg xmlns="http://www.w3.org/2000/svg" id="Capa_1" height="512" viewBox="0 0 512 512" width="512"><title>building</title><g class="nc-icon-wrapper" fill="#000000"><path d="M506 145l-80-60a15.005 15.005 0 0 0-9-3H232v-5c0-8.284-6.716-15-15-15h-5V15c0-8.284-6.716-15-15-15H97c-8.284 0-15 6.716-15 15v47h-5c-8.284 0-15 6.716-15 15v5H15C6.716 82 0 88.716 0 97v100c0 8.284 6.716 15 15 15h47v5c0 8.284 6.716 15 15 15h5v220H67c-19.33 0-35 15.67-35 35v10c0 8.284 6.716 15 15 15h200c8.284 0 15-6.716 15-15v-10c0-19.33-15.67-35-35-35h-15V232h5c8.284 0 15-6.716 15-15v-5h265c8.284 0 15-6.716 15-15v-40c0-4.721-2.223-9.167-6-12zM62 182H30v-70h32zm50 64.601l59.635 43.732L112 334.066zM182 452h-70v-58.732l70 51.333zm0-44.601l-59.635-43.732L182 319.934zm0-146.667L142.819 232H182zM182 62h-70V30h70zm50 50h33.791L232 154.238zm16.209 70L297 121.012 345.791 182zm124.424-14.471L328.209 112h66.635zM482 182h-82.845l24.503-61.257L482 164.5z" fill="#000000"/><path d="M487 312c-8.284 0-15 6.716-15 15 0 4.443-1.955 8.634-5.365 11.498-3.456 2.902-7.886 4.058-12.479 3.25-5.867-1.03-10.873-6.036-11.902-11.904-1.461-8.319 3.654-14.498 9.023-16.718C463.865 307.922 472 295.392 472 281.204V242h-30v39.204c0 1.878-.939 3.684-2.185 4.198-19.665 8.13-30.812 28.538-27.111 49.628 3.188 18.165 18.101 33.078 36.266 36.266 2.658.467 5.323.696 7.971.696 10.569 0 20.821-3.664 28.987-10.521A44.915 44.915 0 0 0 502 327c0-8.284-6.716-15-15-15z" fill="#000000"/></g></svg>