<svg version="1.1" id="Layer_1" xmlns="http://www.w3.org/2000/svg" x="0" y="0" viewBox="0 0 512 512" xml:space="preserve" enable-background="new 0 0 512 512" width="512" height="512"><title>bullet</title><g class="nc-icon-wrapper" fill="#000000"><path d="M500.846 11.194C492.587 2.935 481.191-1.04 469.585.293c-69.513 7.978-114.447 21.711-133.557 40.82L197.455 179.686l134.898 134.898L470.927 176.01c19.109-19.109 32.843-64.044 40.82-133.557 1.333-11.605-2.64-22.999-10.901-31.259z"/><path d="M107.197 277.504l-10.507 4.479a14.996 14.996 0 0 0-4.724 3.192l-6.253 6.253c-5.686-3.079-12.937-2.223-17.742 2.583-5.858 5.858-5.858 15.355 0 21.213l128.845 128.844c5.78 5.78 15.452 5.762 21.213 0 4.806-4.806 5.662-12.057 2.583-17.743l6.252-6.252a15.007 15.007 0 0 0 3.192-4.724l4.479-10.507-127.338-127.338z"/><path d="M176.242 200.899l-49.565 49.565a15.007 15.007 0 0 0-3.385 5.197l-2.691 6.962 128.814 128.816 6.963-2.692a14.981 14.981 0 0 0 5.197-3.384l49.565-49.565-134.898-134.899z"/><path d="M72.086 375.466c-5.857-5.858-15.355-5.858-21.213 0l-46.48 46.481c-5.858 5.858-5.858 15.355 0 21.213 5.677 5.676 15.397 5.817 21.213 0l46.48-46.481c5.859-5.858 5.859-15.355 0-21.213z"/><path d="M89.609 422.432c-5.857-5.858-15.355-5.858-21.213 0l-46.48 46.48c-5.858 5.858-5.858 15.355 0 21.213 5.683 5.683 15.382 5.832 21.213 0l46.48-46.48c5.857-5.858 5.857-15.355 0-21.213z"/><path d="M136.575 439.953c-5.858-5.858-15.356-5.858-21.213 0l-46.48 46.481c-5.858 5.858-5.858 15.355 0 21.213 5.678 5.677 15.391 5.824 21.213 0l46.48-46.481c5.857-5.858 5.857-15.355 0-21.213z"/></g></svg>