<svg xmlns="http://www.w3.org/2000/svg" id="Capa_1" height="512" viewBox="0 0 512 512" width="512"><title>bunny</title><g class="nc-icon-wrapper" fill="#000000"><path d="M163.007 199.528l-2.674-4.281c-4.39-7.025-2.251-16.279 4.775-20.668 7.027-4.391 16.281-2.251 20.668 4.775l2.338 3.744c-.05.026-.095.06-.144.089a147.094 147.094 0 0 1 45.602-14.865c-5.921-23.868-15.83-49.431-28.842-74.059C167.692 24.155 94.391 1.557 91.289.629A15.001 15.001 0 0 0 72.19 12.567c-.604 3.676-14.373 90.811 22.09 159.829 12.115 22.931 25.714 42.883 39.678 58.732a147.388 147.388 0 0 1 29.184-31.693c-.045.032-.093.059-.135.093z" fill="#000000"/><path d="M439.811 12.568A15.001 15.001 0 0 0 420.712.63c-3.102.928-76.403 23.526-113.442 93.634-13.012 24.628-22.921 50.191-28.842 74.059a147.134 147.134 0 0 1 45.598 14.861c-.047-.028-.089-.061-.138-.086l2.337-3.742c4.388-7.026 13.643-9.165 20.668-4.775 7.026 4.389 9.165 13.643 4.775 20.668l-2.671 4.276c-.044-.036-.095-.064-.141-.098a147.321 147.321 0 0 1 29.194 31.696c13.961-15.848 27.559-35.797 39.672-58.725 36.462-69.02 22.692-156.155 22.089-159.83z" fill="#000000"/><path d="M383.877 345.381l-13.693-59.354-.063-.26C357.024 233.28 310.097 196.622 256 196.622s-101.024 36.657-114.121 89.145l-.063.26-13.693 59.354A83.837 83.837 0 0 0 89.6 416c0 46.313 37.679 83.99 83.991 83.99a84.123 84.123 0 0 0 30.642-5.791A75.687 75.687 0 0 0 252.979 512c19.013 0 36.923-6.989 50.73-19.509a83.7 83.7 0 0 0 34.7 7.499c46.313 0 83.991-37.678 83.991-83.99a83.837 83.837 0 0 0-38.523-70.619zM220.71 347.24c-1.39 6.923-7.643 12.069-14.71 12.069-6.284 0-11.981-4.056-14.115-9.946-2.132-5.885-.234-12.69 4.605-16.654 4.864-3.984 11.824-4.445 17.216-1.26 5.38 3.178 8.231 9.68 7.004 15.791zm45.458 74.531h-20.336c-8.284 0-15-6.716-15-15s6.716-15 15-15h20.336c8.284 0 15 6.716 15 15s-6.716 15-15 15zM320.7 347.24c-1.374 6.927-7.637 12.069-14.7 12.069-6.283 0-11.981-4.055-14.115-9.946-2.129-5.877-.237-12.699 4.605-16.654 4.872-3.978 11.818-4.448 17.216-1.26 5.395 3.186 8.208 9.672 6.994 15.791z" fill="#000000"/></g></svg>