<svg xmlns="http://www.w3.org/2000/svg" id="Capa_1" height="512" viewBox="0 0 512 512" width="512"><title>cake</title><g class="nc-icon-wrapper" fill="#000000"><path d="M439.845 379.145A44.912 44.912 0 0 1 432 382.79V512c10.622-2.979 26.925-8.908 42.031-21.326C499.226 469.964 512 439.583 512 400.376v-94.291a220.806 220.806 0 0 1-19.399 26.882c-23.974 28.492-48.153 43.466-52.756 46.178z" fill="#000000"/><path d="M357 385.376a59.627 59.627 0 0 1-5.999 26.132L402 429.269v-46.466l-45-15.672z" fill="#000000"/><path d="M237 325.34L0 242.802v46.466l237 82.538z" fill="#000000"/><path d="M297 445.376c-26.327 0-48.732-17.052-56.792-40.685L0 321.035v39.34a14.999 14.999 0 0 0 10.066 14.165L402 511.035v-49.999l-72.516-25.254c-9.37 6.059-20.519 9.594-32.484 9.594z" fill="#000000"/><path d="M172 125c0 35.841 29.159 65 65 65s65-29.159 65-65c0-31.083-21.936-57.125-51.136-63.496-4.197-24.817-19.849-46.263-42.934-57.806l-4.223-2.111c-7.406-3.704-16.418-.701-20.124 6.708-3.705 7.409-.702 16.42 6.708 20.124l4.223 2.111c13.01 6.506 22.232 18.058 25.821 31.645C192.544 69.553 172 94.918 172 125z" fill="#000000"/><path d="M512 200.376c0-4.142-.993-102.014-87.385-152.923a15 15 0 0 0-12.57-1.235c-12.606 4.412-47.657 16.62-92.299 32.159C327.542 92.159 332 108.068 332 125c0 52.383-42.617 95-95 95-47.337 0-86.695-34.803-93.839-80.164-61.35 21.355-113.536 39.529-133.116 46.382a15 15 0 0 0 .021 28.323L267 304.02v81.355c0 16.569 13.431 30 30 30s30-13.431 30-30v-60.46l85.066 29.625a15 15 0 0 0 12.549-1.242C428.184 351.196 512 300.65 512 200.376zm-160 10c-8.284 0-15-6.716-15-15s6.716-15 15-15 15 6.716 15 15-6.716 15-15 15zm30 70c-8.284 0-15-6.716-15-15s6.716-15 15-15 15 6.716 15 15-6.716 15-15 15zm30-130c-8.284 0-15-6.716-15-15s6.716-15 15-15 15 6.716 15 15-6.716 15-15 15zm20 70c-8.284 0-15-6.716-15-15s6.716-15 15-15 15 6.716 15 15-6.716 15-15 15z" fill="#000000"/></g></svg>