<svg xmlns="http://www.w3.org/2000/svg" version="1.1" id="Capa_1" x="0" y="0" viewBox="0 0 512 512" xml:space="preserve" width="512" height="512" enable-background="new 0 0 512 512"><title>candy</title><g class="nc-icon-wrapper" fill="#000000"><path d="M302.369 118.417L140.825 358.594c19.032 16.139 41.808 27.815 66.604 34.418l162.09-240.99c-19.26-15.893-42.219-27.298-67.15-33.605z" fill="#000000"/><path d="M497 149.89c-37.594 0-70.682 19.653-89.535 49.223-4.421-8.9-9.906-17.402-16.38-25.401L239.809 398.625c5.348.45 10.75.678 16.191.678 43.612 0 84.717-14.626 115.743-41.184 15.393-13.176 27.415-28.512 35.722-45.233 18.854 29.57 51.941 49.223 89.535 49.223h15V149.89h-15z" fill="#000000"/><path d="M256 112.697c-43.612 0-84.717 14.626-115.743 41.184-15.393 13.176-27.415 28.512-35.722 45.233C85.681 169.544 52.594 149.89 15 149.89H0v212.22h15c37.594 0 70.681-19.653 89.535-49.223 4.099 8.251 9.107 16.163 14.974 23.647l150.218-223.341c-4.543-.323-9.12-.496-13.727-.496z" fill="#000000"/></g></svg>