<svg xmlns="http://www.w3.org/2000/svg" version="1.1" id="Capa_1" x="0" y="0" viewBox="0 0 315.71 315.71" xml:space="preserve" width="512" height="512" enable-background="new 0 0 315.71 315.71"><title>cannon</title><g class="nc-icon-wrapper" fill="#000000"><path d="M132.305 218.275c-6.396 0-11.599 5.203-11.599 11.6 0 6.395 5.203 11.599 11.599 11.599s11.599-5.203 11.599-11.599c-.001-6.396-5.204-11.6-11.599-11.6z" fill="#000000"/><path d="M314.196 130.508L267.844 35.18c-3.623-7.451-12.602-10.552-20.05-6.931-6.718 3.267-9.882 10.885-7.787 17.813l-137.131 41.32a79.185 79.185 0 0 0-55.551 87.024c-5.343-2.377-9.511-5.408-12.355-9.073-3.86-4.973-4.839-10.478-4.958-14.333a6.365 6.365 0 0 0-4.976-6.01c-6.772-1.511-17.649-4.113-17.865-4.163a5.724 5.724 0 0 0-7.018 5.152c-.617 8.393.206 23.262 10.641 37.124 10.077 13.388 26.164 21.94 47.931 25.533a76.49 76.49 0 0 1 15.318-28.408c14.061-16.476 34.955-26.953 58.262-26.953 33.38 0 61.824 21.471 72.293 51.321l83.838-58.907a15.015 15.015 0 0 0 12.281 6.381c2.201 0 4.436-.486 6.549-1.513 7.45-3.622 10.552-12.599 6.93-20.049z" fill="#000000"/><path d="M132.305 170.775c-32.587 0-59.099 26.512-59.099 59.1 0 32.587 26.512 59.099 59.099 59.099s59.099-26.512 59.099-59.099c-.001-32.588-26.512-59.1-59.099-59.1zm0 88.199c-16.045 0-29.099-13.054-29.099-29.099 0-16.046 13.054-29.1 29.099-29.1s29.099 13.054 29.099 29.1c-.001 16.045-13.054 29.099-29.099 29.099z" fill="#000000"/></g></svg>