<svg xmlns="http://www.w3.org/2000/svg" id="Capa_1" height="512" viewBox="0 0 512 512" width="512"><title>card</title><g class="nc-icon-wrapper" fill="#000000"><path d="M85.525 108.67a15.013 15.013 0 0 1 8.555-7.676l149.897-52.828-35.64-43.1A15 15 0 0 0 198.01.042c-4.072-.308-7.881 1.084-10.854 3.735L5.056 165.711c-6.196 5.493-6.782 14.971-1.289 21.182l172.306 191.895L84.91 120.125a15.02 15.02 0 0 1 .615-11.455z" fill="#000000"/><path d="M377.82 48.714c-2.769-7.822-11.367-11.836-19.131-9.17l-226.348 79.775a15.06 15.06 0 0 0-8.555 7.676 15.012 15.012 0 0 0-.615 11.455L212 390.464V107c0-8.291 6.709-15 15-15h166.08z" fill="#000000"/><path d="M362.002 302.002h29.997v29.997h-29.997z" transform="rotate(-45 376.97 317.092)" fill="#000000"/><path d="M497 122H257c-8.291 0-15 6.709-15 15v360c0 8.291 6.709 15 15 15h240c8.291 0 15-6.709 15-15V137c0-8.291-6.709-15-15-15zM302 227v-30c0-8.291 6.709-15 15-15s15 6.709 15 15v30c0 8.291-6.709 15-15 15s-15-6.709-15-15zm75 147.422a14.948 14.948 0 0 1-10.605-4.395l-42.422-42.422c-5.859-5.859-5.859-15.352 0-21.211l42.422-42.422c5.859-5.859 15.352-5.859 21.211 0l42.422 42.422c5.859 5.859 5.859 15.352 0 21.211l-42.422 42.422A14.952 14.952 0 0 1 377 374.422zM452 437c0 8.291-6.709 15-15 15s-15-6.709-15-15v-30c0-8.291 6.709-15 15-15s15 6.709 15 15z" fill="#000000"/></g></svg>