<svg xmlns="http://www.w3.org/2000/svg" version="1.1" id="Capa_1" x="0" y="0" viewBox="0 0 512.023 512.023" xml:space="preserve" width="512" height="512" enable-background="new 0 0 512.023 512.023"><title>casino</title><g class="nc-icon-wrapper" fill="#000000"><path d="M438.773 359.998a211.97 211.97 0 0 1-78.574 78.574l33.293 33.293a258.162 258.162 0 0 0 78.574-78.573l-33.293-33.294z" fill="#000000"/><path d="M73.241 359.998l-33.293 33.293a258.151 258.151 0 0 0 78.574 78.573l33.293-33.293c-32.68-18.705-59.878-45.903-78.574-78.573z" fill="#000000"/><path d="M343.16 447.412c-1.089.494-2.206.924-3.304 1.4-37.676 16.408-80.148 21.13-120.587 14.102-16.207-2.819-32.066-7.532-47.139-14.111-1.089-.476-2.187-.897-3.267-1.391l-34.08 34.08c1.894 1.016 3.825 1.977 5.747 2.947 36.047 18.229 76.341 27.784 116.753 27.582 39.58-.201 78.93-9.755 114.246-27.6 1.903-.97 3.825-1.913 5.71-2.928l-34.079-34.081z" fill="#000000"/><path d="M61.344 335.765c-15.841-38.353-19.602-81.429-11.439-122.061 3.111-15.475 7.943-30.675 14.496-45.043l-34.08-34.08c.577.595-11.11 23.556-12.061 25.962a250.979 250.979 0 0 0-9.362 28.488C3.782 208.386.936 228.327.36 248.332c-1.098 37.96 6.04 76.002 21.268 110.759a246.209 246.209 0 0 0 5.747 12.19c.97 1.922 1.922 3.862 2.947 5.756l34.08-34.08c-.494-1.089-.924-2.196-1.4-3.285a193.746 193.746 0 0 1-1.658-3.907z" fill="#000000"/><path d="M301.942 4.065a263.704 263.704 0 0 0-79.891-1.894c-26.127 3.386-51.788 10.744-75.609 22.046-2.013.952-3.999 1.977-5.994 2.983-1.894.961-3.798 1.904-5.665 2.91l34.08 34.08c1.071-.485 2.178-.906 3.267-1.382a303.516 303.516 0 0 1 3.935-1.675c25.331-10.451 52.748-15.64 80.129-15.603 27.61.037 55.238 5.381 80.733 15.997 2.087.869 4.182 1.73 6.241 2.663l34.08-34.08c-23.481-12.656-49.05-21.368-75.306-26.045z" fill="#000000"/><path d="M393.493 39.737L360.2 73.03c32.679 18.705 59.868 45.903 78.574 78.574l33.293-33.293a258.177 258.177 0 0 0-78.574-78.574z" fill="#000000"/><path d="M484.622 140.283c-.97-1.913-1.913-3.834-2.928-5.71l-34.08 34.08c.494 1.089.924 2.196 1.4 3.294.567 1.29 1.116 2.59 1.656 3.889 15.942 38.6 19.712 82.033 11.32 122.903a204.307 204.307 0 0 1-8.886 30.858 209.947 209.947 0 0 1-4.099 10.066c-.476 1.098-.906 2.205-1.4 3.294l34.08 34.08c1.016-1.885 1.958-3.807 2.928-5.71a249.006 249.006 0 0 0 15.539-38.463c7.742-24.947 11.631-51.065 11.622-77.237-.018-39.927-9.142-79.681-27.152-115.344z" fill="#000000"/><path d="M118.522 39.737a258.155 258.155 0 0 0-78.574 78.574l33.293 33.293c18.696-32.68 45.894-59.868 78.574-78.574l-33.293-33.293z" fill="#000000"/><path d="M322.991 224.75c-10.533-11.284-50.726-56.061-66.988-74.208-16.289 18.129-56.555 62.925-67.07 74.208-21.872 23.455-17.232 54.67-5.472 68.178 10.405 11.961 20.902 17.772 32.094 17.772 13.672 0 23.72-13.105 29.156-24.224 2.581-5.289 4.219-12.519 11.604-12.29 7.596.229 9.014 8.511 11.833 13.919 3.212 6.159 7.385 12.016 12.784 16.436 4.365 3.569 9.7 6.159 15.438 6.159 10.954 0 21.469-5.839 32.158-17.854 11.85-13.334 16.526-44.421-5.537-68.096z" fill="#000000"/><path d="M446.927 235.595c-2.727-26.017-10.698-51.431-23.693-74.327-17.278-30.447-42.883-55.951-73.403-73.092-46.489-26.127-103.767-31.59-154.365-14.734-32.039 10.67-61.113 29.989-83.46 55.292-24.388 27.6-40.559 62.037-45.958 98.487-6.223 41.986 1.565 85.501 22.412 122.5 10.671 18.943 24.526 36.075 40.852 50.424 28.003 24.608 62.925 40.733 99.86 45.867 41.886 5.811 85.135-2.26 121.859-23.263 18.833-10.771 35.855-24.727 50.085-41.117 24.892-28.671 40.833-64.389 45.446-102.093a194.965 194.965 0 0 0 .365-43.944zm-104.728 69.422c-14.368 16.152-29.358 23.995-45.839 23.995-8.584 0-16.957-3.093-24.498-8.529 9.481 26.301 27.006 45.134 39.058 45.134 5.052 0 9.151 4.091 9.151 9.151s-4.1 9.151-9.151 9.151H201.104c-5.052 0-9.151-4.091-9.151-9.151s4.1-9.151 9.151-9.151c12.034 0 29.55-18.797 39.04-45.07-7.047 5.134-15.264 8.465-24.59 8.465-16.564 0-32.011-8.099-45.903-24.068-15.667-18.01-24.635-59.914 5.893-92.667 12.885-13.828 73.055-80.88 73.659-81.557a9.167 9.167 0 0 1 6.818-3.038 9.124 9.124 0 0 1 6.809 3.047c.604.668 60.655 67.72 73.54 81.548 29.476 31.636 22.32 74.19 5.829 92.74z" fill="#000000"/></g></svg>