<svg id="Castle" height="512" viewBox="0 0 48 48" width="512" xmlns="http://www.w3.org/2000/svg"><title>castle</title><g class="nc-icon-wrapper" fill="#000000"><path d="M24 38a3 3 0 0 0-3 3v7h6v-7a3 3 0 0 0-3-3z"/><path d="M12.74 26c-1.9 22.8-1.9 21.19-1.48 21.68s.1.32 7.74.32v-7a5 5 0 0 1 10 0v7c7.72 0 7.33.12 7.74-.32s.42 1.16-1.48-21.68z"/><path d="M35 13v3h-4v-3a1 1 0 0 0-2 0v3h-4V1a1 1 0 0 0-2 0v15h-4v-3a1 1 0 0 0-2 0v3h-4v-3a1 1 0 0 0-2 0v10a1 1 0 0 0 1 1h24a1 1 0 0 0 1-1V13a1 1 0 0 0-2 0z"/><path d="M33 6c0-.94-.44-.86-6-2.95V9c5.64-2.17 6-2.06 6-3z"/></g></svg>