<svg xmlns="http://www.w3.org/2000/svg" id="Capa_1" height="512" viewBox="0 0 512.075 512.075" width="512"><title>cat</title><g class="nc-icon-wrapper" fill="#000000"><path d="M282.156 293.399c-.859-2.359-3.317-6.318-10.115-6.318h-32c-6.799 0-9.261 3.97-10.123 6.336-1.23 3.377-.934 8.341 3.59 12.141l22.533 18.931 22.534-18.931c4.523-3.799 4.815-8.772 3.581-12.159z" fill="#000000"/><path d="M381.95 362.294l110.032 47.158c19.378-30.132 25.059-63.586 15.647-96.079-139.216 14.589-130.373 13.709-131.607 13.709-7.582 0-14.092-5.729-14.899-13.438-.864-8.239 5.115-15.618 13.354-16.482l120.577-12.636c-7.899-13.394-18.586-26.385-32.199-38.64-1.2-35.163-8.675-65.582-22.303-91.012l-.001.001c-28.745-53.642-81.46-79.594-141.827-87.221-27.178-3.427-57.21-3.33-82.792-.316C114.961 79.175 52.879 138.881 49.226 245.887c-13.638 12.277-24.326 25.265-32.218 38.638l120.597 12.638c8.239.864 14.218 8.243 13.355 16.482-.808 7.708-7.318 13.438-14.9 13.438-1.225 0 7.395.858-131.631-13.712C-4.997 345.933.8 379.38 20.13 409.44l110.002-47.146c7.615-3.265 16.432.263 19.696 7.878s-.264 16.433-7.878 19.696l-102.452 43.91c100.839 104.846 333.162 103.827 433.101.007l-102.468-43.917c-7.614-3.264-11.142-12.082-7.878-19.696s12.084-11.141 19.697-7.878zM161.041 242.597V224.8c0-8.284 6.716-15 15-15s15 6.716 15 15v17.797c0 8.284-6.716 15-15 15s-15-6.716-15-15zm123 184.484c-10.688 0-20.47-3.929-28-10.406-7.53 6.478-17.312 10.406-28 10.406-23.71 0-43-19.29-43-43 0-8.284 6.716-15 15-15s15 6.716 15 15c0 7.168 5.832 13 13 13s13-5.832 13-13V351.07l-26.831-22.542c-28.934-24.309-13.436-71.447 25.733-71.447h32.098c39.401 0 54.686 47.207 25.831 71.447l-26.831 22.542v33.011c0 7.168 5.832 13 13 13s13-5.832 13-13c0-8.284 6.716-15 15-15s15 6.716 15 15c0 23.711-19.29 43-43 43zm67-184.484c0 8.284-6.716 15-15 15s-15-6.716-15-15V224.8c0-8.284 6.716-15 15-15s15 6.716 15 15z" fill="#000000"/><path d="M442.479 105.495l35.4-84.625c5.142-12.29-7.162-24.698-19.495-19.681-96.24 39.188-70.632 28.446-110.685 46.011 37.23 11.013 69.732 30.041 94.78 58.295z" fill="#000000"/><path d="M69.604 105.496c25.252-28.476 57.841-47.371 94.773-58.298-39.993-17.542-14.387-6.8-110.68-46.01C41.333-3.843 29.074 8.61 34.203 20.87z" fill="#000000"/></g></svg>