<svg id="Capa_1" height="512" viewBox="0 0 512 512" width="512" xmlns="http://www.w3.org/2000/svg"><title>cave</title><g class="nc-icon-wrapper" fill="#000000"><path d="M328.805 168.976c-7.723-3.195-11.395-12.047-8.199-19.771 3.195-7.724 12.046-11.396 19.771-8.2l49.502 20.478-21.017-82.661a15.137 15.137 0 0 0-8.922-10.272l-98.194-40.295a15.134 15.134 0 0 0-11.492 0L152.06 68.55a15.134 15.134 0 0 0-8.922 10.272L98.162 250.793c-1.849 6.716-7.941 11.124-14.584 11.124-1.329 0-2.68-.176-4.024-.546-8.059-2.217-12.795-10.549-10.578-18.608l7.94-28.855-27.01 12.07L.317 466.69c-1.934 9.389 5.237 18.189 14.824 18.189H128.94l21.629-153.915a15.141 15.141 0 0 1 6.053-10.11l90.444-66.152a15.134 15.134 0 0 1 17.87 0l90.444 66.152a15.14 15.14 0 0 1 6.053 10.11l21.629 153.915H496.86c9.586 0 16.758-8.799 14.824-18.189l-49.59-240.712z"/><path d="M256 285.669l-76.346 55.841-20.148 143.368h192.988L332.346 341.51z"/></g></svg>