<svg version="1.1" id="Capa_1" xmlns="http://www.w3.org/2000/svg" x="0" y="0" width="464" height="464" viewBox="0 0 464.24 464.24" xml:space="preserve" enable-background="new 0 0 464.24 464.24"><title>checkers</title><g class="nc-icon-wrapper" fill="#000000"><path d="M109.969 464.24h244.303c60.635 0 109.969-49.333 109.969-109.969V109.969C464.24 49.333 414.906 0 354.271 0H109.969C49.333 0 0 49.333 0 109.969v244.303C0 414.907 49.323 464.24 109.969 464.24zm231.029-123.241V232.12h94.545v108.879h-94.545zm0-108.879H232.12V123.232h108.888V232.12h-.01zM232.12 123.232H123.232V28.688H232.12v94.544zm-108.888 0V232.11H28.688V123.232h94.544zm0 108.888H232.12v108.879H123.232V232.12zM232.12 341.009h108.888v94.544H232.12v-94.544zm203.433-231.04v13.263h-94.545V28.688h13.264c44.818 0 81.281 36.461 81.281 81.281zM28.688 341.009h94.544v94.544h-13.263c-44.819 0-81.281-36.462-81.281-81.281v-13.263z"/></g></svg>