<svg height="512" viewBox="0 -60 512 512" width="512" xmlns="http://www.w3.org/2000/svg"><title>cheese</title><g class="nc-icon-wrapper" fill="#000000"><path d="M362 181.79c0 16.534 13.46 30 30 30s30-13.466 30-30c0-8.087-2.887-12.177-8.773-30h97.843C502.414 45.95 415.45 6.495 408.86 0L12.2 151.777h358.573C364.695 170.184 362 173.543 362 181.79zm30-120h30v30h-30zm-60 60h-30v-30h30zm0 0"/><path d="M196 271.79c8.277 0 15-6.728 15-15 0-8.278-6.723-15-15-15s-15 6.722-15 15c0 8.272 6.723 15 15 15zm0 0"/><path d="M317 301.79c8.277 0 15-6.728 15-15 0-8.278-6.723-15-15-15s-15 6.722-15 15c0 8.272 6.723 15 15 15zm0 0"/><path d="M76 376.79c0-24.856 20.148-45 45-45s45 20.144 45 45c0 5.284-1.078 10.284-2.754 15H512v-210h-60c0 33.089-26.91 60-60 60s-60-26.911-60-60H0v210h78.754c-1.676-4.716-2.754-9.716-2.754-15zm346-75h30v30h-30zm-105-60c24.813 0 45 20.183 45 45 0 24.812-20.188 45-45 45s-45-20.188-45-45c0-24.817 20.188-45 45-45zm-121-30c24.813 0 45 20.183 45 45 0 24.812-20.188 45-45 45s-45-20.188-45-45c0-24.817 20.188-45 45-45zm-105 0h30v30H91zm0 0"/></g></svg>