<svg clip-rule="evenodd" height="512" stroke-miterlimit="2" viewBox="0 0 64 64" width="512" xmlns="http://www.w3.org/2000/svg"><title>chess</title><g fill-rule="evenodd" stroke-linejoin="round" class="nc-icon-wrapper" fill="#000000"><path d="M31.042 53v6.042H8.958V53zm24 6.042H32.958v-6.168h22.084zm-2.084-8.084H35.042v-2.084h17.916zm-23.916 0H10.958v-4h18.084zm24-24.958v4h-3.885l1.781 16.958H37.062L38.843 30h-3.885v-4zm-38.199 4h10.314l1.575 15H13.268zm-3.885-13.042h5.084v5h.916v-5h6.084v5h.916v-5h5.084V28H10.958zM49.248 24H38.752l-2-11.042h6.206V9.042H40V6.958h2.958V4h2.084v2.958H48v2.084h-2.958v3.916h6.206z"/></g></svg>