<svg version="1.1" id="Capa_1" xmlns="http://www.w3.org/2000/svg" x="0" y="0" viewBox="0 0 512 512" xml:space="preserve" enable-background="new 0 0 512 512" width="512" height="512"><title>chinese</title><g class="nc-icon-wrapper" fill="#000000"><path d="M259.3 353.72h70.02v70.02H259.3z"/><path d="M359.32 253.7h70.02v70.02h-70.02z"/><path d="M359.32 353.72h70.02v70.02h-70.02z"/><path d="M259.3 253.7h70.02v70.02H259.3z"/><path d="M259.3 144.65h170.04v22.651H259.3z"/><path d="M0 0v512h512V0H0zm127.532 58.259c19.86 0 36.017 16.157 36.017 36.016 0 19.859-16.157 36.016-36.017 36.016-19.86 0-36.017-16.157-36.017-36.016 0-19.859 16.157-36.016 36.017-36.016zm54.373 244.862l-40.426-35.21v186.764h-30V267.911l-40.426 35.21-19.703-22.623 63.894-55.649 19.279-27.546H51.725v-30h140.412l-45.633 65.201 55.105 47.994-19.704 22.623zm277.436 150.62H229.296V223.696h230.045v230.045zm0-256.438H229.296v-82.651h230.045v82.651zm.934-109.044H228.362v-30h231.913v30z"/></g></svg>