<svg xmlns="http://www.w3.org/2000/svg" id="Capa_1" height="512" viewBox="0 0 512 512" width="512"><title>circus</title><g class="nc-icon-wrapper" fill="#000000"><path d="M164.819 267.049H84.682L30.55 493.453A15 15 0 0 0 45.124 512h39.444z" fill="#000000"/><path d="M347.591 267.049L427.394 512h39.481a14.998 14.998 0 0 0 14.574-18.547L427.317 267.05h-79.726z" fill="#000000"/><path d="M315.988 267.049h-44.791c4.172 146.244 77.56 235.871 85.731 244.951h38.864z" fill="#000000"/><path d="M197.761 442.511c18.698-37.379 40.786-97.48 43.037-175.461h-44.359L116.189 512h38.88c4.008-4.462 23.473-31.07 42.692-69.489z" fill="#000000"/><path d="M288.018 461.145c-10.909-21.631-22.883-54.302-32.018-89.207-9.134 34.905-21.108 67.576-32.018 89.207-10.978 21.767-21.975 38.795-30.667 50.855h125.369c-8.692-12.06-19.688-29.088-30.666-50.855z" fill="#000000"/><path d="M271.003 148.753v-34.732l82.041-40.726a15 15 0 0 0 0-26.872L262.673 1.564A15.002 15.002 0 0 0 241.003 15v133.753L99.638 237.049h312.724z" fill="#000000"/></g></svg>