<svg id="Capa_1" height="512" viewBox="0 0 512 512" width="512" xmlns="http://www.w3.org/2000/svg"><title>city</title><g class="nc-icon-wrapper" fill="#000000"><path d="M321 15c0-8.284-6.716-15-15-15H206c-8.284 0-15 6.716-15 15v25h130z"/><path d="M497 482h-6V337c0-5.682-3.21-10.876-8.292-13.416L446 305.23V482h-30V257c0-5.016-2.506-9.699-6.68-12.48l-90-60A14.999 14.999 0 0 0 296 197v285h-30V197a44.929 44.929 0 0 1 23.767-39.676A45.15 45.15 0 0 1 310.999 152a44.847 44.847 0 0 1 24.968 7.562L351 169.584V85c0-8.284-6.716-15-15-15H176c-8.284 0-15 6.716-15 15v17h25c24.813 0 45 20.187 45 45v335h-30V147c0-8.284-6.716-15-15-15H96c-8.284 0-15 6.716-15 15v200h35c24.813 0 45 20.187 45 45v90h-30v-90c0-8.284-6.716-15-15-15H36c-8.284 0-15 6.716-15 15v90h-6c-8.284 0-15 6.716-15 15s6.716 15 15 15h482c8.284 0 15-6.716 15-15s-6.716-15-15-15zM341 307c0-8.284 6.716-15 15-15s15 6.716 15 15v30c0 8.284-6.716 15-15 15s-15-6.716-15-15zm0 90c0-8.284 6.716-15 15-15s15 6.716 15 15v30c0 8.284-6.716 15-15 15s-15-6.716-15-15zm-185-90c0 8.284-6.716 15-15 15s-15-6.716-15-15v-30c0-8.284 6.716-15 15-15s15 6.716 15 15zm0-90c0 8.284-6.716 15-15 15s-15-6.716-15-15v-30c0-8.284 6.716-15 15-15s15 6.716 15 15zM61 447c0-8.284 6.716-15 15-15s15 6.716 15 15v35H61z"/></g></svg>