<svg xmlns="http://www.w3.org/2000/svg" id="bold" height="512" viewBox="0 0 24 24" width="512"><title>classic</title><g class="nc-icon-wrapper" fill="#000000"><path d="M7.75 24a.75.75 0 0 1-.75-.75V.75a.75.75 0 0 1 1.5 0v22.5a.75.75 0 0 1-.75.75z" fill="#000000"/><path d="M16.25 24a.75.75 0 0 1-.75-.75V.75a.75.75 0 0 1 1.5 0v22.5a.75.75 0 0 1-.75.75z" fill="#000000"/><path d="M23.25 8.5H.75a.75.75 0 0 1 0-1.5h22.5a.75.75 0 0 1 0 1.5z" fill="#000000"/><path d="M23.25 17H.75a.75.75 0 0 1 0-1.5h22.5a.75.75 0 0 1 0 1.5z" fill="#000000"/><path d="M12 15c-1.654 0-3-1.346-3-3s1.346-3 3-3 3 1.346 3 3-1.346 3-3 3zm0-4.5c-.827 0-1.5.673-1.5 1.5s.673 1.5 1.5 1.5 1.5-.673 1.5-1.5-.673-1.5-1.5-1.5z" fill="#000000"/><path d="M3 6C1.346 6 0 4.654 0 3s1.346-3 3-3 3 1.346 3 3-1.346 3-3 3zm0-4.5c-.827 0-1.5.673-1.5 1.5S2.173 4.5 3 4.5 4.5 3.827 4.5 3 3.827 1.5 3 1.5z" fill="#000000"/><path d="M22.25 6a.744.744 0 0 1-.53-.22l-3.5-3.5a.75.75 0 1 1 1.061-1.061l3.5 3.5A.75.75 0 0 1 22.25 6z" fill="#000000"/><path d="M18.75 6a.75.75 0 0 1-.53-1.281l3.5-3.5a.75.75 0 1 1 1.061 1.061l-3.5 3.5a.748.748 0 0 1-.531.22z" fill="#000000"/><path d="M22.25 23a.744.744 0 0 1-.53-.22l-3.5-3.5a.75.75 0 1 1 1.061-1.061l3.5 3.5A.75.75 0 0 1 22.25 23z" fill="#000000"/><path d="M18.75 23a.75.75 0 0 1-.53-1.281l3.5-3.5a.75.75 0 1 1 1.061 1.061l-3.5 3.5a.748.748 0 0 1-.531.22z" fill="#000000"/></g></svg>