<svg version="1.1" id="Capa_1" xmlns="http://www.w3.org/2000/svg" x="0" y="0" viewBox="0 0 297 297" xml:space="preserve" enable-background="new 0 0 297 297" width="297" height="297"><title>clicking</title><g class="nc-icon-wrapper" fill="#000000"><path d="M294.077 251.199l-59.105-59.107 42.167-24.356a9.93 9.93 0 1 0-1.288-17.825L87.82 74.905a9.93 9.93 0 0 0-12.905 12.903l74.994 188.053a9.934 9.934 0 0 0 17.827 1.289l24.354-42.167 59.101 59.107a9.932 9.932 0 0 0 14.046 0l28.841-28.845c3.878-3.879 3.878-10.167-.001-14.046z"/><path d="M43.61 29.552c-3.879-3.876-10.166-3.877-14.047 0-3.878 3.879-3.878 10.168 0 14.047l22.069 22.069a9.9 9.9 0 0 0 7.023 2.909 9.9 9.9 0 0 0 7.022-2.909c3.879-3.879 3.879-10.167 0-14.046L43.61 29.552z"/><path d="M51.089 98.215c0-5.484-4.447-9.932-9.933-9.932H9.946c-5.485 0-9.933 4.447-9.933 9.932s4.447 9.933 9.933 9.933h31.21c5.486-.001 9.933-4.448 9.933-9.933z"/><path d="M47.063 128.869L24.991 150.94c-3.878 3.879-3.878 10.168 0 14.046a9.905 9.905 0 0 0 7.023 2.909c2.541 0 5.084-.97 7.023-2.909l22.071-22.07c3.879-3.879 3.879-10.168 0-14.047-3.878-3.876-10.164-3.877-14.045 0z"/><path d="M98.222 51.078c5.485 0 9.933-4.447 9.933-9.933V9.932c0-5.485-4.447-9.932-9.933-9.932-5.484 0-9.932 4.446-9.932 9.932v31.214c0 5.485 4.447 9.932 9.932 9.932z"/><path d="M135.894 64.006a9.9 9.9 0 0 0 7.023-2.909l22.068-22.069c3.879-3.879 3.879-10.168 0-14.047-3.879-3.877-10.168-3.877-14.046 0l-22.068 22.07c-3.879 3.879-3.879 10.168 0 14.046a9.903 9.903 0 0 0 7.023 2.909z"/></g></svg>