<svg xmlns="http://www.w3.org/2000/svg" version="1.1" id="Capa_1" x="0" y="0" viewBox="0 0 437.053 437.053" xml:space="preserve" width="512" height="512" enable-background="new 0 0 437.053 437.053"><title>clothes</title><g class="nc-icon-wrapper" fill="#000000"><path d="M416.269 291.633l-180.723-113.19v-8.502c0-5.023 2.577-9.071 8.112-12.721.683-.455 1.488-.943 2.382-1.488 8.779-5.381 27.052-16.574 27.052-41.805 0-26.207-21.598-46.317-42.488-50.625-21.996-4.568-41.943.788-54.933 15.046-11.843 12.957-15.168 23.752-15.867 41.277-.057 1.268-.089 3.999-.122 6.665-.033 3.682 7.234 6.674 16.208 6.674h3.251c8.974 0 16.265-2.975 16.282-6.657.008-3.04.033-6.096.057-6.674.496-12.087 3.747-19.2 16.086-21.695 7.673-1.544 15.956.602 20.809 5.357 2.203 2.146 3.365 5.869 3.04 9.714-.211 2.561-1.309 7.356-6.145 10.689l-15.485 10.543c-9.876 6.324-14.079 13.892-14.079 25.296v18.931l-178.9 112.767C-5.71 307.589-.223 335.479 2.094 343.64c2.122 7.438 11.77 31.701 46.902 31.701H390.29c24.825 0 40.529-16.143 45.105-32.157 4.739-16.744-.398-40.512-19.126-51.551zm-18.363 39.391c-.853 2.991-3.625 6.218-8.129 6.218H48.565c-4.731-.016-7.397-3.121-8.242-5.771-1.081-3.406.317-6.885 3.536-9.169l174.878-109.459 175.845 109.923c4.349 2.723 3.772 6.681 3.324 8.258z" fill="#000000"/></g></svg>