<svg xmlns="http://www.w3.org/2000/svg" id="Layer_1" height="512" viewBox="0 0 505.299 505.299" width="512"><title>coloring</title><g class="nc-icon-wrapper" fill="#000000"><g id="XMLID_31_"><path id="XMLID_1_" d="M239.496 384.74v120.559c49.481-3.235 95.86-22.446 133.137-55.147l-85.248-85.247a103.868 103.868 0 0 1-47.889 19.835z" fill="#000000"/><path id="XMLID_1531_" d="M212.93 176.436l11.53-1.27 17.378-119.364h-17.342c-55.071 0-107.114 19.664-148.136 55.65l85.251 85.252c14.929-11.232 32.412-18.185 51.319-20.268z" fill="#000000"/><path id="XMLID_1536_" d="M328.772 293.157c-2.186 18.604-9.102 35.809-20.179 50.529l85.252 85.252c35.987-41.022 55.651-93.064 55.651-148.136v-17.341l-120.725 17.57v12.126z" fill="#000000"/><path id="XMLID_1540_" d="M140.395 217.913l-85.247-85.247C22.446 169.943 3.235 216.321 0 265.803h120.559a103.852 103.852 0 0 1 19.836-47.89z" fill="#000000"/><path id="XMLID_1541_" d="M76.36 450.151c37.276 32.701 83.654 51.912 133.136 55.147V384.74a103.884 103.884 0 0 1-47.889-19.836z" fill="#000000"/><path id="XMLID_1542_" d="M120.559 295.803H0c3.235 49.481 22.446 95.859 55.147 133.136l85.247-85.247a103.866 103.866 0 0 1-19.835-47.889z" fill="#000000"/><path id="XMLID_1543_" d="M385.809 14.537h59.999v149.906h-59.999z" transform="rotate(-45 415.82 89.573)" fill="#000000"/><path id="XMLID_1548_" d="M496.513 8.787l-.001-.001c-11.715-11.715-30.71-11.715-42.426 0L437.022 25.85l42.427 42.427 17.064-17.065c11.715-11.715 11.715-30.71 0-42.425z" fill="#000000"/><path id="XMLID_1574_" d="M198.89 306.409h42.426l153.206-153.206-42.426-42.427L198.89 263.982z" fill="#000000"/></g></g></svg>