<svg xmlns="http://www.w3.org/2000/svg" id="Capa_1" height="512" viewBox="0 0 512 512" width="512"><title>coloredblocks</title><g class="nc-icon-wrapper" fill="#000000"><path d="M214.926 167.48h82.148L256 96.338z" fill="#000000"/><path d="M376.5 73L256 4.756 135.5 73v135.783L256 277.027l120.5-68.244zM190.023 197.48l-13.529-23.434 65.977-114.275h27.059l65.977 114.275-13.529 23.434z" fill="#000000"/><path d="M391.5 395.291l24.654 12.961-4.708-27.453 19.947-19.442-27.566-4.006-12.327-24.977-12.327 24.977-27.566 4.006 19.947 19.442-4.708 27.453z" fill="#000000"/><path d="M512 439V303.009l-120.5-68.244L271 303.009V439l120.5 68.244zm-179.511-7.901l6.83-39.826-28.936-28.206 8.88-27.326 39.987-5.811 17.883-36.235h28.732l17.883 36.235 39.987 5.811 8.88 27.326-28.936 28.206 6.83 39.826-23.244 16.889-35.765-18.803-35.767 18.803z" fill="#000000"/><ellipse cx="120.5" cy="371.005" rx="43.071" ry="43.072" transform="rotate(-9.25 120.398 371.482)" fill="#000000"/><path d="M241 439V303.009l-120.5-68.244L0 303.009V439l120.5 68.244zM47.429 371.005c0-40.292 32.779-73.072 73.071-73.072s73.071 32.78 73.071 73.072-32.779 73.071-73.071 73.071-73.071-32.78-73.071-73.071z" fill="#000000"/></g></svg>