<svg xmlns="http://www.w3.org/2000/svg" version="1.1" id="Capa_1" x="0" y="0" width="512" height="512" viewBox="0 0 124.6 124.6" xml:space="preserve" enable-background="new 0 0 124.6 124.6"><title>concentration</title><g class="nc-icon-wrapper" fill="#000000"><path d="M62.3 33.9c14.9 0 27 12.1 27 27 0 4.3-1 8.3-2.801 11.9 1.601 2.799 2.101 6.1 1.4 9.299L85.1 95c11-7.4 18.2-19.9 18.2-34.1 0-22.6-18.4-41-41-41s-41 18.4-41 41c0 14.1 7.1 26.5 17.9 33.9l-2.7-12.6c-.7-3.3-.2-6.7 1.5-9.601-1.7-3.5-2.7-7.5-2.7-11.699 0-14.8 12.099-27 27-27z" fill="#000000"/><path d="M45.399 121.6l-1.5-11.6c-1.1-1.4-1.9-3-2.4-4.8-16.1-7.8-27.2-24.2-27.2-43.3 0-26.5 21.5-48 48-48s48 21.5 48 48c0 19.1-11.2 35.699-27.5 43.4a13.988 13.988 0 0 1-2.4 4.699l-1.5 11.7c26.2-7.3 45.4-31.2 45.4-59.7 0-34.2-27.801-62-62-62-34.2 0-62 27.8-62 62 .001 28.401 19.1 52.302 45.1 59.601z" fill="#000000"/><path d="M45 94.801c.1 1.399.6 2.799 1.3 4 .3.5.7 1 1.2 1.399.5.5 1.1 1 1.7 1.3l.2 4.2.1 2.5.5 10.4c0 1.801.8 3.301 2 4.4.2.2.4.301.6.5 1 .7 2.2 1.1 3.5 1.1h12.1c1.199 0 2.299-.399 3.299-1 .301-.2.601-.4.801-.6 1.199-1.1 2-2.699 2-4.4l.5-10.5.1-2.799.2-3.9c.5-.301 1-.7 1.5-1.1.601-.5 1-1.101 1.5-1.701.7-1.1 1.2-2.5 1.3-3.899 0-.5 2.6-13.5 2.6-13.5.1-.701.2-1.501.2-2.201-.101-2.3-1.101-4.6-2.801-6.1-1.5-1.2-3.5-2.2-5.6-2.2h-23c-2.1 0-4.1 1-5.6 2.3-1.8 1.5-2.7 3.801-2.8 6.1 0 .701 0 1.5.2 2.201-.2 0 2.401 13 2.401 13.5z" fill="#000000"/><path d="M48.399 54.7c0 4.5 2.1 8.399 5.4 11 2.4 1.899 5.4 3 8.6 3 3.2 0 6.301-1.101 8.6-3 3.301-2.601 5.4-6.5 5.4-11 0-7.7-6.3-14-14-14-7.699 0-14 6.3-14 14z" fill="#000000"/></g></svg>