<svg xmlns="http://www.w3.org/2000/svg" version="1.1" id="Capa_1" x="0" y="0" viewBox="0 0 364.701 364.701" xml:space="preserve" width="512" height="512" enable-background="new 0 0 364.701 364.701"><title>couple</title><g class="nc-icon-wrapper" fill="#000000"><g id="XMLID_21_"><path id="XMLID_22_" d="M246.5 37.976C246.5 17.036 229.464 0 208.524 0c-9.897 0-19.162 3.75-26.174 10.452C175.339 3.75 166.074 0 156.177 0c-20.939 0-37.976 17.036-37.976 37.976 0 37.146 44.271 66.768 57.839 74.961a12.24 12.24 0 0 0 12.615.027c13.57-8.12 57.845-37.524 57.845-74.988z" fill="#000000"/><path id="XMLID_23_" d="M81.693 238.372c36.085 0 65.441-29.356 65.441-65.44s-29.356-65.44-65.441-65.44c-36.084 0-65.44 29.356-65.44 65.44s29.356 65.44 65.44 65.44z" fill="#000000"/><path id="XMLID_24_" d="M217.566 170.142v56.142h27.618c10.689 7.6 23.738 12.088 37.823 12.088s27.134-4.488 37.823-12.088h27.618v-56.142c0-36.084-29.356-65.44-65.44-65.44-36.085-.001-65.442 29.356-65.442 65.44z" fill="#000000"/><path id="XMLID_25_" d="M109.496 263.935H53.891c-27.419 0-49.726 22.307-49.726 49.726v51.041h155.058v-51.041c0-27.419-22.308-49.726-49.727-49.726z" fill="#000000"/><path id="XMLID_26_" d="M310.811 263.935h-55.605c-27.419 0-49.727 22.307-49.727 49.726v51.041h155.058v-51.041c-.001-27.419-22.308-49.726-49.726-49.726z" fill="#000000"/></g></g></svg>