<svg xmlns="http://www.w3.org/2000/svg" height="512" viewBox="-9 0 512 512.001" width="512"><title>craft</title><g class="nc-icon-wrapper" fill="#000000"><path d="M225.422 433.898h78.101V512h-78.101zm0 0" fill="#000000"/><path d="M320.879 433.898h78.101V512H320.88zm0 0" fill="#000000"/><path d="M416.34 512h69.422c4.793 0 8.68-3.883 8.68-8.676v-69.426H416.34zm0 0" fill="#000000"/><path d="M320.879 338.441h78.101v78.102H320.88zm0 0" fill="#000000"/><path d="M416.34 338.441h78.101v78.102H416.34zm0 0" fill="#000000"/><path d="M416.34 242.984h78.101v78.102H416.34zm0 0" fill="#000000"/><path d="M103.93 416.543c0 9.586 7.773 17.355 17.36 17.355h8.675v69.426c0 4.793 3.887 8.676 8.68 8.676h69.421V399.188H121.29c-9.586 0-17.36 7.769-17.36 17.355zm0 0" fill="#000000"/><path d="M199.39 321.086c0 9.586 7.77 17.355 17.356 17.355h8.676v78.102h78.101V303.73h-86.777c-9.586 0-17.355 7.77-17.355 17.356zm0 0" fill="#000000"/><path d="M294.848 225.629c0 9.586 7.77 17.355 17.355 17.355h8.676v78.102h78.101V208.273h-86.777c-9.586 0-17.355 7.77-17.355 17.356zm0 0" fill="#000000"/><path d="M390.305 130.172c0 9.582 7.77 17.355 17.355 17.355h8.68v78.102h78.101V112.813h-86.78c-9.587 0-17.356 7.773-17.356 17.359zm0 0" fill="#000000"/><path d="M201.316 115.887c.434.433 44.125 44.004 51.79 90l33.93 1.515c.98-3.746 23.597-92.695-30.556-146.855L231.922 36.03C208.344 12.461 174.109 0 132.914 0a206.386 206.386 0 0 0-47.848 5.484l1.563 33.907c45.75 7.629 89.555 51.363 90.066 51.875L4.871 263.09c-6.574 6.812-6.48 17.637.211 24.332 6.695 6.695 17.523 6.789 24.332.21L201.238 115.81zm0 0" fill="#000000"/><path d="M320.879 147.527v-17.355c0-4.793-3.883-8.68-8.676-8.68s-8.68 3.887-8.68 8.68v17.355c0 4.793 3.887 8.676 8.68 8.676s8.676-3.883 8.676-8.676zm0 0" fill="#000000"/><path d="M344.371 171.016l17.356-17.356c3.289-3.402 3.242-8.816-.106-12.164s-8.758-3.394-12.164-.105l-17.355 17.355a8.676 8.676 0 1 0 3.832 14.637 8.667 8.667 0 0 0 8.437-2.367zm0 0" fill="#000000"/><path d="M256.254 226.54l-17.356 8.679c-4.289 2.14-6.027 7.355-3.886 11.644 2.144 4.29 7.355 6.032 11.644 3.887l17.36-8.676a8.687 8.687 0 0 0 3.886-11.648 8.686 8.686 0 0 0-11.648-3.887zm0 0" fill="#000000"/></g></svg>