<svg xmlns="http://www.w3.org/2000/svg" version="1.1" id="Capa_1" x="0" y="0" viewBox="0 0 512 512" xml:space="preserve" width="512" height="512" enable-background="new 0 0 512 512"><title>crazy</title><g class="nc-icon-wrapper" fill="#000000"><path d="M149.333 213.313c5.458 0 10.917-2.063 15.083-6.229 8.313-8.313 8.313-21.854 0-30.167-8.333-8.333-21.833-8.333-30.167 0-8.313 8.313-8.313 21.854 0 30.167 4.168 4.166 9.626 6.229 15.084 6.229z" fill="#000000"/><path d="M336.917 134.25c-8.313 8.313-8.313 21.854 0 30.167 4.167 4.167 9.625 6.229 15.083 6.229s10.917-2.063 15.083-6.229c8.313-8.313 8.313-21.854 0-30.167-8.333-8.333-21.833-8.333-30.166 0z" fill="#000000"/><path d="M256 0C114.833 0 0 114.833 0 256s114.833 256 256 256 256-114.833 256-256S397.167 0 256 0zm-85.333 106.667c35.292 0 64 28.708 64 64s-28.708 64-64 64-64-28.708-64-64 28.708-64 64-64zm234.375 226.458c-6.681 28.163-22.091 52.711-42.607 72.063-29.764-22.941-71.119-28.031-106.122-10.25-35.121-17.88-76.715-12.624-106.458 10.568-20.686-19.397-36.212-44.06-42.896-72.38-.75-3.188-.021-6.521 2.021-9.083a10.692 10.692 0 0 1 8.353-4.043h277.333c3.271 0 6.354 1.5 8.375 4.063 2.022 2.541 2.751 5.895 2.001 9.062zm-63.709-98.458c-35.292 0-64-28.708-64-64s28.708-64 64-64 64 28.708 64 64c0 35.291-28.708 64-64 64z" fill="#000000"/></g></svg>