<svg height="512" viewBox="0 0 57 57" width="512" xmlns="http://www.w3.org/2000/svg"><title>cricket</title><g class="nc-icon-wrapper" fill="#000000"><g id="Page-1" fill="none" fill-rule="evenodd"><g id="009---Crossed-Bats" fill="#000000" fill-rule="nonzero" transform="translate(0 -1)"><path id="Shape" d="M5.121 7.95l.707-.707a1 1 0 1 1 1.414 1.414l-.707.707 1.414 1.416.708-.709a1 1 0 1 1 1.414 1.414l-.709.709 1.414 1.415.709-.71a1 1 0 1 1 1.415 1.414l-.709.71 2.765 2.768 7.369 5.157.624-.624-5.157-7.368L6.535 3.708 3.708 6.535z"/><path id="Shape" d="M27.584 17.688L24.093 14.2a.981.981 0 0 0-.713-.3H20.8a.994.994 0 0 0-.712.3l-.228.227 4.524 6.464z"/><path id="Shape" d="M43.041 17.787l2.766-2.766-.706-.708a1 1 0 0 1 1.414-1.413l.707.708 1.414-1.415-.707-.707a1 1 0 1 1 1.414-1.414l.707.707 1.415-1.414-.707-.707a1 1 0 0 1 1.414-1.414l.707.706 1.414-1.414-2.828-2.829-11.253 11.251-6.6 9.429z"/><path id="Shape" d="M56.414 4.414a2 2 0 0 0 0-2.828 2.047 2.047 0 0 0-2.828 0l-.707.707 2.828 2.828z"/><path id="Shape" d="M14.2 20.087a1 1 0 0 0-.3.713v2.58c-.003.263.1.516.288.7l3.5 3.5 3.2-3.2-6.464-4.52z"/><path id="Shape" d="M56.906 47L40.312 30.416l-9.9 9.9 16.655 16.647c.625.3 4.371-.126 7.065-2.829s3.134-6.442 2.774-7.134z"/><path id="Shape" d="M39.6 28.293l.018-.012 4.186-4.188a1 1 0 0 0 .294-.714v-2.574a1 1 0 0 0-.294-.714l-.235-.234-8.809 6.168a1.973 1.973 0 0 1-2.56-.225 1.972 1.972 0 0 1-.224-2.561l6.168-8.813-.234-.234a1 1 0 0 0-.71-.292h-2.579a1 1 0 0 0-.713.294l-4.195 4.2-.006.009-.007-.003-11.295 11.3-.008.012-.011.008L1.034 47.066c-.3.624.13 4.372 2.829 7.071s6.446 3.13 7.143 2.771l17.266-17.273c.009-.01.012-.023.021-.032s.022-.012.031-.021L39.59 28.311c.01-.005.01-.011.01-.018zm-21.722 7.585L5.156 48.6a6.222 6.222 0 0 0 1.535 2.709 1 1 0 1 1-1.414 1.414 8.4 8.4 0 0 1-2.2-4.264 1 1 0 0 1 .278-.882l13.109-13.113a1 1 0 0 1 1.414 1.414z"/><path id="Shape" d="M2.294 5.121L5.12 2.294l-.707-.707a2 2 0 1 0-2.826 2.826z"/></g></g></g></svg>