<svg xmlns="http://www.w3.org/2000/svg" height="512" version="1.1" viewBox="0 -16 512 512" width="512"><title>crime</title><g class="nc-icon-wrapper" fill="#000000"><g id="surface1"><path d="M208.531 381.04c-14.12 15.44-34.441 25.12-57.02 25.12-12.542 0-24.382-2.988-34.85-8.289l-39.7 62.5c21.93 12.41 47.238 19.488 74.18 19.488 42.71 0 81.34-17.808 108.847-46.39-9.718-6.528-18.816-14.02-27.218-22.41-9.192-9.2-17.301-19.23-24.239-30.02zm0 0" stroke="none" fill-rule="nonzero" fill="#000000" fill-opacity="1"/><path d="M429.012 148.04L414.25 91.218h-38.21a108.569 108.569 0 0 0-3.821-15 108.902 108.902 0 0 0-6.219-15C347.719 24.94 310.121 0 266.8 0h-19.64c-61.219 0-111.02 49.8-111.02 111.012V141H91.45l-14.571 56.05a151.75 151.75 0 0 0-53.84 51.43C7.97 272.488 0 300.238 0 328.72c0 45.64 20.328 86.62 52.41 114.351l40.52-63.78c-11.649-13.54-18.7-31.15-18.7-50.411 0-42.668 34.598-77.27 77.282-77.27a77.119 77.119 0 0 1 29.976 6.032 180.47 180.47 0 0 1 25.852-70.852 182.703 182.703 0 0 1 11.25-15.95L210.828 141h-44.687v-29.988C166.14 66.34 202.48 30 247.16 30h19.64c25.91 0 49.027 12.23 63.86 31.219a80.907 80.907 0 0 1 9.288 15 79.409 79.409 0 0 1 5.41 15h-37.89l-14.77 56.82a151.701 151.701 0 0 0-59.379 53.813c-14.14 22.168-22.648 48.27-23.52 76.296-.05 1.602-.081 3.211-.081 4.82 0 24.333 5.75 47.313 15.96 67.66 8.731 17.43 20.743 32.93 35.22 45.7l8.19-12.887 27.583-43.421c-13.422-15.16-21.57-35.079-21.57-56.86 0-11.148 2.128-21.808 6.02-31.59 12.597-31.78 43.66-54.308 79.866-54.308 9.723 0 19.07 1.617 27.793 4.617.66.223 1.328.46 1.98.7.509.19 1.02.382 1.528.581l1.5.602c31.262 12.797 53.27 43.527 53.27 79.398 0 37.121-23.57 68.73-56.57 80.668-1.31.48-2.637.934-3.989 1.352-.5.16-1.012.308-1.52.46a85.588 85.588 0 0 1-23.992 3.41c-14.718 0-28.578-3.722-40.699-10.269l-26.918 42.39-8.07 12.72c22.23 12.859 48.027 20.218 75.558 20.218C444.33 434.11 512 366.441 512 282.97c0-58.95-33.75-110.008-82.988-134.93zm-263.41 59.32H136.68V178.44h28.922zm209.718-47.758h-28.922V130.68h28.922zm0 0" stroke="none" fill-rule="nonzero" fill="#000000" fill-opacity="1"/></g></g></svg>