<svg id="Capa_1" height="512" viewBox="0 0 512 512" width="512" xmlns="http://www.w3.org/2000/svg"><title>crossword</title><g class="nc-icon-wrapper" fill="#000000"><g id="Crossword"><path d="M106 136H15c-8.291 0-15 6.709-15 15v75c0 8.291 6.709 15 15 15h91z"/><path d="M226 136h-90v105h90c8.284 0 15-6.716 15-15v-75c0-8.284-6.716-15-15-15z"/><g><path d="M271 0h105v106H271z"/><path d="M497 0h-91v106h91c8.291 0 15-6.709 15-15V15c0-8.291-6.709-15-15-15z"/><path d="M241 0h-90c-8.291 0-15 6.709-15 15v76c0 8.291 6.709 15 15 15h90z"/></g></g><path d="M271 271h105v105H271z"/><path d="M497 271h-91v105h91c8.291 0 15-6.709 15-15v-75c0-8.291-6.709-15-15-15z"/><path d="M241 271h-90c-8.291 0-15 6.709-15 15v75c0 8.291 6.709 15 15 15h90z"/><g><path d="M136 406h105v106H136z"/><path d="M361 406h-90v106h90c8.291 0 15-6.709 15-15v-76c0-8.291-6.709-15-15-15z"/><path d="M106 406H15c-8.291 0-15 6.709-15 15v76c0 8.291 6.709 15 15 15h91z"/></g></g></svg>