<svg height="512" viewBox="0 -70 512.001 512" width="512" xmlns="http://www.w3.org/2000/svg"><title>crown</title><g class="nc-icon-wrapper" fill="#000000"><path d="M69.82 360.852c0 6.425 5.211 11.636 11.637 11.636h349.094c6.426 0 11.637-5.21 11.637-11.636v-34.91H69.82zm0 0"/><path d="M477.098 69.941c-19.274.02-34.891 15.637-34.91 34.907.054 1.418.199 2.832.425 4.234L341.23 159.773l-66.69-95.277c16.339-10.238 21.28-31.781 11.042-48.117C275.348.039 253.801-4.906 237.465 5.332c-16.336 10.242-21.281 31.781-11.043 48.121a34.947 34.947 0 0 0 11.043 11.043l-66.692 95.277-101.382-50.691c.23-1.402.375-2.816.43-4.234.093-19.278-15.462-34.985-34.743-35.078S.094 85.23 0 104.508c-.086 17.699 13.086 32.66 30.652 34.82l39.168 163.34h372.367l39.165-163.34c19.093-2.305 32.699-19.652 30.394-38.742-2.117-17.52-17.004-30.688-34.648-30.645zm0 0"/></g></svg>