<svg xmlns="http://www.w3.org/2000/svg" id="Capa_1" height="512" viewBox="0 0 512.005 512.005" width="512"><title>cupcake</title><g class="nc-icon-wrapper" fill="#000000"><path d="M256.002 39.699a79.708 79.708 0 0 1 22.692 3.298c4.163-6.958 9.894-11.444 17.335-13.569 7.965-2.276 12.578-10.578 10.302-18.544-2.275-7.966-10.576-12.58-18.544-10.302-19.317 5.519-33.297 19.152-40.821 39.642a80.267 80.267 0 0 1 9.036-.525z" fill="#000000"/><path d="M256.002 169.699c-27.57 0-50-22.43-50-50s22.43-50 50-50 50 22.43 50 50-22.429 50-50 50z" fill="#000000"/><g><path d="M392.931 174.587c-2.96-32.676-26.689-59.451-57.843-66.981.601 3.945.914 7.984.914 12.094 0 44.112-35.888 80-80 80s-80-35.888-80-80c0-3.766.281-7.466.787-11.096-29.013 8.594-50.846 34.07-54.052 64.999-15.284 3.694-29.204 11.824-40.053 23.556-13.754 14.875-21.329 34.23-21.329 54.5 0 44.292 36.034 80.325 80.325 80.325 21.563 0 41.701-8.467 56.563-23.269 14.863 14.802 35.001 23.269 56.564 23.269 21.957 0 42.788-9.094 57.758-24.55 14.97 15.457 35.801 24.55 57.758 24.55 44.291 0 80.325-36.034 80.325-80.325.001-35.913-24.109-67.198-57.717-77.072z" fill="#000000"/><path d="M184.295 511.852L148.701 361.76c-2.327.145-4.667.225-7.02.225-16.657 0-32.46-3.718-46.633-10.356l32.801 118.945c6.545 23.735 30.498 40.499 58.711 41.388a84.578 84.578 0 0 1-2.265-.11z" fill="#000000"/><path d="M370.324 361.984c-2.303 0-4.6-.085-6.891-.231l-35.418 150.079a79.93 79.93 0 0 1-2.461.126c28.149-.943 52.028-17.692 58.562-41.385l32.795-118.924c-14.161 6.626-29.947 10.335-46.587 10.335z" fill="#000000"/><path d="M198.244 346.471a108.714 108.714 0 0 1-20.248 9.442l36.808 156.092h26.067V361.109c-15.188-1.896-29.652-6.871-42.627-14.638z" fill="#000000"/><path d="M312.566 345.567a111.376 111.376 0 0 1-41.694 15.207v151.231h26.241l36.898-156.256a111.63 111.63 0 0 1-21.445-10.182z" fill="#000000"/></g></g></svg>