<svg version="1.1" id="Capa_1" xmlns="http://www.w3.org/2000/svg" x="0" y="0" viewBox="0 0 512 512" xml:space="preserve" enable-background="new 0 0 512 512" width="512" height="512"><title>cut</title><g class="nc-icon-wrapper" fill="#000000"><path d="M280.405 184.156l80.34 62.8L490.449 130.18A65.224 65.224 0 0 0 512 81.779V3.124L280.405 184.156z"/><path d="M233.538 361.483l-83.646-75.309-30.831 24.099a100.339 100.339 0 0 0-18.865-1.789C44.947 308.485 0 353.431 0 408.68s44.947 100.196 100.196 100.196 100.196-44.947 100.196-100.196c0-5.506-.454-10.906-1.312-16.174l34.458-31.023zm-133.342 92.285c-24.862 0-45.088-20.227-45.088-45.088 0-24.862 20.227-45.088 45.088-45.088s45.088 20.227 45.088 45.088c0 24.862-20.227 45.088-45.088 45.088z"/><path d="M411.804 308.485c-6.448 0-12.753.619-18.865 1.789L0 3.124v78.655a65.224 65.224 0 0 0 21.551 48.401L312.92 392.507a100.412 100.412 0 0 0-1.312 16.174c0 55.249 44.947 100.196 100.196 100.196S512 463.929 512 408.68s-44.947-100.195-100.196-100.195zm-155.303-22.044c-8.3 0-15.029-6.729-15.029-15.029s6.729-15.029 15.029-15.029 15.029 6.729 15.029 15.029-6.729 15.029-15.029 15.029zm155.303 167.327c-24.862 0-45.088-20.227-45.088-45.088 0-24.862 20.227-45.088 45.088-45.088 24.862 0 45.088 20.227 45.088 45.088 0 24.862-20.226 45.088-45.088 45.088z"/></g></svg>