<svg xmlns="http://www.w3.org/2000/svg" id="Capa_1" height="512" viewBox="0 0 512 512" width="512"><title>dance</title><g class="nc-icon-wrapper" fill="#000000"><path d="M327.949 45C314.965 18.36 287.63 0 256 0c-31.63 0-58.965 18.36-71.949 45z" fill="#000000"/><path d="M336 80c0-1.681-.069-3.345-.171-5H176.171a81.154 81.154 0 0 0-.171 5v25h160z" fill="#000000"/><path d="M176 135v7c0 44.183 35.817 80 80 80s80-35.817 80-80v-7z" fill="#000000"/><path d="M231 249.132v13.326l25 37.5 25-37.5v-13.326c-8.034 1.874-16.403 2.868-25 2.868s-16.966-.993-25-2.868z" fill="#000000"/><path d="M46 62c-8.284 0-15 6.716-15 15v45h60v-15c0-24.853-20.147-45-45-45z" fill="#000000"/><g><path d="M466 512c8.284 0 15-6.716 15-15v-45h-60v15c0 24.853 20.147 45 45 45z" fill="#000000"/></g><path d="M406 257h-95v10c0 2.961-.876 5.856-2.519 8.32L271 331.542V427c0 8.284-6.716 15-15 15s-15-6.716-15-15v-95.458l-37.481-56.221a14.996 14.996 0 0 1-2.519-8.32v-9.999h-95a14.912 14.912 0 0 1-10.888-4.681c-2.736-2.883-4.112-6.8-4.112-10.774V152H31v90c0 41.421 33.579 75 75 75h25v180c0 8.284 6.716 15 15 15h220c8.284 0 15-6.716 15-15V317h25c8.284 0 15 6.716 15 15v90h60v-90c0-41.355-33.645-75-75-75z" fill="#000000"/><g><path d="M511.419 95.879C503.701 68.866 478.69 50 450.596 50h-3.6c-8.284 0-15 6.716-15 15v72.58a44.79 44.79 0 0 0-15-2.58c-24.813 0-45 20.187-45 45s20.187 45 45 45 45-20.187 45-45V82.035c9.775 3.599 17.609 11.696 20.577 22.086 2.276 7.965 10.578 12.581 18.543 10.302 7.967-2.276 12.579-10.578 10.303-18.544z" fill="#000000"/><path d="M75 367c-8.284 0-15 6.716-15 15v42.58A44.79 44.79 0 0 0 45 422c-24.813 0-45 20.187-45 45s20.187 45 45 45 45-20.187 45-45v-85c0-8.284-6.716-15-15-15z" fill="#000000"/></g></g></svg>