<svg xmlns="http://www.w3.org/2000/svg" version="1.1" id="Capa_1" x="0" y="0" viewBox="0 0 207.514 207.514" xml:space="preserve" width="512" height="512" enable-background="new 0 0 207.514 207.514"><title>darts</title><g class="nc-icon-wrapper" fill="#000000"><path d="M205.264 41.613l-25.552 25.552h-29.603l-4.67 4.67-17.763 17.763-11.068 11.068-9.359 9.359a7.145 7.145 0 0 1-5.069 2.1 7.15 7.15 0 0 1-5.223-2.258c-2.691-2.858-2.409-7.417.366-10.193l18.621-18.621 1.426-1.426 17.84-17.84 4.76-4.76V27.424l8.835-8.835 16.717-16.717a6.663 6.663 0 0 1 .861-.72c.237-.168.479-.323.727-.453.02-.011.041-.018.062-.029.235-.119.474-.219.716-.306.061-.022.121-.044.182-.064.257-.083.517-.153.779-.201.036-.007.073-.009.109-.016a6.29 6.29 0 0 1 .709-.075c.061-.003.121-.007.182-.009.264-.005.527.003.788.03l.129.018c.226.028.451.069.672.121.062.015.125.028.187.044.253.067.503.146.745.242.036.014.07.032.105.046.213.089.42.19.622.301.058.032.116.063.172.096.226.133.446.276.655.435.025.019.048.041.072.06.186.147.363.305.533.473.048.047.096.094.142.143.183.193.358.394.517.611.013.018.024.038.038.057a6.2 6.2 0 0 1 .396.639c.033.061.066.122.097.185.123.246.237.5.328.768l.011.039a6.244 6.244 0 0 1 .243 1.021c.046.294.081.594.088.907l.513 23.996.513.011 23.482.502a6.28 6.28 0 0 1 3.306 1.006c.355.229.692.479.989.769.429.42.795.897 1.089 1.414.294.517.518 1.073.663 1.65.509 2.022.055 4.296-1.68 6.03zm-104.349 8.602c-31.296 0-56.758 25.462-56.758 56.758s25.462 56.758 56.758 56.758 56.758-25.462 56.758-56.758c0-7.72-1.563-15.076-4.37-21.788l-20.511 20.511c.017.426.047.848.047 1.278 0 17.604-14.321 31.925-31.925 31.925s-31.925-14.322-31.925-31.925c0-17.542 14.223-31.82 31.741-31.92l20.911-20.911a56.392 56.392 0 0 0-20.726-3.928zm89.403 27.557a15 15 0 0 1-10.607 4.393h-11.476a71.34 71.34 0 0 1 4.438 24.807c0 39.568-32.19 71.758-71.758 71.758s-71.758-32.19-71.758-71.758 32.19-71.758 71.758-71.758a71.25 71.25 0 0 1 24.055 4.171V27.424c0-3.978 1.58-7.794 4.393-10.607l4.745-4.745a100.094 100.094 0 0 0-33.194-5.64C45.476 6.433.374 51.535.374 106.973c0 55.438 45.103 100.541 100.541 100.541s100.541-45.103 100.541-100.541c0-12.042-2.136-23.592-6.037-34.301l-5.101 5.1z" fill="#000000"/></g></svg>