<svg xmlns="http://www.w3.org/2000/svg" id="Capa_1" height="512" viewBox="0 0 512 512" width="512"><title>dating</title><g class="nc-icon-wrapper" fill="#000000"><path d="M249.946 106.846c-15.41-4.746-34.058 1.45-42.495 14.019L195 139.395l-12.451-18.53c-8.627-12.826-27.543-18.839-42.671-14.18-9.067 2.753-19.878 10.253-19.878 30.278 0 22.676 24.331 42.422 61.143 72.305 4.453 3.604 9.082 7.354 13.857 11.279 4.775-3.926 9.404-7.676 13.857-11.279C245.669 179.385 270 159.639 270 136.963c0-19.834-10.913-27.319-20.054-30.117z" fill="#000000"/><path d="M225 0h-60C74.019 0 0 74.019 0 165c0 41.616 16.157 81.738 44.751 112.119L0 330h225c89.642 0 165-73.229 165-165C390 74.019 315.981 0 225 0zm2.754 232.559c-21.245 17.227-25.973 21.361-32.754 26.968-9.164-7.578-10.573-8.982-32.754-26.968C120.308 198.53 90 173.936 90 136.963c0-29.077 15.381-51.123 41.133-58.975 22.134-6.782 46.626-1.465 63.882 12.583 17.197-13.931 41.602-19.175 63.677-12.422C284.561 86.03 300 108.018 300 136.963c0 36.973-30.308 61.567-72.246 95.596z" fill="#000000"/><path d="M512 347c0-64.385-37.418-120.681-93.016-147.744C402.078 297.926 317.261 362 227 362H122.76c7.614 83.969 78.322 150 164.24 150h225l-44.751-52.881C495.843 428.738 512 388.616 512 347z" fill="#000000"/></g></svg>