<svg xmlns="http://www.w3.org/2000/svg" id="Layer_1" height="512" viewBox="0 0 512.015 512.015" width="512"><title>decorating</title><g class="nc-icon-wrapper" fill="#000000"><path d="M10.068 30.871c2.78 1.11 5.57 2.21 8.36 3.28l31.76 100.66c3.692 11.722 18.664 15.019 26.96 6.1l60.86-65.25 40.54 83.35c5.32 10.939 20.562 12.226 27.56 2.08l50.06-72.63 50.05 72.63c6.966 10.101 22.218 8.905 27.56-2.08l40.44-83.13 60.65 65.03c8.342 8.97 23.289 5.557 26.96-6.1l31.76-100.66c2.79-1.07 5.58-2.17 8.36-3.28 8.21-3.29 12.2-12.6 8.92-20.8-3.29-8.21-12.6-12.19-20.8-8.92-155.31 62.13-312.81 62.13-468.12 0-8.2-3.28-17.51.71-20.8 8.92-3.28 8.2.71 17.511 8.92 20.8z" fill="#000000"/><path d="M256.008 184.011c-44.11 0-80 35.89-80 80 0 38.305 27.196 84.018 64.617 93.959-2.128 5.074-4.617 11.992-4.617 23.376 0 21.207 8 24.34 8 37.335 0 13.143-8 15.87-8 37.33 0 8.837 7.164 16 16 16s16-7.163 16-16c0-13.143 8-15.87 8-37.33 0-21.192-8-24.37-8-37.335 0-10.83 4.121-12.104 6.725-24.364 29.193-8.053 61.275-49.917 61.275-92.971 0-44.109-35.89-80-80-80z" fill="#000000"/><path d="M432.008 224.011c-44.11 0-80 35.89-80 80 0 38.305 27.196 84.018 64.617 93.959-2.128 5.074-4.617 11.992-4.617 23.376 0 21.207 8 24.34 8 37.335 0 13.143-8 15.87-8 37.33 0 8.837 7.164 16 16 16s16-7.163 16-16c0-13.143 8-15.87 8-37.33 0-21.192-8-24.37-8-37.335 0-10.83 4.121-12.104 6.725-24.364 29.193-8.053 61.275-49.917 61.275-92.971 0-44.109-35.89-80-80-80z" fill="#000000"/><path d="M80.008 224.011c-44.11 0-80 35.89-80 80 0 38.305 27.196 84.018 64.617 93.959-2.128 5.074-4.617 11.992-4.617 23.376 0 21.207 8 24.34 8 37.335 0 13.143-8 15.87-8 37.33 0 8.837 7.164 16 16 16s16-7.163 16-16c0-13.143 8-15.87 8-37.33 0-21.192-8-24.37-8-37.335 0-10.83 4.121-12.104 6.725-24.364 29.193-8.053 61.275-49.917 61.275-92.971 0-44.109-35.89-80-80-80z" fill="#000000"/></g></svg>