<svg id="Capa_1" height="512" viewBox="0 0 511.259 511.259" width="512" xmlns="http://www.w3.org/2000/svg"><title>dinosaur</title><g class="nc-icon-wrapper" fill="#000000"><g id="XMLID_344_"><path id="XMLID_345_" d="M184.193 160.785c0 9.255 7.53 16.785 16.785 16.785s16.785-7.53 16.785-16.785S210.233 144 200.978 144s-16.785 7.53-16.785 16.785z"/><path id="XMLID_358_" d="M52.941 198.156c41.868 0 77.262 31.318 82.33 72.849l.316 2.623c.407 3.385.798 6.578 1.242 9.52l103.8-23.55v22.47h30v-26.254h50.21v26.254h30v-26.254h50.209v26.254h30v-26.254h50.21v26.254h30v-89.165c0-45.934-27.065-87.793-68.953-106.642L379.663 58.07H106.526C47.787 58.07 0 105.857 0 164.596v52.708c14.374-11.95 32.832-19.148 52.941-19.148zm349.984-31.919v-30c27.938 0 50.667 22.729 50.667 50.667h-30c0-11.396-9.271-20.667-20.667-20.667zm-155.162-5.452c0 25.797-20.988 46.785-46.785 46.785s-46.785-20.987-46.785-46.785S175.181 114 200.978 114s46.785 20.988 46.785 46.785zm-133.275-42.202l25.286 16.144c-9.533 14.931-9.762 34.264-.597 50.455L113.07 199.96c-14.65-25.88-14.107-57.062 1.418-81.377z"/><path id="XMLID_372_" d="M401.049 342.469l-50.209-2.54v-26.897h-30v25.38l-50.21-2.54v-22.84h-30v21.322l-96.439-4.878 7.876 48.699-29.615 4.79s-16.137-101.5-16.646-105.737l-.315-2.609c-3.231-26.481-25.823-46.464-52.548-46.464C23.75 228.156 0 251.905 0 281.097v116.487c0 30.66 24.944 55.604 55.604 55.604h364.772c50.113 0 90.883-40.77 90.883-90.883v-39.272h-30v23.494l-50.21-2.54v-30.954h-30z"/></g></g></svg>