<svg xmlns="http://www.w3.org/2000/svg" id="Capa_1" height="512" viewBox="0 0 512 512" width="512"><title>doctor</title><g class="nc-icon-wrapper" fill="#000000"><path d="M164 329.414V376c0 74.443 60.557 136 135 136s135-61.557 135-136v-16.518c34.191-6.969 60-37.266 60-73.482 0-41.353-33.647-75-75-75s-75 33.647-75 75c0 36.216 25.809 66.513 60 73.482V376c0 57.891-47.109 106-105 106s-105-48.109-105-106v-46.567c61.218-11.23 131.867-87.244 144.097-159.551 8.02-47.494-11.796-85.514-54.097-104.531V45c0-24.814-20.186-45-45-45s-45 20.186-45 45 20.186 45 45 45h26.631c34.515 12.779 49.021 38.571 42.876 74.887C297.975 227.216 227.779 301 179 301c-54.633 0-130.567-86.758-131.027-151-.205-28.635 14.798-49.167 43.993-60H119c24.814 0 45-20.186 45-45S143.815 0 119 0 74 20.186 74 45v20.184C37.917 81.342 17.922 111.62 18 150c.153 75.214 78.081 166.832 146 179.414zM404 271h30v30h-30z" fill="#000000"/></g></svg>