<svg id="Layer_1" height="512" viewBox="0 0 512 512" width="512" xmlns="http://www.w3.org/2000/svg"><title>dodgeball</title><g class="nc-icon-wrapper" fill="#000000"><g id="_x33_4_dodgeball"><path d="M43.6 482.6H5.5c-3 0-5.5 2.5-5.5 5.5s2.5 5.5 5.5 5.5h38.1c3 0 5.5-2.5 5.5-5.5s-2.5-5.5-5.5-5.5z"/><path d="M81.6 440.8H5.5c-3 0-5.5 2.5-5.5 5.5s2.5 5.5 5.5 5.5h76.1c3 0 5.5-2.5 5.5-5.5s-2.5-5.5-5.5-5.5z"/><path d="M287.5 18.5C163.5 18.5 63 119 63 243s100.5 224.5 224.5 224.5S512 367 512 243 411.5 18.5 287.5 18.5zM255.9 251c2.1-2.1 5.6-2.1 7.8 0s2.1 5.6 0 7.8c-2.1 2.1-3.3 4.9-3.3 7.9s1.2 5.8 3.3 7.9c4.3 4.3 11.4 4.3 15.7 0 2.1-2.1 5.6-2.1 7.8 0s2.1 5.6 0 7.8c-8.6 8.6-22.7 8.6-31.3 0-4.2-4.2-6.5-9.7-6.5-15.6 0-6.1 2.3-11.6 6.5-15.8zm-40.5-40.4c2.1-2.1 5.6-2.1 7.8 0 2.1 2.1 2.1 5.6 0 7.8-4.3 4.3-4.3 11.4 0 15.7 4.2 4.2 11.5 4.2 15.7 0 2.1-2.1 5.6-2.1 7.8 0 2.1 2.1 2.1 5.6 0 7.8-8.6 8.6-22.6 8.6-31.3 0-8.6-8.7-8.6-22.7 0-31.3zm-6.1 77.8c4.3 4.3 11.4 4.3 15.7 0 2.1-2.1 5.6-2.1 7.8 0 2.1 2.1 2.1 5.6 0 7.8-8.6 8.6-22.7 8.6-31.3 0s-8.6-22.7 0-31.3c2.1-2.1 5.6-2.1 7.8 0 2.1 2.1 2.1 5.6 0 7.8-4.3 4.3-4.3 11.4 0 15.7zM175 170.1c2.1-2.1 5.6-2.1 7.8 0 2.1 2.1 2.1 5.6 0 7.8-4.3 4.3-4.3 11.4 0 15.7s11.4 4.3 15.7 0c2.1-2.1 5.6-2.1 7.8 0s2.1 5.6 0 7.8c-8.6 8.6-22.7 8.6-31.3 0s-8.6-22.6 0-31.3zm-13.9 54.4c2.1-2.1 5.6-2.1 7.8 0s2.1 5.6 0 7.8c-2.1 2.1-3.3 4.9-3.3 7.9s1.2 5.8 3.3 7.9c4.3 4.3 11.4 4.3 15.7 0 2.1-2.1 5.6-2.1 7.8 0 2.1 2.1 2.1 5.6 0 7.8-8.6 8.6-22.7 8.6-31.3 0-8.7-8.8-8.7-22.8 0-31.4zm-13.9 54.3c2.1-2.1 5.6-2.1 7.8 0 2.1 2.1 2.1 5.6 0 7.8-4.3 4.3-4.3 11.4 0 15.7 4.2 4.2 11.5 4.2 15.7 0 2.1-2.1 5.6-2.1 7.8 0 2.1 2.1 2.1 5.6 0 7.8-8.6 8.6-22.6 8.6-31.3 0s-8.7-22.6 0-31.3zm71.7 71.8c-8.6 8.6-22.7 8.6-31.3 0s-8.6-22.7 0-31.3c2.1-2.1 5.6-2.1 7.8 0 2.1 2.1 2.1 5.6 0 7.8-4.3 4.3-4.3 11.4 0 15.7s11.4 4.3 15.7 0c2.1-2.1 5.6-2.1 7.8 0 2.1 2.1 2.1 5.6 0 7.8zm40.4 40.4c-8.6 8.6-22.7 8.6-31.3 0s-8.6-22.7 0-31.3c2.1-2.1 5.6-2.1 7.8 0 2.1 2.1 2.1 5.6 0 7.8-4.3 4.3-4.3 11.4 0 15.7s11.4 4.3 15.7 0c2.1-2.1 5.6-2.1 7.8 0 2.2 2.2 2.2 5.6 0 7.8zm13.9-54.4c-8.6 8.6-22.6 8.6-31.3 0-8.6-8.6-8.6-22.7 0-31.3 2.1-2.1 5.6-2.1 7.8 0 2.1 2.1 2.1 5.6 0 7.8-4.3 4.3-4.3 11.4 0 15.7 4.2 4.2 11.5 4.2 15.7 0 2.1-2.1 5.6-2.1 7.8 0 2.2 2.2 2.2 5.7 0 7.8zm40.5 40.5c-8.6 8.6-22.7 8.6-31.3 0s-8.6-22.6 0-31.3c2.1-2.1 5.6-2.1 7.8 0s2.1 5.6 0 7.8c-4.4 4.4-4.4 11.4 0 15.7 4.3 4.3 11.4 4.3 15.7 0 2.1-2.1 5.6-2.1 7.8 0s2.1 5.6 0 7.8zm13.9-54.4c-8.6 8.6-22.7 8.6-31.3 0s-8.6-22.7 0-31.3c2.1-2.1 5.6-2.1 7.8 0s2.1 5.6 0 7.8c-4.3 4.3-4.3 11.4 0 15.7s11.4 4.3 15.7 0c2.1-2.1 5.6-2.1 7.8 0 2.1 2.2 2.1 5.7 0 7.8zm40.4 40.5c-8.6 8.6-22.6 8.7-31.3 0-8.6-8.6-8.6-22.7 0-31.3 2.1-2.1 5.6-2.1 7.8 0s2.1 5.6 0 7.8c-4.3 4.3-4.3 11.4 0 15.7 4.2 4.2 11.5 4.2 15.7 0 2.1-2.1 5.6-2.1 7.8 0s2.2 5.6 0 7.8z"/></g></g></svg>