<svg xmlns="http://www.w3.org/2000/svg" height="512" viewBox="0 0 56 56" width="512"><title>dollhouse</title><g class="nc-icon-wrapper" fill="#000000"><g id="013---Love-Home"><path id="Rectangle-path" d="M31 30h6v4h-6z" fill="#000000"/><path id="Rectangle-path" d="M28 42h20.001v2H28z" fill="#000000"/><path id="Rectangle-path" d="M39 36h6v4h-6z" fill="#000000"/><path id="Rectangle-path" d="M31 36h6v4h-6z" fill="#000000"/><path id="Rectangle-path" d="M39 30h6v4h-6z" fill="#000000"/><path id="Shape" d="M51.815 0a4.474 4.474 0 0 0-3.929 2.3 1.04 1.04 0 0 1-1.772 0A4.474 4.474 0 0 0 42.185 0C39.525 0 38 1.572 38 4.312c0 3.045 1.882 4.2 3.4 5.653 1.119 1.07 4.256 3.646 5.6 4.746 1.349-1.1 4.486-3.676 5.6-4.746C54.211 8.426 56 7.341 56 4.312 56 1.572 54.475 0 51.815 0z" fill="#000000"/><path id="Shape" d="M49.476 15.268C47.535 16.866 47.459 17 47 17a.994.994 0 0 1-.629-.223c-.2-.16-4.864-3.938-6.358-5.367s-3.436-2.761-3.91-5.793L28.565.181a.983.983 0 0 0-1.136 0L19.9 5.617a8.557 8.557 0 0 1-3.283 5.221c-.823.735-1.9 1.833-6.985 5.939a1 1 0 0 1-1.258 0c-.078-.063-.852-.69-1.849-1.51l-6.51 4.709H56z" fill="#000000"/><path id="Shape" d="M8 51v1h14v-1a1 1 0 0 0-1-1H9a1 1 0 0 0-1 1z" fill="#000000"/><path id="Shape" d="M10 48h10v-6.184A2.968 2.968 0 0 1 16.184 40H10z" fill="#000000"/><path id="Shape" d="M2.719 9.347c.992.888 1.4 1.383 6.281 5.364 4.9-4 5.267-4.456 6.281-5.364C16.618 8.152 18 6.916 18 4.312 18 1.572 16.475 0 13.815 0a4.474 4.474 0 0 0-3.929 2.3 1.04 1.04 0 0 1-1.772 0A4.474 4.474 0 0 0 4.185 0C1.525 0 0 1.572 0 4.312c0 2.604 1.382 3.84 2.719 5.035z" fill="#000000"/><path id="Rectangle-path" d="M0 54h56.001v2H0z" fill="#000000"/><circle id="Oval" cx="19" cy="39" r="1" fill="#000000"/><path id="Shape" d="M52 52V22H4v30h2v-1a3 3 0 0 1 2-2.816V30a2 2 0 0 1 2-2h10a2 2 0 0 1 2 2v18.184A3 3 0 0 1 24 51v1zM26 42a2 2 0 0 1 2-2h1V30a2 2 0 0 1 2-2h14a2 2 0 0 1 2 2v10h1a2 2 0 0 1 2 2v2a2 2 0 0 1-2 2H28a2 2 0 0 1-2-2z" fill="#000000"/><path id="Shape" d="M20 30H10v8h6.184A2.967 2.967 0 0 1 20 36.184z" fill="#000000"/></g></g></svg>