<svg xmlns="http://www.w3.org/2000/svg" version="1.1" id="Capa_1" x="0" y="0" viewBox="0 0 512 512" xml:space="preserve" width="512" height="512" enable-background="new 0 0 512 512"><title>doll</title><g class="nc-icon-wrapper" fill="#000000"><circle cx="213.333" cy="117.333" r="10.667" fill="#000000"/><circle cx="298.667" cy="117.333" r="10.667" fill="#000000"/><path d="M53.333 149.342c2.742 0 57.234-.361 96.643-20.73-.217 3.358-.643 6.73-.643 10.063 0 61.91 37.875 96.006 106.667 96.006s106.667-34.096 106.667-96.006c0-3.339-.426-6.714-.645-10.076 39.426 20.384 93.919 20.743 96.645 20.743a10.66 10.66 0 0 0 10.667-10.667c0-60.097-48.958-96.006-96.271-96.006-12.079 0-24.932 2.445-37.063 6.787C315.438 18.292 286.316 0 256 0c-30.339 0-59.465 18.303-80.027 49.484-12.139-4.36-24.982-6.814-37.035-6.814-47.313 0-96.271 35.908-96.271 96.006 0 2.834 1.125 5.542 3.125 7.542s4.708 3.124 7.541 3.124zm127.292-62.571c4.02 4.762 9.578 9.235 18.438 9.235 12.813 0 19-9.271 23.083-15.418 5.542-8.25 5.083-8.407 10.667-.01 4.083 6.146 10.25 15.428 23.063 15.428s19-9.282 23.104-15.418c5.625-8.417 5.188-8.282 10.729.01 4.104 6.136 10.291 15.407 23.125 15.407 8.892 0 14.483-4.505 18.517-9.288 6.466 16.577 9.983 34.528 9.983 51.958 0 50.243-27.917 74.671-85.333 74.671s-85.333-24.429-85.333-74.671c-.001-17.401 3.509-35.334 9.957-51.904z" fill="#000000"/><path d="M216.458 163.135c-4.167 4.167-4.167 10.917 0 15.084 1.417 1.417 14.521 13.792 39.542 13.792s38.125-12.376 39.542-13.792c4.125-4.115 4.104-10.709.063-14.897-4.063-4.188-10.792-4.302-15.021-.313-.333.313-8.375 7.667-24.583 7.667-16 0-24.063-7.177-24.563-7.646-4.146-4.052-10.834-4.031-14.98.105z" fill="#000000"/><path d="M411.042 333.083a49.023 49.023 0 0 0 27.292 8.271h3.104c27.146 0 49.229-22.095 49.229-49.243a49.18 49.18 0 0 0-29.833-45.253l-19.667-8.428-67.146-28.773c-4.521-1.938-9.667-.583-12.667 3.292-21.708 28.168-58.146 43.065-105.354 43.065s-83.646-14.897-105.354-43.065c-3-3.875-8.188-5.229-12.667-3.292l-66.271 28.398-20.542 8.803a49.18 49.18 0 0 0-29.833 45.253c0 27.148 22.083 49.243 49.229 49.243h3.104c9.75 0 19.188-2.865 27.292-8.271l22.292-14.855 30.583-20.387-23.19 46.374c-16.244.689-32.115 6.644-44.622 19.161-29.313 29.304-29.313 76.994 0 106.309 14.333 14.324 39.771 28.606 64.813 36.356 12.854 3.99 24.646 5.959 35.063 5.959 15.292 0 27.646-4.25 36.063-12.678 4.025-4.024 6.848-8.809 8.747-14.099 8.193 3.487 16.732 5.473 25.294 5.473 8.57 0 17.12-1.988 25.324-5.485 1.891 5.309 4.704 10.098 8.717 14.11C298.458 507.75 310.813 512 326.104 512c10.417 0 22.208-1.969 35.063-5.959 25.042-7.75 50.479-22.033 64.813-36.356 29.313-29.314 29.313-77.005 0-106.309-12.617-12.628-28.592-18.851-44.911-19.741l-22.901-45.805 29.813 19.876 23.061 15.377zm29.618-71.657l11.757 5.038a27.885 27.885 0 0 1 16.917 25.647c0 15.386-12.521 27.908-27.896 27.908h-3.104a27.723 27.723 0 0 1-15.458-4.688l-13.924-9.283 31.708-44.622zM89.125 315.332a27.725 27.725 0 0 1-15.458 4.688h-3.104c-15.375 0-27.896-12.522-27.896-27.908a27.883 27.883 0 0 1 16.917-25.647l12.414-5.319 30.496 45.279-13.369 8.907zm102.396 153.52c-1.063.25-2.875.51-5.479.51-22.146 0-56.333-16.324-69.854-29.846-12.667-12.678-12.667-33.294 0-45.961 6.146-6.146 14.313-9.532 22.979-9.532 8.667 0 16.833 3.386 22.979 9.521 6.479 6.48 18.688 24.418 25.771 47.274 4.875 15.752 4.333 24.846 3.604 28.034zm85.937-5.251c-13.875 7.563-29.104 7.563-42.896 0 .056-9.7-1.65-19.505-4.068-28.687 8.052 1.563 16.527 2.445 25.88 2.445 9.043 0 17.27-.814 25.091-2.276-2.387 9.128-4.061 18.874-4.007 28.518zm95.375-79.578c8.667 0 16.833 3.386 22.979 9.521 12.667 12.678 12.667 33.294 0 45.972-13.521 13.522-47.688 29.846-69.854 29.846-3.125 0-5.083-.375-5.333.031-.771-2.583-1.729-11.803 3.458-28.575 7.083-22.856 19.292-40.794 25.771-47.263 6.146-6.146 14.313-9.532 22.979-9.532z" fill="#000000"/></g></svg>