<svg xmlns="http://www.w3.org/2000/svg" version="1.1" id="Capa_1" x="0" y="0" viewBox="0 0 202.439 202.439" xml:space="preserve" width="512" height="512" enable-background="new 0 0 202.439 202.439"><title>dolphin</title><g class="nc-icon-wrapper" fill="#000000"><path d="M201.386 179.257c-.834-7.763-4.504-14.34-7.452-19.625-1.038-1.86-2.018-3.618-2.747-5.188-1.599-3.448-.809-9.002-.044-14.374.173-1.219.346-2.43.495-3.625.072-.571.168-1.267.281-2.077 1.412-10.174 5.163-37.2-4.626-63.427-9.306-24.935-30.323-40.955-40.218-46.835 3.262-1.545 8.389-2.985 11.642-3.641a7.5 7.5 0 0 0 4.845-11.398c-1.267-1.979-5.582-6.765-18.245-8.444-15.359-2.038-23.695 1.065-40.481 7.334-9.85 3.679-14.634 4.189-20.173 4.779-4.71.502-10.049 1.071-18.531 3.448-24.429 6.847-35.921 17.117-42.44 24.246-5.089 5.565-6.451 11.229-6.169 15.831-1.211.668-2.54 1.413-3.879 2.185C4.691 63.606 1.591 66.017.876 70.127c-.527 3.033.441 6.201 2.729 8.92 2.837 3.374 7.044 5.388 11.253 5.388l.337-.004c2.321-.059 5.382-.774 10.594-2.034 4.613-1.115 10.354-2.502 14.714-2.965 5.536-.589 11.074.563 19.43 2.362a522.62 522.62 0 0 0 8.354 1.748 62.976 62.976 0 0 0 12.245 1.182c3.552 0 6.698-.282 9.262-.642 1.859 3.833 4.947 8.841 9.926 15.368 12.989 17.028 26.995 17.631 28.549 17.643a7.5 7.5 0 0 0 6.751-4.05 7.455 7.455 0 0 0-.597-7.822c-.034-.047-3.36-4.834-4.692-12.535a31.681 31.681 0 0 1-.461-5.961c5.114 1.696 11.555 4.388 16.731 8.157 8.914 6.49 14.873 23.232 16.637 36.042.684 4.969.473 7.641.229 8.927l-.149-.007a61.113 61.113 0 0 0-2.996-.083c-3.145 0-6.549.327-10.406.999-12.526 2.183-20.347 11.09-21.197 12.099-1.964 2.329-2.434 5.622-1.021 8.321 1.402 2.68 4.168 4.262 7.178 4.004l.139-.001c.656 0 3.168.061 7.954.848 2.879.473 4.39 1.292 6.303 2.329 1.631.884 3.48 1.886 5.949 2.56 1.921.524 3.938.817 5.788.974a27.378 27.378 0 0 0 2.041 3.566c2.752 4.078 7.318 6.451 11.732 8.745 1.744.906 3.391 1.762 4.752 2.636 1.612 1.034 5.109 6.383 7.339 11.224a7.5 7.5 0 0 0 14.025-1.05c.221-.779 2.151-7.877 1.088-17.758zM46.656 63.468l-1.497.444a7.505 7.505 0 0 1-2.137.312 7.5 7.5 0 0 1-2.131-14.692l1.497-.444a7.5 7.5 0 0 1 9.324 5.056 7.499 7.499 0 0 1-5.056 9.324z" fill="#000000"/></g></svg>