<svg version="1.1" id="Capa_1" xmlns="http://www.w3.org/2000/svg" x="0" y="0" viewBox="0 0 512 512" xml:space="preserve" enable-background="new 0 0 512 512" width="512" height="512"><title>dominoes</title><g class="nc-icon-wrapper" fill="#000000"><path d="M0 0v240h240V0H0zm120 165c-16.538 0-30-13.462-30-30s13.462-30 30-30 30 13.462 30 30-13.462 30-30 30z"/><path d="M0 272v240h240V272H0zm75 195c-16.538 0-30-13.462-30-30s13.462-30 30-30 30 13.462 30 30-13.462 30-30 30zm0-90c-16.538 0-30-13.462-30-30s13.462-30 30-30 30 13.462 30 30-13.462 30-30 30zm90 90c-16.538 0-30-13.462-30-30s13.462-30 30-30 30 13.462 30 30-13.462 30-30 30zm0-90c-16.538 0-30-13.462-30-30s13.462-30 30-30 30 13.462 30 30-13.462 30-30 30z"/><path d="M272 272v240h240V272H272zm75 105c-16.538 0-30-13.462-30-30s13.462-30 30-30 30 13.462 30 30-13.462 30-30 30zm90 90c-16.538 0-30-13.462-30-30s13.462-30 30-30 30 13.462 30 30-13.462 30-30 30z"/></g></svg>