<svg xmlns="http://www.w3.org/2000/svg" version="1.1" id="Capa_1" x="0" y="0" viewBox="0 0 512.001 512.001" xml:space="preserve" width="512" height="512" enable-background="new 0 0 512.001 512.001"><title>dress</title><g class="nc-icon-wrapper" fill="#000000"><path d="M341.13 56.104V0h-30.046v64.54a112.233 112.233 0 0 0-48.356 40.544L256 115.176l-6.728-10.092a112.235 112.235 0 0 0-48.356-40.544V0H170.87v56.104a112.335 112.335 0 0 0-15.023-1.02v66.101c0 33.188 26.904 60.092 60.092 60.092h80.122c33.188 0 60.092-26.904 60.092-60.092V55.084c-5.063 0-10.078.353-15.023 1.02z" fill="#000000"/><path d="M326.107 211.323H185.893L16.635 475.727v1.002a829.825 829.825 0 0 0 478.731 0v-1.002L326.107 211.323z" fill="#000000"/></g></svg>