<svg xmlns="http://www.w3.org/2000/svg" id="Capa_1" height="512" viewBox="0 0 511.858 511.858" width="512"><title>drifting</title><g class="nc-icon-wrapper" fill="#000000"><path d="M392.292 478.586c-43.428 0-85.614-12.323-121.999-35.639l-16.186 25.26c41.226 26.416 89.009 40.379 138.185 40.379 38.487 0 75.499-8.32 110.006-24.73l-12.883-27.092c-30.451 14.481-63.127 21.822-97.123 21.822z" fill="#000000"/><path d="M478.186 432.087l-12.883-27.094c-21.036 10.003-43.613 15.075-67.103 15.075-30.006 0-59.153-8.514-84.289-24.621l-16.186 25.26c29.976 19.208 64.72 29.361 100.475 29.361 27.982.001 54.893-6.049 79.986-17.981z" fill="#000000"/><path d="M167.33 263.304l81.225 81.224-1.608-36.964-42.653-42.653z" fill="#000000"/><path d="M238.445 223.777h57.281v41.991h-57.281z" transform="rotate(-45 267.062 244.84)" fill="#000000"/><path d="M376.954 222.212l-87.308-87.307-1.904 47.593 41.618 41.618z" fill="#000000"/><path d="M135.937 231.91l68.897 2.996 52.904-52.904 3.039-75.966-5.963-5.963-125.357 125.358z" fill="#000000"/><path d="M503.072 123.331L388.527 8.787c-11.716-11.716-30.711-11.716-42.427 0L276.027 78.86l156.971 156.971 70.073-70.073c11.716-11.716 11.716-30.711.001-42.427z" fill="#000000"/><path d="M329.857 254.12l-52.905 52.905 2.996 68.897 6.48 6.48 125.357-125.358-5.962-5.963z" fill="#000000"/><path d="M136.109 346.057l-30.125 30.125 29.692 29.692 30.125-30.125 21.214 21.213-30.126 30.126 42.426 42.426 65.899-65.899-156.97-156.971-65.899 65.899 42.426 42.426 30.125-30.125z" fill="#000000"/><path d="M240.887 66.451h30v26.964h-30z" transform="rotate(-45 255.892 79.987)" fill="#000000"/><path d="M416.925 242.489h30v26.964h-30z" transform="rotate(-45 431.915 256.07)" fill="#000000"/><path d="M135.676 405.874l-21.131 21.131-29.692-29.692 21.131-21.131-21.213-21.213L63.64 376.1l-42.427-42.427L0 354.887l156.972 156.971 21.213-21.213-42.427-42.426 21.131-21.131z" fill="#000000"/></g></svg>