<svg version="1.1" id="Capa_1" xmlns="http://www.w3.org/2000/svg" x="0" y="0" viewBox="0 0 512 512" xml:space="preserve" enable-background="new 0 0 512 512" width="512" height="512"><title>drum</title><g class="nc-icon-wrapper" fill="#000000"><path d="M256 30.004c-19.53 0-36.024 12.578-42.237 30H46.002c-8.291 0-15 6.709-15 15s6.709 15 15 15h167.762c6.213 17.422 22.707 30 42.237 30 24.814 0 45-20.186 45-45s-20.187-45-45.001-45z"/><path d="M289.133 331.416l53.115 123.938 32.666-130.637c-30.3 3.936-60.145 5.911-85.781 6.699z"/><path d="M421.177 317.229c-4.283.913-9.718 1.543-14.07 2.351l-45.339 181.319 1.421 3.316c60.557-9.163 112.441-26.369 135.49-51.361l-77.502-135.625z"/><path d="M451.27 309.43l60.729 106.274V281.279c-15.851 12.032-37.116 21.085-60.729 28.151z"/><path d="M.002 281.279v134.424L60.731 309.43c-23.614-7.066-44.88-16.119-60.729-28.151z"/><path d="M256.743 331.993c-.223-.001-.522.009-.743.009-.222 0-.52-.009-.743-.009l-73.474 171.424 1.28 5.081C206.811 510.802 231.42 512 256 512c24.587 0 49.204-1.198 72.959-3.505l1.265-5.059-73.481-171.443z"/><path d="M104.54 319.515c-4.232-.789-9.551-1.397-13.717-2.286L13.321 452.854c23.049 24.992 74.931 42.198 135.49 51.361l1.41-3.289-45.681-181.411z"/><path d="M136.775 324.677l32.932 130.78 53.161-124.042c-25.725-.789-55.69-2.773-86.093-6.738z"/><path d="M475.607 3.475c-6.401-5.303-15.85-4.438-21.138 1.919L329.152 157.781c-4.188-1.293-8.546-2.19-13.152-2.19-24.815 0-45 20.186-45 45s20.186 45 45 45 45-20.186 45-45a44.724 44.724 0 0 0-7.617-24.999L477.526 24.613c5.303-6.372 4.438-15.835-1.919-21.138z"/><path d="M401.799 164.302l-13.5 16.501c1.8 6.299 2.701 12.9 2.701 19.799 0 41.4-33.6 74.999-74.999 74.999s-74.999-33.6-74.999-74.999c0-18.6 7.2-35.4 18.3-48.6h-3.3c-88.199 0-255.998 15.601-255.998 74.999 0 59.399 167.798 75 255.997 75s255.998-15.601 255.998-74.999c-.001-32.4-50.8-51.898-110.2-62.7z"/></g></svg>