<svg id="Capa_1" height="512" viewBox="0 0 512 512" width="512" xmlns="http://www.w3.org/2000/svg"><title>duck</title><g class="nc-icon-wrapper" fill="#000000"><path d="M453.342 108.665a163.778 163.778 0 0 1 3.593 34.171c0 32.536-9.732 64.069-27.703 90.669C475.987 226.649 512 186.279 512 137.651v-28.986z"/><path d="M186.312 304.598H98.637v3.593c0 52.103 32.389 94.493 84.492 94.493h97.675v-3.593c.001-52.103-42.389-94.493-94.492-94.493z"/><path d="M394.996 230.501c21.315-24.265 32.939-55.02 32.939-87.665 0-35.906-14.081-69.568-39.649-94.783-25.564-25.211-59.401-38.858-95.357-38.32-72.885 1.013-131.751 61.163-131.224 134.083a133.208 133.208 0 0 0 15.194 60.779l-91.318.189h-.087c-14.799-.001-28.716-5.757-39.191-16.216-10.496-10.48-16.276-24.421-16.276-39.253H0c0 .718.009 1.435.026 2.149H0v168.708c0 100.416 71.694 182.11 172.11 182.11h132.402c74.162 0 134.498-60.335 134.498-134.498 0-19.834-7.172-51.608-15.699-69.658zM310.831 432.71H183.129c-68.66 0-114.519-55.859-114.519-124.519v-33.619h117.701c68.66 0 124.519 55.859 124.519 124.519v33.619zm34.682-293.257c-8.417 0-14.649-6.879-15.013-15.013-.363-8.108 7.16-15.013 15.013-15.013 8.417 0 14.649 6.879 15.013 15.013.363 8.108-7.16 15.013-15.013 15.013z"/></g></svg>