<svg id="Layer_1" height="512" viewBox="0 0 496 496" width="512" xmlns="http://www.w3.org/2000/svg"><title>easter</title><g class="nc-icon-wrapper" fill="#000000"><path d="M72.038 285.989c-12.299 9.655-26.801-.092-25.685-12.933 1.765-20.309 5.926-40.922 11.357-60.473 2.926-10.536 15.584-14.765 24.257-8.104l45.841 35.209a16.003 16.003 0 0 0 19.47.018l36.126-27.644a16 16 0 0 1 19.364-.063l36.779 27.769a16.004 16.004 0 0 0 19.426-.11l35.447-27.4a16 16 0 0 1 19.487-.064l36.098 27.528a16 16 0 0 0 19.296.082l45.347-33.973c8.69-6.511 21.244-2.252 24.111 8.222 5.145 18.798 9.116 38.601 10.883 58.141 1.213 13.415-14.053 21.899-24.749 13.689a16 16 0 0 0-19.466-.016l-36.381 27.84a15.42 15.42 0 0 1-18.721.016l-36.549-27.872a15.998 15.998 0 0 0-19.487.063l-35.893 27.746a15.419 15.419 0 0 1-18.722.106l-37.035-27.962a16 16 0 0 0-19.364.063l-36.381 27.84a15.421 15.421 0 0 1-18.722.016L91.62 285.852a16 16 0 0 0-19.582.137zm13.72-118.947c-5.678-4.362-7.633-12.067-4.661-18.581C113.383 77.691 172.107 0 248.033 0c75.891 0 135.044 77.812 167.648 150.053 2.965 6.569.935 14.318-4.833 18.64l-41.728 31.262a15.42 15.42 0 0 1-18.596-.079l-36.75-28.024a15.998 15.998 0 0 0-19.487.063l-35.893 27.746a15.42 15.42 0 0 1-18.722.106l-37.035-27.962a16 16 0 0 0-19.364.063l-36.312 27.787a15.42 15.42 0 0 1-18.764-.017zM306.383 131.3c6.56 1.973 13.115-.413 17.021-5.15 10.1-12.521-2.325-30.156-17.021-25.449-15.184 4.627-15 25.997 0 30.599zm-69.46-7.76c7.654 14.083 28.553 9.469 30.03-5.971.85-8.87-5.648-16.657-14.351-17.489-12.277-1.304-21.781 11.778-15.679 23.46zm-61.89-7.54c0 6.971 4.57 13.258 11.359 15.3 11.449 3.512 22.644-6.478 20.33-18.43-.959-4.478-3.486-7.976-6.81-10.17-10.48-7.074-24.879.481-24.879 13.3zm261.616 219.249c5.06 3.884 7.248 10.497 5.404 16.604C416.89 435.162 339.435 496 248.033 496c-90.976 0-168.138-60.27-193.668-142.982-1.874-6.07.248-12.668 5.244-16.591l13.066-10.257a15.42 15.42 0 0 1 18.872-.133l36.304 27.684a16.002 16.002 0 0 0 19.426-.017l36.476-27.911a15.42 15.42 0 0 1 18.662-.06l37.131 28.035a16.004 16.004 0 0 0 19.426-.11l35.799-27.673a15.42 15.42 0 0 1 18.781-.062l36.452 27.798a16.002 16.002 0 0 0 19.426-.017l36.318-27.792a15.42 15.42 0 0 1 18.76.014zM193.033 396c0-8.254-6.312-15.143-14.431-15.92-9.29-.987-17.569 6.425-17.569 15.92 0 8.772 7.119 16 16 16 8.838 0 16-7.208 16-16zm59.569-15.92c-10.175-1.081-19.371 8.02-17.26 19.05 1.639 8.306 9.763 14.31 18.82 12.56 18.11-3.886 16.445-29.887-1.56-31.61zm81.311 2.62c-12.589-8.497-28.641 4.022-24.18 17.949 2.678 8.788 11.989 13.2 19.949 10.65 13.084-4.013 15.276-21.309 4.231-28.599z"/></g></svg>