<svg version="1.1" id="Capa_1" xmlns="http://www.w3.org/2000/svg" x="0" y="0" viewBox="0 0 512 512" xml:space="preserve" enable-background="new 0 0 512 512" width="512" height="512"><title>elevator</title><g class="nc-icon-wrapper" fill="#000000"><path d="M405.333 0H106.667C83.146 0 64 19.135 64 42.667v426.667C64 492.865 83.146 512 106.667 512h298.667c23.52 0 42.666-19.135 42.666-42.667V42.667C448 19.135 428.854 0 405.333 0zM192 42.667c23.521 0 42.667 19.135 42.667 42.667S215.521 128 192 128s-42.667-19.135-42.667-42.667S168.479 42.667 192 42.667zm85.333 266.666A10.66 10.66 0 0 1 266.666 320h-21.333v138.667a10.66 10.66 0 0 1-10.667 10.667h-85.333a10.66 10.66 0 0 1-10.667-10.667V320h-21.333a10.66 10.66 0 0 1-10.667-10.667v-125.25c0-12.698 7.438-24.167 18.938-29.219 16.833-7.385 42.021-16.198 66.396-16.198s49.563 8.813 66.396 16.198c11.5 5.052 18.938 16.521 18.938 29.219v125.25zm124.875-13.791l-42.667 42.667a10.634 10.634 0 0 1-7.542 3.125 10.636 10.636 0 0 1-7.542-3.125l-42.667-42.667a10.693 10.693 0 0 1-2.313-11.625 10.655 10.655 0 0 1 9.854-6.583h85.333c4.313 0 8.208 2.594 9.854 6.583a10.686 10.686 0 0 1-2.31 11.625zm2.313-67.459a10.655 10.655 0 0 1-9.854 6.583h-85.333a10.655 10.655 0 0 1-9.854-6.583 10.692 10.692 0 0 1 2.313-11.625l42.667-42.667c4.167-4.167 10.917-4.167 15.083 0l42.667 42.667a10.695 10.695 0 0 1 2.311 11.625z"/></g></svg>