<svg xmlns="http://www.w3.org/2000/svg" version="1.1" id="Capa_1" x="0" y="0" viewBox="0 0 512.001 512.001" xml:space="preserve" width="512" height="512" enable-background="new 0 0 512.001 512.001"><title>emmas</title><g class="nc-icon-wrapper" fill="#000000"><path d="M54.294 0c-8.452 0-15.329 6.877-15.329 15.33v481.34c0 8.452 6.877 15.33 15.33 15.33H89.26V0H54.294z" fill="#000000"/><path fill="#000000" d="M232.248 285.398h101.885v33.546H232.248z"/><path d="M400.306 0H119.299v512h281.007c40.104 0 72.73-32.626 72.73-72.73V72.73c0-40.104-32.626-72.73-72.73-72.73zm-36.13 282.782v51.184c0 8.295-6.725 15.02-15.02 15.02H217.228c-8.295 0-15.02-6.725-15.02-15.02v-50.868c-20.32-6.396-35.099-25.412-35.099-47.817 0-27.637 22.483-50.119 50.119-50.119 4.581 0 9.084.629 13.409 1.826 8.788-21.52 29.934-36.728 54.576-36.728 28.203 0 51.985 19.881 57.649 46.669a44.783 44.783 0 0 1 6.295-.445c24.513 0 44.457 19.943 44.457 44.457-.001 19.245-12.294 35.667-29.438 41.841z" fill="#000000"/><path d="M349.156 226.524a14.366 14.366 0 0 0-9.808 3.85l-.023-.01c-2.68 2.513-6.273 4.063-10.237 4.063-8.274 0-14.982-6.708-14.982-14.982 0-.025.004-.05.004-.075l-.004-.002c0-1.502-.023-10.393-.054-11.973-.926-15.208-13.563-27.096-28.841-27.096-15.898 0-28.835 12.906-28.891 28.791.003.134.02.264.02.4 0 8.399-6.809 15.208-15.208 15.208-4.431 0-8.406-1.906-11.186-4.93a19.994 19.994 0 0 0-12.72-4.567c-11.072 0-20.08 9.007-20.08 20.08 0 11.073 9.008 20.08 20.08 20.08h131.929c7.95 0 14.417-6.469 14.417-14.418s-6.466-14.419-14.416-14.419z" fill="#000000"/></g></svg>