<svg version="1.1" id="Capa_1" xmlns="http://www.w3.org/2000/svg" x="0" y="0" viewBox="0 0 512 512" xml:space="preserve" enable-background="new 0 0 512 512" width="512" height="512"><title>fancy</title><g class="nc-icon-wrapper" fill="#000000"><path transform="rotate(-45.001 257.213 254.778)" d="M212.177 209.736h90.077v90.076h-90.077z"/><path d="M437.69 74.308c-29.477-29.474-70.95-55.412-121.159-69.922-7.1 9.473-58.045 43.211-71.414 132.129l48.005 48.005 13.549-40.648 28.489 9.495-11.734 35.206 35.205-11.734 9.497 28.489-40.648 13.549 48.004 48.005c82.626-12.424 127.943-68.275 132.131-71.414-14.438-49.951-40.285-91.518-69.925-121.16z"/><path d="M221.322 325.035l-13.549 40.65-28.489-9.497 11.734-35.206-35.205 11.736-9.497-28.489 40.648-13.551-48.004-48.004C56.333 255.096 8.573 313.392 4.386 316.531c14.437 49.95 40.285 91.516 69.924 121.157 29.478 29.478 70.95 55.414 121.159 69.926 7.1-9.473 60.488-45.655 73.858-134.574l-48.005-48.005z"/><path d="M448.305 0l-23.973 23.973c11.601 8.404 23.326 17.842 34.589 29.106 11.263 11.264 20.702 22.987 29.104 34.589L512 63.695 448.305 0z"/><path d="M53.079 458.921c-11.264-11.265-20.7-22.991-29.104-34.591L0 448.305 63.695 512l23.973-23.975c-11.601-8.402-23.327-17.84-34.589-29.104z"/></g></svg>