<svg xmlns="http://www.w3.org/2000/svg" id="Capa_1" height="512" viewBox="0 0 512 512" width="512"><title>farm</title><g class="nc-icon-wrapper" fill="#000000"><path d="M391.7 108.1c1.5-8.101-4.2-15.601-12.599-16.8-1.8-.3-22.899-3.301-50.2-6.601C307.899 27.999 289.9 0 256 0c-20.4 0-35.4 10.199-45 20.099C201.4 10.199 186.4 0 166 0c-33.9 0-51.9 27.999-73.2 84.699C65.501 87.999 45.7 91 43.9 91.3c-8.399 1.2-14.099 8.7-12.6 16.8.899 8.099 8.399 13.799 16.8 12.599 3.03 0 97.705-14.7 162.9-14.7 63.702 0 160.89 14.7 163.9 14.7 8.1 1.5 15.6-4.2 16.8-12.599z" fill="#000000"/><path d="M497 181c-8.291 0-15 6.709-15 15v60c0 19.556-12.541 36.229-30 42.42V196c0-8.291-6.709-15-15-15s-15 6.709-15 15v102.42c-17.459-6.192-30-22.864-30-42.42v-60c0-8.291-6.709-15-15-15s-15 6.709-15 15v60c0 36.217 25.81 66.521 60 73.49V361c-8.291 0-15 6.709-15 15v121c0 8.291 6.709 15 15 15h30c8.291 0 15-6.709 15-15V376c0-8.291-6.709-15-15-15v-31.51c34.19-6.969 60-37.274 60-73.49v-60c0-8.291-6.709-15-15-15z" fill="#000000"/><path d="M316 391v121h61V407.174C362.351 397.042 343.797 391 324.952 391z" fill="#000000"/><path d="M106 391h-8.937c-41.367 0-78.271 28.022-88.319 68.174L.453 493.367a14.951 14.951 0 0 0 2.725 12.861A14.98 14.98 0 0 0 14.998 512H106z" fill="#000000"/><path d="M286 391c-6.969 34.191-38.784 60-75 60s-68.031-25.809-75-60v121h150z" fill="#000000"/><path d="M166 352.707V376c0 24.853 20.147 45 45 45s45-20.147 45-45v-23.293C241.855 357.75 226.855 361 211 361s-30.855-3.25-45-8.293z" fill="#000000"/><path d="M316 143.621C283.429 139.875 242.267 136 211 136c-31.278 0-72.426 3.873-105 7.621V226h1.934c16.069-.381 29.736-6.782 44.194-13.564C168.549 204.73 187.152 196 211 196s42.451 8.73 58.872 16.421c14.648 6.87 28.491 13.374 45.249 13.579H316z" fill="#000000"/><path d="M311.235 255.639c-21.592-1.117-38.888-8.921-54.108-16.06C242.23 232.592 228.153 226 211 226s-31.23 6.606-46.128 13.594c-15.251 7.154-32.574 15.055-54.078 16.137C123.681 299.138 163.411 331 211 331c47.622 0 87.378-31.908 100.235-75.361z" fill="#000000"/></g></svg>