<svg xmlns="http://www.w3.org/2000/svg" height="512" viewBox="0 0 56 54" width="512"><title>fighting</title><g class="nc-icon-wrapper"><g id="Page-1" fill="none" fill-rule="evenodd"><g id="020---Bandaged-Hand" fill="#000" fill-rule="nonzero"><path id="Shape" d="M55.12 23.77l-5.26 5.26L31.93 3.48l2.1-2.09a3.078 3.078 0 0 1 4.37 0 3.078 3.078 0 0 1 .01 4.36 1 1 0 1 0 1.4 1.42h.01l1.45-1.44a3.149 3.149 0 0 1 4.37 0 3.066 3.066 0 0 1 0 4.36A1.001 1.001 0 0 0 47 11.56c.02-.02.11-.09.13-.11a3 3 0 0 1 4.24 0l.13.13a2.988 2.988 0 0 1 0 4.23l-2.17 2.17a1.004 1.004 0 1 0 1.42 1.42 3.075 3.075 0 0 1 4.24 0l.13.13a3 3 0 0 1 0 4.24z" fill="#616161"/><path id="Shape" d="M48.42 30.47l-1.38 1.38-5.71 5.61-7.98-14.77a.413.413 0 0 0-.07-.11L26.1 9.31l3.59-3.58.81-.81z" fill="#616161"/><path id="Shape" d="M21.04 47.68l-5.83 5.79L.01 38.26l5.11-5.11z" fill="#616161"/><path id="Shape" d="M29.65 43.87c-.18.05-.36.09-.55.14l-3.7.85a7.261 7.261 0 0 0-2.9 1.44L6.54 31.74l1.01-1.01a7.29 7.29 0 0 0 1.77-2.98l17.12 8.48z" fill="#616161"/><path id="Shape" d="M26.57 6.02l-3.54 3.53a15.342 15.342 0 0 0-2.13 2.7 14.636 14.636 0 0 0-1.81 4.26l-.02.08-6.09-2 1.72-6.23a3.074 3.074 0 0 1 3-2.34z" fill="#616161"/><path id="Shape" d="M39.84 38.92l-1.54 1.52h-.01c-.6.6-2.25 1.71-6.68 2.93l-3.47-8.25a.914.914 0 0 0-.07-.14l-7.24-17.2.2-.78a13.006 13.006 0 0 1 3.42-6.03l.18-.18 6.95 12.85c.02.036.043.07.07.1z" fill="#616161"/><path id="Shape" d="M25.23 33.4L9.88 25.79l2.56-9.27 6.6 2.16z" fill="#616161"/></g></g></g></svg>