<svg xmlns="http://www.w3.org/2000/svg" version="1.1" id="Capa_1" x="0" y="0" viewBox="0 0 511.997 511.997" xml:space="preserve" width="512" height="512" enable-background="new 0 0 511.997 511.997"><title>fish</title><g class="nc-icon-wrapper" fill="#000000"><path d="M510.646 261.469C468.003 185.134 397.9 138.456 315.733 129.806c-41.195-52.03-170.456-65.211-176.035-65.754-3.635-.375-7.292 1.208-9.521 4.167a10.632 10.632 0 0 0-1.458 10.281c12.673 32.896 25.656 70.313 29.092 85.621-23.473 10.741-43.99 22.163-57.217 31.681-28.688-45.896-87.25-46.469-89.927-46.469A10.66 10.66 0 0 0 0 160c0 61.802 21.542 92.823 35.948 106.667C21.542 280.51 0 311.531 0 373.333A10.66 10.66 0 0 0 10.667 384c2.677 0 61.24-.573 89.927-46.469 17.573 12.646 47.957 28.637 81.159 41.931-7.337 11.867-11.086 30.742-11.086 57.871A10.66 10.66 0 0 0 181.334 448c3.172 0 75.708-.629 111.832-43.003 91.87-1.775 170.978-49.891 217.48-133.133a10.67 10.67 0 0 0 0-10.395zm-213.75-74.25c-.198.302-19.563 30.365-19.563 79.448 0 26.667 5.708 47.5 10.49 60.281 2.063 5.521-.729 11.667-6.25 13.729a10.671 10.671 0 0 1-13.73-6.25C262.437 320 256 296.531 256 266.666c0-55.917 22.177-89.833 23.125-91.25 3.26-4.875 9.844-6.198 14.75-2.969 4.896 3.251 6.25 9.855 3.021 14.772zm39.687 173.656a10.664 10.664 0 0 1-5.906 1.792 10.65 10.65 0 0 1-8.885-4.75c-.948-1.417-23.125-35.333-23.125-91.25s22.177-89.833 23.125-91.25c3.25-4.875 9.854-6.198 14.75-2.969 4.896 3.25 6.25 9.854 3.021 14.771-.198.302-19.563 30.364-19.563 79.447 0 49.531 19.344 79.125 19.542 79.417a10.659 10.659 0 0 1-2.959 14.792zM384 256c-11.76 0-21.333-9.573-21.333-21.333 0-11.76 9.573-21.333 21.333-21.333 11.76 0 21.333 9.573 21.333 21.333 0 11.76-9.573 21.333-21.333 21.333z" fill="#000000"/></g></svg>