<svg xmlns="http://www.w3.org/2000/svg" version="1.1" id="Capa_1" x="0" y="0" width="512" height="512" viewBox="0 0 286.98 286.98" xml:space="preserve" enable-background="new 0 0 286.98 286.98"><title>flight</title><g class="nc-icon-wrapper" fill="#000000"><path d="M32.64 126.533L8.604 98.724h21.993l37.305 24.867-15.412 1.216c-4.704 0-9.152.453-13.252 1.258l-6.598.468z" fill="#000000"/><path d="M30.596 188.926H8.604l24.037-27.812 6.446.464a67.908 67.908 0 0 0 13.16 1.266h.031l15.612 1.224-37.294 24.858z" fill="#000000"/><path fill="#000000" d="M126.594 249.781H87.563l49.944-80.24 62.689 4.936z"/><path d="M210.251 117.793c4.504-.633 9.298-1.01 14.396-1.129l.391-.034c.11.016.242.029.338.016l1.972-.047c32.315 0 59.632 12.469 59.632 27.229 0 14.744-27.306 27.221-59.632 27.221l-1.972-.058h-.043c-.11 0-.205.005-.316.016l-.537-.037c-4.957-.11-9.756-.485-14.418-1.139l-1.255-.11c-.454-.507-1.018-.907-1.74-.949l-70.585-5.084a2.542 2.542 0 0 0-1.329.264l-57.009-4.482a2.573 2.573 0 0 0-1.458-.58l-36.914-2.668c-11.372-2.331-18.591-7.558-18.591-12.393 0-4.836 7.23-10.081 18.71-12.396l36.795-2.658c.541-.037 1.021-.264 1.432-.577l58.314-4.591h.045l70.601-5.091c.548-.037 1.033-.253 1.46-.583l1.713-.14z" fill="#000000"/><path fill="#000000" d="M126.594 37.515l73.923 75.631-62.793 4.942-50.161-80.573z"/><path d="M2.7 37.515h68.296c1.49 0 2.7-1.21 2.7-2.7 0-1.49-1.21-2.7-2.7-2.7H2.7c-1.489 0-2.7 1.21-2.7 2.7 0 1.49 1.21 2.7 2.7 2.7z" fill="#000000"/><path d="M2.7 63.613h68.296c1.49 0 2.7-1.21 2.7-2.7 0-1.489-1.21-2.7-2.7-2.7H2.7c-1.489 0-2.7 1.21-2.7 2.7 0 1.49 1.21 2.7 2.7 2.7z" fill="#000000"/><path d="M2.7 228.762h68.296c1.49 0 2.7-1.213 2.7-2.7s-1.21-2.7-2.7-2.7H2.7c-1.489 0-2.7 1.213-2.7 2.7s1.21 2.7 2.7 2.7z" fill="#000000"/><path d="M2.7 254.865h68.296c1.49 0 2.7-1.213 2.7-2.7s-1.21-2.7-2.7-2.7H2.7c-1.489 0-2.7 1.213-2.7 2.7s1.21 2.7 2.7 2.7z" fill="#000000"/></g></svg>