<svg xmlns="http://www.w3.org/2000/svg" version="1.1" id="Capa_1" x="0" y="0" width="512" height="512" viewBox="0 0 336.219 336.219" xml:space="preserve" enable-background="new 0 0 336.219 336.219"><title>flower</title><g class="nc-icon-wrapper" fill="#000000"><path d="M242.345 213.189c150.031 44.337 102.519-196.39-18.502-94.78-5.962 5.007-7.901 3.928-2.619-2.451 99.272-119.87-149.262-162.511-94.235-9.841 1.292 3.584.052 4.048-1.998.623-85.924-143.547-208.973 90.688-42.598 83.339 6.982-.308 7.416 1.326.668 2.889-158.516 36.687 43.245 218.563 68.582 66.779 1.181-7.071 2.127-6.008 2.385 1.587 4.844 142.889 213.982 23.046 87.501-45.251-7.613-4.111-7.472-5.344.816-2.894zm-27.901-33.357l-.26 1.716c-.655 4.351-4.753 7.373-9.104 6.717l-14.09-2.125c-4.352-.656-5.772 1.704-3.16 5.244l8.459 11.465c2.611 3.541 1.853 8.575-1.688 11.188l-1.396 1.03c-3.541 2.613-8.575 1.854-11.188-1.688l-8.46-11.466c-2.611-3.54-5.287-2.878-5.943 1.475l-2.125 14.089c-.656 4.351-4.753 7.374-9.104 6.717l-1.715-.259c-4.351-.656-7.374-4.753-6.717-9.104l2.125-14.088c.656-4.351-1.703-5.771-5.244-3.161l-11.465 8.459c-3.541 2.612-8.575 1.854-11.188-1.688l-1.03-1.396c-2.612-3.54-1.853-8.574 1.688-11.187l11.465-8.459c3.541-2.612 2.877-5.287-1.473-5.943l-14.089-2.125c-4.351-.655-7.374-4.753-6.717-9.104l.259-1.715c.656-4.352 4.752-7.374 9.103-6.718l14.089 2.125c4.351.656 5.773-1.703 3.161-5.243l-8.459-11.466c-2.612-3.541-1.853-8.574 1.688-11.188l1.396-1.03c3.541-2.612 8.575-1.853 11.187 1.688l8.46 11.465c2.612 3.541 5.287 2.877 5.943-1.473l2.125-14.091c.657-4.351 4.753-7.373 9.104-6.717l1.715.259c4.352.657 7.374 4.753 6.717 9.104l-2.125 14.088c-.655 4.351 1.704 5.773 5.244 3.161l11.465-8.459c3.541-2.612 8.575-1.854 11.188 1.688l1.03 1.396c2.612 3.541 1.854 8.575-1.688 11.187l-11.465 8.459c-3.541 2.612-2.879 5.288 1.473 5.944l14.088 2.125c4.355.655 7.377 4.752 6.721 9.104z" fill="#000000" id="Layer_5_8_"/></g></svg>