<svg xmlns="http://www.w3.org/2000/svg" height="512" viewBox="-9 0 512 512" width="512"><title>fps</title><g class="nc-icon-wrapper" fill="#000000"><path d="M406.563 251.66h-7.375c-4.793 0-8.68-3.883-8.68-8.676h-5.121l-6.074 6.16a8.885 8.885 0 0 1-5.727 2.516l-173.559 8.68a8.563 8.563 0 0 1-6.593-2.516l-5.817-5.902-99.969 7.723a2.859 2.859 0 0 0-2.52 2.168 145.465 145.465 0 0 1-6.593 17.878 8.728 8.728 0 0 1-10.586 4.86 39.38 39.38 0 0 1-9.285-4.34 20.058 20.058 0 0 0 4.86 15.012 8.602 8.602 0 0 1 2.43 10.847c-5.99 11.805-11.544 21.871-13.888 25.95v2.082a402.213 402.213 0 0 1 138.848-21.696c3.516.043 7.027.332 10.5.867.234-.011.473.016.695.09a89.083 89.083 0 0 1 10.762 2.43c.258.086.52.086.867.172.098.09.215.152.348.172l.953.261c1.434.438 2.824.989 4.168 1.649a63.128 63.128 0 0 1 27.941 4.86 27.149 27.149 0 0 1 4.254-10.587 20.612 20.612 0 0 1 17.614-8.59c20.656 0 93.722-5.73 115.593-7.55a6.29 6.29 0 0 0 5.899-6.336v-12.149a8.68 8.68 0 0 1 8.68-8.68h7.375a1.332 1.332 0 0 0 1.3-1.3V252.96a1.334 1.334 0 0 0-1.3-1.3zm-128.434 34.711l-164.883 8.68h-.433c-4.793.12-8.774-3.668-8.895-8.461-.121-4.793 3.668-8.774 8.46-8.895l164.884-8.68a8.613 8.613 0 0 1 6.289 2.208 8.588 8.588 0 0 1 2.82 6.039 8.666 8.666 0 0 1-2.23 6.265 8.66 8.66 0 0 1-6.012 2.844zm0 0" fill="#000000"/><path d="M178.418 393.113l-.52-.347-34.796-20.829a8.673 8.673 0 0 1-4.133-8.906 8.674 8.674 0 0 1 6.82-7.062 212.723 212.723 0 0 1 59.617-3.211h.524c1.316.078 2.636-.07 3.902-.434a.546.546 0 0 1 .348-.086 9.258 9.258 0 0 0 3.21-1.91 1.95 1.95 0 0 1 .434-.348c.848-.863 1.551-1.859 2.082-2.949.09-.172.176-.258.262-.433.414-1.145.648-2.344.695-3.559a6.337 6.337 0 0 0-.086-1.215 6.657 6.657 0 0 0-.261-1.82 7.743 7.743 0 0 0-.434-1.305c-.176-.258-.262-.605-.434-.867a3.645 3.645 0 0 1-.433-.605c-.176-.262-.434-.61-.61-.868-.359-.421-.765-.8-1.214-1.129l-.172-.175c-.434-.344-.781-.606-1.13-.867a1.136 1.136 0 0 1-.347-.258 8.712 8.712 0 0 0-2.601-1.13c-2.086-.609-4.168-1.042-6.164-1.476-1.13-.261-2.254-.605-3.297-.781a52.308 52.308 0 0 0-8.766-.781c-92.332 0-143.184 24.906-143.621 25.082a8.744 8.744 0 0 1-8.504-.348 9.631 9.631 0 0 1-1.996-1.738c0-.086-.172-.172-.172-.258A169.404 169.404 0 0 1 0 394.586v102.226a217.669 217.669 0 0 0 52.066 6.508 196.326 196.326 0 0 0 106.305-34.363 14.754 14.754 0 0 0 6.512-12.234v-.09l-12.586-6.332a8.68 8.68 0 0 1 7.813-15.45l9.456 4.774a16.837 16.837 0 0 0-.78-13.277 9.71 9.71 0 0 1-1.04-3.035l-15.45-7.727a8.673 8.673 0 0 1-3.269-11.348 8.68 8.68 0 0 1 11.082-4.097l16.575 8.246a12.059 12.059 0 0 1 3.558-.524 1.948 1.948 0 0 0 1.422-.574c.375-.375.582-.887.574-1.422v-5.988a7.904 7.904 0 0 0-3.82-6.766zm0 0" fill="#000000"/><path d="M233.7 336.617c.085.434.085.781.171 1.13v.175c.277 1.574.422 3.172.434 4.77 0 .261-.086.523-.086.78a24.804 24.804 0 0 1-.262 2.52c-.117 1.14-.32 2.27-.605 3.383-.176.867-.524 1.734-.782 2.602-.433 1.043-.78 1.996-1.215 2.953-.433.78-.957 1.648-1.39 2.43a30.282 30.282 0 0 1-1.996 2.687c-.27.441-.59.851-.953 1.219-.239.28-.5.539-.782.777-.308.3-.601.617-.867.957-.52.434-1.129.781-1.734 1.215a20.227 20.227 0 0 1-2.172 1.648c-.867.52-1.734.953-2.602 1.387-.93.488-1.886.922-2.863 1.305-.828.25-1.668.453-2.52.605-1.038.262-2.081.61-3.21.781a26.056 26.056 0 0 1-5.813.086 201.495 201.495 0 0 0-31.242-.257l11.89 7.113c42.434 3.906 59.27-3.559 64.563-9.285l.262-.258c.23-.27.433-.559.605-.871.09-.086.176-.258.262-.344.148-.184.266-.39.348-.61l.261-.519a125.164 125.164 0 0 1-4.859-23.172 60.572 60.572 0 0 0-12.844-5.207zm0 0" fill="#000000"/><path d="M269.016 104.137c0 14.379-11.657 26.031-26.032 26.031-14.379 0-26.035-11.652-26.035-26.031 0-14.38 11.656-26.035 26.035-26.035 14.375 0 26.032 11.656 26.032 26.035zm0 0" fill="#000000"/><path d="M242.984 208.27a8.674 8.674 0 0 0 8.676-8.676v-9.121c41.035-4.18 73.48-36.625 77.66-77.66h9.121c4.793 0 8.676-3.883 8.676-8.676s-3.883-8.68-8.676-8.68h-9.12c-4.18-41.035-36.626-73.48-77.66-77.66V8.68c0-4.793-3.884-8.68-8.677-8.68s-8.68 3.887-8.68 8.68v9.117c-41.034 4.18-73.48 36.625-77.66 77.66h-9.117c-4.793 0-8.68 3.887-8.68 8.68s3.887 8.675 8.68 8.675h9.118c4.18 41.036 36.625 73.481 77.66 77.66v9.122c0 4.793 3.886 8.676 8.68 8.676zm-68.828-95.458h8.082c4.793 0 8.676-3.882 8.676-8.675s-3.883-8.68-8.676-8.68h-8.082c4.008-31.41 28.739-56.14 60.149-60.144v8.078c0 4.793 3.886 8.675 8.68 8.675s8.675-3.882 8.675-8.675v-8.078c31.41 4.003 56.145 28.734 60.149 60.144h-8.079c-4.793 0-8.68 3.887-8.68 8.68s3.887 8.675 8.68 8.675h8.079c-4.004 31.41-28.739 56.145-60.149 60.149v-8.078c0-4.793-3.883-8.68-8.676-8.68s-8.68 3.887-8.68 8.68v8.078c-31.41-4.004-56.14-28.738-60.148-60.149zm0 0" fill="#000000"/><path d="M479.023 468.61a12.898 12.898 0 0 0-10.414 5.425 12.898 12.898 0 0 0-10.414-5.426c-8.804.18-15.797 7.465-15.617 16.274 0 16.27 26.031 27.117 26.031 27.117s26.036-10.848 26.036-27.117c.18-8.809-6.813-16.094-15.622-16.274zm0 0" fill="#000000"/><path d="M392.242 468.61a12.89 12.89 0 0 0-10.41 5.425 12.903 12.903 0 0 0-10.414-5.426c-8.809.18-15.8 7.465-15.621 16.274 0 16.27 26.035 27.117 26.035 27.117s26.031-10.848 26.031-27.117c.18-8.809-6.812-16.094-15.62-16.274zm0 0" fill="#000000"/><path d="M305.465 468.61a12.898 12.898 0 0 0-10.414 5.425 12.898 12.898 0 0 0-10.414-5.426c-8.805.18-15.801 7.465-15.621 16.274 0 16.27 26.035 27.117 26.035 27.117s26.035-10.848 26.035-27.117c.18-8.809-6.816-16.094-15.621-16.274zm0 0" fill="#000000"/></g></svg>