<svg xmlns="http://www.w3.org/2000/svg" height="512" viewBox="0 0 192 192" width="512"><title>fun</title><g class="nc-icon-wrapper" fill="#000000"><g id="_10-humor" data-name="10-humor"><path d="M96 0a96 96 0 1 0 96 96A96.108 96.108 0 0 0 96 0zM56 56a24.027 24.027 0 0 1 24 24H64a8 8 0 0 0-16 0H32a24.027 24.027 0 0 1 24-24zm40 104a48.054 48.054 0 0 1-48-48 8 8 0 0 1 8-8h80a8 8 0 0 1 8 8 48.054 48.054 0 0 1-48 48zm48-80a8 8 0 0 0-16 0h-16a24 24 0 0 1 48 0z" fill="#000000" id="Glyph"/></g></g></svg>