<svg xmlns="http://www.w3.org/2000/svg" id="Layer_1" height="512" viewBox="0 0 512 512" width="512"><title>girls</title><g class="nc-icon-wrapper" fill="#000000"><path d="M453.656 349.533c27.271-.137 49.417-22.359 49.417-49.662 0-26.828-21.383-48.741-48-49.626v76.42c0 7.743-.486 15.374-1.417 22.868z" fill="#000000"/><path d="M57.833 250.221c-27.049.395-48.936 22.508-48.936 49.65 0 27.387 22.281 49.668 49.668 49.668h.685a185.343 185.343 0 0 1-1.418-22.875v-76.443z" fill="#000000"/><path d="M453.057 192.605H512v-30c-16.021 0-29.055-13.034-29.055-29.055v-24.858c0-42.894-34.896-77.791-77.791-77.791-21.162 0-40.68 8.358-54.922 22.592 54.128 26.002 93.686 77.66 102.825 139.112z" fill="#000000"/><path d="M162.056 53.792c-14.268-14.413-33.905-22.891-55.21-22.891-42.894 0-77.791 34.896-77.791 77.791v24.858c0 16.021-13.034 29.055-29.055 29.055v30h59.849c9.104-61.218 48.396-112.715 102.207-138.813z" fill="#000000"/><path d="M295.218 117.871h30c0 47.961 39.019 86.98 86.98 86.98h12.145c-7.567-78.143-73.609-139.435-153.704-139.435h-28.372c-80.095 0-146.137 61.292-153.704 139.435h119.674c47.962 0 86.981-39.019 86.981-86.98z" fill="#000000"/><path d="M242.267 481.099h28.372c85.155 0 154.435-69.279 154.435-154.434v-91.813h-12.875c-43.712 0-81.903-24.103-101.98-59.713-20.078 35.61-58.269 59.713-101.98 59.713H87.833v91.813c0 85.155 69.279 154.434 154.434 154.434zm63.967-200.34h30v30.002h-30zM224 360.052c0 17.645 14.355 32 32 32s32-14.355 32-32h30c0 34.187-27.813 62-62 62s-62-27.813-62-62zm-48.266-79.293h30v30.002h-30z" fill="#000000"/></g></svg>