<svg xmlns="http://www.w3.org/2000/svg" id="Capa_1" height="512" viewBox="0 0 512 512" width="512"><title>golf</title><g class="nc-icon-wrapper" fill="#000000"><path d="M337.131 342.301C312.414 353.656 284.935 360 256 360c-28.933 0-56.409-6.343-81.125-17.697 22.882 22.309 60.781 69.361 65.611 139.697H196c-8.284 0-15 6.716-15 15s6.716 15 15 15h120c8.284 0 15-6.716 15-15s-6.716-15-15-15h-44.49c2.711-40.33 16.426-77.67 40.891-111.183a225.485 225.485 0 0 1 24.73-28.516z" fill="#000000"/><path d="M256 0C165.019 0 91 74.019 91 165s74.019 165 165 165 165-74.019 165-165S346.981 0 256 0zm-90 180c-8.284 0-15-6.716-15-15s6.716-15 15-15 15 6.716 15 15-6.716 15-15 15zm19.393-64.394c-5.858-5.858-5.858-15.355 0-21.213s15.355-5.858 21.213 0c5.858 5.857 5.858 15.355 0 21.213-5.857 5.858-15.355 5.858-21.213 0zm51.214 90c-5.858 5.858-15.355 5.858-21.213 0s-5.858-15.355 0-21.213 15.355-5.858 21.213 0c5.857 5.858 5.857 15.356 0 21.213zm30-60c-5.858 5.858-15.355 5.858-21.213 0s-5.858-15.355 0-21.213 15.355-5.858 21.213 0c5.857 5.858 5.857 15.356 0 21.213z" fill="#000000"/></g></svg>