<svg xmlns="http://www.w3.org/2000/svg" version="1.1" id="Capa_1" x="0" y="0" width="512" height="512" viewBox="0 0 326.692 326.692" xml:space="preserve" enable-background="new 0 0 326.692 326.692"><title>guitar</title><g class="nc-icon-wrapper" fill="#000000"><path d="M159.597 307.058c18.271-18.273 23.558-45.418 16.821-72.447 1.295-12.66 10.413-17.538 16.73-19.407 3.625-.327 7.312-.989 10.988-2.145 23.291-7.259 40.042-30.794 33.383-41.331-4.448-7.042-8.901-11.139-22.115-4.609h-.006l-.01.011a71.32 71.32 0 0 0-4.867 2.656c-4.79 2.118-12.045 3.931-16.783-1.361-4.805-5.367-2.247-14.17.29-19.928l65.4-66.427.025.025c.114-.135.228-.261.342-.394l1.725-1.755c6.017-5.409 14.059-6.406 18.403-2.062.196.194.315.436.491.647.259-.652.539-1.315.85-1.988 3.164-6.941 8.767-14.874 16.233-22.346 6.814-6.812 14.022-12.093 20.505-15.376.627-.318 1.232-.583 1.839-.865l3.318-3.319c-.269-2.105.068-4.72 1.735-7.837 0 0-5.438-7.56-5.836-12.471-.212-2.592-1.781-3.208-3.226-3.224-1.29-.016-2.48.44-2.48.44s.455-1.188.439-2.48c-.021-1.442-.637-3.019-3.226-3.226C305.658 5.442 298.099 0 298.099 0c-3.117 1.673-5.732 2.007-7.84 1.734l-3.319 3.319c-.274.611-.543 1.214-.859 1.841-3.277 6.48-8.564 13.691-15.379 20.505-7.467 7.464-15.405 13.075-22.344 16.236a44.46 44.46 0 0 1-1.988.847c.212.176.45.298.647.495 3.93 3.928 3.511 10.89-.601 16.637l-68.015 69.082c-5.805 3.27-16.467 7.858-21.399.8-5.556-7.954-2.004-17.375-.344-20.855.238-.455.477-.906.694-1.341.005-.011.028-.047.028-.047l-.007-.005c6.597-13.295 2.488-17.753-4.565-22.214-10.54-6.659-34.067 10.097-41.332 33.386-.593 1.893-1.023 3.79-1.391 5.683l-.025-.01s-.016.165-.047.439c-.155.839-.329 1.676-.445 2.509-1.491 6.822-7.25 22.976-28.172 20.78v.005c-22.711-2.54-44.508 3.622-59.965 19.073C-9.306 199.637-3.3 255.488 34.855 293.64c38.159 38.148 94.002 44.155 124.742 13.418z" fill="#000000"/></g></svg>