<svg xmlns="http://www.w3.org/2000/svg" version="1.1" id="Capa_1" x="0" y="0" viewBox="0 0 512 512" xml:space="preserve" width="512" height="512" enable-background="new 0 0 512 512"><title>gun</title><g class="nc-icon-wrapper" fill="#000000"><path fill="#000000" d="M125.815 76l-30.014 90h28.388l29.993-90z"/><path d="M497 76h-15V61c0-8.291-6.709-15-15-15s-15 6.709-15 15v15H185.815l-29.996 90H512V91c0-8.291-6.709-15-15-15z" fill="#000000"/><path d="M45 76c-8.291 0-15 6.709-15 15 0 8.276-6.738 15-15 15-8.291 0-15 6.709-15 15v45h64.182l30-90H45z" fill="#000000"/><path d="M0 196v15c0 8.291 6.709 15 15 15 8.262 0 15 6.724 15.146 12.876L5.239 414.628C1.379 441.681 22.272 466 49.6 466h59.004c22.559 0 41.748-16.89 44.648-39.287L163.594 346H225c24.814 0 45-20.186 45-45v-45h167a15.006 15.006 0 0 0 13.418-8.291L476.272 196H0zm180 120c-16.553 0-30-13.462-30-30s13.447-30 30-30h.996c-4.131 13.239-4.871 27.42-1.23 41.074 1.798 6.79 4.834 13.017 8.379 18.926H180zm60-15c0 7.132-5.105 12.83-11.774 14.348-9.481-5.92-16.564-15.066-19.486-25.964-3.01-11.34-1.187-23.297 4.636-33.384H240v45z" fill="#000000"/></g></svg>