<svg xmlns="http://www.w3.org/2000/svg" version="1.1" id="Layer_1" x="0" y="0" viewBox="0 0 512 512" xml:space="preserve" width="512" height="512" enable-background="new 0 0 512 512"><title>hair</title><g class="nc-icon-wrapper" fill="#000000"><path d="M504.5 41.717a16.754 16.754 0 0 0-15.772-1.414l-54.641 23.418V247.93l54.642 23.417a16.695 16.695 0 0 0 6.576 1.348c3.218 0 6.423-.935 9.196-2.76a16.686 16.686 0 0 0 7.5-13.935V55.652a16.692 16.692 0 0 0-7.501-13.935z" fill="#000000"/><path d="M150.261 105.739c-27.619 0-50.087 22.468-50.087 50.087 0 27.619 22.468 50.087 50.087 50.087s50.087-22.468 50.087-50.087c0-27.619-22.468-50.087-50.087-50.087z" fill="#000000"/><path d="M189.098 10.652a150.634 150.634 0 0 0-38.837-5.087C67.403 5.565 0 72.968 0 155.826s67.403 150.261 150.261 150.261c13.152 0 26.218-1.717 38.837-5.087l211.597-56.637V67.289L189.098 10.652zm-38.837 228.652c-46.032 0-83.478-37.446-83.478-83.478s37.446-83.478 83.478-83.478 83.478 37.446 83.478 83.478-37.446 83.478-83.478 83.478z" fill="#000000"/><path d="M297.185 307.999l-.417-1.251-32.312 8.649 1.055 3.167a15.929 15.929 0 0 1-2.196 14.326 15.91 15.91 0 0 1-12.88 6.588h-13.161l-5.142-15.427-34.403 9.21a184.102 184.102 0 0 1-47.468 6.216c-19.765 0-38.772-3.227-56.627-9.032l44.692 133.989c10.195 25.511 34.543 42 62.022 42 36.826 0 66.783-29.956 66.783-66.783 0-8.587-1.608-16.924-4.424-23.869l-14.303-42.913h2.031c15.804 0 30.75-7.652 39.978-20.468 9.239-12.815 11.772-29.412 6.772-44.402z" fill="#000000"/></g></svg>