<svg height="512" viewBox="0 0 512 512" width="512" xmlns="http://www.w3.org/2000/svg"><title>helicopter</title><g class="nc-icon-wrapper" fill="#000000"><path d="M31 482v30h90v-30H92.672c2.96-20.523 11.758-39.406 25.625-54.816C142.727 460.32 181.676 482 226 482h60c44.324 0 83.273-21.676 107.703-54.816 13.867 15.41 22.664 34.293 25.625 54.816H391v30h90v-30h-31.668c-3.508-31.336-17.598-60.004-40.465-81.906 5.153-11.992 9.102-24.625 10.617-38.094H92.516c1.515 13.469 5.464 26.102 10.617 38.094-22.867 21.902-36.957 50.57-40.465 81.906zm270-90h30v30h-30zm-120 0h30v30h-30zm0 0"/><path d="M241 0H0v30h241v30h-30v35.45c14.473-3.438 29.492-5.45 45-5.45s30.527 2.012 45 5.45V60h-30V30h241V0zm0 0"/><path d="M421 286c0-85.918-66.031-157.629-150-165.238V332h150zm0 0"/><path d="M241 120.762C157.031 128.372 91 200.082 91 286v46h150zm0 0"/></g></svg>