<svg id="Capa_1" height="512" viewBox="0 0 512 512" width="512" xmlns="http://www.w3.org/2000/svg"><title>helix</title><g class="nc-icon-wrapper" fill="#000000"><path d="M132.809 84.654c-17.935 11.569-33.067 26.429-44.976 44.165-4.618 6.877-2.786 16.196 4.091 20.814 6.878 4.619 16.197 2.786 20.815-4.092 9.622-14.329 21.846-26.333 36.333-35.679 6.961-4.49 8.964-13.774 4.474-20.736-4.491-6.959-13.775-8.962-20.737-4.472z"/><path d="M20.256 145.12c7.592 3.314 16.434-.156 19.747-7.749 18.239-41.797 53.115-77.979 97.66-97.312 7.599-3.298 11.086-12.132 7.789-19.731S133.319 9.239 125.72 12.54C75.486 34.34 34.347 75.323 12.507 125.373c-3.314 7.593.156 16.434 7.749 19.747z"/><path d="M145.542 399.261c-14.329-9.621-26.333-21.845-35.679-36.332-4.492-6.962-13.774-8.967-20.736-4.474-6.961 4.49-8.964 13.774-4.474 20.735 11.57 17.937 26.43 33.068 44.166 44.977 6.879 4.62 16.198 2.784 20.815-4.092 4.618-6.878 2.786-16.197-4.092-20.814z"/><path d="M137.371 471.997c-43.022-18.773-78.506-54.326-97.312-97.66-3.298-7.6-12.132-11.089-19.731-7.788-7.6 3.298-11.087 12.132-7.789 19.731 21.801 50.234 62.787 91.375 112.834 113.213 7.592 3.314 16.434-.156 19.747-7.749 3.314-7.593-.156-16.433-7.749-19.747z"/><path d="M379.191 427.346c17.935-11.569 33.067-26.429 44.976-44.165 4.618-6.877 2.786-16.196-4.091-20.814-6.876-4.619-16.197-2.787-20.815 4.092-9.622 14.329-21.846 26.333-36.333 35.679-6.961 4.49-8.964 13.774-4.474 20.736 4.49 6.957 13.771 8.965 20.737 4.472z"/><path d="M491.744 366.88c-7.593-3.315-16.434.157-19.747 7.749-18.239 41.797-53.115 77.979-97.66 97.312-7.599 3.298-11.086 12.132-7.789 19.731 3.302 7.609 12.144 11.084 19.732 7.788 50.234-21.8 91.373-62.782 113.213-112.833 3.314-7.593-.156-16.434-7.749-19.747z"/><path d="M366.458 112.739c14.329 9.621 26.333 21.845 35.679 36.332 4.493 6.964 13.777 8.964 20.736 4.474 6.961-4.49 8.964-13.774 4.474-20.735-11.57-17.937-26.43-33.068-44.166-44.977-6.876-4.618-16.196-2.786-20.815 4.092-4.618 6.878-2.786 16.197 4.092 20.814z"/><path d="M374.629 40.003c43.022 18.773 78.506 54.326 97.312 97.66 3.302 7.607 12.142 11.084 19.731 7.788 7.6-3.298 11.087-12.132 7.789-19.731-21.801-50.235-62.787-91.375-112.834-113.213-7.594-3.315-16.434.156-19.747 7.749s.156 16.433 7.749 19.747z"/><path d="M220.36 181.48c22.268-10.572 48.255-10.585 70.53 0l13.441-170.695C304.789 4.971 300.194 0 294.362 0h-77.473c-5.832 0-10.427 4.971-9.969 10.785z"/><path d="M10.785 207.299C4.971 206.841 0 211.436 0 217.268v77.464c0 5.832 4.971 10.427 10.785 9.969L181.12 291.29c-10.357-21.731-10.848-47.821 0-70.58z"/><path d="M290.89 330.52c-22.263 10.58-48.252 10.577-70.53 0l-13.441 170.695c-.458 5.814 4.137 10.785 9.969 10.785h77.473c5.832 0 10.427-4.971 9.969-10.785z"/><path d="M501.215 207.299L330.16 220.76c10.554 22.21 10.577 48.222 0 70.48l171.055 13.461c5.814.458 10.785-4.137 10.785-9.969v-77.464c0-5.832-4.97-10.427-10.785-9.969z"/><path d="M255.63 203.55c-53.504 0-73.772 72.911-24.43 98.85 29.671 15.809 66.426-.538 75.07-32.74 9.017-33.238-16.191-66.11-50.64-66.11z"/></g></svg>