<svg xmlns="http://www.w3.org/2000/svg" version="1.1" id="Capa_1" x="0" y="0" viewBox="0 0 512 512" xml:space="preserve" width="512" height="512" enable-background="new 0 0 512 512"><title>house</title><g class="nc-icon-wrapper" fill="#000000"><path d="M437.319 30.073h-60c-5.7 0-10.8 2.999-13.2 7.8l88.2 75.3v-68.1c0-8.401-6.599-15-15-15z" fill="#000000"/><path d="M198 360v152h120V360H198zm75 60c-8.284 0-15-6.716-15-15s6.716-15 15-15 15 6.716 15 15-6.716 15-15 15z" fill="#000000"/><path fill="#000000" d="M227 210h60v60h-60z"/><path d="M501.524 199.89L276.831 7.28C271.352 2.578 264.409 0 257.319 0s-14.033 2.578-19.512 7.31L10.473 199.792c-12.432 10.655-14.019 29.313-3.564 41.915 10.694 12.891 29.875 14.522 42.593 3.622L257.319 69.58l205.158 175.861c14.19 12.164 35.929 8.53 45.392-7.588 7.353-12.522 4.68-28.512-6.345-37.963z" fill="#000000"/><path d="M257 109.014L59.247 276.147V497c0 8.401 6.599 15 15 15H167V345c0-8.291 6.709-15 15-15h150c8.291 0 15 6.709 15 15v167h90c8.401 0 15-6.599 15-15V276.178L257 109.014zM317 285c0 8.291-6.709 15-15 15h-90c-8.291 0-15-6.709-15-15v-90c0-8.291 6.709-15 15-15h90c8.291 0 15 6.709 15 15v90z" fill="#000000"/></g></svg>