<svg xmlns="http://www.w3.org/2000/svg" id="Capa_1" height="512" viewBox="0 0 512 512" width="512"><title>hunting</title><g class="nc-icon-wrapper" fill="#000000"><path d="M479.937 4.393c-5.858-5.858-15.355-5.858-21.213 0l-20.059 20.059-10.607-10.607c-5.858-5.858-15.355-5.858-21.213 0s-5.858 15.355 0 21.213l10.606 10.607-130.83 130.831-21.213-21.213-21.213 21.213 21.213 21.213-63.64 63.64-21.213-21.213-21.213 21.213 21.213 21.213-42.426 42.426a15.001 15.001 0 0 0-4.102 7.665l-5.11 25.55-25.55 5.11a15.001 15.001 0 0 0-7.665 4.102l-42.426 42.426c-13.646 13.646-13.647 35.851 0 49.497l42.426 42.426c13.647 13.647 35.851 13.646 49.498 0l77.782-77.782a15.001 15.001 0 0 0 4.102-7.665l10.291-51.453 39.003 19.501a15.001 15.001 0 0 0 17.315-2.81l42.426-42.426c5.858-5.858 5.858-15.355 0-21.213l-31.82-31.82 16.683-16.683a54.892 54.892 0 0 0 15.041-49.677l-8.37-41.847L479.937 25.607c5.858-5.858 5.858-15.356 0-21.214zM304.299 328.524l-24.175 24.175-28.284-14.142 31.246-31.246z" fill="#000000"/><path d="M95.702 303.775c5.858-5.858 5.858-15.355 0-21.213l21.213-21.213-42.427-42.426-21.212 21.213c-5.858-5.858-15.355-5.858-21.213 0s-5.858 15.355 0 21.213l42.426 42.426c5.858 5.858 15.355 5.858 21.213 0z" fill="#000000"/><path d="M290.157 88.108c5.858-5.858 5.858-15.355 0-21.213l-21.213-21.213c-5.858-5.858-15.355-5.858-21.213 0L95.702 197.71l42.426 42.426z" fill="#000000"/></g></svg>