<svg id="Layer_1" data-name="Layer 1" xmlns="http://www.w3.org/2000/svg" viewBox="0 0 512 456.5" width="512" height="456.49958"><title>ice</title><g class="nc-icon-wrapper" fill="#000000"><path d="M562 396v1a53.014 53.014 0 0 0-3.945 3.626c-12.004 13.408-24.053 26.778-35.872 40.348-2.411 2.768-4.152 3.125-7.456 1.437-19.56-9.994-39.242-19.75-58.935-29.481-2.176-1.076-4.68-1.486-7.031-2.205l-.788 1.444 33.28 33.126-21.185 21.009c-.994-.938-2.212-2.034-3.37-3.19-13.561-13.542-27.768-26.515-40.431-40.85-8.125-9.198-16.957-13.084-28.642-11.048-1.949.34-4.407 1.536-5.374 3.109-5.494 8.929-10.637 18.075-15.835 27.183-2.798 4.902-7.619 9.887-7.594 14.816.024 4.94 4.75 9.978 7.812 14.717a10.08 10.08 0 0 0 5.151 3.972c11.02 3.203 22.142 6.057 33.226 9.038 12.962 3.486 25.921 6.982 39.29 10.583l-7.792 28.873-45.81-12.19-.893 1.157c2.213 2.226 4.13 4.893 6.687 6.608q28.007 18.78 56.277 37.168c2.894 1.88 3.59 3.554 2.557 6.873-2.175 6.982-3.808 14.132-5.706 21.201-3.571 13.303-7.172 26.597-10.78 39.968a17.953 17.953 0 0 1-2.337-.258c-20.257-5.385-40.529-10.717-60.717-16.347-1.353-.378-2.847-2.985-2.962-4.646-1.454-21.107-2.496-42.245-4.084-63.341-.325-4.312-2.467-8.487-3.772-12.724l-1.695.376-12.34 45.62-28.9-7.844c5.466-20.424 9.97-40.432 16.333-59.83 3.844-11.72 3.061-21.369-4.427-30.942-1.722-2.202-3.108-3.35-5.96-3.304-10.33.163-20.664.012-30.996.084-5.627.04-12.323-1.538-16.58.955-4.28 2.508-6.382 9.035-8.927 14.06a10.916 10.916 0 0 0-.724 6.961c2.724 11.149 5.814 22.207 8.772 33.298 3.415 12.8 6.827 25.6 10.341 38.78l-28.906 7.723-12.289-45.566-1.466-.292c-1.146 3.29-3.069 6.524-3.312 9.88-1.53 21.101-2.9 42.22-3.815 63.356-.229 5.282-1.93 7.404-7.009 8.638-15.838 3.85-31.538 8.265-47.295 12.451-3.96 1.053-7.93 2.07-12.225 3.189-5.812-21.624-11.522-42.628-16.948-63.705-.295-1.147 1.442-3.397 2.792-4.3 18.549-12.405 37.245-24.59 55.765-37.038 2.707-1.819 4.69-4.717 7.008-7.115l-.848-1.104-45.953 12.197-7.679-28.92c20.435-5.475 40.001-11.64 59.992-15.735 12.39-2.538 20.37-8.406 24.569-19.878a7.774 7.774 0 0 0-.083-5.693c-5.187-9.493-11.6-18.418-15.873-28.282-4.933-11.384-12.112-16.28-24.446-14.033-3.046.555-5.523.963-7.832 3.3-16.045 16.242-32.256 32.32-48.345 48.517a19.481 19.481 0 0 0-2.575 3.935l-22.948-22.727 33.713-33.612c-3.079 1.01-5.501 1.495-7.64 2.554q-29.754 14.729-59.39 29.697c-2.904 1.475-4.521 1.19-6.674-1.275-11.513-13.175-23.204-26.193-34.878-39.226-1.632-1.822-3.511-3.423-5.276-5.126v-1l43.06-47.98c1.924.935 3.56 1.71 5.178 2.52 19.354 9.668 38.686 19.384 58.088 28.957 2.088 1.03 4.58 1.242 6.884 1.834l.898-1.741-33.01-32.874 21.696-21.674c.854 1.391 1.56 3.218 2.823 4.493 13.253 13.381 27.156 26.17 39.709 40.172 8.043 8.971 16.595 13.403 28.567 11.543 2.874-.446 4.777-.903 6.285-3.633 5.069-9.18 10.446-18.19 15.677-27.281 2.657-4.617 7.353-9.292 7.3-13.897-.057-4.832-4.391-9.816-7.455-14.325a13.092 13.092 0 0 0-6.632-5.028c-22.272-6.22-44.637-12.108-66.969-18.114-1.403-.377-2.76-.925-4.404-1.483l7.729-28.623 45.895 12.175.84-1.401c-2.442-2.332-4.609-5.075-7.372-6.929q-27.383-18.372-55.024-36.359c-2.633-1.714-3.494-3.26-2.634-6.384 5.39-19.568 10.591-39.188 15.889-58.781a21.688 21.688 0 0 1 1.337-3.044c20.578 5.51 40.798 11.043 61.101 16.252 3.713.952 4.469 2.714 4.652 6.177 1.167 22.129 2.465 44.253 4.042 66.356.206 2.89 2.249 5.65 3.44 8.47l1.114-.466 12.288-45.507 28.867 7.785c-5.475 20.546-10.043 40.718-16.382 60.317-3.675 11.363-2.967 20.716 4.254 30.04 1.805 2.331 3.202 3.673 6.29 3.618 10.664-.188 21.466-1.128 31.964.2 12.547 1.589 20.25-2.75 24.065-14.418.857-2.624 1.54-5.753.935-8.328-2.548-10.846-5.614-21.57-8.492-32.34l-10.464-39.16 28.953-7.65 12.323 45.656 1.771.3c1.345-4.418 3.543-8.77 3.888-13.264 1.62-21.096 2.673-42.235 4.154-63.344a5.487 5.487 0 0 1 3.205-3.842c9.895-2.905 19.891-5.463 29.854-8.136 10.86-2.914 21.717-5.833 32.722-8.79.512 1.622.9 2.705 1.197 3.813 5.076 18.964 10.027 37.963 15.302 56.872 1.055 3.78.63 5.814-2.864 8.069-19.031 12.279-37.897 24.816-56.727 37.405-2.24 1.497-3.91 3.845-5.845 5.799l.811.987 45.787-12.155 7.663 28.66c-1.684.558-3.054 1.089-4.464 1.47-18.473 4.98-36.78 10.78-55.492 14.601-11.883 2.427-19.98 7.636-24.203 18.881-.116.308-.451.584-.454.877-.02 1.932-.662 4.237.156 5.734 5.189 9.494 11.638 18.409 15.867 28.287 4.831 11.286 11.956 15.885 24.037 13.91 3.408-.556 6.141-1 8.722-3.62 15.9-16.153 32.015-32.095 47.973-48.191a12.736 12.736 0 0 0 2.138-3.66l22.847 22.577-33.852 33.663c3.77-1.19 6.355-1.655 8.616-2.774 19.394-9.59 38.726-19.303 58.084-28.965 1.583-.79 3.217-1.476 4.825-2.21L562 396z" transform="translate(-50 -168.07)"/></g></svg>