<svg id="Capa_1" height="512" viewBox="0 0 512 512" width="512" xmlns="http://www.w3.org/2000/svg"><title>icecream</title><g class="nc-icon-wrapper" fill="#000000"><path d="M406 210c0-16.655-6.87-32.285-18.779-43.579C389.711 156.313 391 145.62 391 135 391 60.557 330.443 0 256 0S121 60.557 121 135c0 10.4 1.245 21.05 3.633 31.318C112.812 177.554 106 193.213 106 210c0 33.091 26.909 60 60 60 17.9 0 33.999-7.881 45-20.361C222.001 262.119 238.1 270 256 270s33.999-7.881 45-20.361C312.001 262.119 328.1 270 346 270c34.889 0 60-28.843 60-60z"/><path d="M202.229 394.34l39.723 107.919a15.004 15.004 0 0 0 28.096.014l75.143-202.381c-8.533-.079-16.848-1.567-24.882-3.948z"/><path d="M256 300a89.876 89.876 0 0 1-45-12.085c-13.315 7.701-28.531 11.832-44.191 11.977l24.263 64.695 79.883-66.57c-4.956.846-9.857 1.983-14.955 1.983z"/></g></svg>