<svg xmlns="http://www.w3.org/2000/svg" viewBox="0 0 114.9 114.9" width="114.9" height="114.9"><title>io</title><g class="nc-icon-wrapper"><g fill="#88d6ee"><path d="M79.3 86.9c-2.5 1.4-4.1 4-4.1 6.9v.2c0 3.2 1.7 6.1 4.4 7.7 1.4.8 2.9 1.2 4.4 1.2s3-.4 4.3-1.2c5.7-3.3 10.3-7.8 13.7-13.2L87.9 78.3c-1.9 3.6-4.9 6.6-8.6 8.6zm3.2 6.1c-.6 0-1.1-.2-1.5-.6s-.6-.9-.6-1.5.3-1.1.6-1.5c.4-.4.9-.6 1.5-.6s1.1.3 1.5.6c.4.4.6.9.6 1.5s-.2 1.1-.6 1.5-.9.6-1.5.6zm6.3 4.1c0 .6-.2 1.1-.6 1.5s-.9.6-1.5.6-1.1-.2-1.5-.6-.6-.9-.6-1.5.3-1.1.6-1.5c.4-.4.9-.6 1.5-.6s1.1.3 1.5.6c.4.4.6 1 .6 1.5z"/><path d="M107.7 66.1c-.2-3.2-.7-6.3-1.6-9.2l-16.5 5c.6 1.9.9 3.9.9 5.9l17.2 1.2c.1-1 .1-2 0-2.9z"/><path d="M88.8 76.4L103 86.6c2.3-4.1 3.8-8.7 4.4-13.4l-17-3c-.2 2.2-.7 4.3-1.6 6.2z"/><path d="M47.8 65.1c1.4-9.8 9.5-17.5 19.3-18.4 6.1-.5 11.9 1.5 16.4 5.6 2.5 2.3 4.3 5 5.5 8.1l16.5-5.2c-5-14.1-17.9-24.5-33.4-25.7-10.9-.8-21.3 2.8-29.3 10.2-7.9 7.3-12.4 17.7-12.4 28.4 0 8.2 2.6 16 7.4 22.7 1.5 2.1 3.9 3.4 6.5 3.5s5.2-1 6.9-2.9c2.6-3 2.9-7.5.5-10.6-3.2-4.6-4.6-10.2-3.9-15.7z"/><path d="M15.8 8c-2.2 0-4.5 1-6.1 2.6s-2.6 3.9-2.6 6.1 1 4.5 2.6 6.1 3.8 2.5 6.1 2.5 4.5-.9 6.1-2.5 2.5-3.8 2.5-6.1-.9-4.5-2.5-6.1C20.3 8.9 18 8 15.8 8z"/><path d="M62.4 89.7c-2.2 0-4.5 1-6.1 2.6s-2.6 3.9-2.6 6.1 1 4.5 2.6 6.1 3.8 2.5 6.1 2.5 4.5-.9 6.1-2.5 2.5-3.8 2.5-6.1-.9-4.5-2.5-6.1c-1.7-1.6-3.9-2.6-6.1-2.6z"/><path d="M15.8 29.5c-4.8 0-8.7 3.8-8.7 8.6v60.2c0 4.9 3.8 8.7 8.7 8.7 4.7 0 8.6-3.9 8.6-8.7V38.1c0-4.7-3.9-8.6-8.6-8.6zm-2 10.2c-.3.5-.8.8-1.3 1-.5.1-1.1 0-1.6-.2-.5-.3-.8-.7-1-1.3-.1-.5 0-1.1.2-1.6.3-.5.7-.8 1.3-1 .5-.1 1.1-.1 1.6.2s.8.8 1 1.3c.2.6.1 1.2-.2 1.6zm7.5 0c-.3.5-.8.8-1.3 1-.5.1-1.1 0-1.6-.2-.5-.3-.8-.7-1-1.3-.1-.5 0-1.1.2-1.6.3-.5.7-.8 1.3-1 .5-.1 1.1-.1 1.6.2s.8.8 1 1.3c.1.6.1 1.2-.2 1.6z"/></g></g></svg>