<svg xmlns="http://www.w3.org/2000/svg" version="1.1" id="Capa_1" x="0" y="0" viewBox="0 0 44.995 44.995" xml:space="preserve" width="512" height="512" enable-background="new 0 0 44.995 44.995"><title>jumping</title><g class="nc-icon-wrapper" fill="#000000"><path d="M36.421 30.446c-.612 1.713-1.487 3.306-2.464 4.838-1.339-1.344-2.545-2.803-3.455-4.497a2.988 2.988 0 0 0-.316-.468 4.79 4.79 0 0 0-.348-1.243 464.67 464.67 0 0 0-2.484-5.593c-.65-1.448-1.282-2.852-1.953-4.385 3.746-1.427 7.63-2.995 11.481-4.798 1.091-.51 1.611-1.532 1.36-2.665-.289-1.295-1.474-2.272-2.755-2.272-.401 0-.8.091-1.185.272-3.529 1.652-7.096 3.094-11.122 4.614a4.79 4.79 0 0 0-1.767-1.454c.8-3.197 1.893-6.963 2.708-9.054a2.746 2.746 0 0 0-5.115-1.993c-1.198 3.076-2.795 8.882-3.597 12.613a4.793 4.793 0 0 0-.505 4.604c1.403 3.369 2.515 5.84 3.69 8.454a485.067 485.067 0 0 1 2.235 5.027c-5.266 2.333-10.883 5.019-15.876 7.077-3.202 1.32-1.801 6.595 1.448 5.255 6.373-2.629 13.775-6.286 20.149-8.913a3.22 3.22 0 0 0 .518-.277c1.524 2.159 3.435 4.041 5.427 5.773 1.404 1.221 3.222.941 4.28-.55 1.984-2.798 3.74-5.669 4.901-8.91 1.191-3.323-4.077-4.738-5.255-1.455z" fill="#000000"/><circle cx="9.056" cy="15" r="4.881" fill="#000000"/></g></svg>