<svg xmlns="http://www.w3.org/2000/svg" id="Capa_1" height="512" viewBox="0 0 512 512" width="512"><title>kissing</title><g class="nc-icon-wrapper" fill="#000000"><path d="M511.822 225.987c-23.56-.081-67.541-28.282-94.66-55.576-31.904-32.095-63.735-64.497-101.528-64.409-20.845.498-31.934 11.455-40.034 19.453-7.397 7.31-11.03 10.547-19.6 10.547s-12.202-3.237-19.6-10.547c-8.101-7.998-19.189-18.955-40.049-19.453-36.328-.322-69.609 32.314-101.514 64.409-27.12 27.294-71.1 55.496-94.66 55.576H103.48c47.3 0 86.133-7.251 118.711-22.163 22.676-10.4 44.927-10.4 67.632 0 32.563 14.912 71.396 22.163 118.696 22.163z" fill="#000000"/><path d="M234.687 231.099c-8.26 3.779-16.954 6.982-25.887 9.89 8.928 2.908 17.618 6.107 25.873 9.886 14.824 6.797 27.847 6.797 42.642 0 8.26-3.779 16.954-6.982 25.887-9.89-8.928-2.908-17.618-6.107-25.873-9.886-14.825-6.797-27.848-6.797-42.642 0z" fill="#000000"/><path d="M289.809 278.15c-11.338 5.2-22.72 7.837-33.809 7.837s-22.471-2.637-33.823-7.837c-32.563-14.912-71.396-22.163-118.696-22.163H0c.026 0 .048.015.073.015 13.447 0 39.818 14.136 57.133 39.126C87.792 339.278 134.022 406.001 256 406.001s169.208-66.724 199.794-110.874c17.314-24.99 42.686-39.126 56.133-39.126.026 0 .048-.015.073-.015H408.52c-47.3.001-86.133 7.252-118.711 22.164z" fill="#000000"/></g></svg>