<svg xmlns="http://www.w3.org/2000/svg" id="Capa_1" height="512" viewBox="0 0 512 512" width="512"><title>lineracing</title><g class="nc-icon-wrapper" fill="#000000"><path d="M0 77.429h47.429v47.429H0z" fill="#000000"/><path d="M0 0h47.429v47.429H0z" fill="#000000"/><path d="M0 464.571h47.429V512H0z" fill="#000000"/><path d="M271 60.979h-30V0H77.429v512H241v-59.528h30V512h163.571V0H271zm0 349.516h-30v-74.529h30zm0-116.506h-30v-74.528h30zm0-116.505h-30v-74.529h30z" fill="#000000"/><path d="M0 387.143h47.429v47.429H0z" fill="#000000"/><path d="M0 309.714h47.429v47.429H0z" fill="#000000"/><path d="M0 232.286h47.429v47.428H0z" fill="#000000"/><path d="M0 154.857h47.429v47.429H0z" fill="#000000"/><path d="M464.571 232.286H512v47.428h-47.429z" fill="#000000"/><path d="M464.571 309.714H512v47.429h-47.429z" fill="#000000"/><path d="M464.571 154.857H512v47.429h-47.429z" fill="#000000"/><path d="M464.571 77.429H512v47.429h-47.429z" fill="#000000"/><path d="M464.571 0H512v47.429h-47.429z" fill="#000000"/><path d="M464.571 464.571H512V512h-47.429z" fill="#000000"/><path d="M464.571 387.143H512v47.429h-47.429z" fill="#000000"/></g></svg>