<svg xmlns="http://www.w3.org/2000/svg" id="Capa_1" height="512" viewBox="0 0 512 512" width="512"><title>logic</title><g class="nc-icon-wrapper" fill="#000000"><path d="M226 301h15v-30h-60v-45c0-8.27-6.73-15-15-15s-15 6.73-15 15v45H43.14c-28.307 48.291-5.304 112.514 50.21 130.3C80.178 459.466 124.268 512 181 512c23.03 0 44.07-8.7 60-22.99V391h-15c-24.81 0-45-20.19-45-45s20.19-45 45-45zm242.86-30H391v15c0 24.81-20.19 45-45 45s-45-20.19-45-45v-15h-30v60h-45c-8.27 0-15 6.73-15 15s6.73 15 15 15h45v128.01C286.93 503.3 307.97 512 331 512c56.686 0 100.835-52.483 87.65-110.7 55.476-17.774 78.539-81.972 50.21-130.3zm-50.21-160.3C431.822 52.537 387.735 0 331 0c-23.03 0-44.07 8.7-60 22.99V121h15c24.81 0 45 20.19 45 45s-20.19 45-45 45h-15v30h60v45c0 8.27 6.73 15 15 15s15-6.73 15-15v-45h107.86c28.307-48.291 5.304-112.514-50.21-130.3zM286 151h-45V22.99C225.07 8.7 204.03 0 181 0 124.314 0 80.166 52.48 93.35 110.7 37.874 128.474 14.811 192.672 43.14 241H121v-15c0-24.81 20.19-45 45-45s45 20.19 45 45v15h30v-60h45c8.27 0 15-6.73 15-15s-6.73-15-15-15z" fill="#000000" id="_x3C_Group_x3E__18_"/></g></svg>