<svg xmlns="http://www.w3.org/2000/svg" version="1.1" id="Capa_1" x="0" y="0" viewBox="0 0 612.008 612.008" xml:space="preserve" width="512" height="512" enable-background="new 0 0 612.008 612.008"><title>love</title><g class="nc-icon-wrapper" fill="#000000"><path d="M609.383 170.157c-11.479-66.076-59.969-117.694-125.18-130.505-67.537-13.263-134.697 16.207-169.347 74.289-2.642 4.412-8.735 14.841-8.851 14.683-.117.158-6.21-10.272-8.851-14.683-34.65-58.082-101.81-87.552-169.347-74.289C62.601 52.463 14.105 104.082 2.625 170.157c-9.009 51.831 5.846 100.829 34.177 143.981 22.506 34.294 47.612 67.558 75.764 97.309 57.794 61.101 125.613 110.929 193.431 164.05 67.825-53.121 135.644-102.949 193.431-164.05 28.152-29.751 53.259-63.022 75.764-97.309 28.338-43.152 43.2-92.142 34.191-143.981zm-474.085-53.203c-14.931.192-29.641 7.074-40.38 18.876-11.253 12.378-16.714 28.228-15.363 44.634.714 8.714-5.77 16.351-14.471 17.064-.446.034-.878.055-1.311.055-8.151 0-15.075-6.264-15.754-14.533-2.038-24.88 6.525-49.848 23.494-68.512 16.605-18.265 39.707-28.921 63.372-29.23 8.659-.199 15.905 6.875 16.028 15.61.105 8.742-6.873 15.919-15.615 16.036z" fill="#000000"/></g></svg>