<svg xmlns="http://www.w3.org/2000/svg" id="Solid" viewBox="0 0 64 64" width="512" height="512"><title>magic</title><g class="nc-icon-wrapper" fill="#000000"><path d="M36 13l1.414 2.586L40 17l-2.586 1.414L36 21l-1.414-2.586L32 17l2.586-1.414L36 13z"/><path d="M25 5l1.768 3.232L30 10l-3.232 1.768L25 15l-1.768-3.232L20 10l3.232-1.768L25 5z"/><path d="M6 21l4.525-2.475L13 14l2.475 4.525L20 21l-4.525 2.475L13 28l-2.475-4.525L6 21z"/><path d="M60.954 56.338c.286 1.067-.78 2.28-2.38 2.708s-3.13-.088-3.416-1.155L44.805 19.254l5.796-1.553z"/><path d="M50.083 15.769l-2.588-9.66c-.286-1.066-1.815-1.584-3.415-1.155s-2.666 1.642-2.38 2.708l2.588 9.66z"/><path d="M28 47a47.066 47.066 0 0 1-15-2.25V55s2.794 5 15 5 15-5 15-5V44.7A47.115 47.115 0 0 1 28 47z"/><path d="M44.555 26.045A42.407 42.407 0 0 0 28 23a49.53 49.53 0 0 0-8.94.794l-2.112 1.155-2.193 4.011a2 2 0 0 1-3.51 0l-1.226-2.243C6.275 28.657 4 31.207 4 34c0 6.075 10.745 11 24 11 8.527 0 16.008-2.04 20.264-5.112zM28 38c-8.284 0-15-1.79-15-4s6.716-4 15-4 15 1.79 15 4-6.716 4-15 4z"/></g></svg>