<svg xmlns="http://www.w3.org/2000/svg" id="Capa_1" height="512" viewBox="0 0 512 512" width="512"><title>mahjong</title><g class="nc-icon-wrapper" fill="#000000"><path d="M376 150h35v60h-35z" fill="#000000"/><path d="M321 150h20v60h-20z" fill="#000000"/><path d="M456 0H266c-24.813 0-45 20.187-45 45v7h25c38.994 0 71.119 29.916 74.662 68H346V85c0-8.284 6.716-15 15-15s15 6.716 15 15v35h50c8.284 0 15 6.716 15 15v90c0 8.284-6.716 15-15 15h-50v105c0 8.284-6.716 15-15 15s-15-6.716-15-15V240h-25v190h135c24.813 0 45-20.187 45-45V45c0-24.813-20.187-45-45-45z" fill="#000000"/><path d="M246 82H56c-24.813 0-45 20.187-45 45v340c0 24.813 20.187 45 45 45h190c24.813 0 45-20.187 45-45V127c0-24.813-20.187-45-45-45zM111 417h-5v25c0 8.284-6.716 15-15 15s-15-6.716-15-15v-25h-5c-8.284 0-15-6.716-15-15s6.716-15 15-15h5v-25c0-8.284 6.716-15 15-15s15 6.716 15 15v25h5c8.284 0 15 6.716 15 15s-6.716 15-15 15zm0-210h-5v25c0 8.284-6.716 15-15 15s-15-6.716-15-15v-25h-5c-8.284 0-15-6.716-15-15s6.716-15 15-15h5v-25c0-8.284 6.716-15 15-15s15 6.716 15 15v25h5c8.284 0 15 6.716 15 15s-6.716 15-15 15zm120 210h-5v25c0 8.284-6.716 15-15 15s-15-6.716-15-15v-25h-5c-8.284 0-15-6.716-15-15s6.716-15 15-15h5v-25c0-8.284 6.716-15 15-15s15 6.716 15 15v25h5c8.284 0 15 6.716 15 15s-6.716 15-15 15zm0-210h-5v25c0 8.284-6.716 15-15 15s-15-6.716-15-15v-25h-5c-8.284 0-15-6.716-15-15s6.716-15 15-15h5v-25c0-8.284 6.716-15 15-15s15 6.716 15 15v25h5c8.284 0 15 6.716 15 15s-6.716 15-15 15z" fill="#000000"/></g></svg>