<svg xmlns="http://www.w3.org/2000/svg" id="Capa_1" height="512" viewBox="0 0 512 512" width="512"><title>makeover</title><g class="nc-icon-wrapper" fill="#000000"><path d="M335 411H15c-8.284 0-15 6.716-15 15 0 24.853 20.147 45 45 45h260c24.853 0 45-20.147 45-45 0-8.284-6.716-15-15-15z" fill="#000000"/><path d="M504.629 66.771c-58.146-34.361-117.115-34.361-175.262 0-6.94 4.101-9.398 12.955-5.564 20.047l45.535 84.23h95.321l45.535-84.23c3.833-7.092 1.375-15.946-5.565-20.047z" fill="#000000"/><path d="M379.498 201h75v45h-75z" fill="#000000"/><path d="M379.498 433.5c0 20.711 16.789 37.5 37.5 37.5s37.5-16.789 37.5-37.5V276h-75z" fill="#000000"/><path d="M256.317 154.683C234.597 132.962 205.718 121 175 121s-59.597 11.962-81.317 33.683C71.962 176.403 60 205.282 60 236s11.962 59.597 33.683 81.317C115.403 339.038 144.282 351 175 351s59.597-11.962 81.317-33.683C278.038 295.597 290 266.718 290 236s-11.962-59.597-33.683-81.317zM118.432 265.142a14.946 14.946 0 0 1-10.606-4.394c-5.858-5.858-5.858-15.355 0-21.213l70.71-70.71c5.857-5.858 15.355-5.858 21.213 0s5.858 15.355 0 21.213l-70.71 70.71a14.952 14.952 0 0 1-10.607 4.394zm123.743-32.678l-70.71 70.71c-2.929 2.929-6.768 4.394-10.606 4.394s-7.678-1.464-10.606-4.394c-5.858-5.858-5.858-15.355 0-21.213l70.71-70.71c5.857-5.858 15.355-5.858 21.213 0 5.857 5.858 5.857 15.355-.001 21.213z" fill="#000000"/><path d="M175 61C78.505 61 0 139.505 0 236c0 60.264 30.621 113.51 77.12 145H175c-80.081 0-145-64.919-145-145S94.919 91 175 91s145 64.919 145 145-64.919 145-145 145h97.88C319.379 349.51 350 296.264 350 236c0-96.495-78.505-175-175-175z" fill="#000000"/></g></svg>