<svg xmlns="http://www.w3.org/2000/svg" version="1.1" id="Capa_1" x="0" y="0" width="512" height="512" viewBox="0 0 128.602 128.601" xml:space="preserve" enable-background="new 0 0 128.602 128.601"><title>math</title><g class="nc-icon-wrapper" fill="#000000"><path d="M55.72 3.232H6.436A6.444 6.444 0 0 0 0 9.668v47.111a6.445 6.445 0 0 0 6.436 6.436H55.72a6.445 6.445 0 0 0 6.436-6.436V9.639c-.001-3.52-2.888-6.407-6.436-6.407zm-6.408 34.267H36.468v12.844a5.352 5.352 0 0 1-5.363 5.362 5.352 5.352 0 0 1-5.363-5.362V37.499H12.899a5.353 5.353 0 0 1-5.363-5.363 5.353 5.353 0 0 1 5.363-5.363h12.844V16.074a5.352 5.352 0 0 1 5.363-5.362 5.352 5.352 0 0 1 5.363 5.362v10.698h12.844a5.353 5.353 0 0 1 5.363 5.363 5.371 5.371 0 0 1-5.364 5.364z" fill="#000000"/><path d="M122.139 3.232H72.881a6.445 6.445 0 0 0-6.436 6.436v47.111a6.446 6.446 0 0 0 6.436 6.436h49.285a6.446 6.446 0 0 0 6.436-6.436V9.639c-.029-3.52-2.916-6.407-6.463-6.407zm-6.437 33.827a5.533 5.533 0 0 1-2.146.44H81.434a5.545 5.545 0 0 1-2.146-.44 5.326 5.326 0 0 1-3.218-4.896c0-2.201 1.32-4.07 3.218-4.896a5.555 5.555 0 0 1 2.146-.439h32.123c.771 0 1.485.165 2.146.439a5.326 5.326 0 0 1 3.218 4.896 5.327 5.327 0 0 1-3.219 4.896z" fill="#000000"/><path d="M55.72 65.359H6.436A6.444 6.444 0 0 0 0 71.794v47.139a6.445 6.445 0 0 0 6.436 6.437H55.72a6.445 6.445 0 0 0 6.436-6.437V71.794a6.444 6.444 0 0 0-6.436-6.435zm-6.408 46.754c-.028.139-.11.247-.138.357a5.279 5.279 0 0 1-1.65 2.254 5.357 5.357 0 0 1-3.3 1.156c-1.595 0-3.163-.688-4.208-2.035l-1.073-1.349-7.398-9.378-7.398 9.378-1.073 1.349c-1.045 1.348-2.64 2.035-4.208 2.035a5.303 5.303 0 0 1-3.3-1.156 5.273 5.273 0 0 1-1.65-2.254 5.346 5.346 0 0 1 .743-5.28l10.038-12.761-8.525-10.836a5.341 5.341 0 0 1-.688-5.392c.33-.798.853-1.54 1.595-2.118a5.372 5.372 0 0 1 7.536.881l.963 1.237 5.968 7.591 5.968-7.591.962-1.237a5.372 5.372 0 0 1 7.536-.881 5.154 5.154 0 0 1 1.595 2.118 5.34 5.34 0 0 1-.688 5.392l-8.526 10.836 10.038 12.761c.413.522.715 1.128.908 1.76a5.886 5.886 0 0 1-.027 3.163z" fill="#000000"/><path d="M122.139 65.359H72.881a6.445 6.445 0 0 0-6.436 6.436v47.139a6.445 6.445 0 0 0 6.436 6.437h49.285a6.445 6.445 0 0 0 6.436-6.437v-47.14c-.029-3.548-2.916-6.435-6.463-6.435zm-8.555 42.848H81.436a5.54 5.54 0 0 1-2.146-.439 5.324 5.324 0 0 1-3.217-4.896c0-2.2 1.318-4.069 3.217-4.896a5.537 5.537 0 0 1 2.146-.44h32.121c.771 0 1.486.165 2.146.44a5.326 5.326 0 0 1 3.218 4.896 5.324 5.324 0 0 1-3.218 4.896 5.424 5.424 0 0 1-2.119.439zm2.118-15.456a5.569 5.569 0 0 1-2.146.438H81.434a5.562 5.562 0 0 1-2.146-.438c-1.897-.826-3.218-2.695-3.218-4.896s1.32-4.07 3.218-4.896a5.536 5.536 0 0 1 2.146-.439h32.123a5.54 5.54 0 0 1 2.146.439c1.897.825 3.218 2.695 3.218 4.896s-1.321 4.07-3.219 4.896z" fill="#000000"/></g></svg>