<svg xmlns="http://www.w3.org/2000/svg" id="Capa_1" height="512" viewBox="0 0 511.85 511.85" width="512"><title>memo</title><g class="nc-icon-wrapper" fill="#000000"><g id="XMLID_318_"><path id="XMLID_1281_" d="M240.85.276H0v249.17h240.85zM122.176 198.059h-30v-28.87h30zm0-77.254v18.391h-30V90.809h29.413c6.132 0 11.121-4.989 11.121-11.121s-4.989-11.122-11.121-11.122H92.176v-30h29.413c22.674 0 41.121 18.447 41.121 41.121 0 22.478-18.13 40.802-40.534 41.118z" fill="#000000"/><path id="XMLID_1284_" d="M133.617 382.372l-15.654-22.498-15.656 22.498-17.749 4.661 15.113 14.78-2.803 26.389 21.095-9.902 21.094 9.902-2.802-26.389 15.111-14.779z" fill="#000000"/><path id="XMLID_1288_" d="M0 279.445v232.129h240.85V279.445zm117.963 171.996l-56.55 26.544 6.891-64.887-42.567-41.631 58.26-15.303 33.967-48.813 33.967 48.813 58.259 15.303-42.566 41.632 6.89 64.887z" fill="#000000"/><path id="XMLID_1294_" d="M511.85 249.445V.276h-241v249.17h241zM393.888 31.503l33.968 48.813 58.259 15.304-42.567 41.631 6.891 64.887-56.55-26.544-56.549 26.544 6.89-64.887-42.566-41.631 58.259-15.304z" fill="#000000"/><path id="XMLID_1295_" d="M372.794 152.354l21.094-9.902 21.094 9.902-2.802-26.389 15.112-14.779-17.749-4.662-15.655-22.498-15.655 22.498-17.749 4.662 15.112 14.779z" fill="#000000"/><path id="XMLID_1298_" d="M270.85 511.575h241v-232.13h-241zm95.276-143.286h29.413c6.132 0 11.121-4.989 11.121-11.122s-4.989-11.122-11.121-11.122h-29.413v-30h29.413c22.674 0 41.121 18.447 41.121 41.122 0 22.478-18.13 40.802-40.534 41.118v18.391h-30zm30 78.38v28.87h-30v-28.87z" fill="#000000"/></g></g></svg>