<svg xmlns="http://www.w3.org/2000/svg" height="512" viewBox="0 0 64 64" width="512"><title>mobile</title><g class="nc-icon-wrapper" fill="#000000"><g id="Smartphone-Gamepad-Gaming-Esport-Online"><path d="M38 26H26a6.006 6.006 0 0 0-6 6v5a1 1 0 0 0 1 1h2.653l4.247-3.354A3 3 0 0 1 29.761 34h4.478a3.012 3.012 0 0 1 1.86.646L40.347 38H43a1 1 0 0 0 1-1v-5a6.006 6.006 0 0 0-6-6zm-10 6h-2v2h-2v-2h-2v-2h2v-2h2v2h2zm3-2h-2v-2h2zm4 0h-2v-2h2zm7 2h-2v2h-2v-2h-2v-2h2v-2h2v2h2z" fill="#000000"/><path d="M49 50H15v6a4 4 0 0 0 4 4h26a4 4 0 0 0 4-4zm-15 8h-4a3 3 0 0 1 0-6h4a3 3 0 0 1 0 6z" fill="#000000"/><path d="M49 8a4 4 0 0 0-4-4H19a4 4 0 0 0-4 4v2h34zM27 8h-2V6h2zm8 0h-6V6h6z" fill="#000000"/><path d="M38 30h2v2h-2z" fill="#000000"/><path d="M34 54h-4a1 1 0 0 0 0 2h4a1 1 0 0 0 0-2z" fill="#000000"/><path d="M49 12H15v36h34zm-3 25a3 3 0 0 1-3 3h-3a1 1 0 0 1-.619-.215l-4.522-3.569a1 1 0 0 0-.62-.216h-4.478a1 1 0 0 0-.619.215l-4.522 3.57A1 1 0 0 1 24 40h-3a3 3 0 0 1-3-3v-5a8.009 8.009 0 0 1 8-8h12a8.009 8.009 0 0 1 8 8z" fill="#000000"/></g></g></svg>