<svg version="1.1" id="Capa_1" xmlns="http://www.w3.org/2000/svg" x="0" y="0" viewBox="0 0 512.001 512.001" xml:space="preserve" enable-background="new 0 0 512.001 512.001" width="512.001" height="512.001"><title>motocross</title><g class="nc-icon-wrapper" fill="#000000"><path d="M506.998 342.422c0-.038.003-.075.003-.113a73.56 73.56 0 0 0-7.282-31.996l4.526-2.174c-5.096-10.608-12.656-20.117-21.864-27.497l-3.159 3.94a73.763 73.763 0 0 0-29.614-14.371l1.125-4.901c-11.456-2.63-23.651-2.656-35.119-.079l1.103 4.905a73.16 73.16 0 0 0-7.734 2.196l-35.749-63.248c23.941-6.481 49.017-6.342 73.012.514l8.241-28.846c-31.732-9.067-65.021-8.532-96.409 1.517l-50.659-89.627H256v30h33.915l25.026 44.277-48.491-10.684-85.574 21.394-167.445-31.398-5.528 29.486 51.764 9.706v50.712l99.05 29.715 2.486 14.916-24.024 8.121a79.142 79.142 0 0 0-9.074-8.468l-3.143 3.957a73.746 73.746 0 0 0-29.679-14.241l1.103-4.905c-11.467-2.577-23.662-2.551-35.119.079l1.125 4.901a73.75 73.75 0 0 0-29.614 14.371l-3.158-3.94c-9.208 7.38-16.768 16.889-21.864 27.497l4.527 2.174C7.617 320 5 330.854 5 342.307c0 .038.003.076.003.113L0 342.43c.018 11.999 2.663 23.527 7.859 34.263l4.522-2.189c4.865 10.026 11.937 18.783 20.568 25.666l-3.149 3.95c9.247 7.368 20.206 12.637 31.696 15.239l1.11-4.904A73.892 73.892 0 0 0 79 416.308c5.672 0 11.188-.663 16.497-1.877l1.117 4.902c11.484-2.617 22.436-7.902 31.672-15.283l-3.154-3.946c8.622-6.896 15.684-15.663 20.535-25.698l4.523 2.181c5.181-10.744 7.808-22.278 7.808-34.28l.002-.196h-5.005a74.738 74.738 0 0 0-.296-6.29l31.101-10.514h68.165c34.251 0 65.86-18.599 82.494-48.54l21.102-37.983 25.079 44.371c-7.773 6.895-14.203 15.347-18.729 24.659l4.521 2.197a73.532 73.532 0 0 0-7.429 32.17l-5.003.014v.112c0 12.002 2.627 23.535 7.808 34.28l4.523-2.181c4.851 10.035 11.914 18.802 20.535 25.698l-3.154 3.946c9.236 7.381 20.188 12.665 31.672 15.283l1.117-4.902a73.908 73.908 0 0 0 16.497 1.877c5.635 0 11.117-.654 16.394-1.853l1.11 4.904c11.49-2.601 22.45-7.871 31.696-15.239l-3.149-3.951c8.631-6.883 15.703-15.64 20.568-25.666l4.522 2.189c5.199-10.736 7.844-22.264 7.862-34.263l-5.003-.007zM94 357.307H64v-30h30v30zm354 0h-30v-30h30v30z"/></g></svg>