<svg xmlns="http://www.w3.org/2000/svg" version="1.1" id="Capa_1" x="0" y="0" viewBox="0 0 512 512" xml:space="preserve" width="512" height="512" enable-background="new 0 0 512 512"><title>multiplayer</title><g class="nc-icon-wrapper" fill="#000000"><path d="M511.102 234.457A44.769 44.769 0 0 1 497 236.734h-15.813c.539 6.393.813 12.82.813 19.268 0 22.707-3.381 44.637-9.641 65.329H348.415c1.922-21.05 2.916-42.974 2.916-65.329 0-6.464-.09-12.888-.256-19.268h-14.742a44.787 44.787 0 0 1-15.347-2.698c.222 7.258.345 14.58.345 21.966 0 22.45-1.038 44.388-3.035 65.329H193.702c-1.997-20.941-3.035-42.879-3.035-65.329 0-22.453 1.038-44.393 3.036-65.336h97.645a125.334 125.334 0 0 1 3.897-30h-97.924c3.827-25.941 9.246-49.755 16.105-70.334C228.27 45.8 245.637 30 255.999 30c10.363 0 27.732 15.8 42.574 60.33 3.863 11.591 7.269 24.208 10.191 37.653a125.308 125.308 0 0 1 22.327-27.795 92.452 92.452 0 0 1-7.224-28.365c-5.419-14.701-11.156-26.541-17.014-36.021a227.23 227.23 0 0 1 19.258 5.335 92.733 92.733 0 0 1 11.791-27.707A256.972 256.972 0 0 0 255.999 0c-.332 0-.666.004-1.002.012-68.005.26-131.9 26.854-180.016 74.969C26.629 123.333 0 187.62 0 256.001a256.56 256.56 0 0 0 10.731 73.392 93.708 93.708 0 0 1 23.27-31.04 226.612 226.612 0 0 1-4-42.352c0-22.71 3.381-44.643 9.642-65.336h123.941c-1.923 21.052-2.917 42.978-2.917 65.336 0 16.156.526 32.081 1.54 47.62 16.284 16.789 26.327 39.664 26.327 64.846 0 12.92-2.627 25.455-7.626 36.989 25.048 23.392 39.759 56.335 39.759 91.544 0 4.273-.612 8.406-1.73 12.326A258.067 258.067 0 0 0 256 512c.331 0 .666-.005 1.002-.013 68.005-.259 131.902-26.853 180.018-74.97C485.372 388.666 512 324.379 512 256.001c0-7.207-.301-14.395-.898-21.544zM184.965 80.844c-7.776 23.33-13.816 50.406-17.932 79.821H51.124c29.074-62.229 85.671-109.125 154.045-124.9-7.021 11.354-13.87 26.08-20.204 45.079zM255.999 482c-10.361 0-27.729-15.801-42.572-60.332-6.86-20.58-12.279-44.396-16.105-70.338h117.357c-3.827 25.942-9.246 49.758-16.105 70.338C283.73 466.199 266.362 482 255.999 482zm50.832-5.765c7.022-11.354 13.87-26.08 20.203-45.08 7.776-23.33 13.816-50.408 17.931-79.824h115.914c-29.074 62.23-85.672 109.127-154.048 124.904z" fill="#000000"/><path d="M140.213 412.912c11.316-11.426 18.32-27.132 18.32-44.445 0-34.85-28.352-63.2-63.201-63.2s-63.2 28.351-63.2 63.2c0 17.314 7.003 33.02 18.32 44.445C20.453 428.989 0 460.649 0 497c0 8.283 6.716 15 15 15h160.667c8.283 0 15-6.717 15-15 0-36.351-20.454-68.011-50.454-84.088z" fill="#000000"/><path d="M461.546 107.646c11.316-11.426 18.319-27.132 18.319-44.445 0-34.849-28.352-63.2-63.199-63.2-34.849 0-63.199 28.352-63.199 63.2 0 17.313 7.002 33.019 18.318 44.445-29.999 16.076-50.453 47.736-50.453 84.088 0 8.284 6.717 15 15 15H497c8.283 0 15-6.716 15-15 0-36.352-20.454-68.012-50.454-84.088z" fill="#000000"/></g></svg>