<svg id="Capa_1" height="512" viewBox="0 0 511.978 511.978" width="512" xmlns="http://www.w3.org/2000/svg"><title>mystery</title><g class="nc-icon-wrapper" fill="#000000"><path d="M388.594 120.003c-10.292 0-17.441 10.062-14.224 19.746l9.932 29.78c4.878 14.678 4.893 30.923.015 46.992-2.607 8.628-2.637 15.293-.073 18.735 2.871 3.882 9.272 4.746 11.279 4.746 14.59 0 26.455-11.865 26.455-26.455v-60.161c0-18.412-14.971-33.383-33.384-33.383z"/><path d="M331.978.003c-99.258 0-180 80.742-180 180 0 44.238 16.11 84.738 42.678 116.111l-41.609 41.609-10.605-10.605c-5.859-5.859-15.352-5.859-21.211 0L13.162 435.187c-17.549 17.549-17.549 46.084 0 63.633s46.1 17.531 63.633 0l108.069-108.07c5.859-5.859 5.859-15.352 0-21.211l-10.605-10.605 41.609-41.609c31.373 26.569 71.873 42.678 116.111 42.678 99.258 0 180-80.742 180-180s-80.743-180-180.001-180zm1.069 119.239l-9.917 29.78c-2.915 8.73-2.842 18.706.205 28.813 6.958 22.998 1.377 37.339-4.541 45.308-9.229 12.437-24.316 16.86-35.361 16.86-31.128 0-56.455-25.327-56.455-56.455v-60.161c0-34.951 28.433-63.384 63.369-63.384 30.767 0 52.39 30.043 42.7 59.239zm118.931 94.306c0 31.128-25.327 56.455-56.455 56.455-11.045 0-26.133-4.424-35.361-16.86-5.918-7.969-11.514-22.295-4.556-45.308 3.062-10.122 3.149-20.068.234-28.813l-9.932-29.78c-9.708-29.123 11.884-59.238 42.686-59.238 34.951 0 63.384 28.433 63.384 63.384z"/><path d="M290.347 90.003c-18.398 0-33.369 14.971-33.369 33.384v60.161c0 14.59 11.865 26.455 26.455 26.455 2.007 0 8.394-.864 11.265-4.746 2.563-3.442 2.534-10.107-.073-18.735-4.863-16.084-4.849-32.329.044-46.992l9.902-29.78c3.27-9.747-3.99-19.747-14.224-19.747z"/></g></svg>