<svg xmlns="http://www.w3.org/2000/svg" version="1.1" id="Capa_1" x="0" y="0" width="512" height="512" viewBox="0 0 174.709 174.71" xml:space="preserve" enable-background="new 0 0 174.709 174.71"><title>nail</title><g class="nc-icon-wrapper" fill="#000000"><path d="M126.228 90.189l-9.193-3.414c-4.207-1.555-11.332-2.837-15.819-2.837H73.495c-4.487 0-11.614 1.282-15.821 2.837l-9.191 3.414c-4.207 1.56-6.936 6.446-6.058 10.846l13.13 65.663c.879 4.4 5.278 8.012 9.771 8.012h44.061c4.487 0 8.887-3.611 9.77-8.012l13.131-65.663c.874-4.399-1.847-9.286-6.06-10.846zm-11.48 30.971a4.096 4.096 0 0 1-4.087 4.083H64.047a4.096 4.096 0 0 1-4.083-4.083v-13.267a4.097 4.097 0 0 1 4.083-4.09h46.614c2.251 0 4.087 1.85 4.087 4.09v13.267z" fill="#000000"/><path fill="#000000" d="M101.215 0h-27.72l-8.17 75.768h44.06z"/></g></svg>