<svg version="1.1" id="Layer_1" xmlns="http://www.w3.org/2000/svg" x="0" y="0" viewBox="0 0 417.782 417.782" xml:space="preserve" enable-background="new 0 0 417.7821 417.7821" width="417.7821" height="417.7821"><title>number</title><g class="nc-icon-wrapper" fill="#000000"><path d="M283.005 16.891c3.496 1.817 7.353 3.17 10.41 5.553 5.227 4.076 7.334 10.002 7.34 16.551.04 46.244.084 92.488-.018 138.73-.028 12.665-9.397 22.193-21.991 22.228-46.777.13-93.554.12-140.33.01-12.276-.028-21.124-9.243-21.36-21.865-.171-9.12-.04-18.247-.04-27.37V43.491c0-15.621 3.598-21.003 17.778-26.601h148.21zm-65.26 126.423v-4.934c0-23.498.003-46.996-.004-70.494 0-1.248.09-2.527-.14-3.738-.743-3.894-3.09-6.474-6.846-7.683-3.253-1.047-5.888.165-8.016 2.595-9.46 10.803-18.937 21.592-28.3 32.48-3.385 3.936-2.812 8.535 1.132 11.882 3.786 3.214 8.26 2.853 11.92-1.13 4.001-4.357 7.884-8.823 12.275-13.754v54.783c-6.127 0-11.973-.077-17.816.022-5.86.099-9.673 3.57-9.729 8.64-.057 5.219 3.938 8.866 9.888 8.896 8.732.044 17.465.013 26.197.012 9.48-.002 18.962.073 28.441-.046 4.683-.06 8.218-3.326 8.778-7.666.54-4.17-2.216-8.475-6.272-9.444-1.673-.4-3.465-.388-5.204-.403-5.332-.048-10.666-.018-16.303-.018z"/><path d="M235.098 400.891c-2.036-.86-4.183-1.528-6.09-2.616-7.59-4.331-11.285-10.94-11.271-19.715.035-22.232.01-44.464.009-66.696 0-23.481-.013-46.962.005-70.444.011-15.106 8.544-23.656 23.625-23.66 44.129-.014 88.26.256 132.384-.163 13.422-.128 22.607 4.387 26.765 17.544v147.75c-2.453 9.542-8.441 15.542-17.965 18H235.098zm85.331-56.86c-10.303 0-20.148-.07-29.99.028-5.701.056-9.639 3.782-9.651 8.803-.013 5.027 3.916 8.814 9.599 8.857 12.72.097 25.44.102 38.16.001 6.176-.05 9.719-3.668 9.73-9.907.053-28.614.052-57.229.001-85.843-.011-6.273-3.572-9.813-9.735-9.838-12.72-.052-25.44-.05-38.161 0-5.668.023-9.622 3.73-9.598 8.79.024 4.952 3.78 8.6 9.302 8.674 8.728.118 17.459.04 26.188.045h4.07v26.5h-4.311c-8.605.004-17.211-.07-25.815.037-5.712.071-9.563 3.84-9.433 8.917.127 4.929 3.997 8.51 9.464 8.552 8.73.067 17.46.02 26.19.02h3.99v26.365z"/><path d="M35.239 400.891c-.936-.316-1.867-.646-2.807-.947-8.918-2.853-15.093-10.79-15.109-20.18-.08-46.978-.1-93.956.01-140.933.027-11.718 9.239-20.971 20.982-21.002 46.886-.122 93.772-.119 140.658-.002 11.838.03 20.964 9.09 20.997 20.912.132 46.977.105 93.955.023 140.933-.016 9.594-5.867 17.178-14.956 20.252-.797.269-1.559.642-2.336.967H35.239zm86.525-100.75h-4.513c-9.849.002-19.698-.06-29.546.03-6.335.057-9.73 3.468-9.754 9.751-.055 13.99-.055 27.98 0 41.97.025 6.05 3.46 9.758 9.402 9.812 14.21.127 28.424.114 42.635.006 5.531-.043 9.273-3.714 9.35-8.665.081-5.13-3.713-8.91-9.41-8.978-9.972-.119-19.947-.037-29.92-.04h-4.219v-26.36h4.271c9.974 0 19.947.048 29.92-.022 5.658-.04 9.318-3.469 9.353-8.966.093-14.614.094-29.23-.015-43.843-.037-4.985-3.554-8.616-8.473-8.656-14.834-.12-29.67-.087-44.505 0-3.561.022-6.118 2.042-7.586 5.228-2.657 5.763 1.5 12.043 8.26 12.163 10.22.183 20.445.055 30.667.078 1.327.003 2.654.124 4.083.195v26.297z"/><path d="M382.56 400.891c9.524-2.458 15.512-8.458 17.965-18v18H382.56z" fill="#000000"/></g></svg>