<svg xmlns="http://www.w3.org/2000/svg" version="1.1" id="Capa_1" x="0" y="0" viewBox="0 0 60.556 60.556" xml:space="preserve" width="512" height="512" enable-background="new 0 0 60.556 60.556"><title>offroad</title><g class="nc-icon-wrapper" fill="#000000"><path fill="#000000" d="M57.814 23.025h2.742v5.362h-2.742z"/><path fill="#000000" d="M22.907 16.57h5.361v2.742h-5.361z"/><path d="M56.55 49.388l-1.299-.819 2.532-12.59-4.739-1.093.131-.568 3.767.869 1.681-7.291-2.854-.656 1.781-7.728c.74-3.223.453-5.016-2.77-5.756L34.732 9.134c-3.222-.743-4.151.257-4.896 3.477l-1.893 8.214-2.854-.656-1.682 7.288 4.737 1.094-1.231 5.345 2.038 2.262 20.171 4.65 2.457-1.228-1.341 5.821-5.679-3.588s-8.385-4.496-10.724-2.157l-4.148 4.149-4.162-4.162 2.429-10.541-5.588-1.289-1.85 8.022a5.973 5.973 0 0 0-5.7 1.562L4.705 47.508C3.559 48.654 1.512 50.151 0 51.655h58.913c-.643-.687-1.509-1.409-2.363-2.267zm-26.847-23.63a2.454 2.454 0 0 1-4.78-1.1 2.454 2.454 0 0 1 2.939-1.839 2.451 2.451 0 0 1 1.841 2.939zm27.014 5.965a2.451 2.451 0 1 1-4.778-1.1 2.451 2.451 0 1 1 4.778 1.1zm-10.758 2.264l-12.152-2.8 1.401-6.077 12.15 2.802-1.399 6.075zM31.701 19.225l1.719-7.45 21.631 4.985-1.72 7.452-21.63-4.987z" fill="#000000"/></g></svg>