<svg version="1.1" id="Capa_1" xmlns="http://www.w3.org/2000/svg" x="0" y="0" viewBox="0 0 512 512" xml:space="preserve" enable-background="new 0 0 512 512" width="512" height="512"><title>paintball</title><g class="nc-icon-wrapper" fill="#000000"><path d="M345 246v-30h-30v30H165v-30h-30v30H0v200h55.361l8.182-30 21.818-80h92.059c-6.192 17.458-22.865 30-42.42 30h-26.725l-8.182 30H135c36.219 0 66.522-25.808 73.491-60H375v-90h-30z"/><path d="M255 366h30v30h-30z"/><path d="M405 276h107v30H405z"/><path d="M330 66H150c-33.084 0-60 26.916-60 60s26.916 60 60 60h180c33.084 0 60-26.916 60-60s-26.916-60-60-60z"/></g></svg>