<svg xmlns="http://www.w3.org/2000/svg" version="1.1" id="Layer_1" x="0" y="0" viewBox="0 0 512 512" xml:space="preserve" width="512" height="512" enable-background="new 0 0 512 512"><title>party</title><g class="nc-icon-wrapper" fill="#000000"><path d="M503.731 92.582l-35.537-17.754-17.754-35.537c-5.068-10.166-21.768-10.166-26.836 0L405.85 74.828l-35.537 17.754c-11.025 5.497-11.025 21.339 0 26.836l35.537 17.754 17.754 35.537c5.497 11.025 21.339 11.025 26.836 0l17.754-35.537 35.537-17.754c11.025-5.497 11.025-21.339 0-26.836z" fill="#000000"/><path d="M141.687 60.915L106.15 43.161 88.396 7.625c-5.068-10.166-21.768-10.166-26.836 0L43.806 43.162 8.269 60.916c-11.025 5.497-11.025 21.339 0 26.836l35.537 17.754 17.754 35.537c5.496 11.024 21.339 11.024 26.836-.001l17.754-35.537 35.537-17.754c11.025-5.497 11.025-21.339 0-26.836z" fill="#000000"/><path d="M301 126.451V106c0-19.53-12.578-36.024-30-42.237V15c0-8.291-6.709-15-15-15s-15 6.709-15 15v48.763C223.578 69.976 211 86.47 211 106v20.451C124.003 147.116 61 225.447 61 316c0 106.284 86.766 196 195 196 108.179 0 195-89.645 195-196 0-90.339-62.796-168.834-150-189.549zM91.76 301c1.946-21.456 8.062-41.689 17.455-60h49.603c-4.07 18.629-6.59 38.804-7.423 60H91.76zm37.06 120h38.339c5.814 17.164 12.969 32.52 21.323 45.394-23.203-10.459-43.631-26.01-59.662-45.394zM241 391h-51.042c-4.438-17.981-7.244-38.119-8.201-60H241v60zm0-180h-41.512c11.173-28.147 26.041-47.937 41.512-55.82V211zm30 265.82V421h41.512c-11.173 28.147-26.041 47.937-41.512 55.82zM271 301v-60h51.042c4.438 17.981 7.244 38.119 8.201 60H271zm52.518-135.394c23.203 10.459 43.63 26.01 59.661 45.394H344.84c-5.813-17.164-12.968-32.52-21.322-45.394zM353.182 391c4.07-18.629 6.59-38.804 7.423-60h59.636c-1.947 21.456-8.063 41.689-17.456 60h-49.603z" fill="#000000"/></g></svg>