<svg id="Layer_1" height="512" viewBox="0 0 494.78 494.78" width="512" xmlns="http://www.w3.org/2000/svg"><title>physics</title><g class="nc-icon-wrapper" fill="#000000"><path d="M247.291 209.78c-24.813 0-45 20.187-45 45 2.472 59.699 87.538 59.681 90 0 0-24.813-20.187-45-45-45z"/><path d="M453.528 315.796c-5.393-20.338-18.515-42.66-37.727-65.249 7.021-7.352 13.481-14.745 19.298-22.129 32.406-41.145 41.829-78.395 26.532-104.888-19.513-36.077-81.391-37.303-132.915-23.818-9.957-27.933-22.728-50.458-37.645-65.297-11.409-45.903-76.176-45.869-87.564.003-14.658 14.591-27.472 36.878-37.587 65.308-9.896-2.411-19.548-4.314-28.87-5.661C31.023 77.259-8.083 145.002 59.483 228.418c5.816 7.385 12.276 14.778 19.297 22.129-19.212 22.59-32.334 44.912-37.727 65.25-33.866 32.541-2.014 88.911 43.786 75.818 23.546 6.378 51.361 4.361 75.364-.036 42.261 145.736 138.604 129.216 174.173.001 23.996 4.395 51.814 6.414 75.366.036 20.038 6.007 41.5-2.592 51.89-20.586 10.622-18.399 6.722-41.252-8.104-55.234zm-91.707-192.041c80.122-11.052 99.335 22.248 49.71 86.1-4.916 6.241-10.348 12.499-16.234 18.738-13.721-13.483-29.423-26.862-46.754-39.772-2.516-21.464-6.25-41.752-11.067-60.376 8.346-1.978 16.483-3.553 24.345-4.69zM247.29 331.254c-25.373-11.659-50.194-25.553-73.844-41.312-1.843-28.335-1.472-56.902 1.052-84.602 22.006-15.598 46.392-30.297 72.793-43.355 25.285 12.507 49.766 27.039 72.725 43.307 2.605 27.977 2.957 56.441 1.143 84.635-23.381 15.582-48.198 29.533-73.869 41.327zm69.998-3.317a432.556 432.556 0 0 1-4.816 27.623c-9.12-2.564-18.514-5.593-28.088-9.059a577.492 577.492 0 0 0 32.904-18.564zm-135.132 27.607a436.593 436.593 0 0 1-4.809-27.574 577.53 577.53 0 0 0 32.848 18.53c-9.557 3.459-18.935 6.483-28.039 9.044zm-39.705-87.966a430.24 430.24 0 0 1-21.524-17.992c6.783-6.619 14.106-13.241 21.898-19.803-.61 14.486-.637 26.074-.374 37.795zm69.987-121.245a582.632 582.632 0 0 0-32.648 19.281c1.779-9.984 3.863-19.655 6.252-28.943a430.754 430.754 0 0 1 26.396 9.662zm69.705 0a431.102 431.102 0 0 1 26.331-9.641c2.34 9.177 4.412 18.824 6.197 28.846a582.033 582.033 0 0 0-32.528-19.205zm69.629 83.464c7.786 6.557 15.105 13.175 21.883 19.789a431.87 431.87 0 0 1-21.515 17.984 581.963 581.963 0 0 0-.368-37.773zM211.719 72.312c18.033 23.249 53.13 23.297 71.184-.052 6.223 9.898 11.876 21.984 16.843 35.747-17.129 5.606-34.732 12.562-52.455 20.738-17.725-8.177-35.331-15.134-52.461-20.74 5.038-13.837 10.746-25.89 16.889-35.693zM58.93 138.53c14.583-24.199 70.635-17.096 98.252-10.065-4.888 18.86-8.619 39.123-11.119 60.339-17.34 12.916-33.051 26.3-46.777 39.79-25.404-25.818-53.185-69.259-40.356-90.064zm54.595 227.101c11.229-27.399-6.486-57.738-35.613-61.683 5.46-10.338 13.101-21.277 22.538-32.46 13.427 12.037 28.262 23.812 44.215 35.078 1.78 19.355 4.549 38.09 8.262 55.767-14.411 2.585-27.713 3.735-39.402 3.298zm183.476 42.597c-42.037 101.847-86.363 47.676-107.507-23.443 18.53-5.139 37.958-12.045 57.796-20.594 19.848 8.554 39.284 15.462 57.823 20.603-2.46 8.22-5.164 16.055-8.112 23.434zm44.676-45.887c3.709-17.636 6.487-36.359 8.268-55.795 15.942-11.26 30.768-23.028 44.188-35.058 9.436 11.183 17.077 22.122 22.537 32.46-29.347 3.984-46.759 34.479-35.612 61.683-11.684.439-24.978-.709-39.381-3.29z"/></g></svg>