<svg xmlns="http://www.w3.org/2000/svg" version="1.1" id="Capa_1" x="0" y="0" width="512" height="512" viewBox="0 0 300.33 300.33" xml:space="preserve" enable-background="new 0 0 300.33 300.33"><title>piano</title><g class="nc-icon-wrapper" fill="#000000"><path d="M207.865 150.283c-19.993-7.997-37.734-43.104-47.182-67.549C141.985 34.321 123.77 5.021 71.174 6.271 3.959 7.857 0 70.323 0 70.323v208.073c0 8.669 7.037 15.701 15.701 15.701H278.46c8.66 0 17.264-6.86 18.61-15.424 5.49-34.969 11.718-117.474-51.154-120.624-15.794-.805-28.297-3.854-38.051-7.766zm72.041 128.787H12.649v-58.509h15.417v42.892h16.607v-42.892h13.633v42.892h16.607v-42.892h13.633v42.892h16.603v-42.892h13.638v42.892h16.603v-42.892h13.646v42.892h16.604v-42.892h13.634v42.892h16.603v-42.892h13.642v42.892h16.594v-42.892h13.642v42.892h16.611v-42.892h23.52v58.509h.02z" fill="#000000"/></g></svg>