<svg id="Solid" height="512" viewBox="0 0 32 32" width="512" xmlns="http://www.w3.org/2000/svg"><title>pig</title><g class="nc-icon-wrapper" fill="#000000"><path d="M16 18.5c-2.481 0-4.5 1.57-4.5 3.5s2.019 3.5 4.5 3.5 4.5-1.57 4.5-3.5-2.019-3.5-4.5-3.5zM14 23a1 1 0 1 1 1-1 1 1 0 0 1-1 1zm4 0a1 1 0 1 1 1-1 1 1 0 0 1-1 1z"/><path d="M28.289 11.09a8.325 8.325 0 0 0 .72-1.028C31.218 6.236 29.045 2 29.045 2s-4.387.227-6.689 3.642a16.257 16.257 0 0 1 5.933 5.448z"/><path d="M3.711 11.09a16.257 16.257 0 0 1 5.933-5.448C7.342 2.227 2.955 2 2.955 2s-2.173 4.236.036 8.062a8.325 8.325 0 0 0 .72 1.028z"/><path d="M16 6C8.82 6 3 12.82 3 20s5.82 10 13 10 13-2.82 13-10S23.18 6 16 6zm5 8a1 1 0 1 1-1 1 1 1 0 0 1 1-1zm-10 0a1 1 0 1 1-1 1 1 1 0 0 1 1-1zm5 13.5c-3.584 0-6.5-2.467-6.5-5.5s2.916-5.5 6.5-5.5 6.5 2.467 6.5 5.5-2.916 5.5-6.5 5.5z"/></g></svg>