<svg version="1.1" id="Capa_1" xmlns="http://www.w3.org/2000/svg" x="0" y="0" viewBox="0 0 511.998 511.998" xml:space="preserve" enable-background="new 0 0 511.998 511.998" width="511.998" height="511.998"><title>pinball</title><g class="nc-icon-wrapper" fill="#000000"><path d="M235.188 413.931c-.033-.059-.027-.126-.06-.185L141.199 248.9c-25.028-43.894-87.013-51.347-121.618-13.399-28.073 30.783-25.52 78.116 4.83 105.852.026.024.033.06.06.084l141.221 127.827c17.224 15.675 43.726 15.733 60.828-.212 14.366-13.391 19.621-35.77 8.668-55.121zM74.996 300.992c-8.284 0-15.001-6.716-15.001-15.001 0-8.284 6.716-15.001 15.001-15.001 8.284 0 15.001 6.716 15.001 15.001s-6.717 15.001-15.001 15.001z"/><path d="M256.003 30.982c-57.893 0-105.004 47.111-105.004 105.004S198.11 240.99 256.003 240.99s105.004-47.111 105.004-105.004-47.11-105.004-105.004-105.004z"/><path d="M485.38 228.717c-35.793-30.277-90.345-20.556-113.573 20.185l-94.929 164.844c-.033.059-.027.126-.06.185-9.758 17.242-7.159 39.247 7.286 53.778 17.016 17.118 44.431 17.735 62.209 1.557l141.221-127.827c.027-.024.035-.06.06-.084 33.012-30.168 32.783-83.036-2.214-112.638zm-48.37 72.275c-8.284 0-15.001-6.716-15.001-15.001 0-8.284 6.716-15.001 15.001-15.001 8.284 0 15.001 6.716 15.001 15.001s-6.716 15.001-15.001 15.001z"/></g></svg>