<svg version="1.1" id="Capa_1" xmlns="http://www.w3.org/2000/svg" x="0" y="0" viewBox="0 0 512 512" xml:space="preserve" enable-background="new 0 0 512 512" width="512" height="512"><title>pirate</title><g class="nc-icon-wrapper" fill="#000000"><path d="M347.818 378.025c-24.521-24.521-57.129-38.027-91.816-38.027s-67.295 13.506-91.816 38.027l-32.296 32.296 18.981 37.958a15.01 15.01 0 0 0 11.013 8.101c4.79.718 9.595-.806 13.008-4.204l31.714-31.729c26.367-26.367 72.422-26.367 98.789 0l31.714 31.729c3.468 3.486 8.382 4.961 13.008 4.204a15.023 15.023 0 0 0 11.016-8.101l18.981-37.958-32.296-32.296z"/><path d="M497 249.998h-61c-24.814 0-45-20.186-45-45v-30c0-48.706-26.821-93.809-69.99-117.7-4.058-2.241-8.862-2.476-13.14-.674a14.95 14.95 0 0 0-8.613 9.932C293.998 86.244 276.2 99.998 256 99.998s-37.998-13.755-43.257-33.442a14.953 14.953 0 0 0-8.613-9.932c-4.277-1.802-9.097-1.567-13.14.674C147.821 81.19 121 126.292 121 174.998v30c0 24.814-20.186 45-45 45H15c-8.291 0-15 6.709-15 15 0 63.492 45.286 116.095 104.464 130.326l38.509-38.509c30.19-30.19 70.327-46.816 113.027-46.816s82.837 16.626 113.027 46.816l38.509 38.509C466.714 381.093 512 328.49 512 264.998c0-8.291-6.709-15-15-15zm-200.394 4.395c5.859 5.859 5.859 15.352 0 21.211s-15.352 5.859-21.211 0L256 256.209l-19.395 19.395c-5.859 5.859-15.352 5.859-21.211 0-5.859-5.859-5.859-15.352 0-21.211l19.395-19.395-19.394-19.394c-5.859-5.859-5.859-15.352 0-21.211s15.352-5.859 21.211 0L256 213.787l19.395-19.395c5.859-5.859 15.352-5.859 21.211 0 5.859 5.859 5.859 15.352 0 21.211l-19.395 19.395 19.395 19.395z"/></g></svg>