<svg xmlns="http://www.w3.org/2000/svg" id="bold" height="512" viewBox="0 0 24 24" width="512"><title>platform</title><g class="nc-icon-wrapper" fill="#000000"><path d="M23.91 22.89l-5.25-9.5c-.14-.25-.36-.37-.67-.39-.28 0-.53.16-.66.41l-.85 1.66 3.98 7.08c.32.56.37 1.24.15 1.85h2.64c.27 0 .51-.14.65-.37.13-.23.13-.51.01-.74z" fill="#000000"/><path d="M19.15 22.88l-4.79-8.53-1.91 1.62c-.4.34-.92.53-1.45.53-.56 0-1.09-.2-1.5-.57a2.253 2.253 0 0 1-2.96.03l-1.82-1.54-4.63 8.47c-.13.23-.12.51.01.74.14.23.39.37.65.37H18.5c.27 0 .51-.14.65-.37a.77.77 0 0 0 0-.75z" fill="#000000"/><path d="M15.25 5H9.5a.75.75 0 0 1-.75-.75V.75A.75.75 0 0 1 9.5 0h5.75a.75.75 0 1 1 .569 1.239L14.738 2.5l1.082 1.262A.751.751 0 0 1 15.25 5z" fill="#000000"/><path d="M9.5 8a.75.75 0 0 1-.75-.75V.75a.75.75 0 0 1 1.5 0v6.5A.75.75 0 0 1 9.5 8z" fill="#000000"/><path d="M13.61 13.02l-2.13 1.8a.736.736 0 0 1-1.01-.04l-.97-.97-.97.97c-.28.28-.72.29-1.01.04l-2.07-1.74.74-1.34 2.65-4.85c.13-.24.38-.39.66-.39.25-.03.52.14.65.38l2.71 4.81z" fill="#000000"/></g></svg>