<svg version="1.1" id="Capa_1" xmlns="http://www.w3.org/2000/svg" x="0" y="0" viewBox="0 0 512 512" xml:space="preserve" enable-background="new 0 0 512 512" width="512" height="512"><title>police</title><g class="nc-icon-wrapper" fill="#000000"><path d="M335.652 208.012l-52.827-.477L256 162.025l-26.825 45.51-52.827.477 26.001 45.987-26.001 45.987 52.827.477L256 345.973l26.825-45.51 52.827-.477-26.001-45.987z"/><path d="M462.313 215.002a231.846 231.846 0 0 1-1.795-141.187l9.757-31.913L428.372 0C370.915 33.174 313.457 33.174 256 0 198.543 33.174 141.085 33.174 83.628 0L41.725 41.903l9.757 31.913a231.846 231.846 0 0 1-1.795 141.187c-33.279 99.707 13.842 208.479 109.341 252.4L256 512l96.973-44.598c95.498-43.92 142.619-152.693 109.34-252.4zm-75.497 114.523l-86.759.783L256 405.053l-44.058-74.744-86.759-.783L167.885 254l-42.702-75.526 86.759-.783L256 102.945l44.058 74.744 86.759.783-42.702 75.526 42.701 75.527z"/></g></svg>