<svg xmlns="http://www.w3.org/2000/svg" height="512" viewBox="0 0 192 192" width="512"><title>racing</title><g class="nc-icon-wrapper" fill="#000000"><g id="_06-speed" data-name="06-speed"><g id="Glyph"><circle cx="96" cy="104" r="8" fill="#000000"/><path d="M96 0a96.014 96.014 0 0 0-80.47 148.369 8 8 0 0 0 6.7 3.631h147.539a8 8 0 0 0 6.7-3.631A96.014 96.014 0 0 0 96 0zm20.784 116a24 24 0 0 1-41.568-24C81.834 80.538 120 62.433 120 62.433s3.4 42.108-3.216 53.567zm56.867 12h-8.74a75.526 75.526 0 0 0 6.664-24H160V88h11.576a75.355 75.355 0 0 0-6.144-22.849l-10.006 5.777-8-13.856 9.988-5.767A76.626 76.626 0 0 0 140.7 34.586l-5.767 9.988-13.856-8 5.777-10.006A75.355 75.355 0 0 0 104 20.424V32H88V20.424a75.355 75.355 0 0 0-22.849 6.144l5.777 10.006-13.856 8-5.767-9.988a76.626 76.626 0 0 0-16.719 16.719l9.988 5.767-8 13.856-10.006-5.777A75.355 75.355 0 0 0 20.424 88H32v16H20.425a75.526 75.526 0 0 0 6.664 24h-8.74a84 84 0 1 1 155.3 0z" fill="#000000"/></g></g></g></svg>