<svg xmlns="http://www.w3.org/2000/svg" version="1.1" id="Capa_1" x="0" y="0" viewBox="0 0 512 512" xml:space="preserve" width="512" height="512" enable-background="new 0 0 512 512"><title>restaurant</title><g class="nc-icon-wrapper" fill="#000000"><path d="M298.667 43.078c-105.856 0-192 86.144-192 192h384c0-105.878-86.144-192-192-192zm0 64c-59.584 0-110.805 40.491-124.565 98.453-1.152 4.907-5.525 8.213-10.368 8.213a9.906 9.906 0 0 1-2.475-.299c-5.717-1.344-9.259-7.104-7.915-12.821 16.043-67.648 75.797-114.88 145.323-114.88 5.888 0 10.667 4.779 10.667 10.667s-4.779 10.667-10.667 10.667z" fill="#000000"/><path d="M298.667 11.078c-17.664 0-32 14.336-32 32v10.667h64V43.078c0-17.664-14.336-32-32-32z" fill="#000000"/><path d="M298.667.411C275.136.411 256 19.547 256 43.078v10.667c0 5.888 4.779 10.667 10.667 10.667s10.667-4.779 10.667-10.667V43.078c0-11.755 9.579-21.333 21.333-21.333 11.755 0 21.333 9.579 21.333 21.333v10.667c0 5.888 4.779 10.667 10.667 10.667s10.667-4.779 10.667-10.667V43.078C341.333 19.547 322.197.411 298.667.411z" fill="#000000"/><path d="M124.672 259.312c-18.283-17.323-91.392-22.933-113.365-24.235-2.965 0-5.803.875-7.957 2.88A10.666 10.666 0 0 0 0 245.723v213.355c0 5.888 4.779 10.667 10.667 10.667h64c4.608 0 8.704-2.965 10.133-7.36 1.557-4.779 38.315-138.944 43.157-194.411a10.64 10.64 0 0 0-3.285-8.662z" fill="#000000"/><path d="M147.456 256.411c1.493 4.224 2.155 8.768 1.749 13.419-.107 1.259-.32 2.773-.469 4.117 14.08.875 27.989 2.176 39.189 3.2l5.995.555c17.493 1.579 35.477 7.552 51.328 12.843 12.416 4.139 25.259 8.405 32.064 8.405.149 0 2.133.021 5.248.128h154.773c2.837 0 5.547-1.131 7.552-3.115l39.552-39.552H147.456z" fill="#000000"/><path d="M501.333 256.411H147.456c1.493 4.224 2.155 8.768 1.749 13.419-.107 1.259-.32 2.773-.469 4.117 14.08.875 27.989 2.176 39.189 3.2l5.995.555c.085 0 .192.043.277.043h307.136c5.888 0 10.667-4.779 10.667-10.667s-4.779-10.667-10.667-10.667z" fill="#000000"/><path d="M448 373.915l-74.667 31.872c-20.672 1.003-63.659-.341-74.667-.192-10.837.149-66.24-17.621-57.557-21.141 1.813-.747 6.443-.896 14.891-.192 48.725 4.053 128 13.867 128-21.333s-85.909-42.667-106.667-42.667-55.552-18.624-85.333-21.334c-11.84-1.067-28.096-2.688-44.608-3.712-6.741 45.867-26.389 112.341-36.501 144.853L224 491.227c42.325 16 71.104 36.437 160 0 0 0 128-54.336 128-85.333 0-25.643-29.333-43.99-64-31.979z" fill="#000000"/></g></svg>