<svg height="512" viewBox="0 0 32 32" width="512" xmlns="http://www.w3.org/2000/svg"><title>robot</title><g class="nc-icon-wrapper" fill="#000000"><path d="M20.5 16h-9C10.122 16 9 17.121 9 18.5s1.122 2.5 2.5 2.5h9c1.379 0 2.5-1.121 2.5-2.5S21.879 16 20.5 16zm-8 4c-.827 0-1.5-.673-1.5-1.5s.673-1.5 1.5-1.5 1.5.673 1.5 1.5-.673 1.5-1.5 1.5zm7 0c-.827 0-1.5-.673-1.5-1.5s.673-1.5 1.5-1.5 1.5.673 1.5 1.5-.673 1.5-1.5 1.5zm9.5-2.908V8.908c.58-.207 1-.757 1-1.408 0-.827-.673-1.5-1.5-1.5S27 6.673 27 7.5c0 .651.42 1.2 1 1.408v8.184a1.5 1.5 0 0 0-.544.334C25.932 12.55 21.373 9 16 9c-5.373 0-9.932 3.55-11.456 8.426A1.5 1.5 0 0 0 4 17.092V8.908C4.58 8.7 5 8.15 5 7.5 5 6.673 4.327 6 3.5 6S2 6.673 2 7.5c0 .651.42 1.2 1 1.408v8.184c-.58.207-1 .757-1 1.408v4c0 .827.673 1.5 1.5 1.5.47 0 .886-.222 1.162-.563C5.52 24.958 7.132 26 9 26h14c1.868 0 3.48-1.042 4.338-2.563.276.34.691.563 1.162.563.827 0 1.5-.673 1.5-1.5v-4c0-.651-.42-1.2-1-1.408zM20.5 22h-9C9.57 22 8 20.43 8 18.5S9.57 15 11.5 15h9c1.93 0 3.5 1.57 3.5 3.5S22.43 22 20.5 22z" id="bot"/></g></svg>