<svg version="1.1" id="Capa_1" xmlns="http://www.w3.org/2000/svg" x="0" y="0" viewBox="0 0 512 512" xml:space="preserve" enable-background="new 0 0 512 512" width="512" height="512"><title>roller</title><g class="nc-icon-wrapper" fill="#000000"><path d="M511.243 446.024v-15H404.888V261.241h-.249c10.285-30.26 15.653-62.329 15.653-95.226v-1.722C420.293 73.702 346.592 0 256 0S91.706 73.702 91.706 164.293v1.722c0 32.636 5.279 64.456 15.405 94.505v170.505H.757v15H0V512h30v-50.976h23.555V512h30v-50.976h23.556V512h30v-51.213c7.912-.31 15.768-.931 23.556-1.856V512h30v-58.212a292.641 292.641 0 0 0 23.555-6.344V512h30v-75.843A290.74 290.74 0 0 0 256 430.653a290.74 290.74 0 0 0 11.778 5.504V512h30v-64.556a292.226 292.226 0 0 0 23.555 6.344V512h30v-53.068a298.924 298.924 0 0 0 23.556 1.856V512h30v-50.976h23.556V512h30v-50.976H482V512h30v-65.976h-.757zM160.667 428.68a267.98 267.98 0 0 1-23.556 2.077V323.462c7.07 11.16 14.943 21.881 23.556 32.115v73.103zm30-5.755v-36.477c10.544 9.402 21.645 17.989 33.242 25.695a261.895 261.895 0 0 1-33.242 10.782zm130.666 0a261.843 261.843 0 0 1-33.242-10.782c11.598-7.706 22.698-16.294 33.242-25.696v36.478zm53.555 7.832a268.397 268.397 0 0 1-23.556-2.077v-73.102c8.612-10.235 16.485-20.955 23.556-32.116v107.295zm-.229-174.673l-34.83-21.799-57.999 92.668 35.174 22.015a269.918 269.918 0 0 1-4.33 4.437c-17.124 17.124-36.18 31.617-56.674 43.273-20.494-11.656-39.55-26.149-56.674-43.273-50.054-50.054-77.62-116.604-77.62-187.39v-1.722c0-71.431 56.061-130.007 126.495-134.061l-13.35 33.517 101.563 40.453 14.047-35.267c13 12.879 23.388 28.387 30.292 45.653l-38.775-.087-.243 109.323 42.244.095a262.48 262.48 0 0 1-9.32 32.165z"/></g></svg>