<svg xmlns="http://www.w3.org/2000/svg" id="Capa_1" height="512" viewBox="0 0 512 512" width="512"><title>room</title><g class="nc-icon-wrapper" fill="#000000"><path d="M211.794 203.27l35.481 35.48h17.45l35.481-35.48L256 159.064z" fill="#000000"/><path d="M146.004 240.947c16.911-3.477 26.586-1.724 58.846-2.197l-35.481-35.48L256 116.637l86.632 86.632-35.481 35.48c32.627.479 42.007-1.265 58.846 2.197 8.63-26.633 29.334-47.876 55.629-57.245V125.09c0-45.369-36.91-82.279-82.279-82.279H172.654c-45.369 0-82.279 36.91-82.279 82.279v58.611c26.295 9.37 46.999 30.613 55.629 57.246z" fill="#000000"/><path d="M512 268.688c0-33.188-27-60.188-60.188-60.188s-60.188 27-60.188 60.188v16.267c-13.074-10.144-29.468-16.205-47.259-16.205H167.634c-17.791 0-34.185 6.06-47.259 16.205v-16.267c0-33.188-27-60.188-60.188-60.188S0 235.5 0 268.688v155.5h45.188v45h30v-45h361.625v45h30v-45H512z" fill="#000000"/></g></svg>