<svg version="1.1" id="Layer_1" xmlns="http://www.w3.org/2000/svg" x="0" y="0" viewBox="0 0 414.862 504.678" xml:space="preserve" enable-background="new 0 0 414.86212 504.67764" width="414.86212" height="504.67764"><title>runshoot</title><g class="nc-icon-wrapper" fill="#000000"><path d="M207.127 246.17c-6.622 6.255-12.814 12.3-19.22 18.108-9.192 8.332-18.531 16.502-27.827 24.72-3.885 3.436-7.82 6.815-11.978 10.433 2.385 3.19 4.543 6.11 6.736 9.005 21.548 28.435 43.118 56.853 64.647 85.302 8.546 11.293 9.435 23.94 2.526 34.176-11.386 16.866-34.066 17.072-46.86.257-26.468-34.79-52.822-69.67-79.223-104.511-2.47-3.26-4.967-6.5-7.408-9.78-10.362-13.925-8.888-29.244 4.145-40.71 13.66-12.02 27.487-23.849 41.236-35.766 1.686-1.461 3.34-2.957 5.245-4.645-2.102-2.945-4.032-5.69-6.005-8.403-9.949-13.686-19.928-27.35-29.859-41.05-7.11-9.809-5.735-17.877 4.11-24.937 12.595-9.034 25.144-18.133 37.746-27.16 9.09-6.511 20.83-4.588 28.137 4.78 8.932 11.454 17.677 23.053 26.507 34.586 23.318 30.455 46.604 60.936 69.987 91.341 5.113 6.649 7.177 13.747 3.96 21.718-5.379 13.324-22.796 17.039-32.385 6.356-8.36-9.314-15.569-19.663-23.267-29.569-3.37-4.336-6.694-8.709-10.95-14.25z"/><path d="M274.302 201.962c7.438-4.332 12.867-2.967 17.595 4.033.561.832 1.474 1.542 2.38 2.004 5.13 2.621 10.368 5.04 15.45 7.748 3.364 1.792 3.997 4.917 3.086 8.39-.384 1.466-1.05 2.858-1.669 4.498 5.495 3.27 10.8 6.441 16.12 9.587 15.892 9.396 31.794 18.774 47.683 28.175 8.253 4.883 8.82 10.118 1.823 16.702-4.726 4.447-9.419 8.931-14.226 13.289-5.457 4.946-11.668 4.935-16.95-.123-12.737-12.195-25.556-24.313-37.938-36.861-2.538-2.572-3.873-6.753-4.748-10.433-.99-4.163-2.612-7.178-6.597-9.082-8.6-4.109-16.506-9.647-26.372-11.01-2.678-.37-5.425-2.965-7.397-5.197-4.944-5.596-9.87-11.289-14.086-17.434-27.63-40.26-60.647-76.266-90.386-114.855-1.098-1.426-2.206-3.028-2.645-4.72-.339-1.31-.078-3.2.69-4.286 1.93-2.73 10.573-3.044 13.02-.699.914.875 1.727 1.86 2.555 2.82 29.374 34.086 58.71 68.203 88.15 102.232 4.513 5.216 9.5 10.022 14.462 15.221zm17.562 15.338l15.012 8.796c2.43-3.981 2.635-5.513.436-6.784-4.415-2.55-9.019-4.774-13.72-7.225l-1.728 5.213zm-14.06-12.105l8.243 8.638c2.787-2.804 3.202-5.259.612-7.704-2.527-2.385-5.298-3.53-8.855-.934z"/><path d="M291.864 217.3l1.727-5.213c4.702 2.45 9.306 4.675 13.72 7.226 2.2 1.27 1.995 2.802-.435 6.783l-15.012-8.796z" fill="#000000"/><path d="M277.804 205.195c3.557-2.596 6.328-1.45 8.855.934 2.59 2.445 2.176 4.9-.612 7.704l-8.243-8.638z" fill="#000000"/><path d="M280.355 476.89h-134.7c-6.075 0-11-4.925-11-11v-11.733c0-6.075 4.925-11 11-11h134.7c6.075 0 11 4.925 11 11v11.733c0 6.075-4.924 11-11 11z"/><circle cx="90.33" cy="91.381" r="58.299"/></g></svg>