<svg xmlns="http://www.w3.org/2000/svg" id="Capa_1" height="512" viewBox="0 0 512 512" width="512"><title>scary</title><g class="nc-icon-wrapper" fill="#000000"><path d="M391 256c0-74.443-60.557-135-135-135s-135 60.557-135 135v75h60v90h60V301h30v120h60v-90h60zm-150 15h-60v-30h60zm90 0h-60v-30h60z" fill="#000000"/><path d="M45 136c13.085 0 24.76-5.674 32.983-14.59l42.162 41.162a166.292 166.292 0 0 1 42.427-42.427L120.41 78.983C129.326 70.76 135 58.085 135 45c0-24.853-20.147-45-45-45S45 20.147 45 45C20.147 45 0 66.147 0 91s20.147 45 45 45z" fill="#000000"/><path d="M467 376c-13.085 0-24.76 5.674-32.983 14.59L403.427 361H361v42.427l30.59 29.59C382.674 441.24 377 452.915 377 466c0 24.853 20.147 46 45 46s45-21.147 45-46c24.853 0 45-20.147 45-45s-20.147-45-45-45z" fill="#000000"/><path d="M467 45c0-24.853-20.147-45-45-45s-45 20.147-45 45c0 13.085 5.674 25.76 14.59 33.983l-42.162 41.162a166.292 166.292 0 0 1 42.427 42.427l42.162-41.162C442.24 130.326 453.915 136 467 136c24.853 0 45-20.147 45-45s-20.147-46-45-46z" fill="#000000"/><path d="M45 466c0 24.853 20.147 46 45 46s45-21.147 45-46c0-13.085-5.674-24.76-14.59-32.983l30.59-29.59V361h-42.427l-30.59 29.59C69.76 381.674 58.085 376 45 376c-24.853 0-45 20.147-45 45s20.147 45 45 45z" fill="#000000"/></g></svg>