<svg version="1.1" id="Capa_1" xmlns="http://www.w3.org/2000/svg" x="0" y="0" viewBox="0 0 491.043 491.043" xml:space="preserve" enable-background="new 0 0 491.043 491.043" width="491.043" height="491.043"><title>sheep</title><g class="nc-icon-wrapper" fill="#000000"><path d="M99.869 419.639c-6.705 0-13.082-1.203-19.281-2.904v41.754c0 6.36 5.157 11.518 11.518 11.518h53.744c6.359 0 11.518-5.157 11.518-11.518v-29.377c-10.436-3.032-20.164-8.19-28.313-15.616-9.184 4.025-19.08 6.143-29.186 6.143z"/><path d="M262.689 432.15c-2.23 0-4.403-.312-6.602-.497v26.836c0 6.36 5.157 11.518 11.518 11.518h53.753c6.36 0 11.516-5.157 11.516-11.518v-67.113c-14.62 24.798-40.646 40.774-70.185 40.774z"/><path d="M358.322 295.757c-52.508 0-88.936-73.025-95.057-130.105-36.443-4.821-62.301-25.905-62.301-52.791 0-3.913.626-7.674 1.668-11.307-7.988 4.507-14.693 11.276-19.265 19.584-7.7-5.565-17.004-8.83-27.014-8.83-23.29 0-42.699 17.605-47.174 40.993-35.001 4.307-62.768 32.955-67.98 69.832C17.925 226.758 0 247.891 0 273.677c0 28.311 21.559 51.272 48.162 51.272.77 0 1.491-.2 2.253-.24-1.323 4.869-2.253 9.921-2.253 15.238 0 30.397 23.146 55.052 51.707 55.052 13.377 0 25.439-5.55 34.623-14.42 8.157 15.959 23.852 26.932 42.13 26.932 17.085 0 31.994-9.529 40.544-23.796 10.65 14.389 26.98 23.796 45.523 23.796 29.065 0 52.941-22.777 57.256-52.437 3.538.578 7.059 1.148 10.732 1.148 39.26 0 71.068-33.886 71.068-75.681 0-.946-.152-1.844-.192-2.782-12.641 11.117-27.173 17.998-43.231 17.998z"/><path d="M437.3 83.668c-6.738 0-13.154.708-19.098 1.942a30.288 30.288 0 0 0 3.673-14.505c0-16.807-13.625-30.432-30.432-30.432a30.46 30.46 0 0 0-7.767 1.004c-2.88-11.816-13.832-20.64-27.055-20.64-12.904 0-23.656 8.427-26.855 19.821a30.515 30.515 0 0 0-3.33-.185c-16.807 0-30.432 13.625-30.432 30.432a30.302 30.302 0 0 0 3.827 14.775c-6.322-1.416-13.222-2.211-20.485-2.211-29.683 0-53.743 13.073-53.743 29.193 0 16.13 24.061 29.195 53.743 29.195 2.84 0 5.559-.225 8.276-.458-.184 2.583-.632 5.069-.632 7.708 0 47.897 31.937 121.812 71.331 121.812 39.389 0 71.325-73.915 71.325-121.812 0-2.64-.448-5.125-.641-7.708 2.719.233 5.445.458 8.293.458 29.683 0 53.743-13.065 53.743-29.195.002-16.121-24.059-29.194-53.741-29.194zm-105.308 77.571a9.588 9.588 0 0 1-9.593-9.591 9.589 9.589 0 0 1 9.593-9.593 9.587 9.587 0 0 1 9.593 9.593 9.587 9.587 0 0 1-9.593 9.591zm52.646 0c-5.294 0-9.584-4.29-9.584-9.591 0-5.302 4.29-9.593 9.584-9.593 5.309 0 9.601 4.29 9.601 9.593-.001 5.301-4.293 9.591-9.601 9.591z"/></g></svg>