<svg version="1.1" id="Layer_1" xmlns="http://www.w3.org/2000/svg" x="0" y="0" viewBox="0 0 275.362 294.547" xml:space="preserve" enable-background="new 0 0 275.36227 294.54736" width="275.36227" height="294.54736"><title>shootthrow</title><g class="nc-icon-wrapper" fill="#000000"><path d="M120.724 143.32c-.546.405-.744.531-.917.685-3.412 3.02-6.183 2.664-8.696-1.197-4.774-7.339-9.547-14.679-14.233-22.074-.928-1.465-1.922-2.118-3.718-2.205-10.858-.526-21.71-1.19-32.562-1.833-4.933-.293-7.686-3.178-9.261-7.656-7.334-20.845-14.732-41.668-22.106-62.5-.496-1.398-.968-2.805-1.474-4.2-.692-1.908-1.162-3.843.535-5.447 1.596-1.508 3.44-1.04 5.282-.386C54.4 43.899 75.23 51.275 96.06 58.657c1.545.547 3.077 1.135 4.633 1.649 4.723 1.559 7.053 4.868 7.327 9.775.601 10.776 1.283 21.548 1.813 32.328.08 1.628.691 2.497 1.992 3.324 7.19 4.57 14.33 9.22 21.487 13.846 4.775 3.086 5.12 5.384.848 10.162.761.471 1.701.836 2.354 1.487 34.872 34.829 69.712 69.69 104.587 104.516 3.02 3.016 4.842 6.326 3.698 10.695a9.884 9.884 0 0 1-15.699 5.367c-.925-.712-1.75-1.561-2.578-2.39A449822.546 449822.546 0 0 1 122.637 145.53c-.662-.662-1.231-1.416-1.913-2.21z"/><path d="M255.247 138.448c-2.586-25.3-12.41-47.637-29.27-66.711-18.61-21.053-41.795-34.165-69.506-39.098-4.522-.805-9.107-1.256-13.663-1.87h-14.552c-.515.138-1.023.367-1.545.4-9.88.642-19.501 2.624-28.865 5.787-4.147 1.401-8.186 3.124-12.273 4.701a5.25 5.25 0 0 0 1.911 1.294l32.32 21.872c-.03.15-.054.305-.046.458.58 10.385 1.14 20.772 1.827 31.15.053.803.848 1.795 1.578 2.28 5.728 3.807 11.516 7.525 17.301 11.245 5.6 3.601 8.752 8.51 8.627 15.368-.018.977.727 2.18 1.471 2.927 20.486 20.557 41.017 41.068 61.544 61.584l11.404 11.276c4.48 4.67 9.089 9.217 13.654 13.784.295-.26.44-.34.516-.462 14.427-23.346 20.351-48.737 17.567-75.985z"/><path d="M126.928 263.087c-25.295-2.63-47.615-12.493-66.66-29.389-21.02-18.647-34.09-41.854-38.975-69.573-.797-4.524-1.24-9.11-1.846-13.668l.026-14.551c.139-.514.369-1.023.403-1.544.659-9.88 2.658-19.497 5.838-28.855 1.408-4.145 3.138-8.18 4.723-12.265a5.25 5.25 0 0 1 1.29 1.914l21.815 32.359c.15-.03.305-.055.458-.046 10.384.6 20.77 1.177 31.146 1.882.804.054 1.794.852 2.277 1.582 3.797 5.735 7.505 11.529 11.215 17.321 3.591 5.607 8.495 8.767 15.353 8.654.977-.016 2.179.73 2.924 1.476 20.52 20.523 40.996 41.09 61.475 61.653l11.256 11.424c4.663 4.488 9.2 9.105 13.76 13.678-.26.295-.34.44-.463.516-23.371 14.385-48.773 20.265-76.015 17.432z"/></g></svg>