<svg id="Capa_1" height="512" viewBox="0 0 510 510" width="512" xmlns="http://www.w3.org/2000/svg"><title>shop</title><g class="nc-icon-wrapper" fill="#000000"><path d="M170 80c0-27.57 22.43-50 50-50 2.446 0 4.849.185 7.203.526C216.445 44.151 210 61.332 210 80v70h30V80c0-13.953 5.751-26.583 15-35.662 9.249 9.079 15 21.709 15 35.662v70h-30v60h-30v-60h-40v360h280.697l-16.364-360H375v60h-30v-60h-45V80c0-18.668-6.445-35.849-17.203-49.474 0 0 3.388-.995 11.866-.995C322.233 29.531 345 52.43 345 80v70h30V80c0-44.112-35.888-80-80-80h-5a79.51 79.51 0 0 0-35 8.079A79.51 79.51 0 0 0 220 0c-44.112 0-80 35.888-80 80v70h30z"/><path d="M140 150H75.667L59.303 510H140z"/></g></svg>