<svg xmlns="http://www.w3.org/2000/svg" id="Capa_1" height="512" viewBox="0 0 512.5 512.5" width="512"><title>snail</title><g class="nc-icon-wrapper" fill="#000000"><path d="M468.734 15.904c-24.171 0-43.766 19.594-43.766 43.766 0 13.282 5.925 25.174 15.267 33.2l-28.651 54.163a57.725 57.725 0 0 0-23.285-4.888 57.744 57.744 0 0 0-22.824 4.68l-30.36-56.523c7.74-7.894 12.519-18.703 12.519-30.633 0-24.171-19.595-43.766-43.766-43.766s-43.766 19.594-43.766 43.766 19.595 43.766 43.766 43.766c1.397 0 2.776-.073 4.14-.2l33.582 62.521c-7.137 9.647-11.367 21.57-11.367 34.464v73.236c0 .116.004.23.004.346h-.004v73.706c0 48.565-39.511 88.076-88.076 88.076H46.104C20.683 435.584 0 456.267 0 481.689v14.907h388.3c32.023 0 58.075-26.053 58.075-58.076V200.221c0-12.678-4.095-24.411-11.016-33.972l33.228-62.817c.049 0 .098.004.147.004 24.171 0 43.766-19.594 43.766-43.766s-19.595-43.766-43.766-43.766z" fill="#000000"/><path d="M163.832 331.966h8.94c29.687 0 53.839-24.152 53.839-53.839v-8.94c0-29.687-24.152-53.839-53.839-53.839h-8.94c-29.687 0-53.839 24.152-53.839 53.839v8.94c0 29.687 24.152 53.839 53.839 53.839zm-11.654-73.308h32.248v30h-32.248z" fill="#000000"/><path d="M168.448 405.584h73.701c32.023 0 58.076-26.053 58.076-58.076v-74.051c-.188-72.506-59.228-131.435-131.777-131.435-72.665 0-131.781 59.117-131.781 131.781s59.116 131.781 131.781 131.781zM79.993 269.187c0-46.229 37.61-83.839 83.839-83.839h8.94c46.229 0 83.839 37.61 83.839 83.839v8.94c0 46.229-37.61 83.839-83.839 83.839h-8.94c-46.229 0-83.839-37.61-83.839-83.839z" fill="#000000"/></g></svg>