<svg xmlns="http://www.w3.org/2000/svg" version="1.1" id="Capa_1" x="0" y="0" width="512" height="512" viewBox="0 0 959.199 959.199" xml:space="preserve" enable-background="new 0 0 959.199 959.199"><title>spa</title><g class="nc-icon-wrapper" fill="#000000"><path d="M788.143 259.2c-16.699-44.2-41.399-81.7-73.399-111.5-32.7-30.5-73-52.8-120-66.5l-.101-.1c-52.3-52.3-121.9-81.1-195.9-81.1s-143.5 28.8-195.8 81.1c-52.3 52.3-81.1 121.9-81.1 195.9 0 18.9 1.9 37.5 5.6 55.7-14.3 41.7-20.8 85.9-19.4 132.101 2.4 78.5 27.9 160.899 75.6 244.899.1.102.2.301.3.4 18.6 140.6 138.9 249.1 284.6 249.1 128.3 0 237-84.199 273.8-200.398 9.8-7.5 19.101-15.602 27.9-24.5 52.3-52.301 81.1-121.9 81.1-195.9 0-50.9-13.6-99.701-39.1-142.201.2-25.901-2.4-79.701-24.1-137.001zm-190.5 445.999c-33.5 0-60.6-27.1-60.6-60.6s27.1-60.6 60.6-60.6 60.601 27.1 60.601 60.6-27.201 60.6-60.601 60.6zm33.2-269.999h145.9c16.2 31.601 24.7 66.701 24.7 103.201 0 50-16.101 97.5-45.801 136.699V672c.001-98.301-49.499-185.1-124.799-236.8zm131.3-50h-20.3c-76.8 0-153.399-1.2-230.3-1.3-55.8 0-112.901 5-163.901 27.7-83.399 37.1-133.399 117.099-155.1 203-1.2-2.9-2.3-5.799-3.5-8.699-19.2-49-29.7-96.801-31.1-142.701-.5-15.7.1-31.1 1.7-46.2 1.5-14 3.9-27.8 7.2-41.3 3.3-13.6 7.5-26.8 12.6-39.8 5.8-14.6 12.7-28.9 20.7-42.7 30.8-52.9 77.3-97.7 134.6-129.4 53.399-29.6 113.399-45.9 168.8-45.9 17.6 0 34.6 1.6 50.6 4.9 4.7 1 9.4 2 13.9 3.1 14.7 3.6 28.7 8.2 41.8 13.6 14.4 6 27.9 13 40.3 21.2 41.301 26.9 71.7 65.5 90.801 115.6 7 18.4 11.699 36.5 14.899 53.1 2.9 14.9 4.5 28.6 5.3 40.2.601 5.6.901 10.9 1.001 15.6zM398.842 50c31.2 0 61.4 6.3 89.3 18.2-59.3 2.7-121.7 20.9-177.5 51.8-55 30.5-101.399 71.7-135.8 120.4 7.5-46.7 29.4-89.7 63.5-123.8 42.8-43 99.8-66.6 160.5-66.6zm-56.399 655.199c-33.5 0-60.601-27.1-60.601-60.6 0-18.799 8.5-35.5 21.9-46.6 6.7-5.5 14.5-9.6 23.1-11.9 5-1.299 10.2-2 15.5-2 3.3 0 6.5.301 9.7.801 28.9 4.6 50.9 29.6 50.9 59.799a60.95 60.95 0 0 1-8.9 31.701c-4.5 7.299-10.4 13.5-17.4 18.299-7.1 4.9-15.3 8.301-24.1 9.701-3.2.5-6.599.799-10.099.799zm172.7 169c-5.899 13.201-23.8 22.801-45.1 22.801s-39.3-9.6-45.1-22.801c-2.101-4.6 3-9.299 10.1-9.299h70.201c6.999 0 11.999 4.6 9.899 9.299zm-10-34.699h-70.2c-7.101 0-12.101-4.699-10.101-9.301 4.9-11.1 14-19.6 30.3-22.1 2-.299 4 0 5.9.9l4.5 2.199c2.8 1.4 6.1 1.4 8.9 0l4.399-2.199c1.8-.9 3.901-1.199 5.901-.9 16.3 2.4 25.399 11 30.3 22.1 2.201 4.701-2.799 9.301-9.899 9.301z" fill="#000000"/><path d="M386.542 665.9c2.1-3.4 2.8-7.701 1.6-11.9-2-6.9-8.399-11.199-15.199-10.9-1.101.1-2.2.201-3.301.5-7.1 2-14.699 3.201-22.6 3.5-1.2 0-2.4.1-3.6.1-8.801 0-17.4-1.1-25.301-3.299-1.399-.4-2.699-.801-4-1.201-7.899-2.6-16.3 1.701-18.899 9.5-2.601 7.9 1.7 16.301 9.5 18.9 9.399 3.1 19.3 5 29.7 5.701 3 .199 6 .299 9 .299 6.699 0 13.3-.5 19.699-1.5 5-.799 9.9-1.799 14.7-3.199 3.801-.901 6.801-3.301 8.701-6.501z" fill="#000000"/><path d="M625.643 643.801c-8.199 2.299-17 3.5-26.199 3.5-10.301 0-20.4-1.602-29.301-4.5-7.899-2.602-16.3 1.699-18.899 9.5-2.601 7.898 1.7 16.299 9.5 18.898 12.1 4 25.1 6 38.7 6 12 0 23.5-1.6 34.399-4.699 8-2.301 12.601-10.6 10.3-18.5-2.2-7.9-10.5-12.5-18.5-10.199z" fill="#000000"/></g></svg>