<svg id="Glyph" height="512" viewBox="0 0 100 100" width="512" xmlns="http://www.w3.org/2000/svg"><title>space</title><g class="nc-icon-wrapper" fill="#000000"><path d="M22.5 59.2h-5.8c-.7 0-1.3-1-1.3-2.3V45.7c0-1.2.6-2.3 1.3-2.3l5.9.3c-1.1 2.9-.3 13.3-.1 15.5z"/><path d="M77.4 43.7l5.9-.3c.7 0 1.3 1 1.3 2.3V57c0 1.2-.6 2.3-1.3 2.3h-5.8c.2-2.3 1-12.7-.1-15.6z"/><path d="M50 21.4c14.2 0 24.3 11.3 26.8 19.4h5.6v-10c0-7.6-6-13.8-13.4-13.8H31c-7.4 0-13.4 6.2-13.4 13.8v10.1h5.6C26.1 31 36.6 21.4 50 21.4"/><path d="M22.6 63.8S19 65.1 17.1 67v-5.2h5.4z"/><path d="M77.4 63.8s3.6 1.3 5.5 3.2v-5.2h-5.4z"/><path d="M50 24.4c-14.1 0-25.6 11.4-25.6 25.6l1.1 17.8s13.6 8.7 24.5 8.7c11.4 0 24.3-8.7 24.3-8.7L75.6 50c0-14.2-11.5-25.6-25.6-25.6zm0 43.2c-10.3 0-16.4-5.9-16.4-16.8 0-9 7.3-10.1 16.4-10.1 9 0 16.4 1.1 16.4 10.1 0 10.4-5.7 16.8-16.4 16.8z"/><path d="M50 79.1c8.2 0 23.2-5.5 27.2-10 .1-1.6.1-2.6.1-2.6C86 70 90.5 78 90.5 86h-81c0-8 4.5-16 13.1-19.5 0 0 0 1 .1 2.6 4.1 4.5 19.1 10 27.3 10z"/></g></svg>