<svg xmlns="http://www.w3.org/2000/svg" version="1.1" id="Capa_1" x="0" y="0" viewBox="0 0 298.271 298.271" xml:space="preserve" width="512" height="512" enable-background="new 0 0 298.271 298.271"><title>spelling</title><g class="nc-icon-wrapper" fill="#000000"><path d="M236.951 229.005h-.98c-.047 0-.092-.012-.139-.012-.076.002-.15.012-.227.012h-20.333v16h21.68c4.121 0 7.604-3.664 7.604-8-.002-4.338-3.484-8-7.605-8z" fill="#000000"/><path d="M236.252 206.927c0-4.295-3.482-7.922-7.604-7.922H215.27v14h18.104c1.369-1 2.878-3.223 2.878-6.078z" fill="#000000"/><path d="M264.325 154.005h-51c18.901 0 33.946-15.641 33.946-34.541V42.022c0-18.902-15.045-34.018-33.946-34.018h-77.441c-18.901 0-34.612 15.115-34.612 34.018v77.441c0 7.018 2.289 13.547 5.922 18.986l-1.373-1.457c-6.454-6.453-15.021-10.008-24.198-10.008-9.178 0-17.765 3.555-24.219 10.008l-47.382 47.393c-13.365 13.365-13.36 35.113.005 48.479l47.395 47.394c6.454 6.453 15.064 10.008 24.241 10.008s17.786-3.555 24.24-10.008l47.228-47.394c4.905-4.904 8.14-10.939 9.14-17.275v39.875c0 18.9 15.711 34.541 34.612 34.541h67.441c18.901 0 33.946-15.641 33.946-34.541v-67.441c.001-18.903-15.044-34.018-33.945-34.018zM178.896 36.516c11.573 0 22.484 4.475 30.725 12.602a8 8 0 0 1-11.235 11.393c-5.227-5.154-12.149-7.994-19.49-7.994-15.305 0-27.756 12.451-27.756 27.756s12.451 27.756 27.756 27.756a27.738 27.738 0 0 0 21.079-9.699 7.999 7.999 0 0 1 11.28-.865 7.998 7.998 0 0 1 .866 11.279 43.714 43.714 0 0 1-33.226 15.285c-24.127 0-43.756-19.629-43.756-43.756.001-24.128 19.63-43.757 43.757-43.757zm-46.133 174.879a8 8 0 0 1-10.169 4.957l-11.795-4.063-25.332 25.332 3.96 12.039a8 8 0 0 1-7.601 10.502 8.004 8.004 0 0 1-7.599-5.502l-21.633-65.764a8.002 8.002 0 0 1 1.982-8.197 7.997 7.997 0 0 1 8.223-1.867l65.005 22.393a8 8 0 0 1 4.959 10.17zm29.508-23.373v13.641c-1-6.334-4.236-12.371-9.141-17.277l-36.316-36.268c5.439 3.633 12.052 5.887 19.07 5.887h61c-18.902 0-34.613 15.115-34.613 34.017zm74.68 72.983h-29.347c-4.418 0-8.333-3.844-8.333-8.262v-62c0-4.418 3.915-7.738 8.333-7.738h21.045c13.015 0 23.604 10.6 23.604 23.791 0 3.537-.79 6.894-2.262 10.017 6.362 4.303 10.564 11.759 10.564 20.095-.001 13.231-10.59 24.097-23.604 24.097z" fill="#000000"/><path fill="#000000" d="M79.866 220.594l14.102-14.101-21.136-7.281z"/></g></svg>