<svg xmlns="http://www.w3.org/2000/svg" height="512" viewBox="0 0 56 56" width="512"><title>sportoutfit</title><g class="nc-icon-wrapper"><g id="Page-1" fill="none" fill-rule="evenodd"><g id="032---Shorts-and-Vest" fill="#000" fill-rule="nonzero"><path id="Shape" d="M18.5 12.483c3.829 0 6.944-4.8 6.944-10.7 0-.222-.018-.442-.027-.663a9.3 9.3 0 0 1-6.917 2.5 9.311 9.311 0 0 1-6.918-2.5c-.008.22-.026.44-.026.661 0 5.903 3.115 10.702 6.944 10.702z" fill="#616161"/><path id="Shape" d="M3.63 2.982C1.973 5.3.31 9.54.041 17.66 3.131 13.913 3.39 8.3 3.615 3.294l.015-.312z" fill="#616161"/><path id="Shape" d="M37 25v1a1 1 0 0 1-2 0v-1h-3v1a1 1 0 0 1-2 0v-1h-3v1a1 1 0 0 1-2 0v-1h-2.552a.482.482 0 0 0-.448.509v3.459L36 29l14-.032v-3.459a.482.482 0 0 0-.448-.509H47v1a1 1 0 0 1-2 0v-1h-3v1a1 1 0 0 1-2 0v-1z" fill="#616161"/><path id="Shape" d="M36.754 17.393c.072.093.138.175.2.257-.272-8.056-1.93-12.336-3.589-14.682 0 .1.01.2.014.307.221 4.834.467 10.313 3.375 14.118z" fill="#616161"/><path id="Shape" d="M18.011 44.7l-1.965 7.2c.17.218.792.769 2.78 1.043-.3-.423-.587-.863-.862-1.333a1 1 0 0 1 1.726-1.01 15.07 15.07 0 0 0 2.063 2.791l.032.034A7.588 7.588 0 0 0 27.31 56h2.316a3.934 3.934 0 0 0 3.9-3.463l.068-.537h-6.585c-4.144 0-7.152-3.882-8.998-7.3z" fill="#616161"/><path id="Shape" d="M53.989 44.7c-1.846 3.414-4.854 7.3-9 7.3h-6.584l.065.536A3.934 3.934 0 0 0 42.374 56h2.316a7.59 7.59 0 0 0 5.524-2.578l.035-.036A15.079 15.079 0 0 0 52.31 50.6a1 1 0 0 1 1.726 1.01c-.275.47-.565.91-.861 1.333 1.987-.274 2.609-.825 2.779-1.043z" fill="#616161"/><path id="Shape" d="M53.194 41.793l-2.957-10.826L36 31l-14.239-.033-2.955 10.826C20.234 45 23.089 50 27.01 50h6.824l1.173-9.774a1 1 0 0 1 1.986 0L38.165 50h6.825c3.921 0 6.776-5 8.204-8.207z" fill="#616161"/><path id="Shape" d="M20 29.83v-4.321A2.481 2.481 0 0 1 22.448 23H37v-2.513a9 9 0 0 1-1.834-1.879c-3.29-4.3-3.562-10.369-3.781-15.243-.024-.533-.047-1.055-.073-1.563a1.927 1.927 0 0 0-.854-1.5L30.4.267A1.978 1.978 0 0 0 29.43 0h-1.009a.99.99 0 0 0-1 1.029c.012.252.019.5.019.756 0 7-4.012 12.7-8.944 12.7s-8.944-5.7-8.944-12.7c0-.252.007-.5.019-.756a.99.99 0 0 0-1-1.029H7.57c-1-.004-1.826.777-1.88 1.775-.028.523-.052 1.06-.077 1.609-.247 5.5-.555 12.346-5.071 16.669l-.542.43V38.1A1.906 1.906 0 0 0 1.9 40h15.322zM26 15h4a1 1 0 0 1 0 2h-4a1 1 0 0 1 0-2zM8 38H3a1 1 0 0 1-1-1v-3a1 1 0 0 1 2 0v2h4a1 1 0 0 1 0 2z" fill="#616161"/></g></g></g></svg>