<svg height="511" viewBox="-85 0 511 512" width="511" xmlns="http://www.w3.org/2000/svg"><title>stickman</title><g class="nc-icon-wrapper" fill="#000000"><path d="M337.613 280.46l-50.996-69.534a20.087 20.087 0 0 0-6.246-5.574l-60.8-36.004-15.54-65.7L243.38 29.54c5.21-9.805 1.48-21.98-8.328-27.187-9.809-5.207-21.98-1.477-27.188 8.328l-42.902 80.797a20.103 20.103 0 0 0-1.809 14.058l18.778 79.371-73.922 129.512L4.368 474.77c-7.235 11.19-4.024 26.128 7.167 33.363 11.215 7.246 26.14 4 33.36-7.168L151.12 336.609l31.246 14.598 68.305 58.64-.195 77.958c-.032 13.328 10.746 24.156 24.07 24.191h.062c13.297-.004 24.094-10.766 24.125-24.07l.223-89.082a24.125 24.125 0 0 0-8.41-18.367l-46.04-39.524 83.614-29.652c12.684-4.496 17.457-19.98 9.492-30.84zm-97.812 19.497l26.894-48.195 22.5 30.675zm0 0"/><path d="M291.46 100.422c-19.987-11.41-45.44-4.453-56.847 15.535-11.41 19.988-4.453 45.441 15.535 56.848 19.989 11.41 45.438 4.453 56.848-15.535s4.453-45.442-15.535-56.848zm0 0"/></g></svg>