<svg id="Capa_1" height="512" viewBox="0 0 512 512" width="512" xmlns="http://www.w3.org/2000/svg"><title>sudoku</title><g class="nc-icon-wrapper" fill="#000000"><path d="M0 271h105v105H0z"/><path d="M136 407h105v105H136z"/><path d="M0 241h105V136H0zm52.5-67.5c8.284 0 15 6.714 15 15 0 8.284-6.716 15-15 15s-15-6.716-15-15c0-8.286 6.716-15 15-15z"/><path d="M271 407h105v105H271z"/><path d="M271 136h105v105H271z"/><path d="M136 0h105v105H136z"/><path d="M105 105V0H15C6.709 0 0 6.709 0 15v90zM52.5 37.5c8.284 0 15 6.714 15 15 0 8.284-6.716 15-15 15s-15-6.716-15-15c0-8.286 6.716-15 15-15z"/><path d="M407 105h105V15c0-8.291-6.709-15-15-15h-90z"/><path d="M407 407v105h90c8.291 0 15-6.709 15-15v-90zm52.5 67.5c-8.284 0-15-6.716-15-15 0-8.286 6.716-15 15-15s15 6.714 15 15c0 8.284-6.716 15-15 15z"/><path d="M407 271h105v105H407z"/><path d="M105 407H0v90c0 8.291 6.709 15 15 15h90zm-52.5 67.5c-8.284 0-15-6.716-15-15 0-8.286 6.716-15 15-15s15 6.714 15 15c0 8.284-6.716 15-15 15z"/><path d="M136 241h105V136H136zm52.5-67.5c8.284 0 15 6.714 15 15 0 8.284-6.716 15-15 15s-15-6.716-15-15c0-8.286 6.716-15 15-15z"/><path d="M407 241h105V136H407zm52.5-67.5c8.284 0 15 6.714 15 15 0 8.284-6.716 15-15 15s-15-6.716-15-15c0-8.286 6.716-15 15-15z"/><path d="M271 376h105V271H271zm52.5-67.5c8.284 0 15 6.714 15 15 0 8.284-6.716 15-15 15s-15-6.716-15-15c0-8.286 6.716-15 15-15z"/><path d="M136 376h105V271H136zm52.5-67.5c8.284 0 15 6.714 15 15 0 8.284-6.716 15-15 15s-15-6.716-15-15c0-8.286 6.716-15 15-15z"/><path d="M271 105h105V0H271zm52.5-67.5c8.284 0 15 6.714 15 15 0 8.284-6.716 15-15 15s-15-6.716-15-15c0-8.286 6.716-15 15-15z"/></g></svg>