<svg height="512" viewBox="0 0 64 64" width="512" xmlns="http://www.w3.org/2000/svg"><title>summer</title><g class="nc-icon-wrapper" fill="#000000"><path d="M16 46a23 23 0 0 0-3.05-2c3.37-5.49 10.11-9.34 18-9.67a34.41 34.41 0 0 1 4.43-12.94 2.29 2.29 0 0 1 1.23-.31 2.79 2.79 0 0 1 1.14.23 1.54 1.54 0 0 1 .77.76 30.16 30.16 0 0 0-4.53 12.3c7.45.63 13.84 4.37 17.1 9.63A23.07 23.07 0 0 0 48 46c-1.36 1-1.53 1.14-2.61 1.14s-1.23-.08-2.59-1.14a17 17 0 0 0-21.61 0c-1.36 1-1.53 1.14-2.61 1.14S17.32 47.06 16 46zm42.49-.13c-1.3-1.11-3.33-.36-4.72.19a17.39 17.39 0 0 0-3.91 2.34c-1.5 1.12-2.33 1.74-4.41 1.74s-2.91-.62-4.41-1.74a14 14 0 0 0-18 0c-1.5 1.12-2.33 1.74-4.41 1.74s-2.91-.62-4.41-1.74A18 18 0 0 0 10 46c-1.36-.53-3.24-1.19-4.5-.12a2.52 2.52 0 0 0-.88 1.92v2.73A2.48 2.48 0 0 0 6.61 53a7.34 7.34 0 0 1 3 1.61 13.68 13.68 0 0 0 9 3.27 13.69 13.69 0 0 0 9-3.27c1.5-1.12 2.33-1.74 4.41-1.74s2.91.62 4.41 1.74a14 14 0 0 0 18 0 7.36 7.36 0 0 1 3-1.61 2.48 2.48 0 0 0 1.94-2.43v-2.74a2.52 2.52 0 0 0-.92-1.91zM22.37 17a1.18 1.18 0 0 0 .53.13 1.21 1.21 0 0 0 1-.59A3.49 3.49 0 0 1 27 14.9a4.29 4.29 0 0 1 1.71.36 4.06 4.06 0 0 1 .63.36A20.94 20.94 0 0 1 39.72 5.51c-.49 0-1-.08-1.5-.08a18.94 18.94 0 0 0-7 1.39 17 17 0 0 0-9.41 8.63 1.21 1.21 0 0 0 .56 1.55zm25.16 6.4a3.8 3.8 0 0 1 2.4 4.17A1.2 1.2 0 0 0 51.1 29a1.2 1.2 0 0 0 1.11-.75c2.37-5.83 1.42-13.45-3.09-18.27a27.51 27.51 0 0 1-2.29 13.17 4.4 4.4 0 0 1 .7.26zM31 19.82a1.36 1.36 0 0 0 .82 1.29 1.2 1.2 0 0 0 1.5-.49 3.7 3.7 0 0 1 3.21-1.51 4.8 4.8 0 0 1 2 .41 3.53 3.53 0 0 1 1.95 4.18 1.2 1.2 0 0 0 .67 1.44h.11a1.13 1.13 0 0 0 .46.1 1.21 1.21 0 0 0 .9-.41 24.48 24.48 0 0 0 3.23-17A1.23 1.23 0 0 0 44.28 7C34.38 10 31.7 17 31 19.82z" id="Layer_22" data-name="Layer 22"/></g></svg>