<svg height="511" viewBox="0 0 511.934 511" width="511" xmlns="http://www.w3.org/2000/svg"><title>superhero</title><g class="nc-icon-wrapper" fill="#000000"><path d="M91.875 143.727a9.14 9.14 0 0 1 7.313-6.137l102.582-15.668 39.808-84.883H121.113l-3.66 1.938L36.54 159.434 153.871 318.94 168.5 229.34l-74.488-76.352a9.144 9.144 0 0 1-2.137-9.261zm0 0"/><path d="M392.426 152.98l-89.809-13.714a9.135 9.135 0 0 1-6.894-5.157l-39.754-84.691-39.754 84.691a9.135 9.135 0 0 1-6.89 5.157l-89.813 13.714 65.289 66.915a9.133 9.133 0 0 1 2.476 7.855l-15.312 93.887 79.59-43.996a9.14 9.14 0 0 1 8.84 0l79.59 43.996-15.325-93.88a9.149 9.149 0 0 1 2.477-7.862zm-79.59 115.856a9.139 9.139 0 0 1-13.445 9.473l-43.422-24-43.418 24c-3.067 1.695-6.828 1.492-9.692-.524s-4.32-5.492-3.757-8.95l8.445-51.8-37.676-38.62a9.141 9.141 0 0 1 5.156-15.423l51.52-7.863 21.148-45.04c1.504-3.21 4.73-5.26 8.278-5.26s6.773 2.05 8.28 5.26l21.145 45.04 51.524 7.863a9.14 9.14 0 0 1 5.156 15.422l-37.652 38.629zm0 0"/><path d="M270.91 167.316l-14.941-31.828-14.938 31.817a9.148 9.148 0 0 1-6.894 5.156l-38.746 5.918 28.468 29.184a9.14 9.14 0 0 1 2.477 7.851l-6.16 37.77 31.367-17.371a9.148 9.148 0 0 1 8.844 0l31.367 17.37-6.16-37.769a9.14 9.14 0 0 1 2.476-7.851l28.47-29.184-38.747-5.918a9.133 9.133 0 0 1-6.883-5.145zm0 0"/><path d="M36.531 159.469v-.008l-7.59-5.094zm0 0"/><path d="M507.195 143.398L419.82 13.113A28.568 28.568 0 0 0 396.027.47H115.91a28.552 28.552 0 0 0-23.773 12.633L4.742 143.398a28.338 28.338 0 0 0 .64 32.309l242.708 332.8a10.052 10.052 0 0 0 15.75 0l242.707-332.8a28.338 28.338 0 0 0 .648-32.309zm-17.039 25.985L270.781 468.352a18.457 18.457 0 0 1-14.812 7.543 18.437 18.437 0 0 1-14.82-7.489L21.811 170.242a18.287 18.287 0 0 1-.457-20.976l82.211-122.383a9.176 9.176 0 0 1 3.301-2.985l7.68-4.074a9.093 9.093 0 0 1 4.281-1.07h274.285c1.492 0 2.961.363 4.278 1.059l7.652 4.05a9.112 9.112 0 0 1 3.3 2.961l82.204 121.54a18.288 18.288 0 0 1-.402 21.019zm0 0"/><path d="M171.434 342.82l84.406 114.762 84.383-114.914-84.254-46.574zm0 0"/><path d="M390.844 37.04H270.359l39.844 84.882 102.574 15.687a9.144 9.144 0 0 1 5.157 15.426l-74.485 76.352 14.535 89.097 117.414-159.918-80.925-119.609zm0 0"/></g></svg>