<svg version="1.1" id="Capa_1" xmlns="http://www.w3.org/2000/svg" x="0" y="0" viewBox="0 0 512 512" xml:space="preserve" enable-background="new 0 0 512 512" width="512" height="512"><title>surfing</title><g class="nc-icon-wrapper" fill="#000000"><path d="M509.354 23.861l-80.58 80.58-21.215-21.215 80.58-80.58c-13.83-2.443-42.658-5.354-81.615 2.257-31.434 6.142-63.306 17.899-94.729 34.944-38.874 21.087-77.196 50.391-113.903 87.097a875.464 875.464 0 0 0-72.398 82.063h177.498v177.497a875.428 875.428 0 0 0 82.063-72.397c36.706-36.706 66.01-75.028 87.098-113.902 17.046-31.424 28.803-63.295 34.943-94.729 7.613-38.957 4.701-67.786 2.258-81.615z"/><path d="M103.221 239.009a840.049 840.049 0 0 0-31.243 47.324h153.688V440.02a839.68 839.68 0 0 0 47.323-31.243V239.009H103.221z"/><path d="M54.489 316.337a742.05 742.05 0 0 0-11.006 20.635c-29.161 56.837-39.422 94.692-39.845 96.275L0 446.883l48.84 16.276L65.116 512l13.637-3.638c1.583-.423 39.438-10.684 96.275-39.845a742.194 742.194 0 0 0 20.635-11.007V316.337H54.489z"/></g></svg>