<svg xmlns="http://www.w3.org/2000/svg" id="Capa_1" height="512" viewBox="0 0 512 512" width="512"><title>surgery</title><g class="nc-icon-wrapper" fill="#000000"><path d="M391 322.726l90 44.996v-26.457l-90-45z" fill="#000000"/><path d="M391 512h90V401.267l-90-44.996z" fill="#000000"/><path d="M481 121.348c0-47.095-26.162-89.429-68.291-110.493L391 0v262.72l90 45v-59.993L439.545 227 481 206.272z" fill="#000000"/><path d="M286 0c-41.353 0-75 33.647-75 75v107h-30V75c0-41.353-33.647-75-75-75S31 33.647 31 75s33.647 75 75 75c16.871 0 32.456-5.604 45-15.042V351.38c0 46.201 10.928 92.461 31.582 133.784L196 512l13.418-26.836C230.072 443.841 241 397.581 241 351.38V134.958C253.544 144.396 269.129 150 286 150c41.353 0 75-33.647 75-75S327.353 0 286 0zM106 120c-24.814 0-45-20.186-45-45s20.186-45 45-45 45 20.186 45 45-20.186 45-45 45zm180 0c-24.814 0-45-20.186-45-45s20.186-45 45-45 45 20.186 45 45-20.186 45-45 45z" fill="#000000"/></g></svg>