<svg id="svg16" height="512" viewBox="0 0 24 24" width="512" xmlns="http://www.w3.org/2000/svg"><title>survival</title><g class="nc-icon-wrapper" fill="#000000"><path id="path960" d="M14.076 2a1 1 0 0 0-.838.434l-.955 1.388a.344.344 0 0 1-.566 0l-.955-1.388a1 1 0 0 0-1.648 1.132l1.388 2.022a.727.728 0 0 1 0 .824L.177 21.434A1 1 0 0 0 1.002 23H9a1 1 0 0 0 .983-.816l1.833-9.78a.187.187 0 0 1 .368 0l1.833 9.78A1 1 0 0 0 15 23h7.998a1 1 0 0 0 .825-1.566L13.496 6.412a.727.727 0 0 1 0-.824l1.39-2.022A1 1 0 0 0 14.076 2z" font-feature-settings="normal" font-variant-alternates="normal" font-variant-caps="normal" font-variant-east-asian="normal" font-variant-ligatures="normal" font-variant-numeric="normal" font-variant-position="normal" font-variation-settings="normal" inline-size="0" isolation="auto" mix-blend-mode="normal" paint-order="fill markers stroke" shape-margin="0" shape-padding="0" solid-color="rgb(0,0,0)" text-decoration-color="rgb(0,0,0)" text-decoration-line="none" text-decoration-style="solid" text-indent="0" text-orientation="mixed" text-transform="none" white-space="normal"/></g></svg>