<svg id="Layer_1" height="512" viewBox="0 0 124 124" width="512" xmlns="http://www.w3.org/2000/svg"><title>sushi</title><g class="nc-icon-wrapper" fill="#000000"><path d="M36.311 67.081c.414.415 1.857 1.126 4.168 1.126s3.754-.711 4.168-1.126c-.414-.416-1.856-1.127-4.168-1.127s-3.754.711-4.168 1.127z"/><path d="M40.479 58.386c-12.934 0-21.947 4.582-21.947 8.694s9.013 8.694 21.947 8.694c12.933 0 21.946-4.582 21.946-8.694s-9.013-8.694-21.946-8.694zm0 13.821c-4.779 0-8.247-2.156-8.247-5.126 0-2.971 3.468-5.127 8.247-5.127s8.247 2.156 8.247 5.127c0 2.969-3.468 5.126-8.247 5.126z"/><path d="M40.479 49.315C19.621 49.315 2 57.451 2 67.081s17.622 17.766 38.479 17.766 38.479-8.136 38.479-17.766-17.621-17.766-38.479-17.766zm0 30.46c-14.792 0-25.947-5.457-25.947-12.694s11.155-12.694 25.947-12.694 25.946 5.457 25.946 12.694-11.154 12.694-25.946 12.694z"/><path d="M2 76.389v22.657c0 5.259 2.867 10.044 7.481 12.487 8.993 4.763 18.614 7.36 28.596 7.722 14.396.517 26.024-3.883 33.25-7.668 4.707-2.466 7.631-7.281 7.631-12.567V76.389C72.156 83.81 57.39 88.845 40.479 88.845S8.802 83.81 2 76.389z"/><path d="M100.37 124a2 2 0 0 1-1.987-1.792L85.828 2.207a2 2 0 0 1 3.978-.416l12.556 120.001A2 2 0 0 1 100.37 124z"/><path d="M107.446 124a2 2 0 0 1-1.991-2.208L118.011 1.791A2.007 2.007 0 0 1 120.208.01a2 2 0 0 1 1.781 2.197l-12.557 120.001a2 2 0 0 1-1.986 1.792z"/></g></svg>