<svg version="1.1" id="Layer_1" xmlns="http://www.w3.org/2000/svg" x="0" y="0" viewBox="0 0 511.994 511.994" xml:space="preserve" enable-background="new 0 0 511.994 511.994" width="511.994" height="511.994"><title>tank</title><g class="nc-icon-wrapper" fill="#000000"><path d="M374.854 164.614l-16.863-35.587a8.544 8.544 0 0 0-7.932-5.37h-8.538v-8.538a8.541 8.541 0 0 0-8.538-8.538h-68.304a8.541 8.541 0 0 0-8.538 8.538v8.538h-25.614c-.555.051-1.11.111-1.665.162l-41.87 8.376h-24.769a8.541 8.541 0 0 0-8.538 8.538v8.538h-85.38a8.536 8.536 0 0 0-8.538-8.538H8.538A8.541 8.541 0 0 0 0 149.271v17.076a8.541 8.541 0 0 0 8.538 8.538h51.228a8.536 8.536 0 0 0 8.538-8.538h85.38v8.538a8.541 8.541 0 0 0 8.538 8.538H367.135a8.541 8.541 0 0 0 8.538-8.538v-6.617c0-1.263-.281-2.51-.819-3.654z"/><path d="M486.668 226.114h-17.076v-17.076a8.541 8.541 0 0 0-8.538-8.538h-350.06a8.541 8.541 0 0 0-8.538 8.538v17.076H42.69a8.51 8.51 0 0 0-6.036 2.502L2.502 262.767c-3.33 3.33-3.33 8.743 0 12.073l25.614 25.614c3.33 3.33 8.743 3.33 12.073 0L60.8 279.843a8.531 8.531 0 0 1 6.036-2.502h419.832a8.541 8.541 0 0 0 8.538-8.538v-34.152c0-4.712-3.825-8.537-8.538-8.537z"/><path d="M510.719 323.456c-4.235-17.366-17.332-29.038-32.59-29.038-.077 0-.162-.009-.239 0H85.141c-15.257 0-28.355 11.672-32.59 29.038-3.919 16.094.777 36.816 19.817 46.677l59.766 34.152a8.472 8.472 0 0 0 4.235 1.127h290.532a8.472 8.472 0 0 0 4.235-1.127l59.459-33.981c19.356-10.032 24.043-30.754 20.124-46.848z"/></g></svg>