<svg height="512" viewBox="-157 0 512 512" width="512" xmlns="http://www.w3.org/2000/svg"><title>tattoo</title><g class="nc-icon-wrapper" fill="#000000"><path d="M171.824 130.566c0-18.238-12.863-33.52-29.992-37.277l-8.258-62.559C131.258 13.21 116.187 0 98.516 0S65.773 13.21 63.46 30.73l-8.262 62.56c-17.129 3.753-29.992 19.038-29.992 37.276v5.766h146.617zm0 0"/><path d="M0 409.934h197.031V252.902H0zm86-127.157a15.003 15.003 0 0 1 25.031 0c.29.442 7.2 10.918 14.207 23.32 13.832 24.477 15.606 34.407 15.606 40.317 0 22.266-18.989 40.375-42.328 40.375-23.336 0-42.325-18.11-42.325-40.375 0-5.91 1.774-15.84 15.606-40.316C78.8 293.695 85.71 283.218 86 282.778zm0 0"/><path d="M0 196.332v26.57h197.031v-26.57c0-16.566-13.43-30-30-30H30c-16.566 0-30 13.434-30 30zm0 0"/><path d="M98.516 356.79c6.75 0 12.246-4.587 12.324-10.25-.387-3.923-5.395-14.56-12.32-26.786-6.934 12.234-11.942 22.871-12.329 26.785.079 5.664 5.579 10.25 12.325 10.25zm0 0"/><path d="M0 466.984C0 491.848 20.152 512 45.016 512h107c24.863 0 45.015-20.152 45.015-45.016v-27.05H0zm0 0"/></g></svg>