<svg version="1.1" id="Capa_1" xmlns="http://www.w3.org/2000/svg" x="0" y="0" viewBox="0 0 612 612" xml:space="preserve" enable-background="new 0 0 612 612" width="612" height="612"><title>taxi</title><g class="nc-icon-wrapper" fill="#000000"><path d="M612 309.593v116.561c0 8.06-6.536 14.596-14.596 14.596H495.439v101.965c0 8.06-6.536 14.596-14.596 14.596H364.282c-8.06 0-14.596-6.536-14.596-14.596V440.75h-87.373v101.965c0 8.06-6.536 14.596-14.596 14.596h-116.56c-8.06 0-14.596-6.536-14.596-14.596V440.75H14.596C6.536 440.75 0 434.214 0 426.155V309.593c0-8.06 6.536-14.596 14.596-14.596h116.561c8.06 0 14.596 6.536 14.596 14.596v101.965h87.37V309.593c0-8.06 6.536-14.596 14.596-14.596H364.28c8.06 0 14.596 6.536 14.596 14.596v101.965h87.37V309.593c0-8.06 6.536-14.596 14.596-14.596h116.561c8.061.001 14.597 6.537 14.597 14.596zM76.137 83.886h41.446V224.27c0 8.06 6.536 14.596 14.596 14.596s14.596-6.536 14.596-14.596V83.886h41.446c8.06 0 14.596-6.536 14.596-14.596s-6.536-14.596-14.596-14.596H76.137c-8.06 0-14.596 6.536-14.596 14.596s6.533 14.596 14.596 14.596zM239.53 61.169c.286-.426.636-.806.966-1.2.277-.33.525-.686.826-.987.342-.342.741-.628 1.118-.937.356-.289.689-.604 1.068-.861.359-.239.762-.423 1.144-.633.464-.254.917-.523 1.404-.724.079-.032.143-.082.219-.114.336-.131.683-.184 1.022-.289.502-.158.995-.324 1.512-.426.467-.093.931-.123 1.398-.169.476-.047.949-.108 1.43-.108.496 0 .978.061 1.468.111.455.047.905.076 1.357.166.537.105 1.048.28 1.568.444.324.102.651.149.972.274.076.029.134.079.21.108.517.213.995.496 1.483.768.356.199.733.365 1.065.59.409.271.768.607 1.147.922.35.292.727.555 1.045.876.315.315.575.686.864 1.03.318.382.657.747.934 1.159.222.333.391.709.587 1.065.271.487.552.969.768 1.486.032.073.079.134.108.21l61.232 154.98c2.963 7.496-.715 15.976-8.212 18.939a14.572 14.572 0 0 1-5.36 1.025c-5.815 0-11.312-3.5-13.58-9.236l-17.135-43.37h-61.039l-17.135 43.37c-2.265 5.736-7.765 9.236-13.58 9.236-1.784 0-3.599-.33-5.36-1.025-7.496-2.963-11.174-11.44-8.212-18.939l61.232-154.98c.029-.076.079-.134.108-.21.216-.52.499-1.004.774-1.495.198-.355.362-.726.584-1.056zm31.1 95.9l-18.986-48.058-18.989 48.058h37.975zm83.023 79.213a14.52 14.52 0 0 0 8.273 2.583c4.636 0 9.195-2.204 12.027-6.311l41.434-60.07 41.434 60.07a14.577 14.577 0 0 0 12.027 6.311c2.858 0 5.745-.838 8.276-2.583 6.635-4.577 8.305-13.667 3.728-20.303l-47.731-69.201 47.731-69.204c4.577-6.635 2.907-15.725-3.728-20.303-6.635-4.577-15.725-2.907-20.303 3.728l-41.434 60.07L373.953 61c-4.577-6.635-13.664-8.308-20.303-3.728-6.635 4.577-8.305 13.667-3.728 20.303l47.731 69.204-47.731 69.201c-4.571 6.638-2.904 15.725 3.731 20.302zm164.859 2.581c8.06 0 14.596-6.536 14.596-14.596V69.29c0-8.06-6.536-14.596-14.596-14.596s-14.596 6.536-14.596 14.596v154.98c0 8.06 6.536 14.593 14.596 14.593z"/></g></svg>