<svg version="1.1" id="Layer_1" xmlns="http://www.w3.org/2000/svg" x="0" y="0" viewBox="0 0 512 512" xml:space="preserve" enable-background="new 0 0 512 512" width="512" height="512"><title>tennis</title><g class="nc-icon-wrapper" fill="#000000"><path d="M425.305 64.142C380.146 24.245 320.852 0 256 0 174.29 0 101.41 38.488 54.508 98.279c-1.245 1.587-.661 3.945 1.182 4.763 42.451 18.817 99.486 29.453 159.472 29.453 104.502 0 181.857-30.942 210.422-63.952 1.122-1.298 1.006-3.265-.279-4.401z"/><path d="M486.519 356.831l-.049.001c-77.194 0-150.395 20.699-206.118 58.286-37.364 25.201-63.173 56.104-74.544 88.249-.64 1.811.451 3.789 2.338 4.147A256.38 256.38 0 0 0 256 512c103.675 0 193.142-61.955 233.353-150.78.927-2.047-.587-4.387-2.834-4.389z"/><path d="M460.481 102.16c-1.149-1.524-3.414-1.661-4.727-.276-43.445 45.789-135.776 75.394-240.592 75.394-69.062 0-135.419-13.187-184.357-36.398-1.537-.728-3.378-.115-4.136 1.408C9.603 176.562 0 215.182 0 256c0 106.715 65.638 198.386 158.66 236.769 1.672.69 3.56-.209 4.139-1.923 14.218-42.109 46.226-81.635 92.511-112.853 63.043-42.523 145.138-65.942 231.16-65.942 5.562 0 11.11.107 16.647.294a3.119 3.119 0 0 0 3.162-2.448A255.987 255.987 0 0 0 512 256c0-57.695-19.195-110.983-51.519-153.84z"/></g></svg>