<svg id="Layer_1" height="512" viewBox="0 0 510 510" width="512" xmlns="http://www.w3.org/2000/svg"><title>thanksgiving</title><g class="nc-icon-wrapper" fill="#000000"><path id="XMLID_275_" d="M300 120h30c0-3.484.919-4.706 5.606-9.395C341.339 104.873 350 96.211 350 79.998s-8.661-24.875-14.394-30.607C330.919 44.703 330 43.48 330 39.996c0-3.482.919-4.704 5.606-9.391C341.338 24.874 350 16.212 350 0h-30c0 3.482-.919 4.704-5.606 9.391C308.662 15.122 300 23.783 300 39.996s8.661 24.875 14.394 30.607c4.688 4.688 5.606 5.911 5.606 9.395s-.919 4.707-5.606 9.395C308.661 95.124 300 103.787 300 120z"/><path id="XMLID_460_" d="M380 135h30c0-3.484.919-4.706 5.606-9.395C421.339 119.873 430 111.211 430 94.998s-8.661-24.875-14.394-30.607C410.919 59.703 410 58.48 410 54.996c0-3.482.919-4.704 5.606-9.391C421.338 39.874 430 31.212 430 15h-30c0 3.482-.919 4.704-5.606 9.391C388.662 30.122 380 38.783 380 54.996s8.661 24.875 14.394 30.607c4.688 4.688 5.606 5.911 5.606 9.395s-.919 4.707-5.606 9.395C388.661 110.124 380 118.787 380 135z"/><path id="XMLID_461_" d="M490 39.996c0-3.482.919-4.704 5.606-9.391C501.338 24.874 510 16.212 510 0h-30c0 3.482-.919 4.704-5.606 9.391C468.662 15.122 460 23.783 460 39.996s8.661 24.875 14.394 30.607c4.688 4.688 5.606 5.911 5.606 9.395s-.919 4.707-5.606 9.395C468.661 95.124 460 103.787 460 120h30c0-3.484.919-4.706 5.606-9.395C501.339 104.873 510 96.211 510 79.998s-8.661-24.875-14.394-30.607C490.919 44.703 490 43.48 490 39.996z"/><path id="XMLID_462_" d="M81.275 123.702c19.663 19.663 53.416 65.896 58.664 93.203 4.291 22.326 16.739 45.84 36.531 65.632 41.005 41.005 97.99 50.502 127.279 21.213s19.792-86.274-21.213-127.279c-19.793-19.792-43.306-32.241-65.632-36.531-27.308-5.248-73.54-39.001-93.203-58.664 17.983-17.983 17.564-47.399-1.257-64.85C105.348.573 78.504.549 61.378 16.372c-8.998 8.313-13.799 19.356-14.42 30.586-11.23.621-22.273 5.422-30.587 14.42-15.822 17.126-15.798 43.969.056 61.067 17.45 18.822 46.866 19.24 64.848 1.257z"/><path id="XMLID_463_" d="M135 510h240c41.802 0 77.966-24.558 94.847-60H40.153c16.881 35.442 53.046 60 94.847 60z"/><path id="XMLID_464_" d="M417.709 390a209.781 209.781 0 0 0 13.04-7.374C472.182 357.128 495 322.457 495 285s-22.818-72.128-64.251-97.626c-35.917-22.104-82.434-35.091-132.19-37.093a176.094 176.094 0 0 1 5.191 4.976c24.216 24.216 40.32 54.159 45.346 84.314 5.561 33.37-3.234 64.494-24.133 85.391-16.63 16.63-39.994 25.789-65.787 25.789h-.004c-36.172-.001-74.047-17.133-103.915-47.001-23.29-23.291-39.193-52.123-44.778-81.183-.539-2.803-1.682-6.17-3.289-9.919C86.312 234.044 75 259.215 75 285c0 37.457 22.818 72.128 64.251 97.626a209.781 209.781 0 0 0 13.04 7.374H0v30H510v-30h-30z"/></g></svg>