<svg xmlns="http://www.w3.org/2000/svg" id="Layer_4" height="512" viewBox="0 0 24 24" width="512"><title>time</title><g class="nc-icon-wrapper" fill="#000000"><path d="M22.963 14.676a.018.018 0 0 1-.005-.004l-1.537-1.413a10.194 10.194 0 0 0 0-2.518l1.542-1.417c.509-.479.625-1.24.279-1.854l-1.696-2.935c-.341-.607-1.081-.891-1.756-.682l-1.995.63A9.206 9.206 0 0 0 15.62 3.22l-.462-2.048A1.503 1.503 0 0 0 13.7 0h-3.4c-.695 0-1.308.493-1.457 1.17L8.38 3.22a9.206 9.206 0 0 0-2.175 1.263l-1.997-.63c-.672-.21-1.414.076-1.751.677L.755 7.475a1.517 1.517 0 0 0 .287 1.854l1.537 1.413a10.166 10.166 0 0 0 0 2.517l-1.542 1.417a1.516 1.516 0 0 0-.279 1.854l1.696 2.935a1.506 1.506 0 0 0 1.756.682l1.995-.63A9.206 9.206 0 0 0 8.38 20.78l.462 2.048c.15.679.763 1.172 1.458 1.172h3.4c.694 0 1.308-.493 1.457-1.17l.463-2.05a9.171 9.171 0 0 0 2.175-1.263l1.997.63c.671.209 1.413-.076 1.751-.678l1.702-2.945a1.513 1.513 0 0 0-.282-1.848zM12 17.5c-3.033 0-5.5-2.467-5.5-5.5S8.967 6.5 12 6.5s5.5 2.467 5.5 5.5-2.467 5.5-5.5 5.5z" fill="#000000"/><path d="M13.75 14.75a.997.997 0 0 1-.707-.293l-1.75-1.75A.996.996 0 0 1 11 12V9.25a1 1 0 1 1 2 0v2.336l1.457 1.457a.999.999 0 0 1-.707 1.707z" fill="#000000"/></g></svg>