<svg version="1.1" id="Capa_1" xmlns="http://www.w3.org/2000/svg" x="0" y="0" width="566" height="566" viewBox="0 0 566.848 566.848" xml:space="preserve" enable-background="new 0 0 566.848 566.848"><title>top100</title><g class="nc-icon-wrapper" fill="#000000"><path d="M550.542 206.812l-14.424-3.075c-1.83-2.433-3.789-4.764-6.02-6.897-1.096-1.047-2.289-1.995-3.473-2.95-11.843-9.52-28.055-14.394-48.376-14.394h-55.838l-32.387-6.903-89.579-148.216c-4.7-7.778-10.862-11.665-17.022-11.665-6.16 0-12.323 3.889-17.023 11.665l-89.578 148.214-32.387 6.903H33.589c-6.986 0-12.812 4.709-14.646 11.108-.382 1.34-.655 2.726-.655 4.192v11.591l-1.986.422c-17.775 3.788-21.61 17.118-8.559 29.771l62.304 60.413v62.043c0 8.447 6.852 15.299 15.3 15.299H125.072l-22.093 158.598c-1.852 13.295 3.776 21.199 13.421 21.199 3.412 0 7.329-.988 11.594-3.078l155.427-76.102 155.424 76.104c4.266 2.088 8.182 3.08 11.594 3.08 9.648 0 15.275-7.902 13.422-21.201l-22.094-158.596h3.091c1.588 0 3.087-.309 4.528-.76a15.208 15.208 0 0 0 7.075-4.67c2.273-2.67 3.699-6.088 3.699-9.871V332.52l19.976-19.369c4.346-.242 8.467-.721 12.421-1.387 5.367-.902 10.364-2.201 14.991-3.883 8.256-3.002 15.382-7.174 21.209-12.627 6.762-6.334 11.777-13.889 15.082-22.563 1.692-4.443 2.907-9.195 3.682-14.226.572-3.708.894-7.573.967-11.591l10.615-10.294c13.049-12.651 9.218-25.98-8.561-29.768zm-20.027 57.491c-2.436 7.782-6.469 14.404-12.212 19.783-5.021 4.703-11.384 8.217-19.067 10.547-7.57 2.303-16.429 3.455-26.585 3.455h-27.785v60.948H393.889v-164.24h84.361c18.372 0 32.133 4.37 41.282 13.109 9.149 8.74 13.725 21.175 13.725 37.308 0 7.027-.952 13.365-2.742 19.09zM85.349 333.145V235.352h-51.76v-40.554h154.269v40.557h-51.76v123.686H85.349v-25.896zm198.074 28.693c-18.522 0-33.853-2.951-45.989-8.85-12.136-5.9-21.977-15.236-29.52-28.008-7.542-12.773-11.315-28.756-11.315-47.951 0-26.814 7.469-47.69 22.405-62.626 14.939-14.939 35.737-22.405 62.402-22.405 27.335 0 48.397 7.338 63.186 22.014 14.789 14.676 22.183 35.236 22.183 61.674 0 19.195-3.231 34.937-9.691 47.222s-15.796 21.846-28.008 28.682c-12.214 6.836-27.428 10.248-45.653 10.248z"/><path d="M281.293 230.422c-10.232 0-18.449 3.623-24.648 10.866-6.199 7.246-9.299 19.232-9.299 35.964 0 16.583 3.082 28.495 9.245 35.737 6.163 7.246 14.544 10.867 25.15 10.867 10.903 0 19.345-3.547 25.319-10.643 5.976-7.098 8.963-19.83 8.963-38.205 0-15.459-3.118-26.756-9.354-33.889-6.235-7.128-14.693-10.697-25.376-10.697z"/><path d="M459.314 228.183h-14.452v36.634h12.436c9.783 0 16.656-1.698 20.615-5.098 3.96-3.4 5.937-7.748 5.937-13.051 0-5.153-1.717-9.522-5.153-13.109-3.436-3.583-9.896-5.376-19.383-5.376z"/></g></svg>