<svg xmlns="http://www.w3.org/2000/svg" id="Capa_1" height="512" viewBox="0 0 512 512" width="512"><title>typing</title><g class="nc-icon-wrapper" fill="#000000"><path d="M271 201.5v-32.17c0-14.243 11.663-25.83 26-25.83 43.248 0 78.434-35.066 78.434-78.17V24.5h-30v40.83c0 26.561-21.728 48.17-48.434 48.17-30.879 0-56 25.045-56 55.83v32.17H0v286h512v-286zm113.53 64h32.14v30h-32.14zm-64.26 0h32.13v30h-32.13zm0 64v30h-32.14v-30zm-32.14-34H256v-30h32.13zm-32.13 34v30h-32.13v-30zm-64.27-64h32.14v30h-32.14zm-64.26 0h32.13v30h-32.13zm-64.27 0h32.13v30H63.2zm32.13 158H63.2v-30h32.13zm0-94h32.14v30H95.33zm64.27 94h-32.13v-30h32.13zm0-94h32.13v30H159.6zm192.8 94H191.73v-30H352.4zm0-94h32.13v30H352.4zm64.27 94h-32.14v-30h32.14zm32.13-64h-32.13v-30h32.13z" fill="#000000"/></g></svg>