<svg id="Capa_1" height="512" viewBox="0 0 512 512" width="512" xmlns="http://www.w3.org/2000/svg"><title>upgrade</title><g class="nc-icon-wrapper" fill="#000000"><path d="M296.606 215.394c-5.857-5.857-15.355-5.857-21.213 0s-5.858 15.355 0 21.213l4.393 4.394H186c-8.284 0-15 6.716-15 15s6.716 15 15 15h93.787l-4.393 4.394c-5.858 5.857-5.858 15.355 0 21.213 5.857 5.857 15.355 5.857 21.213 0l30-30c5.858-5.857 5.858-15.355 0-21.213z"/><path d="M397.633 291h88.734l25.517-204.14a15.002 15.002 0 0 0-3.089-11.128l-55-70a15.001 15.001 0 0 0-23.59 0l-55 70a14.997 14.997 0 0 0-3.089 11.128z"/><path d="M497 321H387c-8.284 0-15 6.716-15 15s6.716 15 15 15h20v20h70v-20h20c8.284 0 15-6.716 15-15s-6.716-15-15-15z"/><path d="M407 477c0 19.33 15.67 35 35 35s35-15.67 35-35v-76h-70z"/><path d="M30.69 360h58.62l19.894-179.048a15 15 0 0 0-4.302-12.263l-34.296-34.296c-5.858-5.858-15.355-5.858-21.213 0l-34.296 34.296a15 15 0 0 0-4.302 12.263z"/><path d="M105 390H15c-8.284 0-15 6.716-15 15s6.716 15 15 15h19.841L35 487c0 13.807 11.193 25 25 25s25-11.193 25-25l-.159-67H105c8.284 0 15-6.716 15-15s-6.716-15-15-15z"/></g></svg>