<svg xmlns="http://www.w3.org/2000/svg" version="1.1" id="Capa_1" x="0" y="0" width="512" height="512" viewBox="0 0 163.537 163.538" xml:space="preserve" enable-background="new 0 0 163.537 163.538"><title>valentines</title><g class="nc-icon-wrapper" fill="#000000"><path d="M98.088 78.332l-6.531 12.785v.189h10.45V78.893c0-3.269.385-6.809.656-9.983h-.378a204.126 204.126 0 0 1-4.197 9.422z" fill="#000000"/><path d="M163.225 47.874C158.443 1.527 106.7 2.243 81.769 24.615 56.837 2.243 5.118 1.527.312 47.874c-6.186 59.669 81.456 105.897 81.456 105.897s87.639-46.229 81.457-105.897zM21.248 41.295c-4.043 0-7.317-3.275-7.317-7.312s3.274-7.312 7.317-7.312a7.313 7.313 0 0 1 7.312 7.312 7.318 7.318 0 0 1-7.312 7.312zm16.893-13.371a7.315 7.315 0 0 1 7.318-7.312 7.313 7.313 0 0 1 0 14.624c-4.043.006-7.318-3.275-7.318-7.312zm31.141 87.639H57.153V66.386h-.189L46.7 71.706l-2.057-9.611 13.914-7.188h10.725v60.656zm49.618-14.469h-6.064v14.469h-10.829v-14.469H81.198V92.7l19.875-37.799h11.757v36.398h6.063v9.795h.007zm-.81-65.852a7.314 7.314 0 0 1-7.317-7.312 7.314 7.314 0 0 1 7.317-7.312 7.314 7.314 0 0 1 7.312 7.312c-.001 4.031-3.275 7.312-7.312 7.312zm24.211 6.053c-4.043 0-7.317-3.275-7.317-7.312s3.274-7.312 7.317-7.312a7.313 7.313 0 0 1 7.312 7.312c-.001 4.031-3.275 7.312-7.312 7.312z" fill="#000000"/></g></svg>