<svg version="1.1" id="Capa_1" xmlns="http://www.w3.org/2000/svg" x="0" y="0" width="45" height="45" viewBox="0 0 45.904 45.904" xml:space="preserve" enable-background="new 0 0 45.904 45.904"><title>vampire</title><g class="nc-icon-wrapper" fill="#000000"><path d="M45.636 22.083a18.367 18.367 0 0 1-2.003-3.761c-.869-2.199-1.276-4.409-1.271-6.419.001-.759-.915-1.167-1.479-.658-2.529 2.278-6.789 4.046-11.938 4.903.496-2.443.48-5.291-.92-8.007a.739.739 0 0 0-1.252-.1c-.408.563-.837 1.397-.837 2.42h-5.97c0-1.023-.428-1.857-.836-2.42a.738.738 0 0 0-1.252.1c-1.4 2.715-1.415 5.559-.919 8.002-5.149-.857-9.41-2.624-11.938-4.901-.564-.508-1.479-.099-1.479.66.006 2.01-.402 4.221-1.271 6.419a18.341 18.341 0 0 1-2.003 3.761c-.585.838-.169 2.014.806 2.322.893.281 1.805.679 2.7 1.192 3.095 1.773 4.929 4.448 5.302 6.684.103.616.318.854 1.166.718 2.108-.342 4.969-.112 7.721 1.465 1.515.869 2.768 1.951 3.674 3.089.295.37.683.613 1.315.613.62 0 1.012-.245 1.306-.614.907-1.139 2.164-2.219 3.68-3.087 2.753-1.578 5.614-1.808 7.724-1.466.848.137 1.062-.103 1.166-.719.373-2.235 2.208-4.91 5.303-6.684a13.81 13.81 0 0 1 2.7-1.192c.974-.306 1.389-1.482.805-2.32z"/></g></svg>