<svg xmlns="http://www.w3.org/2000/svg" id="Sport_Fill" data-name="Sport Fill" viewBox="0 0 512 512" width="512" height="512"><title>volleyball</title><g class="nc-icon-wrapper" fill="#000000"><g id="Sport_Fill-2" data-name="Sport Fill"><g id="_10_Volleyball" data-name="10 Volleyball"><path id="Volleyball" d="M261.14 263a255.79 255.79 0 0 0 121.68-46.27 257.65 257.65 0 0 0 77.4-88.58 239.72 239.72 0 0 1 31.1 75.76C429 284.58 341.07 334.65 242.63 345.69A240 240 0 0 1 261.14 263zM130.84 50.12a425.45 425.45 0 0 1 57.61 5.21 8.08 8.08 0 0 0 1.2.09 7.5 7.5 0 0 0 1.17-14.9c-11.28-1.81-22.7-3.16-34.15-4.08A239.5 239.5 0 0 1 256 15c79.84 0 150.72 39 194.6 99a239.55 239.55 0 0 1-26.68 42.63 436.15 436.15 0 0 0-197.82-109 7.5 7.5 0 0 0-3.58 14.57 421.08 421.08 0 0 1 191.77 106 242.83 242.83 0 0 1-58.62 48.15 401.22 401.22 0 0 0-48.1-40 7.5 7.5 0 1 0-8.64 12.26 385.76 385.76 0 0 1 42.92 35.22 240.33 240.33 0 0 1-83.09 24.34 255.81 255.81 0 0 0-231.9-66.86 240.37 240.37 0 0 1 30.63-61.82A381.55 381.55 0 0 1 269.82 170a7.5 7.5 0 0 0 7.5-13A396.19 396.19 0 0 0 69.1 104a242.82 242.82 0 0 1 61.74-53.88zM22.12 197.81a239.88 239.88 0 0 1 43.56-6.62 353.9 353.9 0 0 0-23 176.93 240.85 240.85 0 0 1-20.6-170.31zM63.9 401.35a339.38 339.38 0 0 1 18.18-210.56 242.48 242.48 0 0 1 76.18 13 357.66 357.66 0 0 0 0 272.45 242.35 242.35 0 0 1-94.36-74.89zM178 484a342.7 342.7 0 0 1-5.67-274.94 240.3 240.3 0 0 1 74.77 48.68 255.76 255.76 0 0 0 22 238.87q-6.48.36-13.05.36A240 240 0 0 1 178 484zm108.15 11.09A240.35 240.35 0 0 1 258 441.82a351.11 351.11 0 0 0 73.32-10.08 7.5 7.5 0 0 0-3.6-14.56 336.25 336.25 0 0 1-74.79 9.76 243.19 243.19 0 0 1-10.47-66.14 371.75 371.75 0 0 0 145.65-47.15 387.57 387.57 0 0 0 106.72-90.08A242.63 242.63 0 0 1 497 256a240.14 240.14 0 0 1-10.41 70.09 337.63 337.63 0 0 1-124.66 80.63 7.5 7.5 0 1 0 5.14 14.09 352.25 352.25 0 0 0 107.2-62.71c-34.43 73.31-104.72 126.57-188.14 137.02z"/></g></g></g></svg>