<svg xmlns="http://www.w3.org/2000/svg" version="1.1" id="Capa_1" x="0" y="0" width="512" height="512" viewBox="0 0 802.125 802.125" xml:space="preserve" enable-background="new 0 0 802.125 802.125"><title>war</title><g class="nc-icon-wrapper" fill="#000000"><path d="M321.636 324.75h-58.404v-36.913a83.36 83.36 0 0 0 10.883-6.893c2.871-2.144 5.577-4.487 8.146-6.977 10.738-10.411 18.702-23.669 22.62-38.58a83.4 83.4 0 0 0 2.67-18.009c.041-1.064.068-2.132.068-3.207v-58.593H140.973v58.593c0 7.333.959 14.441 2.738 21.216 5.976 22.738 21.312 41.678 41.649 52.449v36.913H126.956c-21.934 0-41.791 8.89-56.164 23.265s-23.263 34.231-23.263 56.164h353.535c-.002-43.865-35.561-79.428-79.428-79.428z" fill="#000000"/><path d="M350.074 128.406C347.48 56.984 296.453 0 224.295 0 152.138 0 101.109 56.984 98.517 128.406c-8.582 1.841-15.019 9.462-15.019 18.594v39.433c0 9.091 6.381 16.682 14.907 18.565v5.787h.004c0 .022-.004.044-.004.066 0 9.217 7.473 16.689 16.688 16.689 9.218 0 16.69-7.473 16.69-16.689 0-.127-.016-.25-.019-.377h.017v-65.055h185.027v65.055h.017c-.002.127-.018.25-.018.377 0 9.217 7.472 16.689 16.688 16.689 9.219 0 16.69-7.473 16.69-16.689l-.002-.066h.002v-5.787c8.525-1.883 14.907-9.474 14.907-18.565V147c.001-9.131-6.436-16.753-15.018-18.594z" fill="#000000"/><g><path d="M675.17 438.521h-58.404v-36.914a83.42 83.42 0 0 0 10.883-6.892c2.871-2.145 5.577-4.489 8.146-6.978 10.737-10.411 18.702-23.669 22.62-38.579a83.367 83.367 0 0 0 2.671-18.01c.041-1.064.066-2.132.066-3.206v-58.594H494.507v58.594c0 7.332.959 14.44 2.737 21.216 5.977 22.737 21.312 41.678 41.648 52.448v36.914h-58.403c-21.934 0-41.79 8.889-56.164 23.264-14.373 14.375-23.263 34.232-23.263 56.166h353.534c.001-43.866-35.558-79.429-79.426-79.429z" fill="#000000"/><path d="M703.608 242.176c-2.594-71.421-53.621-128.406-125.777-128.406-72.158 0-123.187 56.985-125.779 128.406-8.582 1.842-15.02 9.463-15.02 18.594v39.434c0 9.091 6.381 16.682 14.906 18.564v5.787h.003c0 .023-.003.044-.003.065 0 9.217 7.473 16.69 16.688 16.69 9.218 0 16.689-7.473 16.689-16.69 0-.126-.016-.25-.019-.377h.018v-65.054h185.029v65.054h.017c-.003.128-.019.251-.019.377 0 9.217 7.473 16.69 16.688 16.69 9.218 0 16.69-7.473 16.69-16.69 0-.021-.003-.042-.003-.065h.003v-5.787c8.524-1.882 14.906-9.473 14.906-18.564V260.77c.002-9.131-6.435-16.752-15.017-18.594z" fill="#000000"/></g><path d="M764.902 661.697L664.19 624.83c.023-.686.052-1.375.052-2.07 0-31.061-25.18-56.236-56.237-56.236H277.68c-26.784 0-49.179 18.73-54.84 43.803h-34.548c-18.963 0-34.336 15.373-34.336 34.336H91.832l-.035-.002H71.083v-12.727c0-6.867-5.565-12.436-12.432-12.436-6.866 0-12.431 5.566-12.431 12.436v12.725H34.979c-9.482 0-17.169 7.688-17.169 17.17s7.687 17.17 17.169 17.17h368.894v85.635c0 20.707 16.783 37.492 37.491 37.492s37.492-16.785 37.492-37.492v-85.635h55.978a31.928 31.928 0 0 0-.82 7.105c0 17.654 14.312 31.967 31.967 31.967 6.573 0 12.68-1.988 17.759-5.391v20.188c0 12.752 10.337 23.088 23.087 23.088 12.752 0 23.089-10.336 23.089-23.088v-47.469l98.305 55.652c16.76 7.748 45.255-18.219 53.001-34.977 7.749-16.76.441-36.627-16.32-44.377zM583.74 698.82c-3.967 5.531-10.435 9.146-17.759 9.146-12.074 0-21.861-9.789-21.861-21.863 0-2.49.437-4.875 1.202-7.104h18.587v11.119a3.948 3.948 0 0 0 7.896 0V679h11.935v19.82z" fill="#000000"/></g></svg>