<svg id="Layer_1" height="512" viewBox="0 0 512 512" width="512" xmlns="http://www.w3.org/2000/svg"><title>warrior</title><g class="nc-icon-wrapper" fill="#000000"><path d="M256 98.533c4.382 0 8.732.639 12.931 1.897l139.882 41.965c-13.907-44.82-50.205-87.798-118.196-102.935C279.067 36.893 271 26.836 271 14.996 271 6.712 264.284 0 256 0s-15 6.72-15 15.004c0 11.831-8.07 21.888-19.604 24.451-68.063 15.158-104.291 58.214-118.189 102.935l139.862-41.958A44.96 44.96 0 0 1 256 98.533z"/><path d="M420.978 177.366l-160.667-48.2a14.993 14.993 0 0 0-8.621 0l-160.667 48.2a14.998 14.998 0 0 0-10.689 14.367v128.533c0 5.682 3.21 10.876 8.292 13.416l160.667 80.333a14.987 14.987 0 0 0 13.416 0l160.667-80.333a14.998 14.998 0 0 0 8.292-13.416V191.733a15.001 15.001 0 0 0-10.69-14.367zM174.6 288.134c0 8.284-6.716 15-15 15s-15-6.716-15-15v-59.447c0-8.284 6.716-15 15-15s15 6.716 15 15zm64.266 24.099c0 8.284-6.716 15-15 15s-15-6.716-15-15V209.406c0-8.284 6.716-15 15-15s15 6.716 15 15zm64.268 0c0 8.284-6.716 15-15 15s-15-6.716-15-15V209.406c0-8.284 6.716-15 15-15s15 6.716 15 15zm64.267-24.099c0 8.284-6.716 15-15 15s-15-6.716-15-15v-59.447c0-8.284 6.716-15 15-15s15 6.716 15 15z"/><path d="M425.661 436.796s-12.046-9.026-25.702-19.276c-9.681-7.259-17.505-16.563-23.057-27.06l-100.778 50.389c-6.216 3.108-13.175 4.751-20.124 4.751s-13.908-1.643-20.124-4.751L135.097 390.46c-5.553 10.496-13.376 19.8-23.057 27.062l-25.705 19.277a15 15 0 0 0 4.688 26.368l160.667 48.2a14.993 14.993 0 0 0 8.622 0l160.667-48.2a15 15 0 0 0 4.682-26.371z"/></g></svg>