<svg id="Glyph" height="512" viewBox="0 0 32 32" width="512" xmlns="http://www.w3.org/2000/svg"><title>water</title><g class="nc-icon-wrapper" fill="#000000"><path id="XMLID_103_" d="M31 27a1 1 0 0 1-1 1c-1.278 0-2.11.416-3.072.898C25.896 29.415 24.727 30 23 30c-1.736 0-2.91-.587-3.946-1.105-.96-.48-1.789-.895-3.054-.895s-2.094.415-3.054.895C11.91 29.413 10.736 30 9 30c-1.727 0-2.896-.585-3.928-1.102C4.11 28.416 3.278 28 2 28a1 1 0 0 1 0-2c1.751 0 2.929.59 3.968 1.11.954.477 1.778.89 3.032.89 1.264 0 2.092-.415 3.052-.894C13.088 26.587 14.263 26 16 26s2.912.587 3.948 1.106c.96.479 1.788.894 3.052.894 1.254 0 2.078-.413 3.032-.89C27.071 26.59 28.249 26 30 26a1 1 0 0 1 1 1z"/><path id="XMLID_104_" d="M31 22a1 1 0 0 1-1 1c-1.278 0-2.11.416-3.072.898C25.896 24.415 24.727 25 23 25c-1.736 0-2.91-.587-3.946-1.105-.96-.48-1.789-.895-3.054-.895s-2.094.415-3.054.895C11.91 24.413 10.736 25 9 25c-1.727 0-2.896-.585-3.928-1.102C4.11 23.416 3.278 23 2 23a1 1 0 0 1 0-2c1.751 0 2.929.59 3.968 1.11.954.477 1.778.89 3.032.89 1.264 0 2.092-.415 3.052-.894C13.088 21.587 14.263 21 16 21s2.912.587 3.948 1.106c.96.479 1.788.894 3.052.894 1.254 0 2.078-.413 3.032-.89C27.071 21.59 28.249 21 30 21a1 1 0 0 1 1 1z"/><path id="XMLID_966_" d="M30 16c-1.751 0-2.929.59-3.968 1.11-.89.445-1.68.82-2.798.871-2.16-.046-3.875-1.11-4.715-2.947-.835-1.828-.61-4.04.549-5.379.499-.576 1.555-.828 2.303-.55.564.209.629.611.629.895a1 1 0 0 0 1 1c1.18 0 3-1.718 3-4 0-2.851-2.58-5-6-5-6.948 0-9.388 4.577-11.349 8.255C6.94 13.465 5.588 16 2 16a1 1 0 0 0 0 2c1.278 0 2.11.416 3.072.898C6.104 19.415 7.273 20 9 20c1.736 0 2.91-.587 3.946-1.105.96-.48 1.789-.895 3.054-.895s2.094.415 3.054.895C20.09 19.413 21.264 20 23 20c1.727 0 2.896-.585 3.928-1.102C27.89 18.416 28.722 18 30 18a1 1 0 0 0 0-2z"/></g></svg>