<svg version="1.1" id="Capa_1" xmlns="http://www.w3.org/2000/svg" x="0" y="0" viewBox="0 0 512 512" xml:space="preserve" enable-background="new 0 0 512 512" width="512" height="512"><title>weird</title><g class="nc-icon-wrapper" fill="#000000"><path d="M256 0C114.837 0 0 114.837 0 256s114.837 256 256 256 256-114.837 256-256S397.163 0 256 0zM106.667 181.333C106.667 151.936 130.603 128 160 128s53.333 23.936 53.333 53.333-23.936 53.333-53.333 53.333-53.333-23.935-53.333-53.333zm224 181.334H181.333c-5.888 0-10.667-4.779-10.667-10.667s4.779-10.667 10.667-10.667h149.333c5.888 0 10.667 4.779 10.667 10.667s-4.778 10.667-10.666 10.667zM352 213.333c-17.643 0-32-14.357-32-32s14.357-32 32-32 32 14.357 32 32-14.357 32-32 32z"/></g></svg>