<svg version="1.1" id="Capa_1" xmlns="http://www.w3.org/2000/svg" x="0" y="0" viewBox="0 0 512 512" xml:space="preserve" enable-background="new 0 0 512 512" width="512" height="512"><title>what</title><g class="nc-icon-wrapper" fill="#000000"><path d="M256 0C115.391 0 .002 115.389.002 255.998c0 45.747 12.378 90.526 35.859 130.004L.778 492.25a14.995 14.995 0 0 0 3.618 15.352c4.043 4.043 10.031 5.425 15.352 3.618l106.248-35.083c39.478 23.481 84.257 35.859 130.004 35.859 140.609 0 255.998-115.389 255.998-255.998S396.609 0 256 0zm0 450.996c-24.814 0-45-20.186-45-45s20.186-45 45-45 45 20.186 45 45c0 24.815-20.186 45-45 45zm63.237-215.813L286 268.42v32.578c0 16.538-13.462 30-30 30s-30-13.462-30-30V268.42c0-16.025 6.24-31.084 17.578-42.422l33.237-33.237c7.683-7.683 9.185-15.463 9.185-25.386 0-17.3-14.077-31.377-31.377-31.377-15.776 0-28.623 12.847-28.623 28.623 0 16.538-13.462 30-30 30s-30-13.462-30-30c0-48.867 39.756-88.622 88.622-88.622 50.391 0 91.376 40.986 91.376 91.376.001 28.35-9.274 50.321-26.761 67.808z"/></g></svg>