<svg id="Layer_1" height="512" viewBox="0 0 512 512" width="512" xmlns="http://www.w3.org/2000/svg"><title>winter</title><g class="nc-icon-wrapper" fill="#000000"><path d="M464.867 241h-53.87l47.031 109.741a44.862 44.862 0 0 1 1.067 32.726H497c8.284 0 15-6.716 15-15v-80.333c0-25.99-21.144-47.134-47.133-47.134z"/><path d="M252.8 79.267v68.588l34.267 17.134V15c0-8.284-6.716-15-15-15-26.638 0-50.831 13.37-65.3 34.267h1.033c24.813 0 45 20.187 45 45z"/><path d="M497 449.867c-18.307 0-33.2-14.894-33.2-33.2v-3.2h-94.267v3.2c0 18.598-15.162 33.2-33.2 33.2H175.667c-18.041 0-33.2-14.606-33.2-33.2v-3.2H48.2v3.2c0 18.307-14.894 33.2-33.2 33.2-8.284 0-15 6.716-15 15C0 491.443 21.646 512 47.133 512h417.733C490.357 512 512 491.436 512 464.867c0-8.284-6.716-15-15-15z"/><path d="M47.133 383.467h369.533a15 15 0 0 0 13.787-20.909l-48.2-112.467a15 15 0 0 0-7.079-7.508l-13.519-6.76-46.849 46.849c-5.857 5.858-15.355 5.858-21.213 0-5.858-5.857-5.858-15.355 0-21.213l39.778-39.778-35.983-17.991-46.848 46.85c-5.858 5.858-15.355 5.858-21.213 0s-5.858-15.355 0-21.213l39.778-39.778-35.983-17.991-46.849 46.849c-5.857 5.858-15.355 5.858-21.213 0s-5.858-15.355 0-21.213l57.74-57.74V79.267c0-8.284-6.716-15-15-15H47.133c-8.284 0-15 6.716-15 15v108.926l-30.55 61.1A14.996 14.996 0 0 0 0 256v80.333c0 26.577 21.646 47.134 47.133 47.134z"/></g></svg>