<svg version="1.1" id="Layer_1" xmlns="http://www.w3.org/2000/svg" x="0" y="0" viewBox="0 0 512.002 512.002" xml:space="preserve" enable-background="new 0 0 512.002 512.002" width="512.002" height="512.002"><title>world</title><g class="nc-icon-wrapper" fill="#000000"><path d="M256.001 0c-142.285 0-256 115.36-256 256 0 142.024 115.362 256.007 255.941 256.002C397.082 512 512.001 397.669 512.001 256c0-140.476-113.621-256-256-256zm-57.026 281.887l-18.859 81.73c-4.726 20.488-33.203 23.705-42.039 4.139l-42.428-94.133 28.331-83.156a14.998 14.998 0 0 0-7.587-18.302l-56.874-27.926c22.098-38.88 54.954-70.092 94.732-90.106V91.39a15 15 0 0 0 11.89 14.674l76.806 16.281c10.44 2.208 18.607 9.998 21.313 20.326l7.259 27.712c2.225 8.511.284 17.697-5.191 24.572l-64.471 80.96a14.994 14.994 0 0 0-2.882 5.972zm40.408 199.514l8.607-18.167c1.601-3.384 3.379-4.98 6.528-6.886 3.323-1.99 8.365-4.304 16.655-8.465 7.415-3.712 15.373-1.359 19.711 4.341l.004.004 17.942 23.558c-22.642 5.415-46.135 7.314-69.447 5.615zm162.271-52.604l-19.655-12.749-8.815-81.699a33.35 33.35 0 0 1 5.871-22.746l44.27-63.01a15.002 15.002 0 0 0 2.727-8.623v-57.875l28.732-33.717c17.858 32.899 27.219 69.724 27.219 107.622-.002 68.983-30.868 130.993-80.349 172.797z"/></g></svg>