<svg height="512" viewBox="-32 0 511 512" width="512" xmlns="http://www.w3.org/2000/svg"><title>worm</title><g class="nc-icon-wrapper" fill="#000000"><path d="M136 512h-.434c-21.32 0-38.668-17.348-38.668-38.664 0-48.457 39.184-87.734 87.72-87.734h71.898c9.437 0 17.117-7.68 17.117-17.118 0-9.554-7.738-17.148-17.133-17.148H95.832C43.18 351.336.5 308.73.5 256c0-52.566 42.766-95.332 95.332-95.332h257.066c9.594 0 17.133-7.809 17.133-17.133 0-9.594-7.804-17.133-17.133-17.133h-39.75c-48.367 0-87.714-39.351-87.714-87.718C225.434 17.348 242.777 0 264.098 0h.433c21.563 0 39.102 17.54 39.102 39.102 0 5.015 4.082 9.097 9.101 9.097h40.164c52.567 0 95.336 42.77 95.336 95.336s-42.77 95.332-95.336 95.332H95.832c-9.594 0-17.133 7.809-17.133 17.133 0 9.598 7.809 17.137 17.133 17.137H256.5c52.645 0 95.332 42.593 95.332 95.332 0 52.566-42.766 95.332-95.332 95.332h-72.3c-5.02 0-9.102 4.082-9.102 9.101 0 21.559-17.54 39.098-39.098 39.098zm0 0"/></g></svg>