<svg id="Bold" height="512" viewBox="0 0 24 24" width="512" xmlns="http://www.w3.org/2000/svg"><title>wreck</title><g class="nc-icon-wrapper" fill="#000000"><circle cx="12" cy="19" r="5"/><path d="M12 13.5a.75.75 0 0 1-.75-.75V9a.75.75 0 0 1 1.5 0v3.75a.75.75 0 0 1-.75.75z"/><path d="M13.5 15.5a.75.75 0 0 1-.75-.75v-1a.25.25 0 0 0-.25-.25h-1a.25.25 0 0 0-.25.25v1a.75.75 0 0 1-1.5 0v-1c0-.965.785-1.75 1.75-1.75h1c.965 0 1.75.785 1.75 1.75v1a.75.75 0 0 1-.75.75z"/><path d="M15.462 3.513l-1-3A.752.752 0 0 0 13.75 0h-3.5a.752.752 0 0 0-.712.513l-1 3a.752.752 0 0 0 .712.987h5.5a.749.749 0 0 0 .712-.987z"/><path d="M12 6.5a.75.75 0 0 1-.75-.75v-2a.75.75 0 0 1 1.5 0v2a.75.75 0 0 1-.75.75z"/><path d="M12 9.5a2.253 2.253 0 0 1-2.25-2.25.75.75 0 0 1 1.5 0 .75.75 0 0 0 1.5 0A.75.75 0 0 0 12 6.5.75.75 0 0 1 12 5c1.24 0 2.25 1.009 2.25 2.25S13.24 9.5 12 9.5z"/></g></svg>