<svg height="511" viewBox="1 -8 512 511" width="511" xmlns="http://www.w3.org/2000/svg"><title>wrestling</title><g class="nc-icon-wrapper" fill="#000000"><path d="M507.605 342.293l-48.511-48.516-100.356 100.356c-17.914 17.914-40.398 29.594-64.82 33.965l63.941 63.941c5.856 5.86 15.356 5.86 21.211 0l128.535-128.531c5.86-5.86 5.86-15.36 0-21.215zm0 0"/><path d="M439.332 271.113c16.91-16.906 16.914-44.418.023-61.336l-.058-.058a43.335 43.335 0 0 0-14.379-9.547c4.61-11.66 5.582-31.379-9.688-46.652-.039-.04-.078-.083-.12-.122a43.378 43.378 0 0 0-14.294-9.46c4.61-11.653 5.586-31.376-9.675-46.641l-.028-.027c-4.183-4.184-9.07-7.41-14.394-9.563 4.61-11.66 5.582-31.383-9.688-46.656-.004 0-.004-.004-.008-.004l-.011-.012c-16.918-16.918-44.442-16.918-61.36 0l-28.441 28.438 14.543 14.543c24.234 24.234 24.234 63.664.004 87.898-8.156 8.152-18.176 13.754-29.098 16.422a61.765 61.765 0 0 1-16.375 29.047c-8.144 8.144-18.148 13.742-29.058 16.414-2.668 10.906-8.27 20.914-16.41 29.055-8.145 8.144-18.149 13.742-29.06 16.414-2.667 10.906-8.269 20.914-16.41 29.058-11.738 11.735-27.347 18.203-43.949 18.203-16.601 0-32.21-6.465-43.949-18.207l-14.543-14.543-48.511 48.516c-5.86 5.86-5.86 15.355 0 21.215l128.53 128.531c5.86 5.86 15.356 5.856 21.216 0l92.007-92.004h25.922c24.727 0 47.973-9.633 65.457-27.113zm0 0"/><path d="M88.664 287.11c12.555 12.558 32.914 12.558 45.469 0 12.558-12.555 12.558-32.91 0-45.47 12.558 12.56 32.914 12.56 45.472 0 12.555-12.554 12.555-32.913 0-45.468 12.555 12.555 32.915 12.555 45.47 0 12.554-12.555 12.554-32.914 0-45.469 12.554 12.555 32.913 12.555 45.468 0 12.559-12.558 12.559-32.914 0-45.473l-64.11-64.109c-12.554-12.555-32.913-12.555-45.468 0-12.555 12.555-12.555 32.914 0 45.469l8.031 8.035c-12.555-12.559-32.914-12.559-45.469 0-12.554 12.555-12.554 32.914 0 45.469l16.067 16.066c-12.555-12.555-32.914-12.555-45.469 0-12.559 12.555-12.559 32.914 0 45.469l16.066 16.07c-12.558-12.558-32.914-12.558-45.472 0-12.555 12.555-12.555 32.91 0 45.469zm0 0"/><path d="M284.438 19.82a74.294 74.294 0 0 1 7.007-6.152l-8.773-8.773a15.003 15.003 0 0 0-17.313-2.813l-37.023 18.512L256 48.262zm0 0"/></g></svg>