<svg height="511" viewBox="-12 1 511 511.999" width="511" xmlns="http://www.w3.org/2000/svg"><title>zombie</title><g class="nc-icon-wrapper" fill="#000000"><path d="M390.055 108.266c0-17.184-13.98-31.16-31.164-31.16-.586 0-1.063-.481-1.063-1.067v-7.09c0-15.402-12.535-27.937-27.937-27.937h-22.274c-1.105-14.403-13.176-25.782-27.855-25.782h-11.125V0h-45.192C145.54 0 82.156 63.383 82.156 141.29v208.702C82.156 439.32 154.832 512 244.164 512c89.332 0 162.008-72.68 162.008-162.008V146.258H390.05v-37.992zm-31.828 37.992h-30.098v-14.246c0-8.313 6.738-15.051 15.047-15.051 8.312 0 15.05 6.738 15.05 15.05zm-58.012 0H270.12v-14.246c0-8.313 6.734-15.051 15.047-15.051s15.047 6.738 15.047 15.05zm-24.082-66.465h-7.492V49.695h7.492c8.312 0 15.05 6.739 15.05 15.047 0 8.313-6.738 15.051-15.05 15.051zM175.898 300.336c-13.218 0-23.937-10.715-23.937-23.938v-13.78h-16.84c-8.312 0-15.05-6.74-15.05-15.048 0-8.312 6.738-15.05 15.05-15.05h81.559c8.308 0 15.047 6.738 15.047 15.05 0 8.309-6.739 15.047-15.047 15.047h-16.844v13.781c.004 13.223-10.715 23.938-23.938 23.938zm81.793 25.203c7.692-3.148 16.477.54 19.625 8.23 3.149 7.692-.539 16.481-8.23 19.626-8.035 3.289-16.477 4.933-24.922 4.933-8.441 0-16.883-1.644-24.918-4.933-7.691-3.145-11.379-11.934-8.23-19.625 3.148-7.692 11.933-11.375 19.625-8.23 8.722 3.565 18.328 3.565 27.05 0zm13.485 128.625h-54.02c-1.676 0-3.324-.125-4.937-.351v2.792c0 8.31-6.739 15.047-15.047 15.047-8.313 0-15.047-6.738-15.047-15.047v-37.468c0-19.317 15.715-35.035 35.031-35.035h54.02c19.316 0 35.031 15.714 35.031 35.03 0 19.317-15.715 35.032-35.031 35.032zm82.035-191.547h-16.84v13.781c0 13.22-10.719 23.938-23.941 23.938-13.22 0-23.938-10.719-23.938-23.938v-13.78h-16.844c-8.308 0-15.046-6.74-15.046-15.052 0-8.308 6.738-15.046 15.046-15.046h81.559c8.313 0 15.05 6.738 15.05 15.046 0 8.313-6.734 15.051-15.046 15.051zm0 0"/><path d="M38.543 176.742C17.566 176.742.5 193.812.5 214.79v95.223c0 20.98 17.066 38.047 38.043 38.047h5.57c2.723 0 5.383-.297 7.946-.844v-169.63a38.052 38.052 0 0 0-7.946-.843zm0 0"/><path d="M449.79 176.742h-5.571c-2.727 0-5.383.297-7.946.844v169.629c2.563.55 5.22.844 7.946.844h5.57c20.977 0 38.043-17.067 38.043-38.043v-95.227c0-20.976-17.066-38.047-38.043-38.047zm0 0"/></g></svg>