<svg id="Layer_1" height="512" viewBox="0 0 100 100" width="512" xmlns="http://www.w3.org/2000/svg"><title>zoo</title><g class="nc-icon-wrapper" fill="#000000"><path d="M83.47 16.42V15a5 5 0 1 0-10 0v1.42H26.53V15a5 5 0 0 0-10 0v1.42H10v56.668h6.53V90h10V73.088h46.94V90h10V73.088H90V16.421zM51.787 32.128c.196-1.927 1.063-3.687 2.32-4.708.856-.696 1.827-1.01 2.799-.908 2.48.259 4.219 3.197 3.876 6.55-.196 1.927-1.063 3.687-2.32 4.708-.75.61-1.587.927-2.44.927-.12 0-.238-.007-.358-.02-2.48-.257-4.22-3.196-3.877-6.55zm-8.692-5.616c.977-.102 1.943.213 2.799.908 1.256 1.021 2.123 2.781 2.32 4.708.342 3.353-1.397 6.292-3.877 6.55-.12.012-.24.019-.36.019-.851 0-1.688-.317-2.44-.927-1.255-1.021-2.123-2.78-2.32-4.707-.341-3.354 1.398-6.292 3.878-6.55zm-8.662 18.613c-.404 0-.822-.067-1.245-.202-1.466-.466-2.84-1.722-3.678-3.36-1.461-2.857-.93-6.08 1.184-7.186.837-.437 1.811-.499 2.818-.179 1.465.466 2.84 1.722 3.678 3.36 1.46 2.857.93 6.08-1.184 7.186a3.36 3.36 0 0 1-1.573.38zM63.596 58.11c-.528 2.39-2.235 4.275-4.684 5.171-.701.257-1.43.382-2.154.382-1.788 0-3.558-.758-4.862-2.16-.496-.532-1.169-.825-1.896-.825s-1.4.293-1.896.825c-1.832 1.971-4.587 2.668-7.016 1.778-2.449-.896-4.156-2.781-4.684-5.171a6.913 6.913 0 0 1 1.87-6.408l5.317-5.973c1.627-1.827 3.962-2.874 6.409-2.874s4.782 1.047 6.41 2.874l5.334 5.992a6.9 6.9 0 0 1 1.852 6.389zm6.894-16.549c-.837 1.638-2.212 2.894-3.678 3.36a4.107 4.107 0 0 1-1.245.202 3.36 3.36 0 0 1-1.573-.38c-2.114-1.106-2.645-4.33-1.184-7.187.838-1.638 2.213-2.894 3.678-3.36 1.007-.32 1.981-.258 2.818.18 2.114 1.104 2.645 4.328 1.184 7.185z"/></g></svg>