<?xml version="1.0" encoding="iso-8859-1"?>
<!-- Generator: Adobe Illustrator 16.0.0, SVG Export Plug-In . SVG Version: 6.00 Build 0)  -->
<!DOCTYPE svg PUBLIC "-//W3C//DTD SVG 1.1//EN" "http://www.w3.org/Graphics/SVG/1.1/DTD/svg11.dtd">
<svg xmlns="http://www.w3.org/2000/svg" xmlns:xlink="http://www.w3.org/1999/xlink" version="1.1" id="Capa_1" x="0px" y="0px" width="512px" height="512px" viewBox="0 0 43 43" style="enable-background:new 0 0 43 43;" xml:space="preserve">
<g>
	<path d="M26.082,25.409c-0.163-0.525-0.016-1.065,0.416-1.523c0.402-0.428,1.051-0.782,1.924-1.055   c0.503-0.156,1.104-0.234,1.782-0.234c1.303,0,2.471,0.287,2.521,0.3c0.168,0.042,0.305,0.17,0.355,0.336   c0.05,0.166,0.014,0.349-0.104,0.479c-0.069,0.079-1.727,1.938-3.506,2.492c-0.602,0.188-1.14,0.28-1.603,0.28   C26.559,26.484,26.184,25.732,26.082,25.409z M21.498,29.216c1.38,0,2.5-0.446,2.5-1c0-0.553-1.12-1-2.5-1s-2.5,0.447-2.5,1   C18.998,28.77,20.118,29.216,21.498,29.216z M13.525,26.275c0.6,0.188,1.138,0.281,1.601,0.281c1.313,0,1.688-0.752,1.789-1.076   c0.163-0.524,0.016-1.064-0.416-1.522c-0.403-0.429-1.051-0.783-1.924-1.056c-0.503-0.155-1.103-0.234-1.782-0.234   c-1.303,0-2.471,0.288-2.52,0.3c-0.169,0.042-0.305,0.171-0.356,0.337c-0.051,0.165-0.013,0.348,0.103,0.479   C10.088,23.862,11.744,25.723,13.525,26.275z M4.04,13.831c0.084-0.175,1.012-2.023,2.995-4.087   C4.865,9.718,2.429,8.727,1.99,8.288C1.331,7.628,2.419,5.473,4.421,3.471C6.423,1.468,8.579,0.38,9.238,1.04   c0.486,0.486,1.652,3.421,1.429,5.731c2.668-1.688,6.224-3.014,10.832-3.014c4.587,0,8.149,1.332,10.832,3.024   c-0.228-2.312,0.942-5.255,1.429-5.742c0.659-0.659,2.816,0.429,4.817,2.431c2.001,2.002,3.09,4.158,2.431,4.817   c-0.438,0.438-2.867,1.427-5.033,1.456c1.983,2.041,2.934,3.861,3.021,4.034c0.022,0.046,0.045,0.092,0.065,0.138   c0.826,1.816,1.305,4.367,1.529,6.5C42.055,21.617,43,23.49,43,25.591c0,2.939-1.85,5.436-4.389,6.268   c-3.258,6.255-9.812,10.295-17.081,10.295c-7.263,0-13.807-4.028-17.068-10.271C1.885,31.076,0,28.561,0,25.591   c0-2.134,0.974-4.033,2.479-5.232c0.229-2.124,0.706-4.646,1.524-6.445C4.014,13.885,4.027,13.857,4.04,13.831z M3.998,25.591   c0,1.415,0.998,2.563,2.243,2.563c0.31,0,0.605-0.071,0.874-0.2c2.033,5.928,7.712,10.2,14.416,10.2   c6.696,0,12.37-4.264,14.409-10.182c0.254,0.113,0.526,0.182,0.815,0.182c1.245,0,2.243-1.146,2.243-2.563S38,23.029,36.755,23.029   c-0.002,0-0.004,0.002-0.006,0.002c0-0.05-0.004-0.107-0.005-0.158c-0.338,0.576-0.729,1.13-1.164,1.657   c0.417-1.429,0.645-2.896,0.645-4.355c0-0.38-0.029-0.746-0.06-1.11c-3.245,0.725-7.747-0.25-11.949-2.9   c-2.202-1.39-4.025-3.054-5.372-4.79c-2.404,1.34-4.682,4.126-11.939,7.014c-0.078,0.577-0.132,1.167-0.132,1.786   c0,1.458,0.227,2.928,0.644,4.355c-0.412-0.496-0.78-1.017-1.104-1.556c0,0.021-0.002,0.043-0.002,0.062   c-0.024-0.001-0.046-0.008-0.069-0.008C4.996,23.028,3.998,24.176,3.998,25.591z" fill="#616161"/>
</g>
<g>
</g>
<g>
</g>
<g>
</g>
<g>
</g>
<g>
</g>
<g>
</g>
<g>
</g>
<g>
</g>
<g>
</g>
<g>
</g>
<g>
</g>
<g>
</g>
<g>
</g>
<g>
</g>
<g>
</g>
</svg>
