<?xml version="1.0" encoding="iso-8859-1"?>
<!-- Generator: Adobe Illustrator 19.0.0, SVG Export Plug-In . SVG Version: 6.00 Build 0)  -->
<svg xmlns="http://www.w3.org/2000/svg" xmlns:xlink="http://www.w3.org/1999/xlink" version="1.1" id="Capa_1" x="0px" y="0px" viewBox="0 0 364.701 364.701" style="enable-background:new 0 0 364.701 364.701;" xml:space="preserve" width="512px" height="512px">
<g id="XMLID_21_">
	<path id="XMLID_22_" d="M246.5,37.976C246.5,17.036,229.464,0,208.524,0c-9.897,0-19.162,3.75-26.174,10.452   C175.339,3.75,166.074,0,156.177,0c-20.939,0-37.976,17.036-37.976,37.976c0,37.146,44.271,66.768,57.839,74.961   c1.91,1.154,4.099,1.764,6.329,1.764c2.213,0,4.386-0.601,6.286-1.737C202.225,104.844,246.5,75.44,246.5,37.976z" fill="#616161"/>
	<path id="XMLID_23_" d="M81.693,238.372c36.085,0,65.441-29.356,65.441-65.44s-29.356-65.44-65.441-65.44   c-36.084,0-65.44,29.356-65.44,65.44S45.609,238.372,81.693,238.372z" fill="#616161"/>
	<path id="XMLID_24_" d="M217.566,170.142v56.142h27.618c10.689,7.6,23.738,12.088,37.823,12.088   c14.085,0,27.134-4.488,37.823-12.088h27.618v-56.142c0-36.084-29.356-65.44-65.44-65.44   C246.923,104.701,217.566,134.058,217.566,170.142z" fill="#616161"/>
	<path id="XMLID_25_" d="M109.496,263.935H53.891c-27.419,0-49.726,22.307-49.726,49.726v51.041h155.058v-51.041   C159.223,286.242,136.915,263.935,109.496,263.935z" fill="#616161"/>
	<path id="XMLID_26_" d="M310.811,263.935h-55.605c-27.419,0-49.727,22.307-49.727,49.726v51.041h155.058v-51.041   C360.536,286.242,338.229,263.935,310.811,263.935z" fill="#616161"/>
</g>
<g>
</g>
<g>
</g>
<g>
</g>
<g>
</g>
<g>
</g>
<g>
</g>
<g>
</g>
<g>
</g>
<g>
</g>
<g>
</g>
<g>
</g>
<g>
</g>
<g>
</g>
<g>
</g>
<g>
</g>
</svg>
