<?xml version="1.0"?>
<svg xmlns="http://www.w3.org/2000/svg" id="Layer_1" enable-background="new 0 0 512 512" viewBox="0 0 512 512" width="512px" height="512px"><path d="m256 205.595c33.891 0 64.754-58.477 55.669-126.857-36.581-14.711-74.761-14.709-111.343.002-9.175 69.092 22.306 126.855 55.674 126.855z" fill="#616161"/><path d="m501.404 279.61c-2.869-8.764-12.301-13.541-21.061-10.674l-22.515 7.369c-2.656-13.282-6.43-26.995-11.33-41.071 38.902-14.99 65.502-52.579 65.502-95.712 0-56.57-46.023-102.594-102.594-102.594-25.055 0-48.49 8.999-66.665 24.538 17.729 91.691-25.907 177.52-86.743 177.52-60.577 0-104.547-85.475-86.746-177.524-18.174-15.536-41.607-24.535-66.66-24.535-56.569.001-102.592 46.024-102.592 102.595 0 43.134 26.6 80.722 65.501 95.713-4.899 14.088-8.67 27.798-11.324 41.074l-22.519-7.372c-8.763-2.865-18.193 1.91-21.062 10.673-2.868 8.764 1.91 18.194 10.674 21.062l28.55 9.345c-1.309 24.258 1.714 46.601 9.187 66.499l-37.173 10.731c-8.859 2.557-13.968 11.812-11.41 20.67 2.558 8.862 11.815 13.968 20.67 11.41l43.986-12.698c29.119 40.396 83.383 65.54 164.225 68.442v-64.499c-29.885-5.498-51.452-25.519-51.452-50.062 0-28.916 29.934-51.567 68.147-51.567s68.147 22.652 68.147 51.567c0 24.543-21.566 44.564-51.452 50.062v64.5c80.964-2.906 135.154-28.099 164.227-68.441l43.984 12.697c8.86 2.559 18.114-2.552 20.67-11.41 2.558-8.859-2.551-18.114-11.41-20.67l-37.173-10.731c7.479-19.915 10.496-42.264 9.191-66.5l28.545-9.344c8.766-2.87 13.544-12.3 10.675-21.063zm-329.713 3.195c-12.198-.011-22.077-9.908-22.066-22.106s9.908-22.077 22.106-22.066 22.077 9.908 22.066 22.106-9.908 22.077-22.106 22.066zm168.577.146c-12.198-.011-22.077-9.908-22.066-22.106s9.908-22.077 22.106-22.066 22.077 9.908 22.066 22.106-9.908 22.077-22.106 22.066z" fill="#616161"/><g/><g/><g/><g/><g/><g/><g/><g/><g/><g/><g/><g/><g/><g/><g/></svg>
