<?xml version="1.0" encoding="iso-8859-1"?>
<!-- Generator: Adobe Illustrator 19.0.0, SVG Export Plug-In . SVG Version: 6.00 Build 0)  -->
<svg xmlns="http://www.w3.org/2000/svg" xmlns:xlink="http://www.w3.org/1999/xlink" version="1.1" id="Layer_1" x="0px" y="0px" viewBox="0 0 512 512" style="enable-background:new 0 0 512 512;" xml:space="preserve" width="512px" height="512px">
<g>
	<g>
		<path d="M503.731,92.582l-35.537-17.754L450.44,39.291c-5.068-10.166-21.768-10.166-26.836,0L405.85,74.828l-35.537,17.754    c-11.025,5.497-11.025,21.339,0,26.836l35.537,17.754l17.754,35.537c5.497,11.025,21.339,11.025,26.836,0l17.754-35.537    l35.537-17.754C514.756,113.921,514.756,98.079,503.731,92.582z" fill="#616161"/>
	</g>
</g>
<g>
	<g>
		<path d="M141.687,60.915L106.15,43.161L88.396,7.625c-5.068-10.166-21.768-10.166-26.836,0L43.806,43.162L8.269,60.916    c-11.025,5.497-11.025,21.339,0,26.836l35.537,17.754l17.754,35.537c5.496,11.024,21.339,11.024,26.836-0.001l17.754-35.537    l35.537-17.754C152.712,82.254,152.712,66.412,141.687,60.915z" fill="#616161"/>
	</g>
</g>
<g>
	<g>
		<path d="M301,126.451V106c0-19.53-12.578-36.024-30-42.237V15c0-8.291-6.709-15-15-15c-8.291,0-15,6.709-15,15v48.763    C223.578,69.976,211,86.47,211,106v20.451C124.003,147.116,61,225.447,61,316c0,106.284,86.766,196,195,196    c108.179,0,195-89.645,195-196C451,225.661,388.204,147.166,301,126.451z M91.76,301c1.946-21.456,8.062-41.689,17.455-60h49.603    c-4.07,18.629-6.59,38.804-7.423,60H91.76z M128.82,421h38.339c5.814,17.164,12.969,32.52,21.323,45.394    C165.279,455.935,144.851,440.384,128.82,421z M241,391h-51.042c-4.438-17.981-7.244-38.119-8.201-60H241V391z M241,211h-41.512    c11.173-28.147,26.041-47.937,41.512-55.82V211z M271,476.82V421h41.512C301.339,449.147,286.471,468.937,271,476.82z M271,301    v-60h51.042c4.438,17.981,7.244,38.119,8.201,60H271z M323.518,165.606c23.203,10.459,43.63,26.01,59.661,45.394H344.84    C339.027,193.836,331.872,178.48,323.518,165.606z M353.182,391c4.07-18.629,6.59-38.804,7.423-60h59.636    c-1.947,21.456-8.063,41.689-17.456,60H353.182z" fill="#616161"/>
	</g>
</g>
<g>
</g>
<g>
</g>
<g>
</g>
<g>
</g>
<g>
</g>
<g>
</g>
<g>
</g>
<g>
</g>
<g>
</g>
<g>
</g>
<g>
</g>
<g>
</g>
<g>
</g>
<g>
</g>
<g>
</g>
</svg>
