<?xml version="1.0" encoding="iso-8859-1"?>
<!-- Generator: Adobe Illustrator 19.0.0, SVG Export Plug-In . SVG Version: 6.00 Build 0)  -->
<svg xmlns="http://www.w3.org/2000/svg" xmlns:xlink="http://www.w3.org/1999/xlink" version="1.1" id="Capa_1" x="0px" y="0px" viewBox="0 0 512 512" style="enable-background:new 0 0 512 512;" xml:space="preserve" width="512px" height="512px">
<g>
	<g>
		<g>
			<polygon points="242.242,337.063 269.762,337.063 255.997,295.788    " fill="#616161"/>
			<path d="M358.4,277.33h-8.533v34.133h8.533c9.412,0,17.067-7.654,17.067-17.067C375.467,284.984,367.812,277.33,358.4,277.33z" fill="#616161"/>
			<path d="M153.6,277.33h-17.067v34.133H153.6c9.412,0,17.067-7.654,17.067-17.067C170.667,284.984,163.012,277.33,153.6,277.33z" fill="#616161"/>
			<path d="M153.6,328.53h-17.067v34.133H153.6c9.412,0,17.067-7.654,17.067-17.067C170.667,336.184,163.012,328.53,153.6,328.53z" fill="#616161"/>
			<path d="M410.386,234.662h-308.77c-10.223,22.229-28.194,40.192-50.415,50.415v69.837c22.221,10.223,40.192,28.194,50.415,50.415     h308.77c10.223-22.221,28.186-40.192,50.415-50.415v-69.837C438.572,274.854,420.609,256.892,410.386,234.662z M187.734,345.596     c0,18.824-15.309,34.133-34.133,34.133h-25.6c-4.71,0-8.533-3.823-8.533-8.533v-51.2v-51.2c0-4.71,3.823-8.533,8.533-8.533h25.6     c18.825,0,34.133,15.317,34.133,34.133c0,10.24-4.634,19.336-11.793,25.6C183.101,326.259,187.734,335.356,187.734,345.596z      M292.831,379.294c-0.896,0.299-1.809,0.444-2.697,0.444c-3.576,0-6.903-2.27-8.098-5.837l-6.588-19.772h-38.895l-6.588,19.772     c-1.195,3.567-4.523,5.837-8.098,5.837c-0.896,0-1.801-0.145-2.697-0.444c-4.471-1.493-6.895-6.323-5.402-10.795l2.56-7.689     c2.133-6.391,4.267-12.783,6.4-19.183l8.286-24.858c2.748-8.252,5.495-16.495,8.252-24.747     c2.091-6.281,4.181-12.544,6.272-18.825c1.766-5.316,3.251-12.604,10.197-12.817c7.509-0.239,9.079,7.885,10.94,13.466     c2.099,6.281,4.19,12.561,6.281,18.833c2.714,8.132,5.419,16.265,8.132,24.388c2.714,8.149,5.427,16.299,8.141,24.448     l6.332,18.97c0.887,2.662,1.775,5.333,2.671,8.013C299.717,372.971,297.302,377.801,292.831,379.294z M390.555,365.734     c3.021,3.618,2.526,9.003-1.092,12.015c-1.596,1.331-3.533,1.98-5.461,1.98c-2.44,0-4.864-1.041-6.554-3.072l-27.58-33.092     v27.631c0,4.71-3.823,8.533-8.533,8.533c-4.71,0-8.533-3.823-8.533-8.533v-51.2v-51.2c0-4.71,3.823-8.533,8.533-8.533h17.067     c18.825,0,34.133,15.317,34.133,34.133c0,18.458-14.754,33.451-33.075,34.022L390.555,365.734z" fill="#616161"/>
			<path d="M503.467,243.2c-28.237,0-51.2-22.972-51.2-51.2c0-4.719-3.823-8.533-8.533-8.533h-14.319     c-13.551-9.728-85.769-61.406-131.26-90.351C295.646,71.979,277.811,55.467,256,55.467c-21.811,0-39.646,16.512-42.155,37.649     c-45.491,28.945-117.709,80.623-131.26,90.351H68.267c-4.71,0-8.533,3.814-8.533,8.533c0,28.228-22.963,51.2-51.2,51.2     c-4.71,0-8.533,3.814-8.533,8.533v136.533c0,4.71,3.823,8.533,8.533,8.533c28.237,0,51.2,22.963,51.2,51.2     c0,4.71,3.823,8.533,8.533,8.533h375.467c4.71,0,8.533-3.823,8.533-8.533c0-28.237,22.963-51.2,51.2-51.2     c4.71,0,8.533-3.823,8.533-8.533V251.733C512,247.014,508.177,243.2,503.467,243.2z M256,72.533c14.114,0,25.6,11.477,25.6,25.6     c0,14.114-11.486,25.6-25.6,25.6s-25.6-11.486-25.6-25.6C230.4,84.011,241.886,72.533,256,72.533z M215.876,112.094     C221.688,128.742,237.389,140.8,256,140.8s34.313-12.058,40.124-28.706c33.4,21.641,77.841,52.855,103.91,71.373H111.966     C138.035,164.949,182.477,133.734,215.876,112.094z M477.867,360.55c0,3.516-2.15,6.665-5.419,7.945     c-22.135,8.67-39.808,26.342-48.478,48.478c-1.28,3.277-4.429,5.427-7.945,5.427H95.974c-3.516,0-6.665-2.15-7.945-5.427     c-8.67-22.135-26.342-39.808-48.478-48.478c-3.268-1.28-5.419-4.429-5.419-7.945v-81.109c0-3.516,2.15-6.664,5.419-7.945     c22.135-8.67,39.808-26.342,48.478-48.478c1.28-3.268,4.429-5.419,7.945-5.419h320.051c3.516,0,6.665,2.15,7.945,5.419     c8.67,22.135,26.342,39.808,48.478,48.478c3.268,1.28,5.419,4.429,5.419,7.945V360.55z" fill="#616161"/>
		</g>
	</g>
</g>
<g>
</g>
<g>
</g>
<g>
</g>
<g>
</g>
<g>
</g>
<g>
</g>
<g>
</g>
<g>
</g>
<g>
</g>
<g>
</g>
<g>
</g>
<g>
</g>
<g>
</g>
<g>
</g>
<g>
</g>
</svg>
