<?xml version="1.0" encoding="iso-8859-1"?>
<!-- Generator: Adobe Illustrator 19.0.0, SVG Export Plug-In . SVG Version: 6.00 Build 0)  -->
<svg xmlns="http://www.w3.org/2000/svg" xmlns:xlink="http://www.w3.org/1999/xlink" version="1.1" id="Capa_1" x="0px" y="0px" viewBox="0 0 511.999 511.999" style="enable-background:new 0 0 511.999 511.999;" xml:space="preserve" width="512px" height="512px">
<g>
	<g>
		<path d="M490.528,1.324l-84.987,42.495c-5.095,2.542-8.31,7.748-8.31,13.433v36.27L168.473,322.278l-54.932-18.31    c-5.404-1.796-11.349-0.395-15.374,3.631l-84.986,84.987c-7.836,7.836-4.763,21.299,5.872,24.877l56.612,18.87l18.872,56.614    c3.571,10.613,16.994,13.757,24.877,5.872l84.987-84.987c4.025-4.025,5.427-9.97,3.631-15.376l-18.31-54.932l228.756-228.756    h36.268c5.685,0,10.893-3.217,13.435-8.31l42.494-84.987C516.464,9.915,502.086-4.463,490.528,1.324z" fill="#616161"/>
	</g>
</g>
<g>
	<g>
		<path d="M416.868,435.079c-1.966-1.964-4.109-3.633-6.318-5.159c29.84-78.828,18.546-167.569-28.728-236.002l-64.054,64.054    c38.55,57.332,50.406,125.097,50.983,167.008c-1.044,0.404-2.026,0.949-3.045,1.432L257.518,318.222l-21.246,21.246    L344.461,447.66c-7.94,16.738-5.164,37.328,8.668,51.16c17.575,17.573,46.166,17.573,63.74,0    C434.441,481.245,434.441,452.654,416.868,435.079z" fill="#616161"/>
	</g>
</g>
<g>
	<g>
		<path d="M254.027,194.232l64.054-64.054c-68.432-47.274-157.172-58.57-236-28.728c-1.525-2.209-3.195-4.354-5.159-6.318    c-17.575-17.575-46.166-17.575-63.74,0c-17.575,17.575-17.575,46.166,0,63.74c13.832,13.832,34.421,16.605,51.159,8.668    L172.53,275.729l21.248-21.248L85.587,146.291c0.483-1.016,1.031-1.999,1.434-3.043    C128.932,143.824,196.697,155.683,254.027,194.232z" fill="#616161"/>
	</g>
</g>
<g>
</g>
<g>
</g>
<g>
</g>
<g>
</g>
<g>
</g>
<g>
</g>
<g>
</g>
<g>
</g>
<g>
</g>
<g>
</g>
<g>
</g>
<g>
</g>
<g>
</g>
<g>
</g>
<g>
</g>
</svg>
