<?xml version="1.0" encoding="iso-8859-1"?>
<!-- Generator: Adobe Illustrator 19.0.0, SVG Export Plug-In . SVG Version: 6.00 Build 0)  -->
<svg xmlns="http://www.w3.org/2000/svg" xmlns:xlink="http://www.w3.org/1999/xlink" version="1.1" id="Capa_1" x="0px" y="0px" viewBox="0 0 512 512" style="enable-background:new 0 0 512 512;" xml:space="preserve" width="512px" height="512px">
<g>
	<g>
		<path d="M511.102,234.457c-4.438,1.47-9.177,2.277-14.102,2.277h-15.813c0.539,6.393,0.813,12.82,0.813,19.268    c0,22.707-3.381,44.637-9.641,65.329H348.415c1.922-21.05,2.916-42.974,2.916-65.329c0-6.464-0.09-12.888-0.256-19.268h-14.742    c-5.387,0-10.555-0.954-15.347-2.698c0.222,7.258,0.345,14.58,0.345,21.966c0,22.45-1.038,44.388-3.035,65.329H193.702    c-1.997-20.941-3.035-42.879-3.035-65.329c0-22.453,1.038-44.393,3.036-65.336h97.645c0.087-10.261,1.422-20.319,3.897-30h-97.924    c3.827-25.941,9.246-49.755,16.105-70.334C228.27,45.8,245.637,30,255.999,30c10.363,0,27.732,15.8,42.574,60.33    c3.863,11.591,7.269,24.208,10.191,37.653c6.05-10.228,13.551-19.6,22.327-27.795c-3.878-8.947-6.32-18.5-7.224-28.365    c-5.419-14.701-11.156-26.541-17.014-36.021c6.497,1.495,12.924,3.277,19.258,5.335c2.426-9.953,6.451-19.285,11.791-27.707    C311.637,4.587,283.92,0,255.999,0c-0.332,0-0.666,0.004-1.002,0.012c-68.005,0.26-131.9,26.854-180.016,74.969    C26.629,123.333,0,187.62,0,256.001c0,24.979,3.658,49.705,10.731,73.392c5.527-11.919,13.498-22.481,23.27-31.04    c-2.644-13.897-4-28.077-4-42.352c0-22.71,3.381-44.643,9.642-65.336h123.941c-1.923,21.052-2.917,42.978-2.917,65.336    c0,16.156,0.526,32.081,1.54,47.62c16.284,16.789,26.327,39.664,26.327,64.846c0,12.92-2.627,25.455-7.626,36.989    c25.048,23.392,39.759,56.335,39.759,91.544c0,4.273-0.612,8.406-1.73,12.326C231.147,511.097,243.52,512,256,512    c0.331,0,0.666-0.005,1.002-0.013c68.005-0.259,131.902-26.853,180.018-74.97C485.372,388.666,512,324.379,512,256.001    C512,248.794,511.699,241.606,511.102,234.457z M184.965,80.844c-7.776,23.33-13.816,50.406-17.932,79.821H51.124    c29.074-62.229,85.671-109.125,154.045-124.9C198.148,47.119,191.299,61.845,184.965,80.844z M255.999,482    c-10.361,0-27.729-15.801-42.572-60.332c-6.86-20.58-12.279-44.396-16.105-70.338h117.357    c-3.827,25.942-9.246,49.758-16.105,70.338C283.73,466.199,266.362,482,255.999,482z M306.831,476.235    c7.022-11.354,13.87-26.08,20.203-45.08c7.776-23.33,13.816-50.408,17.931-79.824h115.914    C431.805,413.561,375.207,460.458,306.831,476.235z" fill="#616161"/>
	</g>
</g>
<g>
	<g>
		<path d="M140.213,412.912c11.316-11.426,18.32-27.132,18.32-44.445c0-34.85-28.352-63.2-63.201-63.2s-63.2,28.351-63.2,63.2    c0,17.314,7.003,33.02,18.32,44.445C20.453,428.989,0,460.649,0,497c0,8.283,6.716,15,15,15h160.667c8.283,0,15-6.717,15-15    C190.667,460.649,170.213,428.989,140.213,412.912z" fill="#616161"/>
	</g>
</g>
<g>
	<g>
		<path d="M461.546,107.646c11.316-11.426,18.319-27.132,18.319-44.445c0-34.849-28.352-63.2-63.199-63.2    c-34.849,0-63.199,28.352-63.199,63.2c0,17.313,7.002,33.019,18.318,44.445c-29.999,16.076-50.453,47.736-50.453,84.088    c0,8.284,6.717,15,15,15H497c8.283,0,15-6.716,15-15C512,155.382,491.546,123.722,461.546,107.646z" fill="#616161"/>
	</g>
</g>
<g>
</g>
<g>
</g>
<g>
</g>
<g>
</g>
<g>
</g>
<g>
</g>
<g>
</g>
<g>
</g>
<g>
</g>
<g>
</g>
<g>
</g>
<g>
</g>
<g>
</g>
<g>
</g>
<g>
</g>
</svg>
