<?xml version="1.0" encoding="iso-8859-1"?>
<!-- Generator: Adobe Illustrator 19.0.0, SVG Export Plug-In . SVG Version: 6.00 Build 0)  -->
<svg xmlns="http://www.w3.org/2000/svg" xmlns:xlink="http://www.w3.org/1999/xlink" version="1.1" id="Capa_1" x="0px" y="0px" viewBox="0 0 511.949 511.949" style="enable-background:new 0 0 511.949 511.949;" xml:space="preserve" width="512px" height="512px">
<g>
	<g>
		<g>
			<path d="M289.901,483.74l-21.986,0.601l-0.254,0.005c-5-0.002-9.071-4.02-9.138-9.02c-0.067-5,3.895-9.126,8.893-9.262     l14.85-0.408c-3.116-6.819-6.333-13.579-9.813-20.181l-21.934,2.911c-0.403,0.053-0.808,0.08-1.214,0.08     c-4.813-0.007-8.796-3.745-9.109-8.547c-0.313-4.803,3.151-9.026,7.922-9.658l14.633-1.941     c-3.826-6.465-7.865-12.776-12.036-18.997l-21.244,5.126c-4.909,1.183-9.848-1.837-11.031-6.746s1.837-9.848,6.746-11.031     l14.16-3.417c-4.469-6.009-9.069-11.902-13.857-17.643l-20.504,7.284c-4.759,1.691-9.987-0.795-11.679-5.554     c-1.691-4.759,0.795-9.987,5.554-11.679l13.801-4.901c-5.08-5.507-10.301-10.872-15.664-16.093l-19.669,9.405     c-4.556,2.178-10.016,0.251-12.194-4.306c-2.178-4.556-0.251-10.016,4.306-12.194l13.025-6.227     c-5.612-4.937-11.352-9.724-17.222-14.361l-18.419,11.316c-2.784,1.739-6.287,1.852-9.177,0.295     c-2.89-1.556-4.725-4.542-4.806-7.823c-0.081-3.281,1.602-6.355,4.412-8.052l12.301-7.559     c-6.074-4.34-12.233-8.555-18.544-12.558l-17.231,13.251c-2.589,1.99-6.043,2.449-9.061,1.202     c-3.018-1.247-5.142-4.009-5.571-7.246s0.901-6.457,3.489-8.448l11.605-8.927c-6.499-3.696-13.147-7.139-19.855-10.477     l-15.808,15.033c-2.365,2.261-5.758,3.086-8.897,2.162c-3.139-0.923-5.545-3.454-6.309-6.636     c-0.764-3.182,0.231-6.529,2.608-8.777l10.555-10.039c-6.833-2.992-13.758-5.797-20.774-8.414l-14.161,16.618     c-2.11,2.514-5.406,3.705-8.636,3.119s-5.898-2.859-6.99-5.954c-1.092-3.096-0.441-6.539,1.706-9.022l9.577-11.239     c-12.011-3.821-24.268-7.006-36.698-9.692c-8.024,121.657,71.173,231.981,189.005,263.292c8.094,2.28,16.321,4.059,24.634,5.326     c4.089,0.741,7.978,1.201,11.875,1.665c1.23,0.211,2.475,0.326,3.723,0.344l1.214,0.08c5.16,0.661,10.356,1.014,15.558,1.058     l0.205,0.004l0.196-0.049l1.299,0.054c16.86,0.639,33.74-0.496,50.362-3.384c-1.365-4.22-2.809-8.528-4.372-12.95     C292.923,490.894,291.341,487.354,289.901,483.74z" fill="#616161"/>
			<path d="M511.827,248.9l-0.018-0.576l0.049-0.58l-0.17-0.835l0.049-0.728c-0.088-5.109-0.446-10.21-1.071-15.281l-0.067-1.103     c-0.013-1.072-0.113-2.141-0.299-3.196c-0.446-4.254-0.982-8.147-1.67-11.893c-1.32-8.419-3.157-16.748-5.5-24.942     c-11.526-43.183-34.3-82.537-66-114.045C374.696,13.129,284.272-12.614,198.233,7.707c4.54,12.53,9.577,24.809,15.285,36.71     l9.818-11.072c3.364-3.718,9.096-4.033,12.847-0.705s4.122,9.056,0.832,12.839l-14.496,16.348     c3.569,6.578,7.31,13.044,11.223,19.398l8.479-11.858c1.893-2.675,5.073-4.132,8.335-3.82c3.262,0.312,6.107,2.346,7.458,5.332     c1.351,2.985,1.001,6.466-0.918,9.122l-12.689,17.744c4.236,6.182,8.576,12.284,13.138,18.208l7.224-12.733     c2.49-4.391,8.069-5.932,12.46-3.442c4.391,2.49,5.932,8.069,3.442,12.46l-10.752,18.956c4.841,5.694,9.88,11.2,15.022,16.612     l5.792-13.282c2.052-4.573,7.404-6.641,11.998-4.637s6.718,7.334,4.761,11.949l-8.656,19.846     c5.397,5.175,10.938,10.193,16.623,15.052l4.363-13.787c1.524-4.815,6.662-7.484,11.478-5.96     c4.815,1.524,7.484,6.662,5.96,11.478l-6.581,20.795c5.92,4.584,11.936,9.047,18.107,13.3l2.948-14.39     c1.013-4.946,5.844-8.134,10.79-7.121c4.946,1.013,8.134,5.844,7.121,10.79l-4.368,21.337     c6.354,3.939,12.834,7.669,19.409,11.256l1.414-14.513c0.5-5.017,4.967-8.681,9.985-8.191c5.018,0.49,8.691,4.95,8.212,9.968     l-2.118,21.743c6.74,3.259,13.55,6.377,20.485,9.263l-0.112-14.743c-0.037-5.048,4.024-9.171,9.071-9.21h0.071     c5.023,0.002,9.104,4.053,9.143,9.076l0.168,22.101c7.02,2.523,14.161,4.76,21.345,6.895l-1.66-14.723     c-0.391-3.258,0.994-6.476,3.629-8.431c2.635-1.956,6.116-2.349,9.121-1.031s5.073,4.145,5.419,7.409l2.462,21.816     c3.819,0.932,7.583,2.015,11.44,2.836c5.924,1.271,12.266,2.398,18.869,3.472C511.937,261.674,512.061,255.228,511.827,248.9z" fill="#616161"/>
			<path d="M477.742,279.803l-11.491,19.561c-2.567,4.338-8.159,5.781-12.504,3.227c-4.345-2.554-5.805-8.142-3.263-12.495     l8.845-15.053c-8.041-2.34-16.015-4.849-23.86-7.655l-13.368,18.109c-2.998,4.063-8.723,4.927-12.786,1.929     s-4.927-8.722-1.929-12.786l10.474-14.188c-7.723-3.18-15.336-6.575-22.839-10.186l-15.385,16.829     c-3.41,3.714-9.184,3.967-12.906,0.565c-3.722-3.402-3.988-9.175-0.595-12.904l11.966-13.086     c-7.364-3.939-14.592-8.096-21.684-12.473l-17.09,15.157c-2.438,2.206-5.873,2.933-8.995,1.904s-5.453-3.655-6.102-6.878     s0.482-6.547,2.963-8.704l13.221-11.725c-6.894-4.694-13.61-9.63-20.209-14.718l-18.592,13.292     c-2.657,1.919-6.137,2.269-9.122,0.918s-5.02-4.196-5.332-7.458c-0.312-3.262,1.145-6.442,3.82-8.335l14.551-10.405     c-6.366-5.38-12.57-10.944-18.613-16.69L266.92,186.9c-2.843,1.641-6.347,1.633-9.181-0.022     c-2.835-1.655-4.564-4.702-4.532-7.985c0.032-3.282,1.821-6.295,4.687-7.895l15.488-8.786     c-5.784-6.016-11.424-12.169-16.849-18.522l-20.925,9.125c-3.001,1.347-6.494,0.978-9.147-0.966     c-2.653-1.944-4.058-5.163-3.678-8.43s2.484-6.079,5.513-7.363l16.276-7.098c-5.124-6.575-10.023-13.325-14.76-20.208     l-21.776,6.895c-0.893,0.287-1.825,0.433-2.763,0.433c-4.509-0.005-8.341-3.295-9.028-7.751     c-0.687-4.456,1.976-8.748,6.274-10.111l16.929-5.361c-4.42-7.065-8.629-14.274-12.626-21.626l-22.324,4.567     c-0.605,0.126-1.221,0.189-1.839,0.188c-4.69-0.006-8.615-3.56-9.085-8.226s2.669-8.932,7.264-9.872l17.125-3.506     c-6.584-13.665-12.419-27.678-17.479-41.978c-0.283,0.091-0.586,0.143-0.869,0.238l-0.362,0.379l-2.772,0.701     c-1.72,0.419-3.414,0.941-5.071,1.563c-1.902,0.679-3.799,1.357-5.625,2.116c-2.018,0.741-3.652,1.326-5.21,1.991     C95.944,45.212,44.648,96.283,18.541,160.797c-0.632,1.363-1.173,2.766-1.621,4.201l-0.459,1.299     c-0.786,1.781-1.429,3.567-2.076,5.353c-0.5,1.491-1.018,3.027-1.46,4.643c-1.835,5.366-3.054,9.433-4.009,13.397     c-0.629,1.987-0.969,3.277-1.312,4.567c-2.152,8.766-3.847,17.637-5.08,26.578c14.337,2.987,28.508,6.727,42.452,11.204     l1.092-17.492c0.204-3.26,2.132-6.164,5.057-7.617c2.925-1.453,6.404-1.235,9.125,0.571c2.721,1.807,4.272,4.928,4.068,8.188     l-1.422,22.758c7.829,2.943,15.552,6.109,23.17,9.498l2.958-17.532c0.841-4.978,5.558-8.332,10.536-7.491     c4.978,0.841,8.332,5.558,7.491,10.536l-3.799,22.527c7.472,3.735,14.838,7.647,22.06,11.808l4.771-17.112     c1.385-4.829,6.406-7.636,11.245-6.287s7.684,6.349,6.371,11.198l-6.147,22.049c7.042,4.489,13.919,9.21,20.677,14.101     l6.568-16.614c1.194-3.048,3.927-5.226,7.165-5.709c3.238-0.483,6.487,0.801,8.52,3.368s2.538,6.024,1.325,9.065l-8.47,21.426     c6.529,5.178,12.901,10.546,19.114,16.103l8.298-15.89c1.512-2.896,4.454-4.765,7.718-4.903c3.264-0.138,6.353,1.475,8.105,4.232     c1.752,2.757,1.899,6.24,0.387,9.135l-10.587,20.28c5.955,5.824,11.778,11.787,17.386,17.957l9.776-14.737     c1.803-2.727,4.926-4.284,8.189-4.083c3.264,0.201,6.171,2.129,7.626,5.057c1.455,2.928,1.236,6.41-0.575,9.133l-12.654,19.071     c5.305,6.42,10.429,12.993,15.371,19.72l11.31-13.685c3.218-3.893,8.982-4.441,12.875-1.223s4.441,8.982,1.223,12.875     l-14.529,17.579c4.634,6.914,9.058,13.978,13.273,21.19l12.582-12.336c2.33-2.295,5.709-3.17,8.86-2.295     c3.151,0.875,5.595,3.366,6.409,6.534c0.814,3.168-0.126,6.529-2.466,8.814l-16.071,15.755     c3.874,7.378,7.476,14.922,10.917,22.558l13.659-10.835c3.956-3.121,9.691-2.453,12.823,1.494     c3.132,3.947,2.481,9.684-1.457,12.827l-17.74,14.075c1.419,3.579,2.989,7.078,4.311,10.706     c1.888,5.346,3.585,10.482,5.187,15.508c1.86-0.444,3.62-0.819,5.581-1.329c7.185-1.849,14.272-4.064,21.232-6.634     c7.153-2.514,14.16-5.428,20.987-8.728c54.31-25.17,98.01-68.677,123.419-122.875c3.343-6.848,6.294-13.88,8.839-21.063     c2.583-6.951,4.812-14.029,6.679-21.205c2.112-8.071,3.652-15.223,4.705-21.87c0.814-4.607,1.482-9.188,2.04-13.744     c-7.444-1.187-14.563-2.438-21.2-3.867C485.162,281.775,481.482,280.708,477.742,279.803z" fill="#616161"/>
		</g>
	</g>
</g>
<g>
</g>
<g>
</g>
<g>
</g>
<g>
</g>
<g>
</g>
<g>
</g>
<g>
</g>
<g>
</g>
<g>
</g>
<g>
</g>
<g>
</g>
<g>
</g>
<g>
</g>
<g>
</g>
<g>
</g>
</svg>
