<?xml version="1.0" encoding="iso-8859-1"?>
<!-- Generator: Adobe Illustrator 19.0.0, SVG Export Plug-In . SVG Version: 6.00 Build 0)  -->
<svg xmlns="http://www.w3.org/2000/svg" xmlns:xlink="http://www.w3.org/1999/xlink" version="1.1" id="Capa_1" x="0px" y="0px" viewBox="0 0 512 512" style="enable-background:new 0 0 512 512;" xml:space="preserve" width="512px" height="512px">
<g>
	<g>
		<path d="M302.369,118.417L140.825,358.594c19.032,16.139,41.808,27.815,66.604,34.418l162.09-240.99    C350.259,136.129,327.3,124.724,302.369,118.417z" fill="#616161"/>
	</g>
</g>
<g>
	<g>
		<path d="M497,149.89c-37.594,0-70.682,19.653-89.535,49.223c-4.421-8.9-9.906-17.402-16.38-25.401L239.809,398.625    c5.348,0.45,10.75,0.678,16.191,0.678c43.612,0,84.717-14.626,115.743-41.184c15.393-13.176,27.415-28.512,35.722-45.233    c18.854,29.57,51.941,49.223,89.535,49.223h15V149.89H497z" fill="#616161"/>
	</g>
</g>
<g>
	<g>
		<path d="M256,112.697c-43.612,0-84.717,14.626-115.743,41.184c-15.393,13.176-27.415,28.512-35.722,45.233    C85.681,169.544,52.594,149.89,15,149.89H0v212.22h15c37.594,0,70.681-19.653,89.535-49.223    c4.099,8.251,9.107,16.163,14.974,23.647l150.218-223.341C265.184,112.87,260.607,112.697,256,112.697z" fill="#616161"/>
	</g>
</g>
<g>
</g>
<g>
</g>
<g>
</g>
<g>
</g>
<g>
</g>
<g>
</g>
<g>
</g>
<g>
</g>
<g>
</g>
<g>
</g>
<g>
</g>
<g>
</g>
<g>
</g>
<g>
</g>
<g>
</g>
</svg>
