<?xml version="1.0" encoding="iso-8859-1"?>
<!-- Generator: Adobe Illustrator 19.0.0, SVG Export Plug-In . SVG Version: 6.00 Build 0)  -->
<svg xmlns="http://www.w3.org/2000/svg" xmlns:xlink="http://www.w3.org/1999/xlink" version="1.1" id="Capa_1" x="0px" y="0px" viewBox="0 0 512 512" style="enable-background:new 0 0 512 512;" xml:space="preserve" width="512px" height="512px">
<g>
	<g>
		<g>
			<circle cx="213.333" cy="117.333" r="10.667" fill="#616161"/>
			<circle cx="298.667" cy="117.333" r="10.667" fill="#616161"/>
			<path d="M53.333,149.342c2.742,0,57.234-0.361,96.643-20.73c-0.217,3.358-0.643,6.73-0.643,10.063     c0,61.91,37.875,96.006,106.667,96.006s106.667-34.096,106.667-96.006c0-3.339-0.426-6.714-0.645-10.076     c39.426,20.384,93.919,20.743,96.645,20.743c5.896,0,10.667-4.771,10.667-10.667c0-60.097-48.958-96.006-96.271-96.006     c-12.079,0-24.932,2.445-37.063,6.787C315.438,18.292,286.316,0,256,0c-30.339,0-59.465,18.303-80.027,49.484     c-12.139-4.36-24.982-6.814-37.035-6.814c-47.313,0-96.271,35.908-96.271,96.006c0,2.834,1.125,5.542,3.125,7.542     S50.5,149.342,53.333,149.342z M180.625,86.771c4.02,4.762,9.578,9.235,18.438,9.235c12.813,0,19-9.271,23.083-15.418     c5.542-8.25,5.083-8.407,10.667-0.01c4.083,6.146,10.25,15.428,23.063,15.428s19-9.282,23.104-15.418     c5.625-8.417,5.188-8.282,10.729,0.01c4.104,6.136,10.291,15.407,23.125,15.407c8.892,0,14.483-4.505,18.517-9.288     c6.466,16.577,9.983,34.528,9.983,51.958c0,50.243-27.917,74.671-85.333,74.671s-85.333-24.429-85.333-74.671     C170.667,121.274,174.177,103.341,180.625,86.771z" fill="#616161"/>
			<path d="M216.458,163.135c-4.167,4.167-4.167,10.917,0,15.084c1.417,1.417,14.521,13.792,39.542,13.792     s38.125-12.376,39.542-13.792c4.125-4.115,4.104-10.709,0.063-14.897c-4.063-4.188-10.792-4.302-15.021-0.313     c-0.333,0.313-8.375,7.667-24.583,7.667c-16,0-24.063-7.177-24.563-7.646C227.292,158.978,220.604,158.999,216.458,163.135z" fill="#616161"/>
			<path d="M411.042,333.083c8.104,5.407,17.542,8.271,27.292,8.271h3.104c27.146,0,49.229-22.095,49.229-49.243     c0-19.72-11.708-37.481-29.833-45.253l-19.667-8.428l-67.146-28.773c-4.521-1.938-9.667-0.583-12.667,3.292     c-21.708,28.168-58.146,43.065-105.354,43.065s-83.646-14.897-105.354-43.065c-3-3.875-8.188-5.229-12.667-3.292l-66.271,28.398     l-20.542,8.803c-18.125,7.771-29.833,25.533-29.833,45.253c0,27.148,22.083,49.243,49.229,49.243h3.104     c9.75,0,19.188-2.865,27.292-8.271l22.292-14.855l30.583-20.387l-23.19,46.374c-16.244,0.689-32.115,6.644-44.622,19.161     c-29.313,29.304-29.313,76.994,0,106.309c14.333,14.324,39.771,28.606,64.813,36.356c12.854,3.99,24.646,5.959,35.063,5.959     c15.292,0,27.646-4.25,36.063-12.678c4.025-4.024,6.848-8.809,8.747-14.099c8.193,3.487,16.732,5.473,25.294,5.473     c8.57,0,17.12-1.988,25.324-5.485c1.891,5.309,4.704,10.098,8.717,14.11C298.458,507.75,310.813,512,326.104,512     c10.417,0,22.208-1.969,35.063-5.959c25.042-7.75,50.479-22.033,64.813-36.356c29.313-29.314,29.313-77.005,0-106.309     c-12.617-12.628-28.592-18.851-44.911-19.741l-22.901-45.805l29.813,19.876L411.042,333.083z M440.66,261.426l11.757,5.038     c10.271,4.407,16.917,14.47,16.917,25.647c0,15.386-12.521,27.908-27.896,27.908h-3.104c-5.521,0-10.854-1.615-15.458-4.688     l-13.924-9.283L440.66,261.426z M89.125,315.332c-4.604,3.073-9.938,4.688-15.458,4.688h-3.104     c-15.375,0-27.896-12.522-27.896-27.908c0-11.178,6.646-21.241,16.917-25.647l12.414-5.319l30.496,45.279L89.125,315.332z      M191.521,468.852c-1.063,0.25-2.875,0.51-5.479,0.51c-22.146,0-56.333-16.324-69.854-29.846     c-12.667-12.678-12.667-33.294,0-45.961c6.146-6.146,14.313-9.532,22.979-9.532c8.667,0,16.833,3.386,22.979,9.521     c6.479,6.48,18.688,24.418,25.771,47.274C192.792,456.57,192.25,465.664,191.521,468.852z M277.458,463.601     c-13.875,7.563-29.104,7.563-42.896,0c0.056-9.7-1.65-19.505-4.068-28.687c8.052,1.563,16.527,2.445,25.88,2.445     c9.043,0,17.27-0.814,25.091-2.276C279.078,444.211,277.404,453.957,277.458,463.601z M372.833,384.023     c8.667,0,16.833,3.386,22.979,9.521c12.667,12.678,12.667,33.294,0,45.972c-13.521,13.522-47.688,29.846-69.854,29.846     c-3.125,0-5.083-0.375-5.333,0.031c-0.771-2.583-1.729-11.803,3.458-28.575c7.083-22.856,19.292-40.794,25.771-47.263     C356,387.409,364.167,384.023,372.833,384.023z" fill="#616161"/>
		</g>
	</g>
</g>
<g>
</g>
<g>
</g>
<g>
</g>
<g>
</g>
<g>
</g>
<g>
</g>
<g>
</g>
<g>
</g>
<g>
</g>
<g>
</g>
<g>
</g>
<g>
</g>
<g>
</g>
<g>
</g>
<g>
</g>
</svg>
