<?xml version="1.0" encoding="iso-8859-1"?>
<!-- Generator: Adobe Illustrator 19.0.0, SVG Export Plug-In . SVG Version: 6.00 Build 0)  -->
<svg xmlns="http://www.w3.org/2000/svg" xmlns:xlink="http://www.w3.org/1999/xlink" version="1.1" id="Capa_1" x="0px" y="0px" viewBox="0 0 512 512" style="enable-background:new 0 0 512 512;" xml:space="preserve" width="512px" height="512px">
<g>
	<g>
		<g>
			<polygon points="294.036,218.764 217.964,218.764 190.036,246.691 321.964,246.691    " fill="#616161"/>
			<rect x="223.418" y="134.982" width="65.164" height="65.164" fill="#616161"/>
			<polygon points="204.8,129.527 176.873,101.6 176.873,233.527 204.8,205.6    " fill="#616161"/>
			<rect x="46.545" y="134.982" width="65.164" height="65.164" fill="#616161"/>
			<polygon points="117.164,116.364 145.091,88.436 13.164,88.436 41.091,116.364    " fill="#616161"/>
			<rect x="400.291" y="311.855" width="65.164" height="65.164" fill="#616161"/>
			<rect x="223.418" y="311.855" width="65.164" height="65.164" fill="#616161"/>
			<polygon points="470.909,293.236 498.836,265.309 366.909,265.309 394.836,293.236    " fill="#616161"/>
			<polygon points="321.964,265.309 190.036,265.309 217.964,293.236 294.036,293.236    " fill="#616161"/>
			<polygon points="294.036,116.364 321.964,88.436 190.036,88.436 217.964,116.364    " fill="#616161"/>
			<polygon points="307.2,205.6 335.127,233.527 335.127,101.6 307.2,129.527    " fill="#616161"/>
			<polygon points="27.927,129.527 0,101.6 0,233.527 27.927,205.6    " fill="#616161"/>
			<polygon points="484.073,306.4 484.073,382.473 512,410.4 512,278.473    " fill="#616161"/>
			<polygon points="394.836,395.636 366.909,423.564 498.836,423.564 470.909,395.636    " fill="#616161"/>
			<polygon points="307.2,382.473 335.127,410.4 335.127,278.473 307.2,306.4    " fill="#616161"/>
			<polygon points="381.673,306.4 353.745,278.473 353.745,410.4 381.673,382.473    " fill="#616161"/>
			<polygon points="217.964,395.636 190.036,423.564 321.964,423.564 294.036,395.636    " fill="#616161"/>
			<polygon points="130.327,205.6 158.255,233.527 158.255,101.6 130.327,129.527    " fill="#616161"/>
			<polygon points="41.091,218.764 13.164,246.691 145.091,246.691 117.164,218.764    " fill="#616161"/>
			<polygon points="204.8,306.4 176.873,278.473 176.873,410.4 204.8,382.473    " fill="#616161"/>
		</g>
	</g>
</g>
<g>
</g>
<g>
</g>
<g>
</g>
<g>
</g>
<g>
</g>
<g>
</g>
<g>
</g>
<g>
</g>
<g>
</g>
<g>
</g>
<g>
</g>
<g>
</g>
<g>
</g>
<g>
</g>
<g>
</g>
</svg>
