<?xml version="1.0" encoding="iso-8859-1"?>
<!-- Generator: Adobe Illustrator 19.0.0, SVG Export Plug-In . SVG Version: 6.00 Build 0)  -->
<svg xmlns="http://www.w3.org/2000/svg" xmlns:xlink="http://www.w3.org/1999/xlink" version="1.1" id="Capa_1" x="0px" y="0px" viewBox="0 0 512 512" style="enable-background:new 0 0 512 512;" xml:space="preserve" width="512px" height="512px">
<g>
	<g>
		<path d="M256,0C114.624,0,0,114.624,0,256s114.624,256,256,256s256-114.624,256-256S397.376,0,256,0z M256,416    c-88.352,0-160-71.648-160-160S167.648,96,256,96s160,71.648,160,160S344.352,416,256,416z" fill="#616161"/>
	</g>
</g>
<g>
	<g>
		<path d="M300.64,256c11.904-10.176,19.36-24.32,19.36-40c0-30.88-28.704-56-64-56s-64,25.12-64,56c0,15.68,7.456,29.824,19.36,40    C199.456,266.176,192,280.32,192,296c0,30.88,28.704,56,64,56s64-25.12,64-56C320,280.32,312.544,266.176,300.64,256z M256,320    c-17.344,0-32-11.008-32-24c0-13.024,14.656-24,32-24s32,10.976,32,24C288,308.992,273.344,320,256,320z M256,240    c-17.344,0-32-10.976-32-24s14.656-24,32-24s32,10.976,32,24S273.344,240,256,240z" fill="#616161"/>
	</g>
</g>
<g>
</g>
<g>
</g>
<g>
</g>
<g>
</g>
<g>
</g>
<g>
</g>
<g>
</g>
<g>
</g>
<g>
</g>
<g>
</g>
<g>
</g>
<g>
</g>
<g>
</g>
<g>
</g>
<g>
</g>
</svg>
