<?xml version="1.0" encoding="iso-8859-1"?>
<!-- Generator: Adobe Illustrator 19.0.0, SVG Export Plug-In . SVG Version: 6.00 Build 0)  -->
<svg xmlns="http://www.w3.org/2000/svg" xmlns:xlink="http://www.w3.org/1999/xlink" version="1.1" id="Capa_1" x="0px" y="0px" viewBox="0 0 512 512" style="enable-background:new 0 0 512 512;" xml:space="preserve" width="512px" height="512px">
<g>
	<g>
		<g>
			<path d="M275.938,318.145c75.244-12.632,129.396-94.668,129.396-168.811C405.333,66.99,338.344,0,256,0     S106.667,66.99,106.667,149.333c0,74.143,54.152,156.18,129.396,168.811l-20.594,27.46c-2.427,3.229-2.813,7.552-1.01,11.167     c1.813,3.615,5.5,5.896,9.542,5.896h20.535c-1.46,9.069-4.767,14.905-8.462,21.375C230.417,393.948,224,405.167,224,426.667     s6.417,32.719,12.073,42.625c4.969,8.698,9.26,16.208,9.26,32.042c0,5.896,4.771,10.667,10.667,10.667     s10.667-4.771,10.667-10.667c0-21.5-6.417-32.719-12.073-42.625c-4.969-8.698-9.26-16.208-9.26-32.042s4.292-23.344,9.26-32.042     c4.604-8.064,9.521-17.316,11.262-31.958H288c4.042,0,7.729-2.281,9.542-5.896c1.802-3.615,1.417-7.938-1.01-11.167     L275.938,318.145z M218.083,72.885c-26.156,13.042-43.688,38.063-46.885,66.958c-0.604,5.458-5.229,9.49-10.594,9.49     c-0.385,0-0.792-0.021-1.188-0.063c-5.854-0.656-10.073-5.927-9.427-11.781c4.01-36.125,25.906-67.417,58.573-83.688     c5.323-2.635,11.677-0.479,14.313,4.781C225.5,63.854,223.354,70.26,218.083,72.885z" fill="#616161"/>
			<path d="M512,213.333c0-45.927-29.552-86.5-73.542-100.948c-3.531-1.146-7.385-0.417-10.208,1.979     c-2.833,2.396-4.219,6.073-3.677,9.729c1.427,9.552,2.094,17.573,2.094,25.24c0,57.292-29.427,118.479-74.958,155.896     c-2.51,2.063-3.948,5.167-3.896,8.417c0.052,3.26,1.594,6.313,4.177,8.292c11.639,8.922,24.233,14.703,37.052,17.458     l-3.917,7.833c-1.656,3.302-1.479,7.229,0.469,10.375c1.948,3.146,5.375,5.063,9.073,5.063h1.139     c2.223,10.451,7.424,17.113,11.861,22.667c5.021,6.271,8.333,10.406,8.333,20s-3.313,13.729-8.333,20     c-5.792,7.25-13,16.26-13,33.333c0,5.896,4.771,10.667,10.667,10.667c5.896,0,10.667-4.771,10.667-10.667     c0-9.594,3.313-13.729,8.333-20c5.792-7.25,13-16.26,13-33.333c0-17.073-7.208-26.083-13-33.333     c-2.784-3.477-4.956-6.374-6.417-9.832c2.901-0.559,5.568-1.999,7.156-4.564c1.948-3.146,2.125-7.073,0.469-10.375l-3.932-7.865     C472.896,328.099,512,265.865,512,213.333z" fill="#616161"/>
			<path d="M171.375,313.5c-51.458-35.938-86.042-101.917-86.042-164.167c0-21.708,4.167-43.063,12.375-63.479     c1.573-3.906,0.698-8.375-2.229-11.396c-2.958-3.042-7.417-4.063-11.323-2.604C33.823,90.24,0,138.521,0,192     c0,63.688,47.595,136.75,111.526,147.762l-3.734,7.467c-1.656,3.302-1.479,7.229,0.469,10.375c1.716,2.771,4.65,4.345,7.835,4.74     c-1.509,6.232-4.279,10.702-7.637,15.74C102.906,386.406,96,396.771,96,416c0,19.229,6.906,29.594,12.458,37.917     c4.958,7.438,8.875,13.313,8.875,26.083c0,5.896,4.771,10.667,10.667,10.667s10.667-4.771,10.667-10.667     c0-19.229-6.906-29.594-12.458-37.917c-4.958-7.438-8.875-13.313-8.875-26.083c0-12.771,3.917-18.646,8.875-26.083     c4.401-6.598,9.504-14.688,11.492-27.25h0.966c3.698,0,7.125-1.917,9.073-5.063c1.948-3.146,2.125-7.073,0.469-10.375     l-3.867-7.736c8.494-1.493,16.967-3.742,25.326-7.525c3.5-1.583,5.875-4.917,6.229-8.74     C176.25,319.417,174.521,315.698,171.375,313.5z" fill="#616161"/>
		</g>
	</g>
</g>
<g>
</g>
<g>
</g>
<g>
</g>
<g>
</g>
<g>
</g>
<g>
</g>
<g>
</g>
<g>
</g>
<g>
</g>
<g>
</g>
<g>
</g>
<g>
</g>
<g>
</g>
<g>
</g>
<g>
</g>
</svg>
