<?xml version="1.0" encoding="iso-8859-1"?>
<!-- Generator: Adobe Illustrator 19.0.0, SVG Export Plug-In . SVG Version: 6.00 Build 0)  -->
<svg xmlns="http://www.w3.org/2000/svg" xmlns:xlink="http://www.w3.org/1999/xlink" version="1.1" id="Capa_1" x="0px" y="0px" viewBox="0 0 511.997 511.997" style="enable-background:new 0 0 511.997 511.997;" xml:space="preserve" width="512px" height="512px">
<g>
	<g>
		<path d="M510.646,261.469C468.003,185.134,397.9,138.456,315.733,129.806c-41.195-52.03-170.456-65.211-176.035-65.754    c-3.635-0.375-7.292,1.208-9.521,4.167c-2.24,2.938-2.792,6.833-1.458,10.281c12.673,32.896,25.656,70.313,29.092,85.621    c-23.473,10.741-43.99,22.163-57.217,31.681c-28.688-45.896-87.25-46.469-89.927-46.469C4.771,149.333,0,154.104,0,160    c0,61.802,21.542,92.823,35.948,106.667C21.542,280.51,0,311.531,0,373.333C0,379.229,4.771,384,10.667,384    c2.677,0,61.24-0.573,89.927-46.469c17.573,12.646,47.957,28.637,81.159,41.931c-7.337,11.867-11.086,30.742-11.086,57.871    c0,5.896,4.771,10.667,10.667,10.667c3.172,0,75.708-0.629,111.832-43.003c91.87-1.775,170.978-49.891,217.48-133.133    C512.448,268.635,512.448,264.698,510.646,261.469z M296.896,187.219c-0.198,0.302-19.563,30.365-19.563,79.448    c0,26.667,5.708,47.5,10.49,60.281c2.063,5.521-0.729,11.667-6.25,13.729c-1.229,0.458-2.5,0.677-3.74,0.677    c-4.323,0-8.385-2.646-9.99-6.927C262.437,320,256,296.531,256,266.666c0-55.917,22.177-89.833,23.125-91.25    c3.26-4.875,9.844-6.198,14.75-2.969C298.771,175.698,300.125,182.302,296.896,187.219z M336.583,360.875    c-1.823,1.208-3.875,1.792-5.906,1.792c-3.448,0-6.833-1.667-8.885-4.75c-0.948-1.417-23.125-35.333-23.125-91.25    c0-55.917,22.177-89.833,23.125-91.25c3.25-4.875,9.854-6.198,14.75-2.969c4.896,3.25,6.25,9.854,3.021,14.771    C339.365,187.521,320,217.583,320,266.666c0,49.531,19.344,79.125,19.542,79.417C342.813,350.989,341.49,357.604,336.583,360.875z     M384,256c-11.76,0-21.333-9.573-21.333-21.333c0-11.76,9.573-21.333,21.333-21.333c11.76,0,21.333,9.573,21.333,21.333    C405.333,246.427,395.76,256,384,256z" fill="#616161"/>
	</g>
</g>
<g>
</g>
<g>
</g>
<g>
</g>
<g>
</g>
<g>
</g>
<g>
</g>
<g>
</g>
<g>
</g>
<g>
</g>
<g>
</g>
<g>
</g>
<g>
</g>
<g>
</g>
<g>
</g>
<g>
</g>
</svg>
