<?xml version="1.0" encoding="iso-8859-1"?>
<!-- Generator: Adobe Illustrator 19.0.0, SVG Export Plug-In . SVG Version: 6.00 Build 0)  -->
<svg xmlns="http://www.w3.org/2000/svg" xmlns:xlink="http://www.w3.org/1999/xlink" version="1.1" id="Capa_1" x="0px" y="0px" viewBox="0 0 366.52 366.52" style="enable-background:new 0 0 366.52 366.52;" xml:space="preserve" width="512px" height="512px">
<g>
	<g>
		<path d="M332.88,49.22H33.6C15.071,49.286,0.066,64.291,0,82.82V283.7c0.066,18.529,15.071,33.534,33.6,33.6h299.32    c18.529-0.066,33.534-15.071,33.6-33.6V82.82C366.454,64.275,351.425,49.264,332.88,49.22z M335.24,260.3    c-0.044,14.209-11.551,25.716-25.76,25.76h-252c-14.269,0.221-26.016-11.167-26.237-25.437c-0.002-0.108-0.003-0.215-0.003-0.323    V106.22C31.284,92.011,42.791,80.504,57,80.46h252c14.269-0.221,26.016,11.167,26.237,25.437c0.002,0.108,0.003,0.215,0.003,0.323    V260.3z" fill="#616161"/>
	</g>
</g>
<g>
	<g>
		<path d="M267.84,133.54L267.84,133.54c-4.587-4.07-10.068-7.003-16-8.56c-6.917-1.642-14.012-2.408-21.12-2.28h-31.48    c-6.906-1.29-13.55,3.262-14.84,10.167c-0.289,1.544-0.289,3.129,0,4.673v87.76c-0.079,3.166,0.271,6.328,1.04,9.4    c0.64,2.388,2.211,4.419,4.36,5.64c3.093,1.513,6.523,2.202,9.96,2h31.48c4.953,0.04,9.901-0.308,14.8-1.04    c4.243-0.659,8.375-1.897,12.28-3.68c3.841-1.754,7.389-4.088,10.52-6.92c4.025-3.688,7.417-8.012,10.04-12.8    c2.698-5.024,4.652-10.414,5.8-16c1.308-6.477,1.938-13.073,1.88-19.68C286.533,160.46,280.293,144.233,267.84,133.54z     M249.8,217.5v0.04c-1.875,1.609-4.031,2.857-6.36,3.68c-2.3,0.82-4.691,1.357-7.12,1.6c-2.28,0.24-5.44,0.32-9.48,0.32h-18.36    V141.9h16c6.39-0.123,12.763,0.685,18.92,2.4c5.632,1.98,10.324,5.987,13.16,11.24c3.573,5.867,5.36,14.707,5.36,26.52    C261.947,198.86,257.907,210.673,249.8,217.5z" fill="#616161"/>
	</g>
</g>
<g>
	<g>
		<path d="M161.2,194.78c-1.469-3.712-3.658-7.097-6.44-9.96c-3.168-3.188-6.795-5.885-10.76-8c3.981-3.225,7.412-7.075,10.16-11.4    c2.46-4.232,3.693-9.066,3.56-13.96c-0.017-3.932-0.862-7.816-2.48-11.4c-1.692-3.65-4.179-6.876-7.28-9.44    c-3.346-2.798-7.204-4.917-11.36-6.24c-4.666-1.492-9.542-2.222-14.44-2.16c-5.571-0.069-11.115,0.797-16.4,2.56    c-4.47,1.498-8.622,3.817-12.24,6.84c-3.026,2.493-5.574,5.516-7.52,8.92c-1.596,2.708-2.477,5.778-2.56,8.92    c-0.132,2.626,0.857,5.185,2.72,7.04c1.557,1.66,3.724,2.613,6,2.64c1.678,0.046,3.345-0.282,4.88-0.96    c1.274-0.517,2.314-1.486,2.92-2.72c0.96-2.12,1.96-4.36,3.08-6.76c0.933-2.103,2.129-4.079,3.56-5.88    c1.395-1.582,3.151-2.803,5.12-3.56c2.549-0.986,5.267-1.461,8-1.4c4.36-0.231,8.611,1.414,11.68,4.52    c2.845,2.868,4.416,6.76,4.36,10.8c0.287,4.848-1.729,9.548-5.44,12.68c-3.668,2.945-8.257,4.503-12.96,4.4h-3.32    c-3.096-0.221-6.174,0.626-8.72,2.4c-1.937,1.515-3.036,3.862-2.96,6.32c-0.139,2.337,0.753,4.617,2.44,6.24    c1.938,1.599,4.412,2.4,6.92,2.24c0.68,0,2.12,0,4.4-0.32c2.28-0.32,4-0.32,5.08-0.32c5.39-0.309,10.66,1.666,14.52,5.44    c3.732,4.077,5.677,9.479,5.4,15c0.073,4.002-0.996,7.943-3.08,11.36c-1.882,3.113-4.561,5.668-7.76,7.4    c-3.001,1.614-6.353,2.465-9.76,2.48c-5.157,0.302-10.177-1.724-13.68-5.52c-3.999-5.038-7.086-10.737-9.12-16.84    c-0.523-1.354-1.498-2.484-2.76-3.2c-1.302-0.875-2.832-1.348-4.4-1.36c-2.828-0.09-5.575,0.946-7.64,2.88    c-2.077,1.986-3.199,4.769-3.08,7.64c0.197,3.251,1.068,6.425,2.56,9.32c1.898,4.022,4.453,7.699,7.56,10.88    c3.664,3.715,8.01,6.69,12.8,8.76c5.532,2.423,11.522,3.624,17.56,3.52c5.993,0.063,11.946-0.981,17.56-3.08    c5.101-1.892,9.777-4.774,13.76-8.48c3.757-3.466,6.754-7.675,8.8-12.36c1.961-4.533,2.969-9.421,2.96-14.36    C163.436,202.352,162.688,198.437,161.2,194.78z" fill="#616161"/>
	</g>
</g>
<g>
</g>
<g>
</g>
<g>
</g>
<g>
</g>
<g>
</g>
<g>
</g>
<g>
</g>
<g>
</g>
<g>
</g>
<g>
</g>
<g>
</g>
<g>
</g>
<g>
</g>
<g>
</g>
<g>
</g>
</svg>
