<?xml version="1.0"?>
<svg xmlns="http://www.w3.org/2000/svg" height="512px" viewBox="-82 0 512 512.00101" width="512px"><path d="m60.660156 375.003906c-14.25 28.421875-21.835937 59.996094-21.835937 92.382813 0 24.601562 20.015625 44.613281 44.617187 44.613281 24.597656 0 44.613282-20.015625 44.613282-44.617188 0-7.382812.6875-14.65625 2.019531-21.761718-32.054688-12.472656-57.484375-38.300782-69.414063-70.617188zm0 0" fill="#616161"/><path d="m217.070312 445.621094c1.328126 7.105468 2.015626 14.378906 2.015626 21.765625 0 24.597656 20.015624 44.613281 44.617187 44.613281s44.613281-20.015625 44.613281-44.613281c0-32.386719-7.582031-63.960938-21.835937-92.382813-11.929688 32.316406-37.359375 58.144532-69.410157 70.617188zm0 0" fill="#616161"/><path d="m333.796875 209.84375c17.765625-17.761719 17.765625-46.664062 0-64.429688-8.601563-8.605468-20.046875-13.34375-32.214844-13.34375s-23.609375 4.738282-32.210937 13.34375c-31.128906 31.125-61.566406 45.621094-95.800782 45.621094-34.230468 0-64.671874-14.496094-95.796874-45.621094-17.761719-17.761718-46.664063-17.761718-64.429688 0-8.605469 8.605469-13.34375 20.046876-13.34375 32.214844 0 12.167969 4.738281 23.609375 13.34375 32.214844 17.71875 17.71875 46.09375 39.929688 70.175781 52.160156v35.203125h180.105469v-35.203125c24.078125-12.230468 52.453125-34.4375 70.171875-52.160156zm0 0" fill="#616161"/><path d="m83.515625 327.464844v5.988281c0 49.65625 40.398437 90.054687 90.054687 90.054687s90.054688-40.398437 90.054688-90.054687v-5.988281zm0 0" fill="#616161"/><path d="m173.570312 167.671875c30.878907 0 57.894532-16.792969 72.441407-41.714844 7.230469-12.386719 11.394531-26.773437 11.394531-42.121093 0-46.226563-37.609375-83.835938-83.835938-83.835938-46.226562 0-83.835937 37.609375-83.835937 83.835938 0 15.347656 4.164063 29.730468 11.394531 42.117187 14.546875 24.921875 41.5625 41.71875 72.441406 41.71875zm0 0" fill="#616161"/></svg>
