<?xml version="1.0"?>
<svg xmlns="http://www.w3.org/2000/svg" height="512px" viewBox="0 0 56 56" width="512px"><g id="013---Love-Home"><path id="Rectangle-path" d="m31 30h6v4h-6z" fill="#616161"/><path id="Rectangle-path" d="m28 42h20.001v2h-20.001z" fill="#616161"/><path id="Rectangle-path" d="m39 36h6v4h-6z" fill="#616161"/><path id="Rectangle-path" d="m31 36h6v4h-6z" fill="#616161"/><path id="Rectangle-path" d="m39 30h6v4h-6z" fill="#616161"/><path id="Shape" d="m51.815 0c-1.6309979-.00681139-3.136475.87448086-3.929 2.3-.1892209.30783238-.5246618.49538638-.886.49538638s-.6967791-.187554-.886-.49538638c-.792525-1.42551914-2.2980021-2.30681139-3.929-2.3-2.66 0-4.185 1.572-4.185 4.312 0 3.045 1.882 4.2 3.4 5.653 1.119 1.07 4.256 3.646 5.6 4.746 1.349-1.1 4.486-3.676 5.6-4.746 1.611-1.539 3.4-2.624 3.4-5.653 0-2.74-1.525-4.312-4.185-4.312z" fill="#616161"/><path id="Shape" d="m49.476 15.268c-1.941 1.598-2.017 1.732-2.476 1.732-.2291004.000375-.4512974-.0784008-.629-.223-.2-.16-4.864-3.938-6.358-5.367s-3.436-2.761-3.91-5.793l-7.538-5.436c-.3403368-.24095019-.7956632-.24095019-1.136 0l-7.529 5.436c-.4073201 2.08790995-1.5777394 3.94924377-3.283 5.221-.823.735-1.9 1.833-6.985 5.939-.36681781.2967929-.89118219.2967929-1.258 0-.078-.063-.852-.69-1.849-1.51l-6.51 4.709h55.985z" fill="#616161"/><path id="Shape" d="m8 51v1h14v-1c0-.5522847-.4477153-1-1-1h-12c-.55228475 0-1 .4477153-1 1z" fill="#616161"/><path id="Shape" d="m10 48h10v-6.184c-.7465886.2709043-1.5706069.2312825-2.2877592-.1100038-.7171522-.3412863-1.2676028-.9557619-1.5282408-1.7059962h-6.184z" fill="#616161"/><path id="Shape" d="m2.719 9.347c.992.888 1.4 1.383 6.281 5.364 4.9-4 5.267-4.456 6.281-5.364 1.337-1.195 2.719-2.431 2.719-5.035 0-2.74-1.525-4.312-4.185-4.312-1.6309979-.00681139-3.136475.87448086-3.929 2.3-.18922089.30783238-.52466177.49538638-.886.49538638s-.69677911-.187554-.886-.49538638c-.79252499-1.42551914-2.29800205-2.30681139-3.929-2.3-2.66 0-4.185 1.572-4.185 4.312 0 2.604 1.382 3.84 2.719 5.035z" fill="#616161"/><path id="Rectangle-path" d="m0 54h56.001v2h-56.001z" fill="#616161"/><circle id="Oval" cx="19" cy="39" r="1" fill="#616161"/><path id="Shape" d="m52 52v-30h-48v30h2v-1c.00525139-1.2667854.80564913-2.3937454 2-2.816v-18.184c0-1.1045695.8954305-2 2-2h10c1.1045695 0 2 .8954305 2 2v18.184c1.1943509.4222546 1.9947486 1.5492146 2 2.816v1zm-26-10c0-1.1045695.8954305-2 2-2h1v-10c0-1.1045695.8954305-2 2-2h14c1.1045695 0 2 .8954305 2 2v10h1c1.1045695 0 2 .8954305 2 2v2c0 1.1045695-.8954305 2-2 2h-20c-1.1045695 0-2-.8954305-2-2z" fill="#616161"/><path id="Shape" d="m20 30h-10v8h6.184c.2604091-.7504027.8108304-1.3650569 1.5280585-1.7063793s1.5413665-.3808088 2.2879415-.1096207z" fill="#616161"/></g></svg>
