<?xml version="1.0"?>
<svg xmlns="http://www.w3.org/2000/svg" id="Capa_1" enable-background="new 0 0 512 512" height="512px" viewBox="0 0 512 512" width="512px"><g><g><path d="m163.007 199.528-2.674-4.281c-4.39-7.025-2.251-16.279 4.775-20.668 7.027-4.391 16.281-2.251 20.668 4.775l2.338 3.744c-.05.026-.095.06-.144.089 14.093-7.312 29.457-12.404 45.602-14.865-5.921-23.868-15.83-49.431-28.842-74.059-37.038-70.108-110.339-92.706-113.441-93.634-4.132-1.236-8.593-.632-12.249 1.651-3.655 2.285-6.151 6.033-6.85 10.287-.604 3.676-14.373 90.811 22.09 159.829 12.115 22.931 25.714 42.883 39.678 58.732 8.165-12.007 18.023-22.663 29.184-31.693-.045.032-.093.059-.135.093z" fill="#616161"/><path d="m439.811 12.568c-.699-4.254-3.195-8.002-6.85-10.287s-8.115-2.886-12.249-1.651c-3.102.928-76.403 23.526-113.442 93.634-13.012 24.628-22.921 50.191-28.842 74.059 16.144 2.461 31.507 7.552 45.598 14.861-.047-.028-.089-.061-.138-.086l2.337-3.742c4.388-7.026 13.643-9.165 20.668-4.775 7.026 4.389 9.165 13.643 4.775 20.668l-2.671 4.276c-.044-.036-.095-.064-.141-.098 11.167 9.031 21.028 19.688 29.194 31.696 13.961-15.848 27.559-35.797 39.672-58.725 36.462-69.02 22.692-156.155 22.089-159.83z" fill="#616161"/></g><path d="m383.877 345.381-13.693-59.354c-.021-.087-.041-.173-.063-.26-13.097-52.487-60.024-89.145-114.121-89.145s-101.024 36.657-114.121 89.145c-.021.087-.042.173-.063.26l-13.693 59.354c-23.928 15.397-38.523 41.852-38.523 70.619 0 46.313 37.679 83.99 83.991 83.99 10.502 0 20.917-1.982 30.642-5.791 13.562 11.419 30.797 17.801 48.746 17.801 19.013 0 36.923-6.989 50.73-19.509 10.846 4.932 22.641 7.499 34.7 7.499 46.313 0 83.991-37.678 83.991-83.99 0-28.767-14.595-55.222-38.523-70.619zm-163.167 1.859c-1.39 6.923-7.643 12.069-14.71 12.069-6.284 0-11.981-4.056-14.115-9.946-2.132-5.885-.234-12.69 4.605-16.654 4.864-3.984 11.824-4.445 17.216-1.26 5.38 3.178 8.231 9.68 7.004 15.791zm45.458 74.531h-20.336c-8.284 0-15-6.716-15-15s6.716-15 15-15h20.336c8.284 0 15 6.716 15 15s-6.716 15-15 15zm54.532-74.531c-1.374 6.927-7.637 12.069-14.7 12.069-6.283 0-11.981-4.055-14.115-9.946-2.129-5.877-.237-12.699 4.605-16.654 4.872-3.978 11.818-4.448 17.216-1.26 5.395 3.186 8.208 9.672 6.994 15.791z" fill="#616161"/></g></svg>
