<?xml version="1.0"?>
<svg xmlns="http://www.w3.org/2000/svg" height="512px" viewBox="0 0 64 64" width="512px"><g id="Smartphone-Gamepad-Gaming-Esport-Online"><path d="m38 26h-12a6.006 6.006 0 0 0 -6 6v5a1 1 0 0 0 1 1h2.653l4.247-3.354a3 3 0 0 1 1.861-.646h4.478a3.012 3.012 0 0 1 1.86.646l4.248 3.354h2.653a1 1 0 0 0 1-1v-5a6.006 6.006 0 0 0 -6-6zm-10 6h-2v2h-2v-2h-2v-2h2v-2h2v2h2zm3-2h-2v-2h2zm4 0h-2v-2h2zm7 2h-2v2h-2v-2h-2v-2h2v-2h2v2h2z" fill="#616161"/><path d="m49 50h-34v6a4 4 0 0 0 4 4h26a4 4 0 0 0 4-4zm-15 8h-4a3 3 0 0 1 0-6h4a3 3 0 0 1 0 6z" fill="#616161"/><path d="m49 8a4 4 0 0 0 -4-4h-26a4 4 0 0 0 -4 4v2h34zm-22 0h-2v-2h2zm8 0h-6v-2h6z" fill="#616161"/><path d="m38 30h2v2h-2z" fill="#616161"/><path d="m34 54h-4a1 1 0 0 0 0 2h4a1 1 0 0 0 0-2z" fill="#616161"/><path d="m49 12h-34v36h34zm-3 25a3 3 0 0 1 -3 3h-3a1 1 0 0 1 -.619-.215l-4.522-3.569a1 1 0 0 0 -.62-.216h-4.478a1 1 0 0 0 -.619.215l-4.522 3.57a1 1 0 0 1 -.62.215h-3a3 3 0 0 1 -3-3v-5a8.009 8.009 0 0 1 8-8h12a8.009 8.009 0 0 1 8 8z" fill="#616161"/></g></svg>
