<?xml version="1.0"?>
<svg xmlns="http://www.w3.org/2000/svg" height="512px" viewBox="0 0 56 56" width="512px"><g id="Page-1" fill="none" fill-rule="evenodd"><g id="032---Shorts-and-Vest" fill="rgb(0,0,0)" fill-rule="nonzero"><path id="Shape" d="m18.5 12.483c3.829 0 6.944-4.8 6.944-10.7 0-.222-.018-.442-.027-.663-1.8641963 1.74838384-4.3657628 2.65252096-6.917 2.5-2.5513869.15148686-5.0528659-.75248792-6.918-2.5-.008.22-.026.44-.026.661 0 5.903 3.115 10.702 6.944 10.702z" fill="#616161"/><path id="Shape" d="m3.63 2.982c-1.657 2.318-3.32 6.558-3.589 14.678 3.09-3.747 3.349-9.36 3.574-14.366.005-.106.01-.206.015-.312z" fill="#616161"/><path id="Shape" d="m37 25v1c0 .5522847-.4477153 1-1 1s-1-.4477153-1-1v-1h-3v1c0 .5522847-.4477153 1-1 1s-1-.4477153-1-1v-1h-3v1c0 .5522847-.4477153 1-1 1s-1-.4477153-1-1v-1h-2.552c-.2636066.0181881-.4634282.2452175-.448.509v3.459l14 .032 14-.032v-3.459c.0154282-.2637825-.1843934-.4908119-.448-.509h-2.552v1c0 .5522847-.4477153 1-1 1s-1-.4477153-1-1v-1h-3v1c0 .5522847-.4477153 1-1 1s-1-.4477153-1-1v-1z" fill="#616161"/><path id="Shape" d="m36.754 17.393c.072.093.138.175.2.257-.272-8.056-1.93-12.336-3.589-14.682 0 .1.01.2.014.307.221 4.834.467 10.313 3.375 14.118z" fill="#616161"/><path id="Shape" d="m18.011 44.7-1.965 7.2c.17.218.792.769 2.78 1.043-.3-.423-.587-.863-.862-1.333-.2693051-.4757544-.1066433-1.0795955.3651968-1.3557012.4718402-.2761058 1.0779537-.1221275 1.3608032.3457012.5778845 1.0066792 1.2701408 1.9432219 2.063 2.791l.032.034c1.4008011 1.5928436 3.4043738 2.5266354 5.525 2.575h2.316c1.9883432-.0028826 3.6619465-1.4889566 3.9-3.463l.068-.537h-6.585c-4.144 0-7.152-3.882-8.998-7.3z" fill="#616161"/><path id="Shape" d="m53.989 44.7c-1.846 3.414-4.854 7.3-9 7.3h-6.584l.065.536c.2377724 1.9759527 1.913793 3.4630775 3.904 3.464h2.316c2.1206826-.0496494 4.1238204-.9844954 5.524-2.578.012-.013.022-.024.035-.036.7917853-.8463747 1.4833513-1.7812134 2.061-2.786.2828495-.4678287.888963-.621807 1.3608032-.3457012.4718401.2761057.6345019.8799468.3651968 1.3557012-.275.47-.565.91-.861 1.333 1.987-.274 2.609-.825 2.779-1.043z" fill="#616161"/><path id="Shape" d="m53.194 41.793-2.957-10.826-14.237.033-14.239-.033-2.955 10.826c1.428 3.207 4.283 8.207 8.204 8.207h6.824l1.173-9.774c.0598364-.5030509.4864029-.8818856.993-.8818856s.9331636.3788347.993.8818856l1.172 9.774h6.825c3.921 0 6.776-5 8.204-8.207z" fill="#616161"/><path id="Shape" d="m20 29.83v-4.321c-.0155635-1.3683251 1.0797063-2.4908871 2.448-2.509h14.552v-2.513c-.6999014-.5333102-1.317809-1.1663791-1.834-1.879-3.29-4.3-3.562-10.369-3.781-15.243-.024-.533-.047-1.055-.073-1.563-.0322989-.60666529-.3487968-1.16257493-.854-1.5l-.058-.035c-.2949166-.17111583-.6290585-.26309096-.97-.267h-1.009c-.2711945-.00295066-.5317249.10548566-.7207394.2999816-.1890146.19449594-.2899607.45801901-.2792606.7290184.012.252.019.5.019.756 0 7-4.012 12.7-8.944 12.7s-8.944-5.7-8.944-12.7c0-.252.007-.5.019-.756.0107001-.27099939-.09024605-.53452246-.27926057-.7290184s-.44954494-.30293226-.72073943-.2999816h-1.001c-.99943568-.00358017-1.8261985.77700706-1.88 1.775-.028.523-.052 1.06-.077 1.609-.247 5.5-.555 12.346-5.071 16.669l-.542.43v17.617c.00329381 1.0479737.85202635 1.8967062 1.9 1.9h15.322zm6-14.83h4c.5522847 0 1 .4477153 1 1s-.4477153 1-1 1h-4c-.5522847 0-1-.4477153-1-1s.4477153-1 1-1zm-18 23h-5c-.55228475 0-1-.4477153-1-1v-3c0-.5522847.44771525-1 1-1s1 .4477153 1 1v2h4c.55228475 0 1 .4477153 1 1s-.44771525 1-1 1z" fill="#616161"/></g></g></svg>
