<?xml version="1.0"?>
<svg xmlns="http://www.w3.org/2000/svg" id="Layer_3" enable-background="new 0 0 64 64" height="512px" viewBox="0 0 64 64" width="512px"><g><path d="m16.999 26.643 8.848-8.109c1.367-1.254 2.151-3.038 2.151-4.894 0-3.662-2.977-6.64-6.638-6.64-1.145 0-2.205.567-2.838 1.518l-.69 1.036c-.186.278-.498.445-.832.446 0 0 0 0-.001 0-.334 0-.646-.167-.831-.445l-.691-1.036c-.634-.952-1.696-1.519-2.838-1.519-3.661 0-6.64 2.979-6.64 6.64 0 1.855.784 3.64 2.152 4.894z" fill="#616161"/><path d="m27.999 33h-21.999c-1.654 0-3 1.346-3 3v22c0 1.654 1.346 3 3 3h21.999c1.654 0 3-1.346 3-3v-22c0-1.655-1.346-3-3-3zm-5 21.999c-.695 0-1.379-.102-2.032-.3.191.653.457 1.277.794 1.867l1.106 1.937c.178.31.176.69-.003.998-.179.309-.508.498-.865.498h-9.999c-.356 0-.687-.189-.865-.498-.179-.309-.181-.688-.004-.998l1.106-1.937c.337-.589.603-1.213.794-1.867-.653.198-1.337.299-2.031.299-3.86 0-7-3.14-7-7 0-3.521 2.611-6.442 6-6.929 0-.023 0-.047 0-.071 0-3.86 3.14-7 7-7 3.859 0 6.999 3.14 6.999 7v.071c3.389.486 6 3.408 6 6.929 0 3.861-3.14 7.001-7 7.001z" fill="#616161"/><path d="m6 30.999h21.999c1.654 0 3-1.346 3-3v-21.999c0-1.654-1.346-3-3-3h-21.999c-1.654 0-3 1.345-3 3v22c0 1.653 1.346 2.999 3 2.999zm6.639-25.999c1.73 0 3.343.82 4.36 2.208 1.017-1.388 2.629-2.208 4.361-2.208 4.763 0 8.638 3.875 8.638 8.639 0 2.415-1.021 4.736-2.801 6.368l-9.522 8.729c-.19.175-.433.263-.676.263-.242 0-.484-.087-.675-.263l-9.523-8.729c-1.781-1.632-2.802-3.954-2.802-6.368 0-4.764 3.875-8.639 8.64-8.639z" fill="#616161"/><path d="m23.019 43c-.04.001-.087.004-.11.004-.29 0-.567-.126-.758-.347-.193-.225-.277-.524-.229-.817.053-.311.077-.586.077-.84 0-2.757-2.242-5-4.999-5-2.758 0-5 2.243-5 5 0 .258.024.533.076.84.049.293-.035.592-.229.817-.195.225-.447.382-.774.347-.021 0-.084-.003-.104-.005-2.727.001-4.969 2.243-4.969 5s2.242 5 5 5c1.005 0 1.975-.297 2.804-.86.318-.216.735-.229 1.067-.036.333.195.523.564.491.948-.139 1.621-.605 3.138-1.388 4.507l-.252.44h6.554l-.252-.44c-.783-1.371-1.25-2.887-1.388-4.508-.032-.384.159-.752.491-.947.334-.194.75-.18 1.067.036.829.563 1.799.86 2.804.86 2.758 0 5-2.243 5-5 .001-2.75-2.231-4.99-4.979-4.999z" fill="#616161"/><path d="m57.999 33h-21.999c-1.654 0-3 1.346-3 3v22c0 1.654 1.346 3 3 3h21.999c1.654 0 3-1.346 3-3v-22c0-1.655-1.346-3-3-3zm-1.199 14.599-9 12c-.189.252-.485.4-.8.4s-.611-.148-.801-.4l-9-12c-.267-.355-.267-.844 0-1.2l9-12c.379-.503 1.222-.504 1.601 0l9 12c.266.356.266.845 0 1.2z" fill="#616161"/><path d="m54.986 12.826-7.987-6.535-7.987 6.535c-1.076.88-1.77 2.043-1.954 3.274-.226 1.516.192 2.981 1.179 4.124.972 1.127 2.382 1.774 3.869 1.774.826 0 1.642-.24 2.358-.694.307-.195.698-.207 1.018-.032.319.176.518.512.518.876v.245c0 1.956-.439 3.864-1.28 5.605h4.56c-.842-1.74-1.28-3.648-1.28-5.604v-.245c0-.365.198-.701.518-.876.322-.176.712-.162 1.019.033.715.455 1.529.694 2.356.694 1.487 0 2.897-.646 3.869-1.774.986-1.143 1.404-2.608 1.179-4.125-.185-1.231-.879-2.394-1.955-3.275z" fill="#616161"/><path d="m39.25 47 7.75 10.333 7.749-10.333-7.749-10.334z" fill="#616161"/><path d="m57.999 3h-21.999c-1.654 0-3 1.346-3 3v22c0 1.654 1.346 3 3 3h21.999c1.654 0 3-1.346 3-3v-22c0-1.655-1.346-3-3-3zm-.722 18.531c-1.353 1.568-3.315 2.468-5.385 2.468-.614 0-1.225-.09-1.812-.266.207 1.68.801 3.288 1.75 4.711.204.307.224.701.049 1.026-.174.325-.513.528-.882.528h-7.997c-.369 0-.708-.203-.882-.528-.175-.325-.155-.72.049-1.026.949-1.424 1.544-3.032 1.751-4.712-.588.176-1.197.266-1.812.266-2.069 0-4.032-.899-5.385-2.468-1.352-1.568-1.949-3.655-1.641-5.726.258-1.724 1.204-3.332 2.665-4.527l8.621-7.054c.369-.299.897-.3 1.267 0l8.62 7.053c1.461 1.195 2.407 2.803 2.665 4.526.309 2.074-.289 4.161-1.641 5.729z" fill="#616161"/></g></svg>
