<?xml version="1.0"?>
<svg xmlns="http://www.w3.org/2000/svg" id="Capa_1" enable-background="new 0 0 512 512" height="512px" viewBox="0 0 512 512" width="512px"><g><path d="m391 322.726 90 44.996v-26.457l-90-45z" fill="#616161"/><path d="m391 512h90v-110.733l-90-44.996z" fill="#616161"/><path d="m481 121.348c0-47.095-26.162-89.429-68.291-110.493l-21.709-10.855v262.72l90 45v-59.993l-41.455-20.727 41.455-20.728z" fill="#616161"/><path d="m286 0c-41.353 0-75 33.647-75 75v107h-30v-107c0-41.353-33.647-75-75-75s-75 33.647-75 75 33.647 75 75 75c16.871 0 32.456-5.604 45-15.042v216.422c0 46.201 10.928 92.461 31.582 133.784l13.418 26.836 13.418-26.836c20.654-41.323 31.582-87.583 31.582-133.784v-216.422c12.544 9.438 28.129 15.042 45 15.042 41.353 0 75-33.647 75-75s-33.647-75-75-75zm-180 120c-24.814 0-45-20.186-45-45s20.186-45 45-45 45 20.186 45 45-20.186 45-45 45zm180 0c-24.814 0-45-20.186-45-45s20.186-45 45-45 45 20.186 45 45-20.186 45-45 45z" fill="#616161"/></g></svg>
