<?xml version="1.0"?>
<svg xmlns="http://www.w3.org/2000/svg" id="Layer_1" enable-background="new 0 0 512 512" height="512px" viewBox="0 0 512 512" width="512px"><g><path d="m512 330.651v-30h-32.13v-147.19h-65.08l-.034-.067-.133.067h-4.388v2.204l-13.379 6.72c-43.534 21.866-92.295 33.423-141.012 33.423s-97.478-11.558-141.012-33.423l-13.069-6.564v-2.36h-4.698l-.133-.067-.034.067h-64.768v147.19h-32.13v30h32.13v79.831h-32.13v30h133.894v-30h-32.13v-79.831h308.471v79.831h-32.13v30h133.895v-30h-32.13v-79.831zm-366.448-30h-43.788v-111.263c14.144 7.081 28.791 13.164 43.788 18.225zm63.632 0h-33.632v-84.394c11.098 2.663 22.328 4.776 33.632 6.333zm63.632 0h-33.632v-75.261c5.55.273 11.106.418 16.661.418 5.659 0 11.318-.151 16.971-.434zm63.632 0h-33.632v-78.105c11.305-1.567 22.534-3.692 33.632-6.365zm73.788 0h-43.788v-93.143c14.998-5.077 29.646-11.174 43.788-18.272z" fill="#616161"/><path d="m90.739 71.519h-47.584l-8.822 51.942h65.227z" fill="#616161"/><path d="m468.845 71.519h-47.584l-8.821 51.942h65.227z" fill="#616161"/></g></svg>
