<?xml version="1.0"?>
<svg xmlns="http://www.w3.org/2000/svg" id="Capa_1" enable-background="new 0 0 512 512" height="512px" viewBox="0 0 512 512" width="512px"><g><path d="m164.819 267.049h-80.137l-54.132 226.404c-1.088 4.472-.063 9.196 2.78 12.815 2.844 3.619 7.192 5.732 11.794 5.732h39.444z" fill="#616161"/><path d="m347.591 267.049 79.803 244.951h39.481c4.603 0 8.951-2.113 11.794-5.732 2.844-3.619 3.869-8.343 2.78-12.815l-54.132-226.403h-79.726z" fill="#616161"/><path d="m315.988 267.049h-44.791c4.172 146.244 77.56 235.871 85.731 244.951h38.864z" fill="#616161"/><path d="m197.761 442.511c18.698-37.379 40.786-97.48 43.037-175.461h-44.359l-80.25 244.95h38.88c4.008-4.462 23.473-31.07 42.692-69.489z" fill="#616161"/><path d="m288.018 461.145c-10.909-21.631-22.883-54.302-32.018-89.207-9.134 34.905-21.108 67.576-32.018 89.207-10.978 21.767-21.975 38.795-30.667 50.855h125.369c-8.692-12.06-19.688-29.088-30.666-50.855z" fill="#616161"/><path d="m271.003 148.753v-34.732l82.041-40.726c5.103-2.533 8.331-7.738 8.331-13.436s-3.228-10.902-8.331-13.436l-90.371-44.859c-4.649-2.308-10.162-2.048-14.574.687s-7.096 7.558-7.096 12.749v133.753l-141.365 88.296h312.724z" fill="#616161"/></g></svg>
