<?xml version="1.0"?>
<svg xmlns="http://www.w3.org/2000/svg" id="Capa_1" enable-background="new 0 0 511.858 511.858" height="512px" viewBox="0 0 511.858 511.858" width="512px"><g><g><path d="m392.292 478.586c-43.428 0-85.614-12.323-121.999-35.639l-16.186 25.26c41.226 26.416 89.009 40.379 138.185 40.379 38.487 0 75.499-8.32 110.006-24.73l-12.883-27.092c-30.451 14.481-63.127 21.822-97.123 21.822z" fill="#616161"/><path d="m478.186 432.087-12.883-27.094c-21.036 10.003-43.613 15.075-67.103 15.075-30.006 0-59.153-8.514-84.289-24.621l-16.186 25.26c29.976 19.208 64.72 29.361 100.475 29.361 27.982.001 54.893-6.049 79.986-17.981z" fill="#616161"/><path d="m167.33 263.304 81.225 81.224-1.608-36.964-42.653-42.653z" fill="#616161"/><path d="m238.445 223.777h57.281v41.991h-57.281z" transform="matrix(.707 -.707 .707 .707 -94.853 260.551)" fill="#616161"/><path d="m376.954 222.212-87.308-87.307-1.904 47.593 41.618 41.618z" fill="#616161"/><path d="m135.937 231.91 68.897 2.996 52.904-52.904 3.039-75.966-5.963-5.963-125.357 125.358z" fill="#616161"/><path d="m503.072 123.331-114.545-114.544c-11.716-11.716-30.711-11.716-42.427 0l-70.073 70.073 156.971 156.971 70.073-70.073c11.716-11.716 11.716-30.711.001-42.427z" fill="#616161"/><path d="m329.857 254.12-52.905 52.905 2.996 68.897 6.48 6.48 125.357-125.358-5.962-5.963z" fill="#616161"/><path d="m136.109 346.057-30.125 30.125 29.692 29.692 30.125-30.125 21.214 21.213-30.126 30.126 42.426 42.426 65.899-65.899-156.97-156.971-65.899 65.899 42.426 42.426 30.125-30.125z" fill="#616161"/><path d="m240.887 66.451h30v26.964h-30z" transform="matrix(.707 -.707 .707 .707 18.426 204.352)" fill="#616161"/><path d="m416.925 242.489h30v26.964h-30z" transform="matrix(.707 -.707 .707 .707 -54.49 380.392)" fill="#616161"/><path d="m135.676 405.874-21.131 21.131-29.692-29.692 21.131-21.131-21.213-21.213-21.131 21.131-42.427-42.427-21.213 21.214 156.972 156.971 21.213-21.213-42.427-42.426 21.131-21.131z" fill="#616161"/></g></g></svg>
