<?xml version="1.0"?>
<svg xmlns="http://www.w3.org/2000/svg" id="Layer_1" enable-background="new 0 0 512.291 512.291" height="512px" viewBox="0 0 512.291 512.291" width="512px"><g><path d="m509.801 190.721-188.198-188.197c-12.051 1.283-24.529 3.12-37.284 5.649l219.85 219.85c2.406-12.181 4.294-24.621 5.632-37.302z" fill="#616161"/><path d="m2.491 321.57 188.198 188.198c12.051-1.283 24.529-3.12 37.285-5.649l-219.851-219.851c-2.407 12.181-4.295 24.621-5.632 37.302z" fill="#616161"/><path d="m14.711 487.456 2.313 7.813 7.813 2.313c2.029.601 50.463 14.71 117.848 14.71 2.636 0 5.316-.025 8.03-.072l-150.646-150.646c-1.216 71.41 13.972 123.621 14.642 125.882z" fill="#616161"/><path d="m103.03 103.03c-35.711 35.711-62.579 78.245-79.855 126.419-2.436 6.793-4.673 13.705-6.729 20.717l245.61 245.61c49.764-14.598 101.591-40.901 147.205-86.515 35.711-35.711 62.579-78.245 79.855-126.419 2.436-6.793 4.673-13.705 6.729-20.717l-245.61-245.61c-49.764 14.598-101.591 40.901-147.205 86.515zm195.639 40.456 70.136 70.136-21.213 21.213-24.462-24.462-23.444 23.444 24.462 24.462-21.213 21.213-24.462-24.462-23.443 23.443 24.462 24.462-21.213 21.213-24.462-24.462-23.444 23.444 24.462 24.462-21.213 21.213-70.136-70.136 21.213-21.213 24.462 24.462 23.444-23.444-24.462-24.462 21.213-21.213 24.462 24.462 23.443-23.443-24.462-24.462 21.213-21.213 24.462 24.462 23.444-23.444-24.462-24.462z" fill="#616161"/><path d="m497.581 24.836-2.313-7.813-7.813-2.313c-2.029-.601-50.463-14.71-117.848-14.71-2.636 0-5.316.025-8.03.072l150.644 150.644c1.217-71.409-13.971-123.619-14.64-125.88z" fill="#616161"/></g></svg>
