<?xml version="1.0"?>
<svg xmlns="http://www.w3.org/2000/svg" id="Capa_1" enable-background="new 0 0 512 512" height="512px" viewBox="0 0 512 512" width="512px"><g><path d="m79.074 98.292h2.435v-25.918l127.154-18.663c-4.92-11.208-16.11-19.041-29.136-19.041h-132.263c-17.569 0-31.811-14.242-31.811-31.811v31.811c0 35.137 28.484 63.622 63.621 63.622z" fill="#616161"/><path d="m400.491 189.022-48.622 17.477v30.206h-30v-19.422l-16.186 5.818-10.148-28.232 104.956-37.725v-58.852l-144.491-21.207-144.491 21.207v58.851l104.956 37.726-10.148 28.232-16.186-5.818v19.422h-30v-30.206l-48.622-17.477v79.494l49.86 17.922 7.528 67.666h58.473v30h-55.136l4.355 39.147 79.411 21.208 79.411-21.208 4.355-39.147h-54.27v-30h57.607l7.528-67.666 49.86-17.922" fill="#616161"/><path d="m430.491 72.374v25.918h2.435c35.137 0 63.622-28.484 63.622-63.622v-31.811c0 17.569-14.242 31.811-31.811 31.811h-132.264c-13.025 0-24.216 7.832-29.136 19.041z" fill="#616161"/><path d="m81.509 225.695v-63.781h-81.056v1.06l63.781 62.721z" fill="#616161"/><path d="m430.491 225.695h17.275l63.781-62.721v-1.06h-81.056z" fill="#616161"/><path d="m256 475.51-79.411-21.207v23.027c0 17.569 14.242 31.811 31.811 31.811h95.2c17.569 0 31.811-14.242 31.811-31.811v-23.027z" fill="#616161"/><path d="m436.296 425.57c-5.585 0-10.13-4.544-10.13-10.13 0-22.128-18.002-40.13-40.13-40.13h-15.107l-3.337 30h18.444c5.586 0 10.13 4.544 10.13 10.13 0 22.128 18.002 40.13 40.13 40.13h75.704v-30z" fill="#616161"/><path d="m125.964 375.311c-22.128 0-40.13 18.002-40.13 40.13 0 5.585-4.544 10.13-10.13 10.13h-75.704v30h75.704c22.128 0 40.13-18.002 40.13-40.13 0-5.585 4.544-10.13 10.13-10.13h18.444l-3.337-30z" fill="#616161"/></g></svg>
