<?xml version="1.0"?>
<svg xmlns="http://www.w3.org/2000/svg" id="Capa_1" enable-background="new 0 0 512.14 512.14" height="512px" viewBox="0 0 512.14 512.14" width="512px"><g><g><path d="m24.917 356.75v86.28l74.72-43.14z" fill="#616161"/><path d="m114.637 512.14v-86.27l-74.72 43.14z" fill="#616161"/><path d="m144.637 512.14 74.71-43.13-74.71-43.14z" fill="#616161"/><path d="m114.637 373.91v-86.28l-74.72 43.14z" fill="#616161"/><path d="m219.347 330.77-74.71-43.14v86.28z" fill="#616161"/><path d="m159.627 399.89 74.72 43.14v-86.28z" fill="#616161"/><path d="m144.637 234.236c19.941-6.368 34.424-25.068 34.424-47.093 0-22.027-14.486-40.728-34.429-47.095v-8.465c29.548-6.823 51.643-33.35 51.643-64.94.001-36.747-29.895-66.643-66.642-66.643s-66.643 29.896-66.643 66.643h30c0-20.205 16.438-36.643 36.643-36.643s36.643 16.438 36.643 36.643-16.438 36.643-36.643 36.643h-15v36.762c-19.943 6.367-34.429 25.068-34.429 47.095 0 22.028 14.488 40.731 34.433 47.096v53.391l15-8.66 15 8.66z" fill="#616161"/></g><g><path d="m277.793 356.75v86.28l74.72-43.14z" fill="#616161"/><path d="m367.513 512.14v-86.27l-74.72 43.14z" fill="#616161"/><path d="m397.513 512.14 74.71-43.13-74.71-43.14z" fill="#616161"/><path d="m367.513 373.91v-86.28l-74.72 43.14z" fill="#616161"/><path d="m472.223 330.77-74.71-43.14v86.28z" fill="#616161"/><path d="m412.503 399.89 74.72 43.14v-86.28z" fill="#616161"/><path d="m397.513 234.236c19.941-6.368 34.424-25.068 34.424-47.093 0-22.027-14.486-40.728-34.429-47.095v-8.465c29.548-6.823 51.643-33.35 51.643-64.94.001-36.747-29.895-66.643-66.642-66.643s-66.643 29.896-66.643 66.643h30c0-20.205 16.438-36.643 36.643-36.643s36.643 16.438 36.643 36.643-16.438 36.643-36.643 36.643h-15v36.762c-19.943 6.367-34.429 25.068-34.429 47.095 0 22.028 14.488 40.731 34.433 47.096v53.391l15-8.66 15 8.66z" fill="#616161"/></g></g></svg>
