<svg id="Capa_1" enable-background="new 0 0 512 512" height="512" viewBox="0 0 512 512" width="512" xmlns="http://www.w3.org/2000/svg"><g><path d="m145.36 116.206c32.238-18.887 70.13-29.791 110.64-29.791 40.512 0 78.406 10.905 110.645 29.794l19.058-98.323c1.627-8.392-6.989-14.976-14.428-11.025l-63.011 33.463-45.58-38.02c-3.666-3.058-8.933-3.074-12.617-.037l-46.161 38.057-63.188-33.489c-7.439-3.943-16.047 2.641-14.421 11.029z"/><g><path d="m455.036 371.147h-17.424l.643-81.97c0-95.262-81.759-172.762-182.255-172.762-100.495 0-182.254 77.501-182.254 172.762l.004 81.97h-16.786c-31.095 0-56.303 25.208-56.303 56.303s25.208 56.303 56.303 56.303h92.372l-5.458-8.463c-14.322-22.258-22.416-47.496-23.408-72.985-.028-.727-.1-76.695-.1-76.695 0-31.748 15.658-59.535 44.088-78.242 22.232-14.629 52.001-23.356 83.823-24.574.439-.017.872-.025 1.306-.025 10.283 0 19.901 4.58 26.389 12.566 6.499 7.999 9.015 18.375 6.903 28.467-.68 3.248-.884 6.589-.607 9.933 1.415 17.097 15.961 30.925 33.115 31.48.389.013.776.019 1.163.019 7.504 0 14.632-2.378 20.613-6.876 5.942-4.469 13.002-6.832 20.418-6.832 18.749 0 34.022 15.233 34.047 33.958 0 0-.072 76.093-.101 76.825-.991 25.483-9.085 50.721-23.406 72.979l-5.459 8.464h92.372c31.095 0 56.303-25.208 56.303-56.303.002-31.094-25.206-56.302-56.301-56.302z"/><path d="m361.63 325.526c-.004-3.287-3.806-5.167-6.432-3.191-11.289 8.492-25.454 13.363-40.78 12.867-32.472-1.052-59.362-26.612-62.042-58.99-.53-6.407-.099-12.627 1.14-18.551.539-2.575-1.458-4.988-4.087-4.887-50.536 1.934-99.059 26.205-99.059 72.838 0 0 .039 74.542.078 75.529.802 20.614 7.495 40.568 18.658 57.917l5.077 7.891c19.456 30.236 50.675 45.248 81.817 45.05 31.142.198 62.36-14.814 81.817-45.05l5.077-7.891c11.163-17.348 17.856-37.303 18.659-57.917.038-.987.078-75.529.078-75.529-.001-.029-.001-.057-.001-.086zm-68.871 99.807c-8.989 11.241-22.388 17.689-36.759 17.689-14.372 0-27.77-6.447-36.759-17.689-5.174-6.47-4.123-15.909 2.347-21.083 6.471-5.175 15.91-4.123 21.083 2.347 3.265 4.083 8.124 6.425 13.33 6.425s10.065-2.342 13.33-6.425c5.173-6.47 14.612-7.521 21.083-2.347 6.468 5.174 7.519 14.613 2.345 21.083z"/></g></g></svg>