<?xml version="1.0"?>
<svg xmlns="http://www.w3.org/2000/svg" id="Capa_1" enable-background="new 0 0 512 512" height="512px" viewBox="0 0 512 512" width="512px"><g><path d="m301 188.26v-21.26c0-8.28-6.72-15-15-15h-15v-47c0-8.284-6.716-15-15-15s-15 6.716-15 15v47h-15c-8.28 0-15 6.72-15 15v21.26c-70.23 19.92-120 84.8-120 158.74 0 90.98 74.02 165 165 165s165-74.02 165-165c0-73.94-49.77-138.82-120-158.74zm29.25 105.71c-5.86 5.85-15.36 5.86-21.22 0-29.24-29.25-76.82-29.25-106.06 0-5.86 5.85-15.36 5.85-21.22 0-5.85-5.86-5.85-15.36 0-21.22 40.94-40.94 107.56-40.93 148.5 0 5.85 5.86 5.85 15.36 0 21.22z" fill="#616161"/><path d="m166 120h30c8.284 0 15-6.716 15-15s-6.716-15-15-15h-30c-8.284 0-15 6.716-15 15s6.716 15 15 15z" fill="#616161"/><path d="m301 105c0 8.284 6.716 15 15 15h30c8.284 0 15-6.716 15-15s-6.716-15-15-15h-30c-8.284 0-15 6.716-15 15z" fill="#616161"/><path d="m309.033 73.18 21.213-21.213c5.858-5.858 5.858-15.355 0-21.213-5.857-5.858-15.355-5.858-21.213 0l-21.213 21.213c-5.858 5.858-5.858 15.355 0 21.213s15.356 5.858 21.213 0z" fill="#616161"/><path d="m202.967 73.18c5.858 5.858 15.356 5.858 21.213 0 5.858-5.858 5.858-15.355 0-21.213l-21.213-21.213c-5.857-5.858-15.355-5.858-21.213 0s-5.858 15.355 0 21.213z" fill="#616161"/><path d="m256 60c8.284 0 15-6.716 15-15v-30c0-8.284-6.716-15-15-15s-15 6.716-15 15v30c0 8.284 6.716 15 15 15z" fill="#616161"/></g></svg>
