<?xml version="1.0"?>
<svg xmlns="http://www.w3.org/2000/svg" id="Capa_1" enable-background="new 0 0 512 512" height="512px" viewBox="0 0 512 512" width="512px"><g><path d="m391.7 108.1c1.5-8.101-4.2-15.601-12.599-16.8-1.8-.3-22.899-3.301-50.2-6.601-21.002-56.7-39.001-84.699-72.901-84.699-20.4 0-35.4 10.199-45 20.099-9.6-9.9-24.6-20.099-45-20.099-33.9 0-51.9 27.999-73.2 84.699-27.299 3.3-47.1 6.301-48.9 6.601-8.399 1.2-14.099 8.7-12.6 16.8.899 8.099 8.399 13.799 16.8 12.599 3.03 0 97.705-14.7 162.9-14.7 63.702 0 160.89 14.7 163.9 14.7 8.1 1.5 15.6-4.2 16.8-12.599z" fill="#616161"/><path d="m497 181c-8.291 0-15 6.709-15 15v60c0 19.556-12.541 36.229-30 42.42v-102.42c0-8.291-6.709-15-15-15s-15 6.709-15 15v102.42c-17.459-6.192-30-22.864-30-42.42v-60c0-8.291-6.709-15-15-15s-15 6.709-15 15v60c0 36.217 25.81 66.521 60 73.49v31.51c-8.291 0-15 6.709-15 15v121c0 8.291 6.709 15 15 15h30c8.291 0 15-6.709 15-15v-121c0-8.291-6.709-15-15-15v-31.51c34.19-6.969 60-37.274 60-73.49v-60c0-8.291-6.709-15-15-15z" fill="#616161"/><path d="m316 391v121h61v-104.826c-14.649-10.132-33.203-16.174-52.048-16.174z" fill="#616161"/><path d="m106 391h-8.937c-41.367 0-78.271 28.022-88.319 68.174l-8.291 34.193c-1.128 4.482-.117 9.229 2.725 12.861 2.841 3.648 7.206 5.772 11.82 5.772h91.002z" fill="#616161"/><path d="m286 391c-6.969 34.191-38.784 60-75 60s-68.031-25.809-75-60v121h150z" fill="#616161"/><path d="m166 352.707v23.293c0 24.853 20.147 45 45 45s45-20.147 45-45v-23.293c-14.145 5.043-29.145 8.293-45 8.293s-30.855-3.25-45-8.293z" fill="#616161"/><path d="m316 143.621c-32.571-3.746-73.733-7.621-105-7.621-31.278 0-72.426 3.873-105 7.621v82.379h1.934c16.069-.381 29.736-6.782 44.194-13.564 16.421-7.706 35.024-16.436 58.872-16.436s42.451 8.73 58.872 16.421c14.648 6.87 28.491 13.374 45.249 13.579h.879z" fill="#616161"/><path d="m311.235 255.639c-21.592-1.117-38.888-8.921-54.108-16.06-14.897-6.987-28.974-13.579-46.127-13.579s-31.23 6.606-46.128 13.594c-15.251 7.154-32.574 15.055-54.078 16.137 12.887 43.407 52.617 75.269 100.206 75.269 47.622 0 87.378-31.908 100.235-75.361z" fill="#616161"/></g></svg>
