<?xml version="1.0"?>
<svg xmlns="http://www.w3.org/2000/svg" id="Capa_1" enable-background="new 0 0 512 512" height="512px" viewBox="0 0 512 512" width="512px"><g><circle cx="256" cy="146" r="25" fill="#616161"/><path d="m342.811 32.878c-15.494 32.259-31.592 59.267-44.077 78.55 4.716 5.818 8.264 12.613 10.3 20.03 28.758 3.222 56.984 10.406 84.07 21.414 42.95 17.455 81.439 44.058 114.399 79.067l3.708 3.939c-7.754-99.257-72.361-182.798-161.199-217.996z" fill="#616161"/><path d="m196.232 19.89c14.576 30.348 29.704 55.835 41.561 74.221 5.703-2.007 11.827-3.111 18.207-3.111s12.504 1.104 18.207 3.111c11.857-18.386 26.985-43.873 41.561-74.221l5.498-11.447c-20.845-5.5-42.717-8.443-65.266-8.443s-44.421 2.943-65.266 8.443z" fill="#616161"/><path d="m112.127 458.313c10.121-120.164 64.695-222.37 100.805-278.166-4.315-5.43-7.625-11.688-9.651-18.497-44.055 5.533-115.102 25.166-176.941 90.854l-25.265 26.834c7.07 77.856 49.138 145.75 110.31 187.784z" fill="#616161"/><path d="m485.66 252.504c-61.84-65.688-132.887-85.321-176.941-90.854-2.025 6.81-5.336 13.067-9.651 18.497 36.11 55.797 90.684 158.003 100.805 278.166l.742 8.809c61.172-42.033 103.24-109.927 110.31-187.784z" fill="#616161"/><path d="m4.496 231.939c32.96-35.01 71.449-61.612 114.399-79.067 27.086-11.008 55.312-18.192 84.07-21.414 2.036-7.417 5.584-14.212 10.3-20.03-12.485-19.283-28.582-46.292-44.077-78.55l-7.203-14.995c-88.835 35.198-153.443 118.739-161.197 217.995z" fill="#616161"/><path d="m369.979 460.831c-9.51-112.911-60.82-209.615-95.275-263.11-5.842 2.119-12.14 3.279-18.704 3.279s-12.862-1.16-18.704-3.279c-34.455 53.496-85.765 150.2-95.275 263.11l-1.968 23.369c34.83 17.769 74.238 27.8 115.947 27.8s81.117-10.031 115.947-27.8z" fill="#616161"/></g></svg>
