<?xml version="1.0"?>
<svg xmlns="http://www.w3.org/2000/svg" id="Capa_1" enable-background="new 0 0 512.008 512.008" height="512px" viewBox="0 0 512.008 512.008" width="512px"><g><path d="m457.728 95.703c-16.988-31.421-38.475-57.891-60.822-74.854-26.394-20.033-52.833-25.877-74.442-16.457-5.223 2.275-9.97 5.368-14.243 9.182 72.614 23.369 121.871 90.821 137.46 165.816 2.167 11.324 3.021 19.812 12.569 101.232 31.681-18.684 52.753-53.397 52.753-92.338.001-38.399-20.29-73.442-53.275-92.581z" fill="#616161"/><path d="m205.521 13.257c-4.178-3.665-8.801-6.65-13.872-8.862-21.459-9.36-47.712-3.654-73.927 16.064-22.102 16.625-43.437 42.621-60.412 73.534-33.932 18.294-56.307 54.012-56.307 94.292 0 38.531 20.64 73.704 53.47 92.719l7.701-65.67c6.094-89.938 59.032-175.49 143.347-202.077z" fill="#616161"/><path d="m282.118 325.318c-.859-2.359-3.316-6.318-10.115-6.318h-32c-6.799 0-9.261 3.97-10.123 6.336-1.23 3.377-.934 8.341 3.59 12.141l22.533 18.931 22.533-18.931c4.524-3.799 4.816-8.772 3.582-12.159z" fill="#616161"/><path d="m420.71 218.337c-18.285-107.409-73.466-182.894-164.325-182.894-37.767 0-74.65 15.732-103.856 44.297-36.583 35.78-51.115 80.416-60.469 138.596-19.325 164.952-18.15 154.435-18.15 155.802 0 77.491 90.495 131.354 167.094 137.827v-128.976l-26.831-22.542c-28.822-24.214-13.606-71.258 25.605-71.447 3.186-.036-11.458 0 32.226 0 39.385 0 54.697 47.196 25.831 71.447l-26.831 22.542v129.011c1.111 0 .969.039 1.049-.061 76.835-6.607 166.807-60.62 166.807-137.801-.001-1.364 1.174 9.153-18.15-155.801zm-211.027-9.004c0 8.295-6.716 15.02-15 15.02s-15-6.725-15-15.02v-17.652c0-8.295 6.716-15.02 15-15.02s15 6.725 15 15.02zm114.588 0c0 8.295-6.716 15.02-15 15.02s-15-6.725-15-15.02v-17.652c0-8.295 6.716-15.02 15-15.02s15 6.725 15 15.02z" fill="#616161"/></g></svg>
