<?xml version="1.0"?>
<svg xmlns="http://www.w3.org/2000/svg" id="Layer_1" enable-background="new 0 0 512.037 512.037" height="512px" viewBox="0 0 512.037 512.037" width="512px"><g><path d="m419.099 57.358c3.02 4.07 7.96 6.68 13.36 6.68 8.586 0 15.55 6.962 15.55 15.55 0 8.603 6.633 16.031 15.23 16.43 9.152.426 16.77-6.848 16.77-15.98 0-9.617 7.382-16 15.55-16 8.603 0 16.031-6.633 16.43-15.23.407-8.684-6.23-16.77-16.43-16.77-8.59 0-15.55-6.96-15.55-15.55 0-4.31-1.66-8.31-4.39-11.29-9.772-10.667-27.61-3.669-27.61 10.84 0 8.853-7.16 16-16 16-13.292-.001-20.498 15.159-12.91 25.32z" fill="#616161"/><path d="m87.557 344.037c-8.587 0-15.548-6.961-15.548-15.548 0-8.615-6.621-16.028-15.226-16.434-9.188-.433-16.774 6.889-16.774 15.982 0 9.598-7.37 16-15.548 16-8.615 0-16.028 6.621-16.434 15.226-.433 9.188 6.889 16.774 15.982 16.774 9.598 0 16 7.37 16 15.548 0 8.615 6.621 16.028 15.226 16.434 9.188.433 16.774-6.889 16.774-15.982 0-8.836 7.163-16 16-16 9.093 0 16.415-7.585 15.982-16.774-.405-8.605-7.818-15.226-16.434-15.226z" fill="#616161"/><path d="m225.204 72.082c2.167-1.369 2.947-4.173 1.785-6.457-18.453-36.255-55.12-62.861-100.8-65.428-53.06-3.124-104.399 31.102-120.78 84.2-23.762 77.23 33.971 155.64 114.6 155.64.63 0 2.053-.027 3.539-.067 2.577-.069 4.689-2.09 4.846-4.663 4.19-68.446 41.571-128.333 96.81-163.225zm-105.195 7.955c-22.06 0-40 17.94-40 40 0 8.84-7.16 16-16 16s-16-7.16-16-16c0-39.7 32.3-72 72-72 8.84 0 16 7.16 16 16s-7.16 16-16 16z" fill="#616161"/><path d="m224.009 336.037c-48.557 0-88 39.351-88 88 0 48.6 39.4 88 88 88 37.5 0 69.52-23.45 82.19-56.49 21.914-56.956-19.995-119.51-82.19-119.51zm12.91 57.47c-2.92 3.96-7.61 6.53-12.91 6.53-13.199 0-24 10.747-24 24 0 8.84-7.16 16-16 16s-16-7.16-16-16c0-30.796 25.043-56 56-56 13.216 0 20.547 15.039 12.91 25.47z" fill="#616161"/><path d="m343.957 418.878c.192 2.768 2.603 4.863 5.37 4.656 92.471-6.91 164.159-85.263 162.672-177.357 0-93.396-77.407-174.14-175.99-174.14-124.511 0-207.834 125.235-164.651 238.304 1.002 2.624 3.99 3.92 6.577 2.827 13.258-5.598 29.389-9.132 46.074-9.132 63.793 0 115.986 49.713 119.767 112.675 0 .001.093.891.181 2.167zm-23.948-266.841c-52.93 0-96 43.07-96 96 0 8.84-7.16 16-16 16s-16-7.16-16-16c0-70.28 57.105-128 128-128 8.84 0 16 7.16 16 16s-7.16 16-16 16z" fill="#616161"/></g></svg>
