<?xml version="1.0"?>
<svg xmlns="http://www.w3.org/2000/svg" id="Capa_1" enable-background="new 0 0 512 512" height="512px" viewBox="0 0 512 512" width="512px"><g><path d="m436 82h-360c-8.284 0-15-6.716-15-15v-52c0-8.284 6.716-15 15-15h360c8.284 0 15 6.716 15 15v52c0 8.284-6.716 15-15 15z" fill="#616161"/><g><path d="m181 212c33.084 0 60 26.916 60 60h180v-160h-330v160h30c0-33.084 26.916-60 60-60z" fill="#616161"/><g><path d="m446.812 362-20-60h-193.884c-7.962 13.728-21.204 24.025-36.928 28.091v31.909h110v-15c0-8.284 6.716-15 15-15s15 6.716 15 15v15h30v-15c0-8.284 6.716-15 15-15s15 6.716 15 15v15z" fill="#616161"/><path d="m129.072 302h-43.884l-20 60h100.812v-31.909c-15.724-4.066-28.966-14.363-36.928-28.091z" fill="#616161"/></g></g><path d="m181 302c-16.542 0-30-13.458-30-30s13.458-30 30-30 30 13.458 30 30-13.458 30-30 30z" fill="#616161"/><path d="m61 392v105c0 8.284 6.716 15 15 15h360c8.284 0 15-6.716 15-15v-105zm75 75c-8.284 0-15-6.716-15-15s6.716-15 15-15 15 6.716 15 15-6.716 15-15 15zm180 0h-120c-8.284 0-15-6.716-15-15s6.716-15 15-15h120c8.284 0 15 6.716 15 15s-6.716 15-15 15zm60 0c-8.284 0-15-6.716-15-15s6.716-15 15-15 15 6.716 15 15-6.716 15-15 15z" fill="#616161"/></g></svg>
