<?xml version="1.0"?>
<svg xmlns="http://www.w3.org/2000/svg" id="Layer_1" enable-background="new 0 0 512 512" height="512px" viewBox="0 0 512 512" width="512px"><g><path d="m369.896 327.452-43.936 66.411c-13.787 20.838-36.943 33.139-61.919 32.847-24.985-.271-47.861-13.048-61.192-34.181l-43.053-68.244c-14.718-.123-28.58-1.579-41.544-4.022l56.695 89.868c14.273 22.623 36.092 38.633 61.113 45.627l-21.749 30.081c-5.337 7.383-3.68 17.695 3.703 23.033 7.381 5.337 17.694 3.681 23.032-3.703l24.445-33.81 24.446 33.81c3.225 4.462 8.266 6.832 13.381 6.832 3.348 0 6.73-1.017 9.651-3.129 7.382-5.338 9.04-15.65 3.702-23.033l-21.968-30.384c23.793-6.929 44.665-22.067 58.772-43.39l59.266-89.582c-14.291 3.384-28.748 4.846-42.845 4.969z" fill="#616161"/><g><path d="m272.133 259.533c47.675-25.638 74.934-28.579 115.471-26.689 19.085-.902 108.987 7.114 98.379-2.493-23.138-10.78-52.988-22.483-69.055-36.096h-311.993c-51.506 46.485-81.841 47.952-79.676 54.798 14.798 16.207 41.75 24.589 61.891 32.199 73.893 22.279 135.741 5.21 184.983-21.719z" fill="#616161"/><path d="m261.083 0c-95.268 1.728-153.727 73.666-145.839 161.264h291.031c7.919-88.708-51.41-159.147-145.192-161.264z" fill="#616161"/><path d="m465.105 267.464c-89.689.765-114.301-11.506-166.422 16.139 53.335 14.26 112.268 19.472 166.422-16.139z" fill="#616161"/></g></g></svg>
