<?xml version="1.0"?>
<svg xmlns="http://www.w3.org/2000/svg" height="512px" viewBox="0 0 64 64" width="512px"><g id="Glyph"><path d="m39 20v2h4v-2c.509-.836 1.088-1.661 1.677-2.5 1.709-2.432 3.323-4.729 3.323-7.5 0-4.415-2.521-6.966-6.927-7a6.985 6.985 0 0 0 -6.594 4.405c-1.457 3.975.633 6.949 2.873 10.137.56.797 1.139 1.622 1.648 2.458zm2-13c2.215 0 3 .785 3 3 0 1.857-.632 5-3 5s-3-3.143-3-5c0-2.215.785-3 3-3z" fill="#616161"/><path d="m43 28h-4a1 1 0 0 0 0 2h4a1 1 0 0 0 0-2z" fill="#616161"/><path d="m43 24h-4a1 1 0 0 0 0 2h4a1 1 0 0 0 0-2z" fill="#616161"/><path d="m29 61c6.957 0 14-4.122 14-12v-17h-4v17c0 4.71-4.112 8-10 8-4.963 0-9-4.486-9-10v-5h4l-8-8v13c0 7.72 5.832 14 13 14z" fill="#616161"/></g></svg>
