<?xml version="1.0"?>
<svg xmlns="http://www.w3.org/2000/svg" id="bold" enable-background="new 0 0 24 24" height="512px" viewBox="0 0 24 24" width="512px"><path d="m18.359 2h-12.718c-3.11 0-5.641 2.467-5.641 5.5s2.531 5.5 5.641 5.5c1.631 0 3.198-.704 4.264-1.9h4.189c1.066 1.196 2.633 1.9 4.264 1.9 3.111 0 5.642-2.467 5.642-5.5s-2.531-5.5-5.641-5.5zm-10.859 6.5h-1v1c0 .552-.448 1-1 1s-1-.448-1-1v-1h-1c-.552 0-1-.448-1-1s.448-1 1-1h1v-1c0-.552.448-1 1-1s1 .448 1 1v1h1c.552 0 1 .448 1 1s-.448 1-1 1zm11-4c.551 0 1 .449 1 1s-.449 1-1 1-1-.449-1-1 .449-1 1-1zm-2 4c-.551 0-1-.449-1-1s.449-1 1-1 1 .449 1 1-.449 1-1 1zm2 2c-.551 0-1-.449-1-1s.449-1 1-1 1 .449 1 1-.449 1-1 1zm2-2c-.551 0-1-.449-1-1s.449-1 1-1 1 .449 1 1-.449 1-1 1z" fill="#616161"/><path d="m10.95 17.65c-.492-.369-1.2-.018-1.2.6v.686c-.614-.034-1.214-.079-1.783-.142-4.875-.502-6.467-1.69-6.467-2.044 0-.108.329-.617 1.928-1.149.332-.077.577-.375.577-.731 0-.493-.519-.865-.988-.713-2.002.655-3.017 1.527-3.017 2.593 0 2.466 5.464 3.294 7.808 3.536.62.068 1.271.118 1.942.154v.81c0 .62.71.967 1.2.6l2-1.5c.398-.299.4-.9 0-1.2z" fill="#616161"/><path d="m20.978 14.157c-.395-.129-.817.087-.946.481-.128.394.087.817.481.946 1.622.528 1.987 1.032 1.987 1.167 0 .443-2.057 1.678-7.148 2.103-.413.035-.719.397-.685.81.033.395.371.715.81.685 2.562-.216 8.523-.995 8.523-3.599 0-1.067-1.017-1.94-3.022-2.593z" fill="#616161"/></svg>
