<?xml version="1.0"?>
<svg xmlns="http://www.w3.org/2000/svg" id="Capa_1" enable-background="new 0 0 512 512" height="512px" viewBox="0 0 512 512" width="512px"><g><path d="m211.794 203.27 35.481 35.48h17.45l35.481-35.48-44.206-44.206z" fill="#616161"/><path d="m146.004 240.947c16.911-3.477 26.586-1.724 58.846-2.197l-35.481-35.48 86.631-86.633 86.632 86.632-35.481 35.48c32.627.479 42.007-1.265 58.846 2.197 8.63-26.633 29.334-47.876 55.629-57.245v-58.611c0-45.369-36.91-82.279-82.279-82.279h-166.693c-45.369 0-82.279 36.91-82.279 82.279v58.611c26.295 9.37 46.999 30.613 55.629 57.246z" fill="#616161"/><path d="m512 268.688c0-33.188-27-60.188-60.188-60.188s-60.188 27-60.188 60.188v16.267c-13.074-10.144-29.468-16.205-47.259-16.205h-176.731c-17.791 0-34.185 6.06-47.259 16.205v-16.267c0-33.188-27-60.188-60.188-60.188s-60.187 27-60.187 60.188v155.5h45.188v45h30v-45h361.625v45h30v-45h45.187z" fill="#616161"/></g></svg>
