<?xml version="1.0"?>
<svg xmlns="http://www.w3.org/2000/svg" id="Capa_1" enable-background="new 0 0 512 512" height="512px" viewBox="0 0 512 512" width="512px"><g><path d="m214.926 167.48h82.148l-41.074-71.142z" fill="#616161"/><path d="m376.5 73-120.5-68.244-120.5 68.244v135.783l120.5 68.244 120.5-68.244zm-186.477 124.48-13.529-23.434 65.977-114.275h27.059l65.977 114.275-13.529 23.434z" fill="#616161"/><path d="m391.5 395.291 24.654 12.961-4.708-27.453 19.947-19.442-27.566-4.006-12.327-24.977-12.327 24.977-27.566 4.006 19.947 19.442-4.708 27.453z" fill="#616161"/><path d="m512 439v-135.991l-120.5-68.244-120.5 68.244v135.991l120.5 68.244zm-179.511-7.901 6.83-39.826-28.936-28.206 8.88-27.326 39.987-5.811 17.883-36.235h28.732l17.883 36.235 39.987 5.811 8.88 27.326-28.936 28.206 6.83 39.826-23.244 16.889-35.765-18.803-35.767 18.803z" fill="#616161"/><ellipse cx="120.5" cy="371.005" rx="43.071" ry="43.072" transform="matrix(.987 -.16 .16 .987 -57.872 24.093)" fill="#616161"/><path d="m241 439v-135.991l-120.5-68.244-120.5 68.244v135.991l120.5 68.244zm-193.571-67.995c0-40.292 32.779-73.072 73.071-73.072s73.071 32.78 73.071 73.072-32.779 73.071-73.071 73.071-73.071-32.78-73.071-73.071z" fill="#616161"/></g></svg>
