<?xml version="1.0"?>
<svg xmlns="http://www.w3.org/2000/svg" id="Capa_1" enable-background="new 0 0 512 512" height="512px" viewBox="0 0 512 512" width="512px"><g><path d="m506 145-80-60c-2.597-1.947-5.755-3-9-3h-185v-5c0-8.284-6.716-15-15-15h-5v-47c0-8.284-6.716-15-15-15h-100c-8.284 0-15 6.716-15 15v47h-5c-8.284 0-15 6.716-15 15v5h-47c-8.284 0-15 6.716-15 15v100c0 8.284 6.716 15 15 15h47v5c0 8.284 6.716 15 15 15h5v220h-15c-19.33 0-35 15.67-35 35v10c0 8.284 6.716 15 15 15h200c8.284 0 15-6.716 15-15v-10c0-19.33-15.67-35-35-35h-15v-220h5c8.284 0 15-6.716 15-15v-5h265c8.284 0 15-6.716 15-15v-40c0-4.721-2.223-9.167-6-12zm-444 37h-32v-70h32zm50 64.601 59.635 43.732-59.635 43.733zm70 205.399h-70v-58.732l70 51.333zm0-44.601-59.635-43.732 59.635-43.733zm0-146.667-39.181-28.732h39.181zm0-198.732h-70v-32h70zm50 50h33.791l-33.791 42.238zm16.209 70 48.791-60.988 48.791 60.988zm124.424-14.471-44.424-55.529h66.635zm109.367 14.471h-82.845l24.503-61.257 58.342 43.757z" fill="#616161"/><path d="m487 312c-8.284 0-15 6.716-15 15 0 4.443-1.955 8.634-5.365 11.498-3.456 2.902-7.886 4.058-12.479 3.25-5.867-1.03-10.873-6.036-11.902-11.904-1.461-8.319 3.654-14.498 9.023-16.718 12.588-5.204 20.723-17.734 20.723-31.922v-39.204h-30v39.204c0 1.878-.939 3.684-2.185 4.198-19.665 8.13-30.812 28.538-27.111 49.628 3.188 18.165 18.101 33.078 36.266 36.266 2.658.467 5.323.696 7.971.696 10.569 0 20.821-3.664 28.987-10.521 10.214-8.577 16.072-21.142 16.072-34.471 0-8.284-6.716-15-15-15z" fill="#616161"/></g></svg>
