<?xml version="1.0"?>
<svg xmlns="http://www.w3.org/2000/svg" id="Capa_1" enable-background="new 0 0 512 512" height="512px" viewBox="0 0 512 512" width="512px"><g><path d="m88.836 390.714h305.429v-238c0-84.207-68.508-152.714-152.715-152.714s-152.714 68.507-152.714 152.714v72.978l-4.456-4.456c-19.271-19.272-50.631-19.272-69.902 0-9.336 9.336-14.478 21.749-14.478 34.952s5.142 25.615 14.478 34.951l74.358 74.359zm206.832-184.143h30v133.286h-30zm-68.857 0h30v133.286h-30zm-68.858 0h30v133.286h-30z" fill="#616161"/><path d="m462.571 413.143c-11.913 0-25.273 6.915-40.847 21.139-5.345 4.882-9.956 9.733-13.175 13.29h-14.285v-26.857h-305.428v56.857h319.713c3.219 3.557 7.83 8.407 13.175 13.29 15.574 14.223 28.934 21.138 40.847 21.138 27.255 0 49.429-22.174 49.429-49.429s-22.174-49.428-49.429-49.428zm0 68.857c-4.753 0-16.358-8.59-27.031-19.439 10.651-10.842 22.25-19.418 27.031-19.418 10.713 0 19.429 8.715 19.429 19.428s-8.716 19.429-19.429 19.429z" fill="#616161"/></g></svg>
