<?xml version="1.0"?>
<svg xmlns="http://www.w3.org/2000/svg" id="Capa_1" enable-background="new 0 0 512 512" height="512px" viewBox="0 0 512 512" width="512px"><g><g><g><path d="m327.949 45c-12.984-26.64-40.319-45-71.949-45-31.63 0-58.965 18.36-71.949 45z" fill="#616161"/><path d="m336 80c0-1.681-.069-3.345-.171-5h-159.658c-.102 1.655-.171 3.319-.171 5v25h160z" fill="#616161"/><path d="m176 135v7c0 44.183 35.817 80 80 80 44.183 0 80-35.817 80-80v-7z" fill="#616161"/></g><g><path d="m231 249.132v13.326l25 37.5 25-37.5v-13.326c-8.034 1.874-16.403 2.868-25 2.868s-16.966-.993-25-2.868z" fill="#616161"/></g><g><path d="m46 62c-8.284 0-15 6.716-15 15v45h60v-15c0-24.853-20.147-45-45-45z" fill="#616161"/></g><g><path d="m466 512c8.284 0 15-6.716 15-15v-45h-60v15c0 24.853 20.147 45 45 45z" fill="#616161"/></g><path d="m406 257h-95v10c0 2.961-.876 5.856-2.519 8.32l-37.481 56.222v95.458c0 8.284-6.716 15-15 15s-15-6.716-15-15v-95.458l-37.481-56.221c-1.643-2.464-2.519-5.359-2.519-8.32v-9.999h-95c-4.141 0-8.025-1.666-10.888-4.681-2.736-2.883-4.112-6.8-4.112-10.774v-89.547h-60v90c0 41.421 33.579 75 75 75h25v180c0 8.284 6.716 15 15 15h220c8.284 0 15-6.716 15-15v-180h25c8.284 0 15 6.716 15 15v90h60v-90c0-41.355-33.645-75-75-75z" fill="#616161"/></g><g><path d="m511.419 95.879c-7.718-27.013-32.729-45.879-60.823-45.879h-3.6c-8.284 0-15 6.716-15 15v72.58c-4.695-1.665-9.742-2.58-15-2.58-24.813 0-45 20.187-45 45s20.187 45 45 45 45-20.187 45-45v-97.965c9.775 3.599 17.609 11.696 20.577 22.086 2.276 7.965 10.578 12.581 18.543 10.302 7.967-2.276 12.579-10.578 10.303-18.544z" fill="#616161"/><path d="m75 367c-8.284 0-15 6.716-15 15v42.58c-4.695-1.665-9.742-2.58-15-2.58-24.813 0-45 20.187-45 45s20.187 45 45 45 45-20.187 45-45v-85c0-8.284-6.716-15-15-15z" fill="#616161"/></g></g></svg>
