<?xml version="1.0"?>
<svg xmlns="http://www.w3.org/2000/svg" id="Capa_1" enable-background="new 0 0 511.943 511.943" height="512px" viewBox="0 0 511.943 511.943" width="512px"><g><path d="m184.983 59.943 22.863 16.467-3.921 10.687c-1.024 2.79-7.346 17.75-31.304 38.285-6.982 5.984-14.633 10.779-21.88 14.552 8.171 2.853 16.876 4.117 25.623 3.632 15.706-.869 30.497-7.331 41.648-18.193 23.315-22.714 26.049-46.65 26.222-48.439l.078-1.426.353-1.181c.98-3.817 2.051-7.29 3.271-10.616 3.176-8.647 7.315-16.529 12.076-23.697-21.15-4.844-40.516-2.488-57.768 7.082-7.209 4-12.973 8.703-17.261 12.847z" fill="#616161"/><path d="m434.098 79.002c-14.172-22.674-40.256-22.867-54.893-20.863 1.879 19.529.819 40.868-6.578 61.005-.208.567-.423 1.135-.643 1.703 21.01 17.753 39.496 38.572 54.698 61.475 35.672-1.689 61.132-18.322 75.72-49.527 4.851-10.375 7.776-20.752 9.541-29.478-3.808.997-7.896 1.874-12.153 2.496-28.908 4.227-52.241-5.292-65.692-26.811z" fill="#616161"/><path d="m344.345 137.058-9.92-7.697 5.831-11.12c1.646-3.139 3.063-6.315 4.211-9.442 12.489-34.001 1.132-74.993-6.36-95.603-18.041 8.703-49.994 28.144-62.009 60.855-.767 2.09-1.462 4.303-2.114 6.739-.922 7.467-6.345 38.118-35.037 66.07-16.344 15.921-37.98 25.389-60.924 26.659-21.214 1.175-42.252-4.717-59.765-16.648l-47.69 47.689c44.31 31.668 70.373 70.86 84.786 99.508 11.554 22.967 17.499 42.551 20.253 53.488 6.976 1.787 14.16 2.701 21.452 2.701 6.103 0 12.194-.64 18.104-1.902l22.96-4.904-32.991 145.295h239.399v-157.348c0-40.64-9.16-79.529-27.227-115.589-17.232-34.397-42.46-65.087-72.959-88.751zm-187.158 98.876 22.044-20.349-.076-.081c.124.129 12.537 12.968 29.249 12.968 16.807 0 29.054-12.758 29.173-12.887l22.044 20.349c-.85.92-21.151 22.539-51.217 22.539-30.067-.001-50.369-21.619-51.217-22.539z" fill="#616161"/><path d="m24.423 368.63c15.749 15.749 36.688 24.422 58.962 24.422 22.272 0 43.212-8.673 58.961-24.422l4.076-4.076c-2.409-9.455-7.801-27.212-18.362-47.98-18.956-37.275-45.53-67.64-79.044-90.46l-24.593 24.593c-15.749 15.749-24.423 36.688-24.423 58.961s8.674 43.212 24.423 58.962zm15.49-77.444h33.734v30h-33.734z" fill="#616161"/><path d="m126.587 118.065c7.928-3.193 18.063-8.22 26.511-15.461 7.748-6.641 13.026-12.362 16.534-16.746l-68.349-49.228z" fill="#616161"/></g></svg>
