<?xml version="1.0"?>
<svg xmlns="http://www.w3.org/2000/svg" id="Layer_4" enable-background="new 0 0 24 24" height="512px" viewBox="0 0 24 24" width="512px"><path d="m22.963 14.676c-.002-.001-.003-.002-.005-.004l-1.537-1.413c.053-.425.079-.847.079-1.259s-.026-.834-.079-1.259l1.542-1.417c.509-.479.625-1.24.279-1.854l-1.696-2.935c-.341-.607-1.081-.891-1.756-.682l-1.995.63c-.679-.527-1.408-.951-2.175-1.263l-.462-2.048c-.15-.679-.763-1.172-1.458-1.172h-3.4c-.695 0-1.308.493-1.457 1.17l-.463 2.05c-.767.312-1.496.736-2.175 1.263l-1.997-.63c-.672-.21-1.414.076-1.751.677l-1.702 2.945c-.343.61-.227 1.371.287 1.854l1.537 1.413c-.053.424-.079.846-.079 1.258s.026.834.079 1.259l-1.542 1.417c-.509.479-.625 1.24-.279 1.854l1.696 2.935c.341.607 1.082.892 1.756.682l1.995-.63c.679.527 1.408.951 2.175 1.263l.462 2.048c.15.679.763 1.172 1.458 1.172h3.4c.694 0 1.308-.493 1.457-1.17l.463-2.05c.767-.312 1.496-.735 2.175-1.263l1.997.63c.671.209 1.413-.076 1.751-.678l1.702-2.945c.343-.608.227-1.369-.282-1.848zm-10.963 2.824c-3.033 0-5.5-2.467-5.5-5.5s2.467-5.5 5.5-5.5 5.5 2.467 5.5 5.5-2.467 5.5-5.5 5.5z" fill="#616161"/><g><path d="m13.75 14.75c-.256 0-.512-.098-.707-.293l-1.75-1.75c-.188-.187-.293-.441-.293-.707v-2.75c0-.553.447-1 1-1s1 .447 1 1v2.336l1.457 1.457c.391.391.391 1.023 0 1.414-.195.195-.451.293-.707.293z" fill="#616161"/></g></svg>
