<?xml version="1.0"?>
<svg xmlns="http://www.w3.org/2000/svg" id="Capa_1" enable-background="new 0 0 512 512" height="512px" viewBox="0 0 512 512" width="512px"><g><path d="m391 256c0-74.443-60.557-135-135-135s-135 60.557-135 135v75h60v90h60v-120h30v120h60v-90h60zm-150 15h-60v-30h60zm90 0h-60v-30h60z" fill="#616161"/><path d="m45 136c13.085 0 24.76-5.674 32.983-14.59l42.162 41.162c11.446-16.591 25.836-30.981 42.427-42.427l-42.162-41.162c8.916-8.223 14.59-20.898 14.59-33.983 0-24.853-20.147-45-45-45s-45 20.147-45 45c-24.853 0-45 21.147-45 46s20.147 45 45 45z" fill="#616161"/><path d="m467 376c-13.085 0-24.76 5.674-32.983 14.59l-30.59-29.59h-42.427v42.427l30.59 29.59c-8.916 8.223-14.59 19.898-14.59 32.983 0 24.853 20.147 46 45 46s45-21.147 45-46c24.853 0 45-20.147 45-45s-20.147-45-45-45z" fill="#616161"/><path d="m467 45c0-24.853-20.147-45-45-45s-45 20.147-45 45c0 13.085 5.674 25.76 14.59 33.983l-42.162 41.162c16.591 11.446 30.981 25.836 42.427 42.427l42.162-41.162c8.223 8.916 19.898 14.59 32.983 14.59 24.853 0 45-20.147 45-45s-20.147-46-45-46z" fill="#616161"/><path d="m45 466c0 24.853 20.147 46 45 46s45-21.147 45-46c0-13.085-5.674-24.76-14.59-32.983l30.59-29.59v-42.427h-42.427l-30.59 29.59c-8.223-8.916-19.898-14.59-32.983-14.59-24.853 0-45 20.147-45 45s20.147 45 45 45z" fill="#616161"/></g></svg>
