<svg id="Glyph" enable-background="new 0 0 32 32" height="512" viewBox="0 0 32 32" width="512" xmlns="http://www.w3.org/2000/svg"><path id="XMLID_103_" d="m31 27c0 .552-.448 1-1 1-1.278 0-2.11.416-3.072.898-1.032.517-2.201 1.102-3.928 1.102-1.736 0-2.91-.587-3.946-1.105-.96-.48-1.789-.895-3.054-.895s-2.094.415-3.054.895c-1.036.518-2.21 1.105-3.946 1.105-1.727 0-2.896-.585-3.928-1.102-.962-.482-1.794-.898-3.072-.898-.552 0-1-.448-1-1s.448-1 1-1c1.751 0 2.929.59 3.968 1.11.954.477 1.778.89 3.032.89 1.264 0 2.092-.415 3.052-.894 1.036-.519 2.211-1.106 3.948-1.106s2.912.587 3.948 1.106c.96.479 1.788.894 3.052.894 1.254 0 2.078-.413 3.032-.89 1.039-.52 2.217-1.11 3.968-1.11.552 0 1 .448 1 1z"/><path id="XMLID_104_" d="m31 22c0 .552-.448 1-1 1-1.278 0-2.11.416-3.072.898-1.032.517-2.201 1.102-3.928 1.102-1.736 0-2.91-.587-3.946-1.105-.96-.48-1.789-.895-3.054-.895s-2.094.415-3.054.895c-1.036.518-2.21 1.105-3.946 1.105-1.727 0-2.896-.585-3.928-1.102-.962-.482-1.794-.898-3.072-.898-.552 0-1-.448-1-1s.448-1 1-1c1.751 0 2.929.59 3.968 1.11.954.477 1.778.89 3.032.89 1.264 0 2.092-.415 3.052-.894 1.036-.519 2.211-1.106 3.948-1.106s2.912.587 3.948 1.106c.96.479 1.788.894 3.052.894 1.254 0 2.078-.413 3.032-.89 1.039-.52 2.217-1.11 3.968-1.11.552 0 1 .448 1 1z"/><path id="XMLID_966_" d="m30 16c-1.751 0-2.929.59-3.968 1.11-.89.445-1.68.82-2.798.871-2.16-.046-3.875-1.11-4.715-2.947-.835-1.828-.61-4.04.549-5.379.499-.576 1.555-.828 2.303-.55.564.209.629.611.629.895 0 .552.448 1 1 1 1.18 0 3-1.718 3-4 0-2.851-2.58-5-6-5-6.948 0-9.388 4.577-11.349 8.255-1.711 3.21-3.063 5.745-6.651 5.745-.552 0-1 .448-1 1s.448 1 1 1c1.278 0 2.11.416 3.072.898 1.032.517 2.201 1.102 3.928 1.102 1.736 0 2.91-.587 3.946-1.105.96-.48 1.789-.895 3.054-.895s2.094.415 3.054.895c1.036.518 2.21 1.105 3.946 1.105 1.727 0 2.896-.585 3.928-1.102.962-.482 1.794-.898 3.072-.898.552 0 1-.448 1-1s-.448-1-1-1z"/></svg>