<?xml version="1.0" encoding="iso-8859-1"?>
<!-- Generator: Adobe Illustrator 19.0.0, SVG Export Plug-In . SVG Version: 6.00 Build 0)  -->
<svg version="1.1" id="Capa_1" xmlns="http://www.w3.org/2000/svg" xmlns:xlink="http://www.w3.org/1999/xlink" x="0px" y="0px"
	 viewBox="0 0 512.001 512.001" style="enable-background:new 0 0 512.001 512.001;" xml:space="preserve">
<g>
	<g>
		<path d="M506.998,342.422c0-0.038,0.003-0.075,0.003-0.113c0-11.454-2.617-22.307-7.282-31.996l4.526-2.174
			c-5.096-10.608-12.656-20.117-21.864-27.497l-3.159,3.94c-8.533-6.846-18.607-11.836-29.614-14.371l1.125-4.901
			c-11.456-2.63-23.651-2.656-35.119-0.079l1.103,4.905c-2.634,0.594-5.214,1.328-7.734,2.196l-35.749-63.248
			c23.941-6.481,49.017-6.342,73.012,0.514l8.241-28.846c-31.732-9.067-65.021-8.532-96.409,1.517l-50.659-89.627H256v30h33.915
			l25.026,44.277l-48.491-10.684l-85.574,21.394L13.431,146.231l-5.528,29.486l51.764,9.706v50.712l99.05,29.715l2.486,14.916
			l-24.024,8.121c-2.802-3.054-5.835-5.895-9.074-8.468l-3.143,3.957c-8.562-6.807-18.656-11.755-29.679-14.241l1.103-4.905
			c-11.467-2.577-23.662-2.551-35.119,0.079l1.125,4.901c-11.007,2.535-21.081,7.524-29.614,14.371l-3.158-3.94
			c-9.208,7.38-16.768,16.889-21.864,27.497l4.527,2.174C7.617,320,5,330.854,5,342.307c0,0.038,0.003,0.076,0.003,0.113L0,342.43
			c0.018,11.999,2.663,23.527,7.859,34.263l4.522-2.189c4.865,10.026,11.937,18.783,20.568,25.666L29.8,404.12
			c9.247,7.368,20.206,12.637,31.696,15.239l1.11-4.904c5.277,1.199,10.759,1.853,16.394,1.853c5.672,0,11.188-0.663,16.497-1.877
			l1.117,4.902c11.484-2.617,22.436-7.902,31.672-15.283l-3.154-3.946c8.622-6.896,15.684-15.663,20.535-25.698l4.523,2.181
			c5.181-10.744,7.808-22.278,7.808-34.28l0.002-0.196h-5.005c-0.006-2.12-0.115-4.215-0.296-6.29l31.101-10.514h68.165
			c34.251,0,65.86-18.599,82.494-48.54l21.102-37.983l25.079,44.371c-7.773,6.895-14.203,15.347-18.729,24.659l4.521,2.197
			c-4.74,9.729-7.41,20.644-7.429,32.17L354,342.195v0.112c0,12.002,2.627,23.535,7.808,34.28l4.523-2.181
			c4.851,10.035,11.914,18.802,20.535,25.698l-3.154,3.946c9.236,7.381,20.188,12.665,31.672,15.283l1.117-4.902
			c5.309,1.214,10.826,1.877,16.497,1.877c5.635,0,11.117-0.654,16.394-1.853l1.11,4.904c11.49-2.601,22.45-7.871,31.696-15.239
			l-3.149-3.951c8.631-6.883,15.703-15.64,20.568-25.666l4.522,2.189c5.199-10.736,7.844-22.264,7.862-34.263L506.998,342.422z
			 M94,357.307H64v-30h30V357.307z M448,357.307h-30v-30h30V357.307z"/>
	</g>
</g>
<g>
</g>
<g>
</g>
<g>
</g>
<g>
</g>
<g>
</g>
<g>
</g>
<g>
</g>
<g>
</g>
<g>
</g>
<g>
</g>
<g>
</g>
<g>
</g>
<g>
</g>
<g>
</g>
<g>
</g>
</svg>
