<svg id="Glyph" enable-background="new 0 0 100 100" height="512" viewBox="0 0 100 100" width="512" xmlns="http://www.w3.org/2000/svg"><path d="m22.5 59.2h-5.8c-.7 0-1.3-1-1.3-2.3v-11.2c0-1.2.6-2.3 1.3-2.3l5.9.3c-1.1 2.9-.3 13.3-.1 15.5z"/><path d="m77.4 43.7 5.9-.3c.7 0 1.3 1 1.3 2.3v11.3c0 1.2-.6 2.3-1.3 2.3h-5.8c.2-2.3 1-12.7-.1-15.6z"/><path d="m50 21.4c14.2 0 24.3 11.3 26.8 19.4h5.6v-10c0-7.6-6-13.8-13.4-13.8h-19-19c-7.4 0-13.4 6.2-13.4 13.8v10.1h5.6c2.9-9.9 13.4-19.5 26.8-19.5"/><path d="m22.6 63.8s-3.6 1.3-5.5 3.2c0-2.4 0-5.2 0-5.2h5.4z"/><path d="m77.4 63.8s3.6 1.3 5.5 3.2c0-2.4 0-5.2 0-5.2h-5.4z"/><path d="m50 24.4c-14.1 0-25.6 11.4-25.6 25.6l1.1 17.8s13.6 8.7 24.5 8.7c11.4 0 24.3-8.7 24.3-8.7s1.3-17.8 1.3-17.8c0-14.2-11.5-25.6-25.6-25.6zm0 43.2c-10.3 0-16.4-5.9-16.4-16.8 0-9 7.3-10.1 16.4-10.1 9 0 16.4 1.1 16.4 10.1 0 10.4-5.7 16.8-16.4 16.8z"/><path d="m50 79.1c8.2 0 23.2-5.5 27.2-10 .1-1.6.1-2.6.1-2.6 8.7 3.5 13.2 11.5 13.2 19.5h-40.5-40.5c0-8 4.5-16 13.1-19.5 0 0 0 1 .1 2.6 4.1 4.5 19.1 10 27.3 10z"/></svg>