<svg id="Layer_1" enable-background="new 0 0 512 512" height="512" viewBox="0 0 512 512" width="512" xmlns="http://www.w3.org/2000/svg"><g><path d="m464.867 241h-53.87l47.031 109.741c4.519 10.542 4.803 22.194 1.067 32.726h37.905c8.284 0 15-6.716 15-15v-80.333c0-25.99-21.144-47.134-47.133-47.134z"/><path d="m252.8 79.267v68.588l34.267 17.134v-149.989c0-8.284-6.716-15-15-15-26.638 0-50.831 13.37-65.3 34.267h1.033c24.813 0 45 20.187 45 45z"/><path d="m497 449.867c-18.307 0-33.2-14.894-33.2-33.2v-3.2h-94.267v3.2c0 18.598-15.162 33.2-33.2 33.2h-160.666c-18.041 0-33.2-14.606-33.2-33.2v-3.2h-94.267v3.2c0 18.307-14.894 33.2-33.2 33.2-8.284 0-15 6.716-15 15 0 26.576 21.646 47.133 47.133 47.133h417.733c25.491 0 47.134-20.564 47.134-47.133 0-8.284-6.716-15-15-15z"/><path d="m47.133 383.467h369.533c5.042 0 9.747-2.533 12.522-6.743 2.776-4.209 3.251-9.532 1.265-14.166l-48.2-112.467c-1.397-3.261-3.906-5.921-7.079-7.508l-13.519-6.76-46.849 46.849c-5.857 5.858-15.355 5.858-21.213 0-5.858-5.857-5.858-15.355 0-21.213l39.778-39.778-35.983-17.991-46.848 46.85c-5.858 5.858-15.355 5.858-21.213 0s-5.858-15.355 0-21.213l39.778-39.778-35.983-17.991-46.849 46.849c-5.857 5.858-15.355 5.858-21.213 0s-5.858-15.355 0-21.213l57.74-57.74v-60.187c0-8.284-6.716-15-15-15h-160.667c-8.284 0-15 6.716-15 15v108.926l-30.55 61.1c-1.041 2.082-1.583 4.378-1.583 6.707v80.333c0 26.577 21.646 47.134 47.133 47.134z"/></g></svg>