<?xml version="1.0" encoding="iso-8859-1"?>
<!-- Generator: Adobe Illustrator 19.0.0, SVG Export Plug-In . SVG Version: 6.00 Build 0)  -->
<svg version="1.1" id="Capa_1" xmlns="http://www.w3.org/2000/svg" xmlns:xlink="http://www.w3.org/1999/xlink" x="0px" y="0px"
	 viewBox="0 0 512 512" style="enable-background:new 0 0 512 512;" xml:space="preserve">
<g>
	<g>
		<path d="M138.077,229.326c-2.799-2.79-6.659-4.39-10.61-4.39c-3.95,0-7.819,1.6-10.609,4.39c-2.79,2.8-4.391,6.661-4.391,10.61
			c0,3.94,1.601,7.81,4.391,10.6c2.79,2.801,6.659,4.4,10.609,4.4c3.95,0,7.811-1.6,10.61-4.4c2.79-2.79,4.39-6.65,4.39-10.6
			C142.467,235.987,140.867,232.116,138.077,229.326z"/>
	</g>
</g>
<g>
	<g>
		<path d="M395.134,229.326c-2.792-2.79-6.661-4.39-10.6-4.39c-3.95,0-7.809,1.6-10.61,4.39c-2.79,2.79-4.39,6.661-4.39,10.61
			s1.6,7.81,4.39,10.6c2.79,2.801,6.66,4.4,10.61,4.4s7.809-1.6,10.6-4.4c2.801-2.79,4.4-6.66,4.4-10.6
			C399.534,235.987,397.934,232.116,395.134,229.326z"/>
	</g>
</g>
<g>
	<g>
		<path d="M496.597,205.293l-37.728-75.409c-0.185-0.41-0.38-0.811-0.6-1.199L442.742,97.65
			c-11.823-23.629-33.06-45.741-59.8-62.262c-26.739-16.521-56.016-25.621-82.439-25.621h-89.002c-26.423,0-55.7,9.099-82.44,25.621
			C102.322,51.908,81.084,74.021,69.261,97.65l-15.873,31.725l-37.983,75.918C3.633,228.82-1.673,259.197,0.463,290.826
			c2.138,31.629,11.482,61.016,26.312,82.746l33.167,48.603c14.696,21.536,38.475,41.682,66.958,56.727s58.528,23.332,84.601,23.332
			h89.002c26.073,0,56.118-8.286,84.601-23.332c28.482-15.046,52.262-35.19,66.96-56.727l33.168-48.604
			c14.826-21.731,24.169-51.116,26.306-82.745C513.674,259.196,508.368,228.819,496.597,205.293z M218.408,304.283l37.593-37.592
			l37.592,37.592l7.404,7.404l-44.996,68.025l-44.996-68.025L218.408,304.283z M460.452,356.662l-33.167,48.601
			c-24.776,36.302-82.835,66.971-126.781,66.971h-89.002c-43.949,0-102.007-30.668-126.78-66.97l-33.167-48.603
			c-24.502-35.9-28.77-99.072-9.32-137.945l35.714-71.382c10.503-4.756,21.734-7.163,33.454-7.163
			c44.883,0,81.398,36.515,81.398,81.398l0.002,65.896l-11.673,11.673c-2.836,2.835-4.328,6.574-4.392,10.36
			c-0.035,2.104,0.371,4.223,1.233,6.209c0.344,0.795,0.762,1.569,1.254,2.313l64.266,97.157c2.777,4.199,7.477,6.725,12.511,6.725
			s9.733-2.525,12.51-6.725l64.267-97.157c0.492-0.743,0.91-1.517,1.254-2.313c0.862-1.986,1.269-4.105,1.233-6.209
			c-0.064-3.786-1.556-7.525-4.392-10.36l-11.674-11.674v-65.895c0-44.883,36.515-81.398,81.399-81.398
			c11.721,0,22.954,2.409,33.458,7.167l35.711,71.378C489.215,257.586,484.948,320.757,460.452,356.662z"/>
	</g>
</g>
<g>
</g>
<g>
</g>
<g>
</g>
<g>
</g>
<g>
</g>
<g>
</g>
<g>
</g>
<g>
</g>
<g>
</g>
<g>
</g>
<g>
</g>
<g>
</g>
<g>
</g>
<g>
</g>
<g>
</g>
</svg>
