<svg id="Layer_1" enable-background="new 0 0 511.863 511.863" height="512" viewBox="0 0 511.863 511.863" width="512" xmlns="http://www.w3.org/2000/svg"><g><path d="m131.932 421.932h248c18.99 0 35.078-12.67 40.254-30h-328.508c5.176 17.33 21.263 30 40.254 30z"/><path d="m197.932 361.932h116c24.813 0 45-20.187 45-45v-12-74-19h-206v105c0 24.813 20.187 45 45 45z"/><path d="m466.863 0h-421.863c-24.813 0-45 20.187-45 45v421.863c0 24.813 20.187 45 45 45h421.864c24.813 0 45-20.187 45-45v-421.863c-.001-24.813-20.187-45-45.001-45zm-165.93 113.932c0-8.284 6.716-15 15-15s15 6.716 15 15v23c0 8.284-6.716 15-15 15s-15-6.716-15-15zm-60.001-39c0-8.284 6.716-15 15-15s15 6.716 15 15v62c0 8.284-6.716 15-15 15s-15-6.716-15-15zm-60 39c0-8.284 6.716-15 15-15s15 6.716 15 15v23c0 8.284-6.716 15-15 15s-15-6.716-15-15zm271 131c0 37.289-27.357 68.297-63.052 74.037-.432 16.085-5.933 30.927-14.989 42.963h63.041c8.284 0 15 6.716 15 15v3c0 39.701-32.299 72-72 72h-248c-39.701 0-72-32.299-72-72v-3c0-8.284 6.716-15 15-15h63.041c-9.438-12.544-15.041-28.129-15.041-45v-120c0-8.284 6.716-15 15-15h236c8.284 0 15 6.716 15 15v19h48c8.284 0 15 6.716 15 15z"/><path d="m388.932 288.308c18.698-5.18 32.545-22.156 32.989-42.376h-32.989z"/></g></svg>