<?xml version="1.0" encoding="iso-8859-1"?>
<!-- Generator: Adobe Illustrator 19.0.0, SVG Export Plug-In . SVG Version: 6.00 Build 0)  -->
<svg version="1.1" id="Capa_1" xmlns="http://www.w3.org/2000/svg" xmlns:xlink="http://www.w3.org/1999/xlink" x="0px" y="0px"
	 viewBox="0 0 512 512" style="enable-background:new 0 0 512 512;" xml:space="preserve">
<g>
	<g>
		<path d="M256,166c-2.1,0-3.9,0.3-6,0.599c-0.3,0-0.3,0-0.599,0.3C238.065,176.107,226.264,181,211,181h-91
			c-32.252,0-60-26.371-60-60c0-33.001,27.001-60,60-60h70.6c19.799-9.6,41.999-15,65.4-15c19.799,0,39,3.9,56.4,10.8
			C291.099,23.2,253.599,0,211,0h-91C53.699,0,0,54.699,0,121c0,66.326,53.958,120,120,120h91c27.435,0,53.606-9.51,75-26.4V196
			C286,180.041,272.005,166,256,166z"/>
	</g>
</g>
<g>
	<g>
		<path d="M392,271h-91c-27.44,0-53.61,9.512-75,26.4V316c0,15.372,13.447,30,30,30c2.1,0,4.2-0.3,6-0.601c0,0,0.3,0,0.599-0.3
			C273.981,335.852,285.797,331,301,331h91c32.252,0,60,26.371,60,60c0,32.999-27.001,60-60,60h-70.6c-19.799,9.6-41.999,15-65.4,15
			c-19.799,0-39-3.9-56.4-10.8C220.901,488.8,258.401,512,301,512h91c66.301,0,120-54.701,120-121C512,324.67,458.044,271,392,271z"
			/>
	</g>
</g>
<g>
	<g>
		<path d="M256,76c-48.259,0-92.234,29.225-110.823,75h71.545c10.514-9.25,24.179-15,39.278-15c32.747,0,60,27.12,60,60v45h60v-45
			C376,129.529,321.922,76,256,76z"/>
	</g>
</g>
<g>
	<g>
		<path d="M301,361c-2.401,0-4.501,0.3-6.899,0.899C285.385,370.033,271.278,376,256,376c-32.703,0-60-27.116-60-60v-45h-60v45
			c0,65.345,53.049,120,120,120c46.357,0,91.996-27.664,111.301-75H301z"/>
	</g>
</g>
<g>
</g>
<g>
</g>
<g>
</g>
<g>
</g>
<g>
</g>
<g>
</g>
<g>
</g>
<g>
</g>
<g>
</g>
<g>
</g>
<g>
</g>
<g>
</g>
<g>
</g>
<g>
</g>
<g>
</g>
</svg>
