<svg height="512pt" viewBox="0 -60 512 512" width="512pt" xmlns="http://www.w3.org/2000/svg"><path d="m362 181.789062c0 16.535157 13.460938 30 30 30s30-13.464843 30-30c0-8.085937-2.886719-12.175781-8.773438-30h97.84375c-8.65625-105.839843-95.621093-145.292968-102.210937-151.789062l-396.660156 151.777344h358.574219c-6.078126 18.40625-8.773438 21.765625-8.773438 30.011718zm30-120h30v30h-30zm-60 60h-30v-30h30zm0 0"/><path d="m196 271.789062c8.277344 0 15-6.726562 15-15 0-8.277343-6.722656-15-15-15s-15 6.722657-15 15c0 8.273438 6.722656 15 15 15zm0 0"/><path d="m317 301.789062c8.277344 0 15-6.726562 15-15 0-8.277343-6.722656-15-15-15s-15 6.722657-15 15c0 8.273438 6.722656 15 15 15zm0 0"/><path d="m76 376.789062c0-24.855468 20.148438-45 45-45s45 20.144532 45 45c0 5.285157-1.078125 10.285157-2.753906 15h348.753906v-210h-60c0 33.089844-26.910156 60-60 60s-60-26.910156-60-60h-332v210h78.753906c-1.675781-4.714843-2.753906-9.714843-2.753906-15zm346-75h30v30h-30zm-105-60c24.8125 0 45 20.183594 45 45 0 24.8125-20.1875 45-45 45s-45-20.1875-45-45c0-24.816406 20.1875-45 45-45zm-121-30c24.8125 0 45 20.183594 45 45 0 24.8125-20.1875 45-45 45s-45-20.1875-45-45c0-24.816406 20.1875-45 45-45zm-105 0h30v30h-30zm0 0"/></svg>