<?xml version="1.0" encoding="iso-8859-1"?>
<!-- Generator: Adobe Illustrator 19.0.0, SVG Export Plug-In . SVG Version: 6.00 Build 0)  -->
<svg version="1.1" id="Capa_1" xmlns="http://www.w3.org/2000/svg" xmlns:xlink="http://www.w3.org/1999/xlink" x="0px" y="0px"
	 viewBox="0 0 512 512" style="enable-background:new 0 0 512 512;" xml:space="preserve">
<g>
	<g>
		<path d="M0,0v240h240V0H0z M120,165c-16.538,0-30-13.462-30-30c0-16.538,13.462-30,30-30s30,13.462,30,30
			C150,151.538,136.538,165,120,165z"/>
	</g>
</g>
<g>
	<g>
		<path d="M0,272v240h240V272H0z M75,467c-16.538,0-30-13.462-30-30c0-16.538,13.462-30,30-30s30,13.462,30,30
			C105,453.538,91.538,467,75,467z M75,377c-16.538,0-30-13.462-30-30c0-16.538,13.462-30,30-30s30,13.462,30,30
			C105,363.538,91.538,377,75,377z M165,467c-16.538,0-30-13.462-30-30c0-16.538,13.462-30,30-30c16.538,0,30,13.462,30,30
			C195,453.538,181.538,467,165,467z M165,377c-16.538,0-30-13.462-30-30c0-16.538,13.462-30,30-30c16.538,0,30,13.462,30,30
			C195,363.538,181.538,377,165,377z"/>
	</g>
</g>
<g>
	<g>
		<path d="M272,272v240h240V272H272z M347,377c-16.538,0-30-13.462-30-30c0-16.538,13.462-30,30-30c16.538,0,30,13.462,30,30
			C377,363.538,363.538,377,347,377z M437,467c-16.538,0-30-13.462-30-30c0-16.538,13.462-30,30-30c16.538,0,30,13.462,30,30
			C467,453.538,453.538,467,437,467z"/>
	</g>
</g>
<g>
</g>
<g>
</g>
<g>
</g>
<g>
</g>
<g>
</g>
<g>
</g>
<g>
</g>
<g>
</g>
<g>
</g>
<g>
</g>
<g>
</g>
<g>
</g>
<g>
</g>
<g>
</g>
<g>
</g>
</svg>
