<svg id="Layer_1" enable-background="new 0 0 496 496" height="512" viewBox="0 0 496 496" width="512" xmlns="http://www.w3.org/2000/svg"><path d="m72.038 285.989c-12.299 9.655-26.801-.092-25.685-12.933 1.765-20.309 5.926-40.922 11.357-60.473 2.926-10.536 15.584-14.765 24.257-8.104l45.841 35.209c5.739 4.407 13.723 4.415 19.47.018l36.126-27.644c5.708-4.368 13.628-4.394 19.364-.063l36.779 27.769c5.757 4.346 13.716 4.303 19.426-.11l35.447-27.4c5.732-4.431 13.726-4.457 19.487-.064l36.098 27.528c5.69 4.34 13.568 4.372 19.296.082l45.347-33.973c8.69-6.511 21.244-2.252 24.111 8.222 5.145 18.798 9.116 38.601 10.883 58.141 1.213 13.415-14.053 21.899-24.749 13.689-5.739-4.407-13.721-4.411-19.466-.016l-36.381 27.84c-5.523 4.226-13.191 4.233-18.721.016l-36.549-27.872c-5.762-4.394-13.757-4.368-19.487.063l-35.893 27.746c-5.503 4.254-13.172 4.297-18.722.106l-37.035-27.962c-5.735-4.33-13.656-4.305-19.364.063l-36.381 27.84c-5.523 4.226-13.191 4.233-18.722.016l-36.552-27.871c-5.797-4.42-13.846-4.364-19.582.137zm13.72-118.947c-5.678-4.362-7.633-12.067-4.661-18.581 32.286-70.77 91.01-148.461 166.936-148.461 75.891 0 135.044 77.812 167.648 150.053 2.965 6.569.935 14.318-4.833 18.64l-41.728 31.262c-5.519 4.135-13.112 4.102-18.596-.079l-36.75-28.024c-5.762-4.394-13.757-4.368-19.487.063l-35.893 27.746c-5.503 4.253-13.172 4.297-18.722.106l-37.035-27.962c-5.735-4.33-13.656-4.305-19.364.063l-36.312 27.787c-5.539 4.238-13.233 4.232-18.764-.017zm220.625-35.742c6.56 1.973 13.115-.413 17.021-5.15 10.1-12.521-2.325-30.156-17.021-25.449-15.184 4.627-15 25.997 0 30.599zm-69.46-7.76c7.654 14.083 28.553 9.469 30.03-5.971.85-8.87-5.648-16.657-14.351-17.489-12.277-1.304-21.781 11.778-15.679 23.46zm-61.89-7.54c0 6.971 4.57 13.258 11.359 15.3 11.449 3.512 22.644-6.478 20.33-18.43-.959-4.478-3.486-7.976-6.81-10.17-10.48-7.074-24.879.481-24.879 13.3zm261.616 219.249c5.06 3.884 7.248 10.497 5.404 16.604-25.163 83.309-102.618 144.147-194.02 144.147-90.976 0-168.138-60.27-193.668-142.982-1.874-6.07.248-12.668 5.244-16.591l13.066-10.257c5.526-4.338 13.286-4.393 18.872-.133l36.304 27.684c5.736 4.375 13.693 4.368 19.426-.017l36.476-27.911c5.501-4.209 13.134-4.234 18.662-.06l37.131 28.035c5.757 4.347 13.716 4.302 19.426-.11l35.799-27.673c5.524-4.27 13.229-4.296 18.781-.062l36.452 27.798c5.736 4.375 13.693 4.368 19.426-.017l36.318-27.792c5.537-4.237 13.229-4.232 18.76.014zm-243.616 60.751c0-8.254-6.312-15.143-14.431-15.92-9.29-.987-17.569 6.425-17.569 15.92 0 8.772 7.119 16 16 16 8.838 0 16-7.208 16-16zm59.569-15.92c-10.175-1.081-19.371 8.02-17.26 19.05 1.639 8.306 9.763 14.31 18.82 12.56 18.11-3.886 16.445-29.887-1.56-31.61zm81.311 2.62c-12.589-8.497-28.641 4.022-24.18 17.949 2.678 8.788 11.989 13.2 19.949 10.65 13.084-4.013 15.276-21.309 4.231-28.599z"/></svg>