<?xml version="1.0" encoding="iso-8859-1"?>
<!-- Generator: Adobe Illustrator 19.0.0, SVG Export Plug-In . SVG Version: 6.00 Build 0)  -->
<svg version="1.1" id="Capa_1" xmlns="http://www.w3.org/2000/svg" xmlns:xlink="http://www.w3.org/1999/xlink" x="0px" y="0px"
	 viewBox="0 0 512 512" style="enable-background:new 0 0 512 512;" xml:space="preserve">
<g>
	<g>
		
			<rect x="212.177" y="209.736" transform="matrix(0.7071 -0.7071 0.7071 0.7071 -104.8157 256.5)" width="90.077" height="90.076"/>
	</g>
</g>
<g>
	<g>
		<path d="M437.69,74.308c-29.477-29.474-70.95-55.412-121.159-69.922c-7.1,9.473-58.045,43.211-71.414,132.129l48.005,48.005
			l13.549-40.648l28.489,9.495l-11.734,35.206l35.205-11.734l9.497,28.489l-40.648,13.549l48.004,48.005
			c82.626-12.424,127.943-68.275,132.131-71.414C493.177,145.517,467.33,103.95,437.69,74.308z"/>
	</g>
</g>
<g>
	<g>
		<path d="M221.322,325.035l-13.549,40.65l-28.489-9.497l11.734-35.206l-35.205,11.736l-9.497-28.489l40.648-13.551l-48.004-48.004
			C56.333,255.096,8.573,313.392,4.386,316.531c14.437,49.95,40.285,91.516,69.924,121.157
			c29.478,29.478,70.95,55.414,121.159,69.926c7.1-9.473,60.488-45.655,73.858-134.574L221.322,325.035z"/>
	</g>
</g>
<g>
	<g>
		<path d="M448.305,0l-23.973,23.973c11.601,8.404,23.326,17.842,34.589,29.106c11.263,11.264,20.702,22.987,29.104,34.589
			L512,63.695L448.305,0z"/>
	</g>
</g>
<g>
	<g>
		<path d="M53.079,458.921c-11.264-11.265-20.7-22.991-29.104-34.591L0,448.305L63.695,512l23.973-23.975
			C76.067,479.623,64.341,470.185,53.079,458.921z"/>
	</g>
</g>
<g>
</g>
<g>
</g>
<g>
</g>
<g>
</g>
<g>
</g>
<g>
</g>
<g>
</g>
<g>
</g>
<g>
</g>
<g>
</g>
<g>
</g>
<g>
</g>
<g>
</g>
<g>
</g>
<g>
</g>
</svg>
