<svg id="svg16" height="512" viewBox="0 0 24 24" width="512" xmlns="http://www.w3.org/2000/svg" xmlns:osb="http://www.openswatchbook.org/uri/2009/osb"><path id="path960" d="m14.075875 2c-.33415985-.0045782-.64851351.15811761-.83777087.43359375l-.95484241 1.3887864a.34376864.34381779 0 0 1 -.56652369 0l-.95484241-1.3887864c-.19503304-.28302026-.52173246-.44602453-.8651107-.43164062-.18796832.00736595-.37004629.06761597-.52531553.17382812-.45517412.31279432-.57059015.93543041-.25777565 1.390625l1.3885525 2.0214763a.72747603.72758003 0 0 1 -.00011825.82415362l-10.324657 15.021558c-.45579169.66355943.01915913 1.5663201.82410094 1.5664062h7.9988565c.48117876-.00032124.89389888-.34334643.98228145-.81640625l1.8330491-9.7788425a.18745052.18747731 0 0 1 .36848131 0l1.8330491 9.7788425c.08838258.47305982.5011027.81608502.98228146.81640625h7.9988565c.80494181-.00008612 1.2798926-.90284682.82410094-1.5664062l-10.326574-15.021582a.72698457.72708849 0 0 1 .0000709-.8239749l1.3902808-2.0216307c.31281451-.45519459.19739848-1.0778307-.25777565-1.390625-.16281003-.11191226-.35511908-.17307936-.55265536-.17578125z" font-feature-settings="normal" font-variant-alternates="normal" font-variant-caps="normal" font-variant-east-asian="normal" font-variant-ligatures="normal" font-variant-numeric="normal" font-variant-position="normal" font-variation-settings="normal" inline-size="0" isolation="auto" mix-blend-mode="normal" paint-order="fill markers stroke" shape-margin="0" shape-padding="0" solid-color="rgb(0,0,0)" text-decoration-color="rgb(0,0,0)" text-decoration-line="none" text-decoration-style="solid" text-indent="0" text-orientation="mixed" text-transform="none" white-space="normal"/></svg>