<?xml version="1.0" encoding="iso-8859-1"?>
<!-- Generator: Adobe Illustrator 19.0.0, SVG Export Plug-In . SVG Version: 6.00 Build 0)  -->
<svg version="1.1" id="Capa_1" xmlns="http://www.w3.org/2000/svg" xmlns:xlink="http://www.w3.org/1999/xlink" x="0px" y="0px"
	 viewBox="0 0 512 512" style="enable-background:new 0 0 512 512;" xml:space="preserve">
<g>
	<g>
		<polygon points="335.652,208.012 282.825,207.535 256,162.025 229.175,207.535 176.348,208.012 202.349,253.999 176.348,299.986 
			229.175,300.463 256,345.973 282.825,300.463 335.652,299.986 309.651,253.999 		"/>
	</g>
</g>
<g>
	<g>
		<path d="M462.313,215.002c-15.263-45.731-15.891-95.083-1.795-141.187l9.757-31.913L428.372,0
			C370.915,33.174,313.457,33.174,256,0C198.543,33.174,141.085,33.174,83.628,0L41.725,41.903l9.757,31.913
			c14.096,46.104,13.468,95.456-1.795,141.187c-33.279,99.707,13.842,208.479,109.341,252.4L256,512l96.973-44.598
			C448.471,423.482,495.592,314.709,462.313,215.002z M386.816,329.525l-86.759,0.783L256,405.053l-44.058-74.744l-86.759-0.783
			L167.885,254l-42.702-75.526l86.759-0.783L256,102.945l44.058,74.744l86.759,0.783l-42.702,75.526L386.816,329.525z"/>
	</g>
</g>
<g>
</g>
<g>
</g>
<g>
</g>
<g>
</g>
<g>
</g>
<g>
</g>
<g>
</g>
<g>
</g>
<g>
</g>
<g>
</g>
<g>
</g>
<g>
</g>
<g>
</g>
<g>
</g>
<g>
</g>
</svg>
