<?xml version="1.0" encoding="iso-8859-1"?>
<!-- Generator: Adobe Illustrator 19.0.0, SVG Export Plug-In . SVG Version: 6.00 Build 0)  -->
<svg xmlns="http://www.w3.org/2000/svg" xmlns:xlink="http://www.w3.org/1999/xlink" version="1.1" id="Layer_1" x="0px" y="0px" viewBox="0 0 512.009 512.009" style="enable-background:new 0 0 512.009 512.009;" xml:space="preserve" width="512px" height="512px">
<g>
	<g>
		<path d="M490.672,245.341c0-94.062,21-231.667,21.208-233.042c0.563-3.667-0.823-7.365-3.656-9.76    c-2.833-2.406-6.74-3.146-10.24-1.99c-0.635,0.208-64.729,20.792-209.979,20.792c-125.74,0-274.344-21.01-275.823-21.229    c-3.771-0.542-7.344,0.906-9.708,3.74C0.099,6.706-0.62,10.571,0.567,14.081c0.208,0.615,20.771,62.563,20.771,145.927    c0,4.938,3.396,9.229,8.198,10.375c20.844,4.958,55.802,19.906,55.802,64.292c0,40.417-17.25,60.76-54.271,64.042    c-5.51,0.49-9.729,5.094-9.729,10.625c0,114.24-20.719,188.344-20.927,189.073c-1.01,3.542-0.115,7.365,2.365,10.094    c2.479,2.719,6.198,4,9.802,3.323c1.167-0.208,117.115-21.156,179.427-21.156c94.365,0,306.146,21.063,308.271,21.281    c0.354,0.031,0.708,0.052,1.063,0.052c2.938,0,5.76-1.208,7.781-3.375c2.271-2.427,3.292-5.771,2.74-9.042    C511.651,498.321,490.672,371.008,490.672,245.341z M351.703,111.977c4.604-3.719,11.313-2.979,15,1.604    c8.76,10.875,12.021,20.812,12.365,21.906c1.76,5.625-1.375,11.604-6.99,13.365c-1.063,0.333-2.135,0.49-3.188,0.49    c-4.542,0-8.75-2.917-10.177-7.479c0,0-2.385-7.156-8.615-14.885C346.401,122.383,347.119,115.675,351.703,111.977z     M282.432,86.112c13.823-0.979,29.76-1.677,43.427,1.635c5.729,1.375,9.25,7.146,7.865,12.865    c-1.177,4.885-5.542,8.167-10.354,8.167c-0.833,0-1.677-0.094-2.51-0.302c-11.417-2.75-25.135-1.906-36.906-1.094    c-6,0.521-10.99-4.01-11.396-9.875C272.14,91.623,276.557,86.529,282.432,86.112z M200.869,112.456    c10.719-8.375,24.063-14.885,39.667-19.354c5.646-1.656,11.573,1.656,13.188,7.313c1.625,5.656-1.646,11.573-7.313,13.188    c-12.948,3.719-23.854,8.99-32.396,15.667c-1.958,1.521-4.271,2.26-6.563,2.26c-3.177,0-6.313-1.406-8.417-4.094    C195.411,122.789,196.234,116.081,200.869,112.456z M166.286,192.258c0.031-16.865,2.542-31.094,7.396-43.417    c2.167-5.49,8.375-8.167,13.844-6c5.479,2.156,8.167,8.354,6.01,13.833c-3.969,10.042-5.979,21.927-5.979,35.333    c0,5.885-4.771,10.781-10.656,10.781h-0.01c-5.885,0-10.646-4.646-10.656-10.531H166.286z M141.692,382.914    c-1.198,0.438-2.417,0.635-3.625,0.635c-4.365,0-8.458-2.698-10.031-7.042c-2.927-8.094-4.479-16.573-4.479-24.5    c0-5.896,4.771-10.667,10.667-10.667s10.667,4.771,10.667,10.667c0,5.479,1.104,11.448,3.208,17.25    C150.099,374.789,147.234,380.904,141.692,382.914z M199.932,426.675c-17.542,0-31.833-4.448-44.188-13.229    c-4.802-3.417-5.927-10.073-2.521-14.875c3.427-4.781,10.063-5.948,14.875-2.521c8.677,6.167,18.813,9.292,30.125,9.292    c5.896,0,11.521,4.771,11.521,10.667C209.744,421.904,205.828,426.675,199.932,426.675z M223.755,262.55    c-1.833,3.813-5.646,6.031-9.615,6.031c-1.552,0-3.135-0.344-4.625-1.063c-15.75-7.594-26.844-17.854-33.917-31.354    c-2.729-5.219-0.719-11.667,4.5-14.396c5.229-2.771,11.667-0.708,14.396,4.5c4.938,9.417,12.656,16.427,24.292,22.042    C224.088,250.873,226.317,257.248,223.755,262.55z M283.161,404.362c-10.917,8.302-24.635,14.354-40.781,17.99    c-0.792,0.177-1.573,0.26-2.354,0.26c-4.875,0-9.281-3.365-10.396-8.323c-1.292-5.75,2.313-11.458,8.063-12.75    c13.135-2.958,24.094-7.719,32.552-14.156c4.688-3.563,11.396-2.656,14.948,2.031C288.755,394.102,287.849,400.8,283.161,404.362z     M281.349,296.445c-8.458-7.417-21.052-11.708-32.198-15.156c-5.635-1.74-8.781-7.708-7.042-13.333    c1.74-5.635,7.719-8.781,13.333-7.042c13.25,4.094,28.354,9.313,39.969,19.49c4.427,3.885,4.875,10.625,0.99,15.052    c-2.104,2.406-5.063,3.635-8.021,3.635C285.88,299.091,283.369,298.216,281.349,296.445z M309.932,367.123    c-1.521,4.406-5.656,7.167-10.073,7.167c-1.156,0-2.333-0.188-3.5-0.594c-5.563-1.927-8.51-8-6.573-13.573    c2.948-8.5,4.438-18.406,4.438-29.448c0-2.073-0.073-4.052-0.219-5.969c-0.448-5.875,3.948-11,9.823-11.448    c5.854-0.427,11,3.958,11.448,9.823c0.188,2.438,0.281,4.958,0.281,7.594C315.557,344.102,313.661,356.362,309.932,367.123z     M384.005,426.675c-11.76,0-21.333-9.573-21.333-21.333s9.573-21.333,21.333-21.333s21.333,9.573,21.333,21.333    S395.765,426.675,384.005,426.675z M422.672,232.039c2.365,1.896,3.813,4.719,3.979,7.75c0.167,3.031-0.958,5.99-3.104,8.125    l-9.427,9.417c-2.01,2.01-4.719,3.125-7.542,3.125c-0.198,0-0.396-0.01-0.594-0.021c-3.031-0.167-5.844-1.615-7.74-3.979    l-29.359-36.702l-29.359,36.702c-1.896,2.365-4.708,3.813-7.74,3.979c-0.198,0.01-0.396,0.021-0.594,0.021    c-2.823,0-5.531-1.115-7.542-3.125l-9.427-9.417c-2.146-2.135-3.271-5.094-3.104-8.125c0.167-3.031,1.615-5.854,3.979-7.75    l36.706-29.365l-36.706-29.365c-2.365-1.896-3.813-4.719-3.979-7.75c-0.167-3.031,0.958-5.99,3.104-8.125l9.427-9.417    c2.156-2.146,5.219-3.135,8.135-3.104c3.031,0.167,5.844,1.615,7.74,3.979l29.359,36.702l29.359-36.702    c1.896-2.365,4.708-3.813,7.74-3.979c2.979-0.073,5.99,0.958,8.135,3.104l9.427,9.417c2.146,2.135,3.271,5.094,3.104,8.125    c-0.167,3.031-1.615,5.854-3.979,7.75l-36.706,29.365L422.672,232.039z" fill="#616161"/>
	</g>
</g>
<g>
</g>
<g>
</g>
<g>
</g>
<g>
</g>
<g>
</g>
<g>
</g>
<g>
</g>
<g>
</g>
<g>
</g>
<g>
</g>
<g>
</g>
<g>
</g>
<g>
</g>
<g>
</g>
<g>
</g>
</svg>
