<?xml version="1.0"?>
<svg xmlns="http://www.w3.org/2000/svg" height="512px" viewBox="0 0 512.05827 512" width="512px"><path d="m218.367188 430.796875c-7.394532.003906-14.058594 4.457031-16.890626 11.289063-2.828124 6.832031-1.265624 14.695312 3.964844 19.925781 7.234375 6.902343 18.617188 6.902343 25.855469 0 5.226563-5.230469 6.789063-13.09375 3.960937-19.925781-2.828124-6.832032-9.496093-11.285157-16.890624-11.289063zm0 0" fill="#616161"/><path d="m283.472656 82.253906c-7.394531.003906-14.058594 4.457032-16.890625 11.289063-2.828125 6.832031-1.265625 14.695312 3.964844 19.925781 7.234375 6.910156 18.621094 6.910156 25.855469 0 5.226562-5.230469 6.792968-13.09375 3.960937-19.925781-2.828125-6.832031-9.496093-11.285157-16.890625-11.289063zm0 0" fill="#616161"/><path d="m100.617188 310.824219c-7.394532.003906-14.0625 4.457031-16.890626 11.289062-2.828124 6.832031-1.265624 14.695313 3.960938 19.925781 7.234375 6.910157 18.625 6.910157 25.855469 0 5.230469-5.230468 6.792969-13.09375 3.964843-19.925781-2.832031-6.832031-9.496093-11.285156-16.890624-11.289062zm0 0" fill="#616161"/><path d="m246.902344 255.96875c-7.394532 0-14.058594 4.457031-16.890625 11.289062-2.828125 6.832032-1.265625 14.695313 3.964843 19.925782 7.230469 6.910156 18.621094 6.910156 25.855469 0 5.226563-5.230469 6.789063-13.09375 3.960938-19.925782-2.828125-6.832031-9.496094-11.289062-16.890625-11.289062zm0 0" fill="#616161"/><path d="m356.617188 347.398438c-4.140626-.003907-7.761719 2.777343-8.832032 6.773437-1.074218 4 .675782 8.21875 4.257813 10.285156 3.585937 2.070313 8.113281 1.472657 11.039062-1.453125 2.613281-2.613281 3.394531-6.546875 1.980469-9.960937-1.414062-3.417969-4.75-5.644531-8.445312-5.644531zm0 0" fill="#616161"/><path d="m502.976562 216.535156-35.730468-94.910156c-15.640625-40.25-48.535156-71.339844-89.601563-84.691406l-96.914062-30.390625c-41.433594-12.953125-86.507813-6.378907-122.511719 17.875l-84.855469 56.628906c-36.242187 24.042969-59.683593 63.171875-63.78125 106.46875l-8.996093 101.484375c-3.933594 42.964844 12.113281 85.347656 43.511718 114.9375l73.671875 69.550781c31.445313 29.8125 74.882813 43.460938 117.730469 36.988281l101.003906-14.277343c43.050782-6.246094 81-31.554688 103.3125-68.902344l51.886719-87.992187v-.0625c22.394531-37.003907 26.550781-82.242188 11.273437-122.707032zm-376.503906 138.433594c-12.339844 12.335938-31.671875 14.234375-46.179687 4.539062-14.503907-9.695312-20.140625-28.289062-13.460938-44.40625 6.679688-16.117187 23.816407-25.273437 40.925781-21.863281 17.113282 3.40625 29.433594 18.425781 29.429688 35.875.023438 9.703125-3.835938 19.011719-10.714844 25.855469zm-34.53125-136.027344c-21.59375-21.589844-24.925781-55.425781-7.964844-80.8125 16.964844-25.390625 49.5-35.257812 77.707032-23.574218 28.210937 11.683593 44.238281 41.671874 38.277344 71.617187-5.957032 29.945313-32.238282 51.511719-62.773438 51.511719-16.980469.042968-33.269531-6.707032-45.246094-18.742188zm109.246094 146.742188c.085938 3.722656-2.183594 7.09375-5.667969 8.410156-1.097656.46875-2.28125.71875-3.472656.730469-2.433594.027343-4.773437-.929688-6.492187-2.648438-1.722657-1.71875-2.675782-4.058593-2.652344-6.492187.011718-1.199219.261718-2.382813.730468-3.484375.464844-1.105469 1.113282-2.121094 1.921876-3.007813 2.648437-2.554687 6.554687-3.308594 9.964843-1.929687 1.105469.472656 2.125 1.125 3.015625 1.929687.808594.886719 1.457032 1.902344 1.921875 3.007813.46875 1.101562.71875 2.285156.730469 3.484375zm43.035156 109.257812c-12.335937 12.332032-31.671875 14.234375-46.175781 4.539063-14.503906-9.691407-20.144531-28.28125-13.464844-44.402344 6.675781-16.117187 23.808594-25.273437 40.921875-21.871094 17.109375 3.40625 29.433594 18.421875 29.433594 35.867188.027344 9.707031-3.832031 19.019531-10.714844 25.867187zm27.429688-93.625c-.875.828125-1.898438 1.480469-3.015625 1.921875-1.09375.464844-2.261719.710938-3.449219.730469-2.429688.023438-4.769531-.929688-6.492188-2.652344-1.71875-1.71875-2.675781-4.058594-2.648437-6.492187.011719-1.191407.261719-2.375.730469-3.472657.464844-1.109374 1.113281-2.128906 1.917968-3.015624 2.652344-2.558594 6.558594-3.3125 9.96875-1.921876 2.296876.832032 4.105469 2.640626 4.9375 4.9375.464844 1.097657.714844 2.28125.730469 3.472657-.035156 2.421875-.984375 4.738281-2.652343 6.492187zm1.078125-81.207031c-12.351563 12.324219-31.6875 14.203125-46.179688 4.496094-14.496093-9.710938-20.113281-28.308594-13.421875-44.417969 6.695313-16.113281 23.835938-25.25 40.945313-21.828125 17.109375 3.417969 29.417969 18.449219 29.398437 35.894531.023438 9.703125-3.832031 19.015625-10.714844 25.855469zm8.066406-110.820313c-.878906.824219-1.902344 1.476563-3.019531 1.921876-1.089844.472656-2.257813.730468-3.445313.757812-2.433593.023438-4.773437-.929688-6.492187-2.652344-1.722656-1.71875-2.675782-4.058594-2.652344-6.492187.015625-1.195313.261719-2.378907.730469-3.480469.464843-1.105469 1.113281-2.125 1.921875-3.007812 2.648437-2.554688 6.554687-3.308594 9.964844-1.929688 1.105468.46875 2.125 1.121094 3.019531 1.929688.804687.882812 1.453125 1.902343 1.917969 3.007812.46875 1.101562.71875 2.285156.730468 3.480469-.039062 2.414062-.988281 4.71875-2.648437 6.464843zm28.503906-62.894531c-12.347656 12.324219-31.683593 14.203125-46.179687 4.496094-14.496094-9.710937-20.113282-28.304687-13.417969-44.417969 6.691406-16.109375 23.835937-25.25 40.941406-21.828125 17.109375 3.421875 29.417969 18.449219 29.402344 35.894531.023437 9.703126-3.835937 19.015626-10.71875 25.855469zm66.679688 249.539063c-9.265625 9.234375-23.765625 10.640625-34.636719 3.355468-10.867188-7.285156-15.078125-21.230468-10.054688-33.3125 5.027344-12.082031 17.882813-18.933593 30.714844-16.363281 12.828125 2.570313 22.058594 13.84375 22.042969 26.925781.007813 7.28125-2.882813 14.261719-8.039063 19.402344zm60.269531-49.472656c-.871094.824218-1.898438 1.476562-3.015625 1.917968-1.097656.46875-2.28125.71875-3.476563.734375-2.429687.023438-4.769531-.933593-6.492187-2.652343-1.71875-1.71875-2.671875-4.058594-2.648437-6.492188.015624-1.195312.261718-2.375.730468-3.472656.464844-1.109375 1.113282-2.128906 1.921875-3.019532 2.648438-2.554687 6.554688-3.308593 9.964844-1.917968 2.296875.828125 4.105469 2.640625 4.9375 4.9375.46875 1.097656.714844 2.277344.730469 3.472656-.035156 2.421875-.980469 4.738281-2.652344 6.492188zm20.472656-80.09375c-21.59375 21.585937-55.425781 24.914062-80.8125 7.949218-25.382812-16.964844-35.25-49.5-23.5625-77.707031s41.671875-44.230469 71.617188-38.269531c29.945312 5.957031 51.511718 32.238281 51.507812 62.773437.046875 16.984375-6.707031 33.28125-18.75 45.253907zm0 0" fill="#616161"/><path d="m411.472656 155.398438c-21.808594 0-40.582031 15.40625-44.835937 36.796874-4.253907 21.390626 7.195312 42.808594 27.34375 51.152344 20.152343 8.34375 43.390625 1.292969 55.503906-16.84375 12.117187-18.132812 9.734375-42.300781-5.691406-57.722656-8.550781-8.597656-20.191407-13.417969-32.320313-13.382812zm0 0" fill="#616161"/><path d="m169.507812 141.355469c-15.421874-15.421875-39.589843-17.796875-57.722656-5.679688-18.128906 12.117188-25.175781 35.359375-16.828125 55.503907 8.34375 20.148437 29.761719 31.59375 51.152344 27.339843 21.390625-4.257812 36.792969-23.027343 36.792969-44.835937.035156-12.132813-4.789063-23.773438-13.394532-32.328125zm0 0" fill="#616161"/></svg>
