<svg id="bold" enable-background="new 0 0 24 24" height="512" viewBox="0 0 24 24" width="512" xmlns="http://www.w3.org/2000/svg"><g><path d="m19.09 17.686c.321-.243.62-.503.896-.778 2.826-2.825 3.036-7.096 3.043-7.276.009-.21-.07-.414-.219-.562s-.343-.239-.563-.218c-.124.005-2.642.132-5.086 1.445-.021-5.513-4.449-9.872-4.638-10.055-.291-.283-.754-.283-1.045 0-.189.182-4.617 4.541-4.638 10.054-2.444-1.313-4.962-1.44-5.086-1.445-.235-.024-.414.069-.564.217-.148.149-.227.353-.218.563.007.181.217 4.451 3.043 7.276.275.275.574.535.896.778-1.598.659-2.669 1.629-2.728 1.683-.155.142-.244.342-.244.552s.088.411.242.553c.102.094 2.525 2.291 5.589 2.291 1.206 0 2.31-.339 3.229-.768v1.033c0 .553.447 1 1 1s1-.447 1-1v-1.033c.92.429 2.023.768 3.229.768 3.063 0 5.487-2.197 5.589-2.291.154-.142.242-.343.242-.553s-.089-.41-.243-.552c-.057-.054-1.129-1.023-2.726-1.682z"/></g></svg>