<?xml version="1.0"?>
<svg xmlns="http://www.w3.org/2000/svg" height="512px" viewBox="0 0 58 58" width="512px"><g id="Page-1" fill="none" fill-rule="evenodd"><g id="033---Ball" fill="rgb(0,0,0)" fill-rule="nonzero"><path id="Shape" d="m56.92 14.8c-3.944.859-9.406-1.328-13.731-5.583.2-.161.4-.33.6-.489 1.8945007-1.49775565 3.8716131-2.8879441 5.922-4.164.6971541.53832842 1.3613496 1.1180386 1.989 1.736 2.3852583 2.3825951 4.173842 5.2950397 5.22 8.5zm-19.544-3.192c-4.899-3.992-9.659-6.694-13.337-7.608 3.362399-2.4042943 7.3521193-3.77751973 11.482-3.952.8456178 3.32838977 2.4788171 6.40478581 4.762 8.97-.9786667.832-1.9476667 1.6953333-2.907 2.59zm.194-11.556c3.6800058.17055555 7.2527749 1.29314035 10.369 3.258-1.789 1.146-3.595 2.43-5.386 3.842-.244.192-.486.4-.729.593-1.9682611-2.2190381-3.421001-4.84619576-4.254-7.693zm-16.27 6.248c.218-.217.454-.408.679-.615 3.349.235 8.575 2.98 13.946 7.321-.226.22-.454.434-.678.658l-.117.117c-.9.9-1.767 1.828-2.616 2.76-4.7366687-3.1011371-10.5403026-4.1176499-16.049-2.811 1.0763671-2.7864983 2.7232431-5.31727154 4.835-7.43zm12.3 13.713c5.485 5.485 6.3 14.64 2.126 22.949-5.1909873-.1718979-10.1402958-2.2345543-13.917-5.8 1.8868585-5.2824339 4.6565146-10.2063421 8.191-14.562.874-1.124 1.8-2.24 2.762-3.343.315.263.597.516.838.756zm-17.855-4.068c5.672-1.459 11.187-.714 15.425 2.1-.954 1.1-1.876 2.209-2.746 3.328-3.4470389 4.2678131-6.2090724 9.045959-8.187 14.163-3.3861192-3.8911002-5.2467405-8.8778638-5.237-14.036.005605-1.8761925.2560534-3.7436301.745-5.555zm35.955 20.755c-3.6676103 3.6783698-8.5513424 5.8921387-13.735 6.226 4.044-8.834 2.937-18.438-2.955-24.33-.268-.268-.577-.546-.913-.836.794-.868 1.6-1.729 2.443-2.573l.115-.115c.264-.263.533-.517.8-.776 1.3 1.118 2.619 2.316 3.916 3.612 5.48 5.481 9.772 11.548 11.477 16.222.13.367.225.674.307.961-.4533333.558-.9383333 1.0943333-1.455 1.609zm2.889-3.6c-1.883-4.89-6.263-11.061-11.8-16.6-1.283-1.282-2.582-2.469-3.876-3.583.898-.8346667 1.806-1.6416667 2.724-2.421 4.139 4.137 9.181 6.495 13.477 6.495.7868107.0007239 1.5711622-.0878427 2.338-.264.3594557 1.5656946.5432573 3.16658.548 4.773.0058224 4.1143247-1.1776693 8.1426416-3.408 11.6z" fill="#616161"/><path id="Shape" d="m3 46c-.4043959-.0000863-.76893405-.2437275-.92367798-.6173454-.15474393-.373618-.06922994-.8036603.21667798-1.0896546l9-9c.3923789-.3789722 1.0160848-.3735524 1.4018186.0121814s.3911536 1.0094397.0121814 1.4018186l-9 9c-.18749273.1875494-.44180519.2929434-.707.293z" fill="#616161"/><path id="Shape" d="m1 58c-.4043959-.0000863-.76893405-.2437275-.92367798-.6173454-.15474393-.373618-.06922994-.8036603.21667798-1.0896546l15-15c.3923789-.3789722 1.0160848-.3735524 1.4018186.0121814s.3911536 1.0094397.0121814 1.4018186l-15 15c-.18749273.1875494-.44180519.2929434-.707.293z" fill="#616161"/><path id="Shape" d="m13 56c-.4043959-.0000863-.7689341-.2437275-.923678-.6173454-.1547439-.373618-.0692299-.8036603.216678-1.0896546l8-8c.3923789-.3789722 1.0160848-.3735524 1.4018186.0121814s.3911536 1.0094397.0121814 1.4018186l-8 8c-.1874927.1875494-.4418052.2929434-.707.293z" fill="#616161"/></g></g></svg>
