<?xml version="1.0"?>
<svg xmlns="http://www.w3.org/2000/svg" id="Capa_1" enable-background="new 0 0 512 512" height="512px" viewBox="0 0 512 512" width="512px"><g><path d="m482 286.341h-452-30v130.103h30.024v30.025h30v-30.025h391.952v30.025h30v-30.025h30.024v-130.103z" fill="#616161"/><path d="m241 255.195c0-15.937-12.965-28.902-28.902-28.902h-63.123c-15.937 0-28.902 12.966-28.902 28.902v1.146h120.927z" fill="#616161"/><path d="m391.928 256.341v-1.146c0-15.937-12.965-28.902-28.902-28.902h-63.124c-15.937 0-28.902 12.966-28.902 28.902v1.146z" fill="#616161"/><path d="m90.072 256.341v-1.146c0-32.479 26.423-58.902 58.902-58.902h63.123c17.43 0 33.108 7.616 43.902 19.688 10.794-12.072 26.473-19.688 43.902-19.688h63.124c32.479 0 58.902 26.424 58.902 58.902v1.146h60.048v-120.096h-70.724c-39.175-45.033-95.349-70.714-155.251-70.714s-116.076 25.681-155.253 70.714h-70.723v120.096z" fill="#616161"/></g></svg>
