<svg id="Capa_1" enable-background="new 0 0 512 512" height="512" viewBox="0 0 512 512" width="512" xmlns="http://www.w3.org/2000/svg"><path d="m121 152v30h30v-30zm0 0v30h30v-30zm0 0v30h30v-30zm120 0v30h30v-30zm0 0v30h30v-30zm-120 0v30h30v-30zm0 0v30h30v-30zm120 0v30h30v-30zm120 0v30h30v-30zm0 120v30h30v-30zm0-120v30h30v-30zm0 120v30h30v-30zm-120-120v30h30v-30zm-120 0v30h30v-30zm0 0v30h30v-30zm0 120v30h30v-30zm120-120v30h30v-30zm0 120v30h30v-30zm120-120v30h30v-30zm0 120v30h30v-30zm0-120v30h30v-30zm0 120v30h30v-30zm-120-120v30h30v-30zm0 120v30h30v-30zm-120-120v30h30v-30zm0 120v30h30v-30zm0-120v30h30v-30zm0 120v30h30v-30zm0 120v30h30v-30zm120-240v30h30v-30zm0 120v30h30v-30zm0 120v30h30v-30zm120-240v30h30v-30zm0 120v30h30v-30zm0-120v30h30v-30zm0 120v30h30v-30zm-120-120v30h30v-30zm0 120v30h30v-30zm0 120v30h30v-30zm-120-240v30h30v-30zm0 120v30h30v-30zm0 120v30h30v-30zm-90-392v512h450v-512zm60 62h30v30h-30zm90 390h-90v-90h90zm0-120h-90v-90h90zm0-120h-90v-90h90zm120 240h-90v-90h90zm0-120h-90v-90h90zm0-120h-90v-90h90zm120 240h-90v-90h90zm0-120h-90v-90h90zm0-120h-90v-90h90zm0-120h-270v-30h270zm-30 300h-30v30h30zm0-120h-30v30h30zm0-120h-30v30h30zm-120 240h-30v30h30zm0-120h-30v30h30zm0-120h-30v30h30zm-120 240h-30v30h30zm0-120h-30v30h30zm0-120h-30v30h30zm-30 240v30h30v-30zm0-120v30h30v-30zm0-120v30h30v-30zm120 120v30h30v-30zm0-120v30h30v-30zm120 120v30h30v-30zm0-120v30h30v-30zm0 120v30h30v-30zm0-120v30h30v-30zm-120 120v30h30v-30zm0-120v30h30v-30zm-120 240v30h30v-30zm0-120v30h30v-30zm0-120v30h30v-30zm0 0v30h30v-30zm120 120v30h30v-30zm0-120v30h30v-30zm120 120v30h30v-30zm0-120v30h30v-30zm0 120v30h30v-30zm0-120v30h30v-30zm-120 120v30h30v-30zm0-120v30h30v-30zm-120 0v30h30v-30zm0 0v30h30v-30zm120 0v30h30v-30zm120 0v30h30v-30zm0 0v30h30v-30zm-120 0v30h30v-30zm-120 0v30h30v-30zm0 0v30h30v-30zm120 0v30h30v-30zm0 0v30h30v-30zm-120 0v30h30v-30z"/></svg>