<svg enable-background="new 0 0 32 32" height="512" viewBox="0 0 32 32" width="512" xmlns="http://www.w3.org/2000/svg"><g id="_x30_1_birthday_cake"><path d="m28 19h-1v-7c0-1.654-1.346-3-3-3h-1v-2.212c.881-.387 1.5-1.266 1.5-2.288 0-1.093-1.228-2.58-1.756-3.168-.379-.423-1.109-.423-1.488 0-.528.588-1.756 2.075-1.756 3.168 0 1.022.619 1.901 1.5 2.288v2.212h-4v-2.212c.881-.387 1.5-1.266 1.5-2.288 0-1.093-1.228-2.58-1.756-3.168-.379-.423-1.109-.423-1.488 0-.528.588-1.756 2.075-1.756 3.168 0 1.022.619 1.901 1.5 2.288v2.212h-4v-2.212c.881-.387 1.5-1.266 1.5-2.288 0-1.093-1.228-2.58-1.756-3.168-.379-.423-1.109-.423-1.488 0-.528.588-1.756 2.075-1.756 3.168 0 1.022.619 1.901 1.5 2.288v2.212h-1c-1.654 0-3 1.346-3 3v7h-1c-1.654 0-3 1.346-3 3v8c0 .552.448 1 1 1h28c.552 0 1-.448 1-1v-8c0-1.654-1.346-3-3-3zm-6-15.392c.278.396.476.742.5.892 0 .276-.224.5-.5.5s-.5-.224-.501-.475c.024-.164.223-.518.501-.917zm-6 0c.278.396.476.742.5.892 0 .276-.224.5-.5.5s-.5-.224-.501-.475c.024-.164.223-.518.501-.917zm-6 0c.278.396.476.742.5.892 0 .276-.224.5-.5.5s-.5-.224-.501-.475c.024-.164.223-.518.501-.917zm-3 14.207c.314.113.647.185 1 .185 1.654 0 3-1.346 3-3 0-.551.449-1 1-1s1 .449 1 1c0 1.654 1.346 3 3 3s3-1.346 3-3c0-.551.449-1 1-1s1 .449 1 1c0 1.654 1.346 3 3 3 .353 0 .686-.072 1-.184v1.184h-18zm22 11.185h-26v-1.185c.314.113.647.185 1 .185 1.654 0 3-1.346 3-3 0-.551.449-1 1-1s1 .449 1 1c0 1.654 1.346 3 3 3s3-1.346 3-3c0-.551.449-1 1-1s1 .449 1 1c0 1.654 1.346 3 3 3s3-1.346 3-3c0-.551.449-1 1-1s1 .449 1 1c0 1.654 1.346 3 3 3 .353 0 .686-.072 1-.184z"/></g></svg>