<?xml version="1.0"?>
<svg xmlns="http://www.w3.org/2000/svg" height="512px" viewBox="0 0 56 56" width="512px"><g id="085---Board-Games"><path id="Shape" d="m0 6h6v-6h-4c-1.1045695 0-2 .8954305-2 2z" fill="#616161"/><path id="Rectangle-path" d="m0 8h6v5h-6z" fill="#616161"/><path id="Rectangle-path" d="m0 22h6v5h-6z" fill="#616161"/><path id="Rectangle-path" d="m0 15h6v5h-6z" fill="#616161"/><path id="Rectangle-path" d="m8 50h5v6h-5z" fill="#616161"/><path id="Rectangle-path" d="m29 50h5v6h-5z" fill="#616161"/><path id="Rectangle-path" d="m22 50h5v6h-5z" fill="#616161"/><path id="Rectangle-path" d="m15 50h5v6h-5z" fill="#616161"/><path id="Rectangle-path" d="m15 0h5v6h-5z" fill="#616161"/><path id="Rectangle-path" d="m22 0h5v6h-5z" fill="#616161"/><path id="Rectangle-path" d="m29 0h5v6h-5z" fill="#616161"/><path id="Rectangle-path" d="m36 50h5v6h-5z" fill="#616161"/><path id="Rectangle-path" d="m36 0h5v6h-5z" fill="#616161"/><path id="Rectangle-path" d="m0 43h6v5h-6z" fill="#616161"/><path id="Shape" d="m6 56v-6h-6v4c0 1.1045695.8954305 2 2 2z" fill="#616161"/><path id="Rectangle-path" d="m0 36h6v5h-6z" fill="#616161"/><path id="Rectangle-path" d="m0 29h6v5h-6z" fill="#616161"/><path id="Rectangle-path" d="m8 0h5v6h-5z" fill="#616161"/><path id="Rectangle-path" d="m43 0h5v6h-5z" fill="#616161"/><path id="Shape" d="m8 48h40v-40h-40zm10-10c0-1.1045695.8954305-2 2-2h.379c1.878-3.7 2.736-7.915 2.746-13.516-1.7849184-2.4877233-1.4103619-5.9203539.8690677-7.96459 2.2794297-2.0442362 5.7324349-2.0442362 8.0118646 0 2.2794296 2.0442361 2.6539861 5.4768667.8690677 7.96459.01 5.6.868 9.812 2.746 13.516h.379c1.1045695 0 2 .8954305 2 2v3c0 1.1045695-.8954305 2-2 2h-16c-1.1045695 0-2-.8954305-2-2zm-8-27c0-.5522847.4477153-1 1-1s1 .4477153 1 1v2c0 .5522847-.4477153 1-1 1s-1-.4477153-1-1zm0 6c0-.5522847.4477153-1 1-1s1 .4477153 1 1v28c0 .5522847-.4477153 1-1 1s-1-.4477153-1-1z" fill="#616161"/><path id="Shape" d="m50 56h4c1.1045695 0 2-.8954305 2-2v-4h-6z" fill="#616161"/><path id="Rectangle-path" d="m50 29h6v5h-6z" fill="#616161"/><path id="Rectangle-path" d="m50 15h6v5h-6z" fill="#616161"/><path id="Rectangle-path" d="m50 36h6v5h-6z" fill="#616161"/><path id="Rectangle-path" d="m50 43h6v5h-6z" fill="#616161"/><path id="Shape" d="m54 0h-4v6h6v-4c0-1.1045695-.8954305-2-2-2z" fill="#616161"/><path id="Shape" d="m28 23c2.209139 0 4-1.790861 4-4s-1.790861-4-4-4-4 1.790861-4 4 1.790861 4 4 4zm0-7c.5522847-.0027614 1.0022386.4427153 1.005.995s-.4427153 1.0022386-.995 1.005c-.2739117-.0288437-.5463007.0668224-.742023.2606068-.1957222.1937844-.2940938.4652081-.267977.7393932 0 .5522847-.4477153 1-1 1s-1-.4477153-1-1c-.0234737-.8026156.2850527-1.5793921.8528303-2.1471697s1.3445541-.876304 2.1471697-.8528303z" fill="#616161"/><path id="Shape" d="m30.906 24.246c-1.8069086 1.0053379-4.0050914 1.0053379-5.812 0-.0528605 4.0425773-.8967347 8.035692-2.484 11.754h10.78c-1.5872653-3.718308-2.4311395-7.7114227-2.484-11.754z" fill="#616161"/><path id="Rectangle-path" d="m50 22h6v5h-6z" fill="#616161"/><path id="Rectangle-path" d="m43 50h5v6h-5z" fill="#616161"/><path id="Shape" d="m36 41v-3h-1-14-1-.001l.001 3z" fill="#616161"/><path id="Rectangle-path" d="m50 8h6v5h-6z" fill="#616161"/></g></svg>
