<?xml version="1.0" encoding="iso-8859-1"?>
<!-- Generator: Adobe Illustrator 19.0.0, SVG Export Plug-In . SVG Version: 6.00 Build 0)  -->
<svg xmlns="http://www.w3.org/2000/svg" xmlns:xlink="http://www.w3.org/1999/xlink" version="1.1" id="Capa_1" x="0px" y="0px" viewBox="0 0 512.005 512.005" style="enable-background:new 0 0 512.005 512.005;" xml:space="preserve" width="512px" height="512px">
<g>
	<g>
		<path d="M160,191.766c-88.352,0-160,71.648-160,160s71.648,160,160,160s160-71.648,160-160S248.352,191.766,160,191.766z     M112.64,351.766c-8.832,0-16.16-7.168-16.16-16c0-8.832,7.008-16,15.84-16h0.32c8.832,0,16,7.168,16,16    C128.64,344.598,121.472,351.766,112.64,351.766z M144.64,287.766c-8.832,0-16.16-7.168-16.16-16c0-8.832,7.008-16,15.84-16h0.32    c8.832,0,16,7.168,16,16C160.64,280.598,153.472,287.766,144.64,287.766z M176.64,351.766c-8.832,0-16.16-7.168-16.16-16    c0-8.832,7.008-16,15.84-16h0.32c8.832,0,16,7.168,16,16C192.64,344.598,185.472,351.766,176.64,351.766z" fill="#616161"/>
	</g>
</g>
<g>
	<g>
		<path d="M473.632,264.086c-19.872-31.136-31.136-67.232-33.216-104.32h-76.352c-2.112,36.768-13.344,73.024-33.28,104.288    c-0.032,0.032-0.032,0.096-0.064,0.128c13.504,26.272,21.28,56,21.28,87.584c0,41.856-13.568,80.48-36.288,112.032    c0.064,0.096,0.096,0.224,0.192,0.32l27.936,40.896c2.976,4.352,7.936,6.976,13.216,6.976h90.304c5.28,0,10.24-2.624,13.216-6.976    l27.904-40.896C531.424,401.27,508.992,319.574,473.632,264.086z" fill="#616161"/>
	</g>
</g>
<g>
	<g>
		<path d="M439.072,16.246c-19.008-21.632-54.784-21.664-73.824,0.032c-9.632,10.976-14.08,25.632-12.16,40.192l4.992,38.4    c2.688,10.784,4.256,21.824,5.248,32.896h77.824c0.992-11.712,2.656-23.392,5.504-34.944l4.608-36.352    C453.152,41.878,448.736,27.222,439.072,16.246z" fill="#616161"/>
	</g>
</g>
<g>
</g>
<g>
</g>
<g>
</g>
<g>
</g>
<g>
</g>
<g>
</g>
<g>
</g>
<g>
</g>
<g>
</g>
<g>
</g>
<g>
</g>
<g>
</g>
<g>
</g>
<g>
</g>
<g>
</g>
</svg>
