<?xml version="1.0"?>
<svg xmlns="http://www.w3.org/2000/svg" height="512px" viewBox="0 0 41 56" width="512px"><g id="Page-1" fill="none" fill-rule="evenodd"><g id="006---Glove" fill="rgb(0,0,0)" fill-rule="nonzero" transform="translate(-1)"><path id="Shape" d="m16.3 27.407c6.483.751 14.276-1.656 16.716-10.657 1.342-4.957.886-8.889-1.355-11.687-4.35-5.427-14.071-5.057-14.175-5.052-.025 0-.219-.009-.546-.009-1.928 0-8.5.3-12.557 4.275-2.383 2.341-3.524 5.605-3.383 9.701.04669225 1.3325566.33398166 2.645686.848 3.876.02970643.0561669.05382228.1151168.072.176 2.302 5.301 8.532 8.701 14.38 9.377zm-12.213-15.364c-.53930477-.1190192-.88001516-.6526943-.761-1.192 1.356-6.128 6.492-8.086 10.563-8.651.5473142-.07593913 1.0525608.30618583 1.1285.8535.0759391.54731418-.3061858 1.05256083-.8535 1.1285-3.442.476-7.778 2.095-8.885 7.1-.1012029.4574736-.50646641.7833471-.975.784-.07297966.0007565-.14580043-.0069618-.217-.023z" fill="#616161"/><path id="Rectangle-path" d="m14 48h14v4h-14z" fill="#616161"/><path id="Shape" d="m40.272 12.666c-1.234-.753-3.086-.194-4.579.511-.1287772 1.3861611-.3800927 2.75819-.751 4.1-2.462 9.085-9.685 12.261-16.392 12.261-6.2736934-.0081831-12.24467011-2.6978155-16.408-7.391.373 5.945 1.464 14.009 4.473 19.853h3.385c.5522847 0 1 .4477153 1 1s-.4477153 1-1 1h-3v11c0 .5522847.44771525 1 1 1h19c.5522847 0 1-.4477153 1-1v-1h-14c-1.1045695 0-2-.8954305-2-2v-4c0-1.1045695.8954305-2 2-2h14v-2h-13c-.5522847 0-1-.4477153-1-1s.4477153-1 1-1h13.642c1.858-1.556 13.358-11.677 13.358-24 0-2.8-.6-4.646-1.728-5.334zm-16.7 25.515c.3047965.1998278.4767398.5496556.4487678.9130419-.027972.3633864-.251429.6827779-.5832174.833604s-.7193592.109199-1.0115504-.1086459l-4.426-3.098-4.427 3.1c-.4520489.296368-1.0577858.1798706-1.3676555-.2630322-.3098698-.4429029-.2116982-1.0518784.2216555-1.3749678l3.829-2.683-3.829-2.681c-.4333537-.3230894-.5315253-.9320649-.2216555-1.3749678.3098697-.4429028.9156066-.5594002 1.3676555-.2630322l4.427 3.098 4.427-3.1c.2921912-.2178449.679762-.259472 1.0115504-.1086459s.5552454.4702176.5832174.833604c.027972.3633863-.1439713.7132141-.4487678.9130419l-3.829 2.683z" fill="#616161"/></g></g></svg>
