<?xml version="1.0" encoding="iso-8859-1"?>
<!-- Generator: Adobe Illustrator 19.0.0, SVG Export Plug-In . SVG Version: 6.00 Build 0)  -->
<svg xmlns="http://www.w3.org/2000/svg" xmlns:xlink="http://www.w3.org/1999/xlink" version="1.1" id="Capa_1" x="0px" y="0px" viewBox="0 0 512 512" style="enable-background:new 0 0 512 512;" xml:space="preserve" width="512px" height="512px">
<g>
	<g>
		<path d="M466,240h-15v90h15c24.853,0,46-20.147,46-45C512,260.147,490.853,240,466,240z" fill="#616161"/>
	</g>
</g>
<g>
	<g>
		<path d="M46,240c-24.853,0-46,20.147-46,45c0,24.853,21.147,45,46,45h15v-90H46z" fill="#616161"/>
	</g>
</g>
<g>
	<g>
		<rect x="211" y="180" width="90" height="30" fill="#616161"/>
	</g>
</g>
<g>
	<g>
		<path d="M420.099,150C412.899,78.6,355.901,0,286,0h-60C151.3,0,91,90.3,91,165v45h90v-60h150v60h120c33.199,0,61-27.191,61-60    H420.099z" fill="#616161"/>
	</g>
</g>
<g>
	<g>
		<path d="M91,240v105c0,90.981,74.019,167,165,167s165-76.019,165-167V240H91z M181,270h30v30h-30V270z M256,420    c-26.646,0-51.519-14.355-64.937-37.471l25.957-15.059C225.077,381.372,240.019,390,256,390s30.923-8.628,38.979-22.529    l25.957,15.059C307.519,405.645,282.646,420,256,420z M331,300h-30v-30h30V300z" fill="#616161"/>
	</g>
</g>
<g>
</g>
<g>
</g>
<g>
</g>
<g>
</g>
<g>
</g>
<g>
</g>
<g>
</g>
<g>
</g>
<g>
</g>
<g>
</g>
<g>
</g>
<g>
</g>
<g>
</g>
<g>
</g>
<g>
</g>
</svg>
