<?xml version="1.0" encoding="iso-8859-1"?>
<!-- Generator: Adobe Illustrator 19.0.0, SVG Export Plug-In . SVG Version: 6.00 Build 0)  -->
<svg xmlns="http://www.w3.org/2000/svg" xmlns:xlink="http://www.w3.org/1999/xlink" version="1.1" id="Capa_1" x="0px" y="0px" viewBox="0 0 511.999 511.999" style="enable-background:new 0 0 511.999 511.999;" xml:space="preserve" width="512px" height="512px">
<g>
	<g>
		<path d="M190.521,21.603c-34.963,0-65.406,19.655-80.904,48.487h58.966v30.039h-70.32c-31.097,7.063-54.389,34.916-54.389,68.119    v30.796C18.652,205.702,0,228.714,0,255.999c0,27.014,18.287,49.828,43.128,56.74h66.561v-56.741h30.039v86.78H43.876v0.971    c0,33.203,23.29,61.056,54.386,68.119h70.322v30.039h-58.967c15.498,28.833,45.942,48.487,80.904,48.487h47.926V21.603H190.521z" fill="#616161"/>
	</g>
</g>
<g>
	<g>
		<path d="M468.125,199.044v-0.454h-65.814v56.741h-30.039v-86.78l95.853,0.001v-0.304c0-33.203-23.291-61.056-54.389-68.119    h-70.319V70.09h58.966c-15.498-28.832-45.942-48.487-80.904-48.487h-47.926v468.793h47.926c34.963,0,65.406-19.656,80.904-48.487    h-58.967V411.87h70.322c31.096-7.064,54.386-34.917,54.386-68.119v-30.796c25.223-6.657,43.875-29.669,43.875-56.954    C511.999,228.715,493.348,205.702,468.125,199.044z" fill="#616161"/>
	</g>
</g>
<g>
</g>
<g>
</g>
<g>
</g>
<g>
</g>
<g>
</g>
<g>
</g>
<g>
</g>
<g>
</g>
<g>
</g>
<g>
</g>
<g>
</g>
<g>
</g>
<g>
</g>
<g>
</g>
<g>
</g>
</svg>
