<?xml version="1.0" encoding="iso-8859-1"?>
<!-- Generator: Adobe Illustrator 19.0.0, SVG Export Plug-In . SVG Version: 6.00 Build 0)  -->
<svg version="1.1" id="Layer_1" xmlns="http://www.w3.org/2000/svg" xmlns:xlink="http://www.w3.org/1999/xlink" x="0px" y="0px"
	 viewBox="0 0 512 512" style="enable-background:new 0 0 512 512;" xml:space="preserve">
<g>
	<g>
		<path d="M500.846,11.194c-8.259-8.259-19.655-12.234-31.261-10.901c-69.513,7.978-114.447,21.711-133.557,40.82L197.455,179.686
			l134.898,134.898L470.927,176.01c19.109-19.109,32.843-64.044,40.82-133.557C513.08,30.848,509.107,19.454,500.846,11.194z"/>
	</g>
</g>
<g>
	<g>
		<path d="M107.197,277.504l-10.507,4.479c-1.764,0.752-3.367,1.835-4.724,3.192l-6.253,6.253
			c-5.686-3.079-12.937-2.223-17.742,2.583c-5.858,5.858-5.858,15.355,0,21.213c0,0,128.681,128.681,128.845,128.844
			c5.78,5.78,15.452,5.762,21.213,0c4.806-4.806,5.662-12.057,2.583-17.743l6.252-6.252c1.356-1.356,2.439-2.959,3.192-4.724
			l4.479-10.507L107.197,277.504z"/>
	</g>
</g>
<g>
	<g>
		<path d="M176.242,200.899l-49.565,49.565c-1.478,1.478-2.631,3.248-3.385,5.197l-2.691,6.962l128.814,128.816l6.963-2.692
			c1.949-0.753,3.72-1.906,5.197-3.384l49.565-49.565L176.242,200.899z"/>
	</g>
</g>
<g>
	<g>
		<path d="M72.086,375.466c-5.857-5.858-15.355-5.858-21.213,0l-46.48,46.481c-5.858,5.858-5.858,15.355,0,21.213
			c5.677,5.676,15.397,5.817,21.213,0l46.48-46.481C77.945,390.821,77.945,381.324,72.086,375.466z"/>
	</g>
</g>
<g>
	<g>
		<path d="M89.609,422.432c-5.857-5.858-15.355-5.858-21.213,0l-46.48,46.48c-5.858,5.858-5.858,15.355,0,21.213
			c5.683,5.683,15.382,5.832,21.213,0l46.48-46.48C95.466,437.787,95.466,428.29,89.609,422.432z"/>
	</g>
</g>
<g>
	<g>
		<path d="M136.575,439.953c-5.858-5.858-15.356-5.858-21.213,0l-46.48,46.481c-5.858,5.858-5.858,15.355,0,21.213
			c5.678,5.677,15.391,5.824,21.213,0l46.48-46.481C142.432,455.308,142.432,445.811,136.575,439.953z"/>
	</g>
</g>
<g>
</g>
<g>
</g>
<g>
</g>
<g>
</g>
<g>
</g>
<g>
</g>
<g>
</g>
<g>
</g>
<g>
</g>
<g>
</g>
<g>
</g>
<g>
</g>
<g>
</g>
<g>
</g>
<g>
</g>
</svg>
