<svg id="Capa_1" enable-background="new 0 0 512 512" height="512" viewBox="0 0 512 512" width="512" xmlns="http://www.w3.org/2000/svg"><g><path d="m507.606 90.644-25-25c-2.813-2.813-6.628-4.394-10.606-4.394h-19.135c-2.075-33.984-30.368-61-64.865-61h-264c-34.497 0-62.79 27.016-64.865 61h-19.135c-3.979 0-7.794 1.581-10.606 4.394l-25 25c-2.814 2.813-4.394 6.628-4.394 10.606v75c0 8.284 6.716 15 15 15s15-6.716 15-15v-68.787l16.213-16.213h12.787v180.888c62.106 12.296 333.635 11.951 394 0v-180.888h12.787l16.213 16.213v68.787c0 8.284 6.716 15 15 15s15-6.716 15-15v-75c0-3.978-1.58-7.793-4.394-10.606z"/><path d="m76 480.66v6.09c0 13.79 11.21 25 25 25h47c13.79 0 25-11.21 25-25v-5.5c-93.793-.199-90.047.449-97-.59z"/><path d="m339 481.25v5.5c0 13.79 11.21 25 25 25h47c13.79 0 25-11.21 25-25v-6.09c-6.952 1.039-3.198.391-97 .59z"/><path d="m59 302.602v55.478l94.562 16.391c5.509.955 10.028 4.894 11.729 10.219l21.243 66.561h138.935l21.243-66.561c1.7-5.326 6.22-9.264 11.729-10.219l94.559-16.391v-55.478c-72.249 11.534-321.714 11.539-394 0zm242 73.648h-90c-8.284 0-15-6.716-15-15s6.716-15 15-15h90c8.284 0 15 6.716 15 15s-6.716 15-15 15z"/><path d="m356.958 451.25h71.042c13.785 0 25-11.215 25-25v-37.723l-80.476 13.949z"/><path d="m155.042 451.25-15.566-48.774-80.476-13.949v37.723c0 13.785 11.215 25 25 25z"/></g></svg>