<svg clip-rule="evenodd" fill-rule="evenodd" height="512" stroke-linejoin="round" stroke-miterlimit="2" viewBox="0 0 64 64" width="512" xmlns="http://www.w3.org/2000/svg"><path d="m31.042 53v6.042h-22.084v-6.042zm24 6.042h-22.084v-6.168h22.084zm-2.084-8.084h-17.916v-2.084h17.916zm-23.916 0h-18.084v-4h18.084zm24-24.958v4h-3.885l1.781 16.958h-13.876l1.781-16.958h-3.885v-4zm-38.199 4h10.314l1.575 15h-13.464zm-3.885-13.042h5.084v5h.916v-5h6.084v5h.916v-5h5.084v11.042h-18.084zm38.29 7.042h-10.496l-2-11.042h6.206v-3.916h-2.958v-2.084h2.958v-2.958h2.084v2.958h2.958v2.084h-2.958v3.916h6.206z"/></svg>