<?xml version="1.0" encoding="iso-8859-1"?>
<!-- Generator: Adobe Illustrator 19.0.0, SVG Export Plug-In . SVG Version: 6.00 Build 0)  -->
<svg version="1.1" id="Capa_1" xmlns="http://www.w3.org/2000/svg" xmlns:xlink="http://www.w3.org/1999/xlink" x="0px" y="0px"
	 viewBox="0 0 512 512" style="enable-background:new 0 0 512 512;" xml:space="preserve">
<g>
	<g>
		<rect x="259.3" y="353.72" width="70.02" height="70.02"/>
	</g>
</g>
<g>
	<g>
		<rect x="359.32" y="253.7" width="70.02" height="70.02"/>
	</g>
</g>
<g>
	<g>
		<rect x="359.32" y="353.72" width="70.02" height="70.02"/>
	</g>
</g>
<g>
	<g>
		<rect x="259.3" y="253.7" width="70.02" height="70.02"/>
	</g>
</g>
<g>
	<g>
		<rect x="259.3" y="144.65" width="170.04" height="22.651"/>
	</g>
</g>
<g>
	<g>
		<path d="M0,0v512h512V0H0z M127.532,58.259c19.86,0,36.017,16.157,36.017,36.016c0,19.859-16.157,36.016-36.017,36.016
			c-19.86,0-36.017-16.157-36.017-36.016C91.515,74.416,107.672,58.259,127.532,58.259z M181.905,303.121l-40.426-35.21v186.764h-30
			V267.911l-40.426,35.21L51.35,280.498l63.894-55.649l19.279-27.546H51.725v-30h140.412l-45.633,65.201l55.105,47.994
			L181.905,303.121z M459.341,453.741H229.296V223.696h230.045V453.741z M459.341,197.303H229.296v-82.651h230.045V197.303z
			 M460.275,88.259H228.362v-30h231.913V88.259z"/>
	</g>
</g>
<g>
</g>
<g>
</g>
<g>
</g>
<g>
</g>
<g>
</g>
<g>
</g>
<g>
</g>
<g>
</g>
<g>
</g>
<g>
</g>
<g>
</g>
<g>
</g>
<g>
</g>
<g>
</g>
<g>
</g>
</svg>
