<svg id="Capa_1" enable-background="new 0 0 362.24 362.24" height="512" viewBox="0 0 362.24 362.24" width="512" xmlns="http://www.w3.org/2000/svg"><g><g><g><path d="m355.08 275.776c-1.12-.72-3.04-1.92-3.28-2.16-.04-.72.8-2.88 1.32-4.16 1.36-3.44 3.04-7.72.6-11.12-2.48-3.4-7.12-3.12-10.84-2.88-1.36.08-3.64.24-4.04.16-.44-.56-1-2.72-1.36-4.04-.92-3.64-2.04-8.16-5.88-9.4-.44-.16-.96-.24-1.44-.28 18.48-102.24 3.92-116.6-31.56-155.44-38.28-41.96-129.56-66.28-205.44-41.96-66.92 21.44-69.04 139.92-68.6 167.32 0 .64 0 1.2.04 1.76-.12 0-.24 0-.32.04-5.7.572-12.172 3.656-16.32 8.04-4.952 5.236-7.96 12.545-7.96 19.8 0 10.56 5.44 19.48 14.96 24.52 2.92 1.56 6.2 2.92 10 4.08 4.156 1.268 7.992 2.248 12.16 3.36 7.04 1.88 13.32 3.16 20.96 3.16 13.44 0 20.68-3.24 28.08-7.12 7.124-3.736 12.892-7.12 26.04-7.12 12.56 0 18.72 3.28 25.24 6.72 8.04 4.24 14.916 7.52 28.84 7.52 13.4 0 20.64-3.24 28.12-7.16 7.104-3.724 12.856-7.08 25.96-7.08 9.4 0 15.28 2.48 20.24 5.16 2.92 1.56 6.16 2.4 9.36 2.4 7.56 0 14.72-2.96 20.16-8.32 2.192-2.16 4.768-6.136 5.84-8.68 3.02-7.172 3.292-15.36.2-22.56-2.08-4.84-5.44-9-9.68-12.04-2.92-2.12-6.2-3.6-9.72-4.44-.08-.04-.12-.04-.2-.04-.68-.16-1.36-.28-2.08-.4-2.56-8.84-5.44-21.4-7.68-37.96h.12c1.56-.28 2.72-1.4 3.16-2.8 20.84 6.48 53.96 24.04 58.84 69.88-1.44-.64-3.24-1.04-5.16-.44-4.08 1.32-5.24 5.88-6.16 9.52-.32 1.28-.84 3.48-1 3.8-.68.28-2.96.12-4.32.04-3.72-.24-8.36-.56-10.84 2.88-2.48 3.4-.8 7.68.6 11.16.48 1.24 1.32 3.4 1.4 3.76-.36.6-2.28 1.8-3.4 2.52-3.2 2-7.16 4.52-7.16 8.8 0 4.32 4 6.84 7.2 8.88 1.12.68 3 1.88 3.24 2.08.08.72-.8 2.88-1.32 4.2-1.36 3.44-3.04 7.72-.56 11.12s7.12 3.12 10.84 2.88c1.36-.08 3.64-.2 4-.16.48.52 1 2.72 1.32 4 .92 3.64 2.08 8.2 6.2 9.52 3.884 1.244 7.308-1.612 10.24-4 1.08-.88 2.92-2.4 3.4-2.56.72.16 2.56 1.68 3.64 2.56 2.96 2.48 6.32 5.28 10.28 4 4.08-1.32 5.2-5.84 6.12-9.48.36-1.28.92-3.48 1.08-3.84.68-.28 2.96-.12 4.32-.04 3.72.24 8.36.52 10.84-2.88 2.44-3.4.84-7.52-.6-11.12-.48-1.2-1.24-3.12-1.32-4 .56-.6 2.24-1.64 3.24-2.28 3.2-2.04 7.2-4.56 7.2-8.88 0-4.28-3.96-6.8-7.16-8.8zm-107.52-56.36c2.484 1.14 5.012 1.604 7.56 2.24 2.4.6 4.64 1.64 6.68 3.12 3.08 2.24 5.52 5.24 7 8.68 3.12 7.248 1.708 15.872-3.64 21.68-3.96 4.3-9.428 6.76-15.2 6.76-1.88 0-3.84-.48-5.56-1.44-5.6-3.04-12.8-6.12-24.04-6.12-14.952 0-22.12 4.028-29.68 8-5.56 2.92-11.88 6.24-24.4 6.24-13.032 0-18.964-3.352-25.08-6.6-7.08-3.76-14.44-7.64-29-7.64-15.032 0-22.128 4.04-29.8 8.04-5.52 2.88-11.76 6.2-24.32 6.2-6.76 0-12.44-1.16-18.88-2.92-4.016-1.096-7.956-1.984-11.84-3.2-3.32-1.04-6.16-2.2-8.64-3.52-6.84-3.64-10.64-9.76-10.72-17.32-.052-5.064 2.004-10.644 5.72-14.36 3.26-3.26 6.976-5.224 11.44-5.72 2.52-.28 5.24-.12 8 .52 4.652 1.08 9.324 3.028 14 4.36 11.64 3.32 25.48 1.24 39-5.88 7.096-3.736 12.856-7.08 25.96-7.08 12.6 0 18.76 3.28 25.28 6.72 8.04 4.24 14.884 7.52 28.8 7.52 13.36 0 20.64-3.24 28.16-7.16 7.112-3.708 12.856-7.08 25.96-7.08 14.32 0 20 2.64 27.24 5.96zm103.24 67.24c-2.8 1.76-5.64 3.56-6.64 6.56-.24.8-.36 1.56-.36 2.36 0 2.4.96 4.8 1.88 7.12.36.88.88 2.24 1.16 3.16-1 .08-2.48-.04-3.44-.08-3.36-.24-6.8-.44-9.36 1.44-2.64 1.84-3.48 5.2-4.28 8.44-.28.96-.64 2.4-1 3.32-.8-.52-1.84-1.4-2.56-2-2.64-2.2-5.36-4.44-8.64-4.44s-6 2.24-8.64 4.44c-.72.6-1.76 1.48-2.56 2-.36-.92-.72-2.36-1-3.36-.8-3.2-1.64-6.52-4.2-8.4-2.6-1.88-6.04-1.68-9.4-1.44-.96.04-2.44.16-3.44.08.24-.92.76-2.28 1.12-3.2 1.24-3.12 2.52-6.36 1.52-9.44-1-3-3.84-4.8-6.64-6.56-.88-.56-2.24-1.4-3.04-2.08.8-.64 2.12-1.48 3-2.04 2.8-1.76 5.72-3.6 6.68-6.6 1-3.08-.28-6.28-1.52-9.4-.36-.92-.88-2.24-1.12-3.2 1-.04 2.48.04 3.44.08 3.36.24 6.8.44 9.4-1.44 2.56-1.88 3.4-5.2 4.2-8.4.28-1 .64-2.44 1-3.36.808.576 1.756 1.328 2.56 2 2.64 2.2 5.36 4.44 8.64 4.44s6-2.24 8.64-4.44c.72-.6 1.8-1.48 2.56-2.04.36.96.72 2.4 1 3.36.8 3.24 1.64 6.6 4.24 8.44 2.6 1.88 6.04 1.68 9.4 1.44.96-.04 2.44-.12 3.44-.08-.28.92-.8 2.28-1.16 3.16-1.24 3.12-2.52 6.36-1.52 9.44.96 3 3.88 4.84 6.68 6.6.88.56 2.2 1.4 3 2.04-.8.68-2.16 1.52-3.04 2.08z"/></g></g></g></svg>