<svg id="Capa_1" enable-background="new 0 0 511.73 511.73" height="512" viewBox="0 0 511.73 511.73" width="512" xmlns="http://www.w3.org/2000/svg"><g id="XMLID_831_"><path id="XMLID_832_" d="m255.479 321.955c8.115 0 14.716-6.602 14.716-14.716 0-8.115-6.602-14.717-14.716-14.717s-14.716 6.602-14.716 14.717 6.601 14.716 14.716 14.716z"/><path id="XMLID_835_" d="m240.479 399.298v-49.939c-17.3-6.18-29.716-22.724-29.716-42.12 0-24.657 20.06-44.717 44.716-44.717s44.716 20.06 44.716 44.717c0 19.396-12.417 35.941-29.717 42.12v49.939h63.428.562c2.606-32.63 14.594-63.924 35.068-91.223 18.46-24.612 28.217-53.925 28.217-84.769 0-37.482-14.516-72.8-40.874-99.445-26.337-26.624-61.452-41.524-98.877-41.956-.555-.006-1.104-.01-1.658-.01-36.652 0-71.396 14.032-97.988 39.616-27.006 25.981-42.411 60.803-43.376 98.05-.832 32.088 8.834 62.594 27.952 88.219 20.385 27.323 31.988 58.787 33.849 91.518h.271zm62.278-150.331c-12.629-12.628-29.419-19.583-47.278-19.583s-34.649 6.955-47.277 19.583l-21.213-21.213c18.294-18.295 42.618-28.37 68.49-28.37 25.873 0 50.196 10.075 68.491 28.37z"/><path id="XMLID_836_" d="m177.052 429.298h156.854v82.433h-156.854z"/><path id="XMLID_838_" d="m241.251 0h30v36.554h-30z"/><path id="XMLID_839_" d="m131.211 29.071h30v36.554h-30z" transform="matrix(.866 -.5 .5 .866 -4.086 79.447)"/><path id="XMLID_840_" d="m50.449 109.268h30v36.554h-30z" transform="matrix(.5 -.866 .866 .5 -77.733 120.451)"/><path id="XMLID_841_" d="m428.006 113.882h36.553v30h-36.553z" transform="matrix(.866 -.5 .5 .866 -4.652 240.404)"/><path id="XMLID_842_" d="m347.808 33.12h36.554v30h-36.554z" transform="matrix(.5 -.866 .866 .5 141.368 341.098)"/></g></svg>