<svg height="512" viewBox="0 0 57 57" width="512" xmlns="http://www.w3.org/2000/svg"><g id="Page-1" fill="none" fill-rule="evenodd"><g id="009---Crossed-Bats" fill="rgb(0,0,0)" fill-rule="nonzero" transform="translate(0 -1)"><path id="Shape" d="m5.121 7.95.707-.707c.25107447-.25995658.62287789-.3642126.97250732-.27269716.34962944.09151544.6226744.3645604.71418984.71418984.09151544.34962943-.01274058.72143285-.27269716.97250732l-.707.707 1.414 1.416.708-.709c.25107447-.25995658.62287789-.3642126.97250732-.27269716.34962944.09151544.62267438.36456036.71418988.71418986.0915154.3496294-.0127406.7214328-.2726972.9725073l-.709.709 1.414 1.415.709-.71c.2525868-.2527654.6208353-.3515769.96603-.259213.3451946.0923638.6148921.3618707.7075.707s-.0059432.7134476-.25853.966213l-.709.71 2.765 2.768 7.369 5.157.624-.624-5.157-7.368-11.257-11.248-2.827 2.827z"/><path id="Shape" d="m27.584 17.688-3.491-3.488c-.1865441-.1934373-.4442749-.3018794-.713-.3h-2.58c-.2680775-.000103-.5248312.1080797-.712.3l-.228.227 4.524 6.464z"/><path id="Shape" d="m43.041 17.787 2.766-2.766-.706-.708c-.3693233-.3938446-.3593222-1.0097448.0225937-1.3913906s.9978231-.3912112 1.3914063-.0216094l.707.708 1.414-1.415-.707-.707c-.2599566-.2510745-.3642126-.6228779-.2726972-.9725073.0915155-.3496295.3645604-.62267442.7141899-.71418986.3496294-.09151544.7214328.01274058.9725073.27269716l.707.707 1.415-1.414-.707-.707c-.3789722-.39237889-.3735524-1.01608478.0121814-1.40181858.3857338-.38573379 1.0094397-.39115363 1.4018186-.01218142l.707.706 1.414-1.414-2.828-2.829-11.253 11.251-6.6 9.429z"/><path id="Shape" d="m56.414 4.414c.7807639-.7809997.7807639-2.0470003 0-2.828-.791167-.75581397-2.036833-.75581397-2.828 0l-.707.707 2.828 2.828z"/><path id="Shape" d="m14.2 20.087c-.1915957.187801-.2996932.4447128-.3.713v2.58c-.00322.2627957.1007741.5155592.288.7l3.5 3.5 3.2-3.2-6.464-4.52z"/><path id="Shape" d="m56.906 47-16.594-16.584-9.9 9.9 16.655 16.647c.625.3 4.371-.126 7.065-2.829s3.134-6.442 2.774-7.134z"/><path id="Shape" d="m39.6 28.293s.012-.007.018-.012l4.186-4.188c.1896406-.1890394.2955454-.4462369.294-.714v-2.574c.0015454-.2677631-.1043594-.5249606-.294-.714l-.235-.234-8.809 6.168c-.7918798.5672178-1.8792025.4716523-2.56-.225-.6973058-.6810034-.792493-1.7692825-.224-2.561l6.168-8.813-.234-.234c-.1883913-.1879195-.4439098-.2930059-.71-.292h-2.579c-.267417-.0012774-.5242045.1046069-.713.294l-4.195 4.2-.006.009-.007-.003-11.295 11.3-.008.012-.011.008-17.352 17.346c-.3.624.13 4.372 2.829 7.071s6.446 3.13 7.143 2.771l17.266-17.273c.009-.01.012-.023.021-.032s.022-.012.031-.021l11.266-11.271c.01-.005.01-.011.01-.018zm-21.722 7.585-12.722 12.722c.27380223 1.0185013.80200779 1.9506894 1.535 2.709.25995658.2510745.3642126.6228779.27269716.9725073-.09151544.3496295-.3645604.6226744-.71418984.7141899-.34962943.0915154-.72143285-.0127406-.97250732-.2726972-1.1323039-1.1772085-1.89683117-2.6590014-2.2-4.264-.0570064-.3217626.04679218-.6510804.278-.882l13.109-13.113c.3923789-.3789722 1.0160848-.3735524 1.4018186.0121814s.3911536 1.0094397.0121814 1.4018186z"/><path id="Shape" d="m2.294 5.121 2.826-2.827-.707-.707c-.4972797-.54029134-1.25064538-.76462926-1.96248516-.5843906-.71183977.18023865-1.26766679.73606567-1.44790544 1.44790544-.18023866.71183978.04409926 1.46520546.5843906 1.96248516z"/></g></g></svg>