<svg id="Capa_1" enable-background="new 0 0 512 512" height="512" viewBox="0 0 512 512" width="512" xmlns="http://www.w3.org/2000/svg"><g><g id="Crossword"><g><path d="m106 136h-91c-8.291 0-15 6.709-15 15v75c0 8.291 6.709 15 15 15h91z"/><path d="m226 136h-90v105h90c8.284 0 15-6.716 15-15v-75c0-8.284-6.716-15-15-15z"/></g><g><path d="m271 0h105v106h-105z"/><path d="m497 0h-91v106h91c8.291 0 15-6.709 15-15v-76c0-8.291-6.709-15-15-15z"/><path d="m241 0h-90c-8.291 0-15 6.709-15 15v76c0 8.291 6.709 15 15 15h90z"/></g></g><g><path d="m271 271h105v105h-105z"/><path d="m497 271h-91v105h91c8.291 0 15-6.709 15-15v-75c0-8.291-6.709-15-15-15z"/><path d="m241 271h-90c-8.291 0-15 6.709-15 15v75c0 8.291 6.709 15 15 15h90z"/></g><g><path d="m136 406h105v106h-105z"/><path d="m361 406h-90v106h90c8.291 0 15-6.709 15-15v-76c0-8.291-6.709-15-15-15z"/><path d="m106 406h-91c-8.291 0-15 6.709-15 15v76c0 8.291 6.709 15 15 15h91z"/></g></g></svg>