<?xml version="1.0" encoding="iso-8859-1"?>
<!-- Generator: Adobe Illustrator 19.0.0, SVG Export Plug-In . SVG Version: 6.00 Build 0)  -->
<svg version="1.1" id="Capa_1" xmlns="http://www.w3.org/2000/svg" xmlns:xlink="http://www.w3.org/1999/xlink" x="0px" y="0px"
	 viewBox="0 0 512 512" style="enable-background:new 0 0 512 512;" xml:space="preserve">
<g>
	<g>
		<path d="M280.405,184.156l80.34,62.8l129.704-116.776C504.145,117.849,512,100.208,512,81.779V3.124L280.405,184.156z"/>
	</g>
</g>
<g>
	<g>
		<path d="M233.538,361.483l-83.646-75.309l-30.831,24.099c-6.112-1.169-12.417-1.789-18.865-1.789
			C44.947,308.485,0,353.431,0,408.68s44.947,100.196,100.196,100.196s100.196-44.947,100.196-100.196
			c0-5.506-0.454-10.906-1.312-16.174L233.538,361.483z M100.196,453.768c-24.862,0-45.088-20.227-45.088-45.088
			c0-24.862,20.227-45.088,45.088-45.088s45.088,20.227,45.088,45.088C145.284,433.542,125.057,453.768,100.196,453.768z"/>
	</g>
</g>
<g>
	<g>
		<path d="M411.804,308.485c-6.448,0-12.753,0.619-18.865,1.789L0,3.124v78.655c0,18.429,7.855,36.07,21.551,48.401L312.92,392.507
			c-0.859,5.267-1.312,10.668-1.312,16.174c0,55.249,44.947,100.196,100.196,100.196S512,463.929,512,408.68
			S467.053,308.485,411.804,308.485z M256.501,286.441c-8.3,0-15.029-6.729-15.029-15.029c0-8.3,6.729-15.029,15.029-15.029
			s15.029,6.729,15.029,15.029C271.53,279.712,264.801,286.441,256.501,286.441z M411.804,453.768
			c-24.862,0-45.088-20.227-45.088-45.088c0-24.862,20.227-45.088,45.088-45.088c24.862,0,45.088,20.227,45.088,45.088
			C456.892,433.542,436.666,453.768,411.804,453.768z"/>
	</g>
</g>
<g>
</g>
<g>
</g>
<g>
</g>
<g>
</g>
<g>
</g>
<g>
</g>
<g>
</g>
<g>
</g>
<g>
</g>
<g>
</g>
<g>
</g>
<g>
</g>
<g>
</g>
<g>
</g>
<g>
</g>
</svg>
