<?xml version="1.0" encoding="iso-8859-1"?>
<!-- Generator: Adobe Illustrator 17.1.0, SVG Export Plug-In . SVG Version: 6.00 Build 0)  -->
<!DOCTYPE svg PUBLIC "-//W3C//DTD SVG 1.1//EN" "http://www.w3.org/Graphics/SVG/1.1/DTD/svg11.dtd">
<svg xmlns="http://www.w3.org/2000/svg" xmlns:xlink="http://www.w3.org/1999/xlink" version="1.1" id="Capa_1" x="0px" y="0px" viewBox="0 0 202.439 202.439" style="enable-background:new 0 0 202.439 202.439;" xml:space="preserve" width="512px" height="512px">
<path d="M201.386,179.257c-0.834-7.763-4.504-14.34-7.452-19.625c-1.038-1.86-2.018-3.618-2.747-5.188  c-1.599-3.448-0.809-9.002-0.044-14.374c0.173-1.219,0.346-2.43,0.495-3.625c0.072-0.571,0.168-1.267,0.281-2.077  c1.412-10.174,5.163-37.2-4.626-63.427c-9.306-24.935-30.323-40.955-40.218-46.835c3.262-1.545,8.389-2.985,11.642-3.641  c2.429-0.486,4.462-2.14,5.431-4.42c0.969-2.28,0.75-4.891-0.586-6.978c-1.267-1.979-5.582-6.765-18.245-8.444  c-15.359-2.038-23.695,1.065-40.481,7.334c-9.85,3.679-14.634,4.189-20.173,4.779c-4.71,0.502-10.049,1.071-18.531,3.448  c-24.429,6.847-35.921,17.117-42.44,24.246c-5.089,5.565-6.451,11.229-6.169,15.831c-1.211,0.668-2.54,1.413-3.879,2.185  c-8.953,5.16-12.053,7.571-12.768,11.681c-0.527,3.033,0.441,6.201,2.729,8.92c2.837,3.374,7.044,5.388,11.253,5.388l0.337-0.004  c2.321-0.059,5.382-0.774,10.594-2.034c4.613-1.115,10.354-2.502,14.714-2.965c5.536-0.589,11.074,0.563,19.43,2.362  c2.475,0.533,5.28,1.137,8.354,1.748c3.951,0.785,8.07,1.182,12.245,1.182c3.552,0,6.698-0.282,9.262-0.642  c1.859,3.833,4.947,8.841,9.926,15.368c12.989,17.028,26.995,17.631,28.549,17.643c2.809,0.041,5.457-1.529,6.751-4.05  c1.294-2.522,1.074-5.533-0.597-7.822c-0.034-0.047-3.36-4.834-4.692-12.535c-0.38-2.194-0.492-4.21-0.461-5.961  c5.114,1.696,11.555,4.388,16.731,8.157c8.914,6.49,14.873,23.232,16.637,36.042c0.684,4.969,0.473,7.641,0.229,8.927  c-0.049-0.002-0.099-0.005-0.149-0.007c-0.795-0.037-1.786-0.083-2.996-0.083c-3.145,0-6.549,0.327-10.406,0.999  c-12.526,2.183-20.347,11.09-21.197,12.099c-1.964,2.329-2.434,5.622-1.021,8.321c1.402,2.68,4.168,4.262,7.178,4.004l0.139-0.001  c0.656,0,3.168,0.061,7.954,0.848c2.879,0.473,4.39,1.292,6.303,2.329c1.631,0.884,3.48,1.886,5.949,2.56  c1.921,0.524,3.938,0.817,5.788,0.974c0.531,1.117,1.199,2.319,2.041,3.566c2.752,4.078,7.318,6.451,11.732,8.745  c1.744,0.906,3.391,1.762,4.752,2.636c1.612,1.034,5.109,6.383,7.339,11.224c1.229,2.68,3.901,4.375,6.815,4.375  c0.187,0,0.375-0.007,0.563-0.021c3.128-0.234,5.78-2.39,6.647-5.404C200.519,196.236,202.449,189.138,201.386,179.257z   M46.656,63.468l-1.497,0.444c-0.711,0.211-1.43,0.312-2.137,0.312c-3.235,0-6.22-2.109-7.187-5.368  c-1.179-3.971,1.085-8.145,5.056-9.324l1.497-0.444c3.969-1.18,8.145,1.085,9.324,5.056C52.891,58.115,50.628,62.29,46.656,63.468z" fill="#616161"/>
<g>
</g>
<g>
</g>
<g>
</g>
<g>
</g>
<g>
</g>
<g>
</g>
<g>
</g>
<g>
</g>
<g>
</g>
<g>
</g>
<g>
</g>
<g>
</g>
<g>
</g>
<g>
</g>
<g>
</g>
</svg>
