<?xml version="1.0" encoding="iso-8859-1"?>
<!-- Generator: Adobe Illustrator 19.0.0, SVG Export Plug-In . SVG Version: 6.00 Build 0)  -->
<svg version="1.1" id="Capa_1" xmlns="http://www.w3.org/2000/svg" xmlns:xlink="http://www.w3.org/1999/xlink" x="0px" y="0px"
	 viewBox="0 0 512 512" style="enable-background:new 0 0 512 512;" xml:space="preserve">
<g>
	<g>
		<path d="M256,30.004c-19.53,0-36.024,12.578-42.237,30H46.002c-8.291,0-15,6.709-15,15s6.709,15,15,15h167.762
			c6.213,17.422,22.707,30,42.237,30c24.814,0,45-20.186,45-45S280.814,30.004,256,30.004z"/>
	</g>
</g>
<g>
	<g>
		<path d="M289.133,331.416l53.115,123.938l32.666-130.637C344.614,328.653,314.769,330.628,289.133,331.416z"/>
	</g>
</g>
<g>
	<g>
		<path d="M421.177,317.229c-4.283,0.913-9.718,1.543-14.07,2.351l-45.339,181.319l1.421,3.316
			c60.557-9.163,112.441-26.369,135.49-51.361L421.177,317.229z"/>
	</g>
</g>
<g>
	<g>
		<path d="M451.27,309.43l60.729,106.274V281.279C496.148,293.311,474.883,302.364,451.27,309.43z"/>
	</g>
</g>
<g>
	<g>
		<path d="M0.002,281.279v134.424L60.731,309.43C37.117,302.364,15.851,293.311,0.002,281.279z"/>
	</g>
</g>
<g>
	<g>
		<path d="M256.743,331.993c-0.223-0.001-0.522,0.009-0.743,0.009c-0.222,0-0.52-0.009-0.743-0.009l-73.474,171.424l1.28,5.081
			C206.811,510.802,231.42,512,256,512c24.587,0,49.204-1.198,72.959-3.505l1.265-5.059L256.743,331.993z"/>
	</g>
</g>
<g>
	<g>
		<path d="M104.54,319.515c-4.232-0.789-9.551-1.397-13.717-2.286L13.321,452.854c23.049,24.992,74.931,42.198,135.49,51.361
			l1.41-3.289L104.54,319.515z"/>
	</g>
</g>
<g>
	<g>
		<path d="M136.775,324.677l32.932,130.78l53.161-124.042C197.143,330.626,167.178,328.642,136.775,324.677z"/>
	</g>
</g>
<g>
	<g>
		<path d="M475.607,3.475c-6.401-5.303-15.85-4.438-21.138,1.919L329.152,157.781c-4.188-1.293-8.546-2.19-13.152-2.19
			c-24.815,0-45,20.186-45,45c0,24.814,20.186,45,45,45c24.814,0,45-20.186,45-45c0-9.247-2.816-17.844-7.617-24.999L477.526,24.613
			C482.829,18.241,481.964,8.778,475.607,3.475z"/>
	</g>
</g>
<g>
	<g>
		<path d="M401.799,164.302l-13.5,16.501c1.8,6.299,2.701,12.9,2.701,19.799c0,41.4-33.6,74.999-74.999,74.999
			s-74.999-33.6-74.999-74.999c0-18.6,7.2-35.4,18.3-48.6h-3.3c-88.199,0-255.998,15.601-255.998,74.999
			c0,59.399,167.798,75,255.997,75s255.998-15.601,255.998-74.999C511.998,194.602,461.199,175.104,401.799,164.302z"/>
	</g>
</g>
<g>
</g>
<g>
</g>
<g>
</g>
<g>
</g>
<g>
</g>
<g>
</g>
<g>
</g>
<g>
</g>
<g>
</g>
<g>
</g>
<g>
</g>
<g>
</g>
<g>
</g>
<g>
</g>
<g>
</g>
</svg>
