<svg id="Layer_1" enable-background="new 0 0 511.985 511.985" height="512" viewBox="0 0 511.985 511.985" width="512" xmlns="http://www.w3.org/2000/svg"><g><path d="m437.006 74.979c-48.35-48.351-112.636-74.979-181.014-74.979s-132.663 26.628-181.013 74.979-74.979 112.635-74.979 181.014c0 68.378 26.628 132.663 74.979 181.014s112.636 74.979 181.014 74.979 132.663-26.628 181.014-74.979 74.979-112.636 74.979-181.014c-.001-68.379-26.629-132.664-74.98-181.014zm-144.469 113.457 65.643-37.899c7.174-4.143 16.348-1.684 20.49 5.49s1.684 16.348-5.49 20.49l-43.143 24.909 43.143 24.909c7.174 4.142 9.632 13.316 5.49 20.49-2.778 4.812-7.82 7.502-13.004 7.502-2.545 0-5.124-.648-7.486-2.012l-65.643-37.899c-4.641-2.679-7.5-7.631-7.5-12.99s2.859-10.311 7.5-12.99zm-127.505-39.374c28.474 0 51.64 23.166 51.64 51.64s-23.166 51.64-51.64 51.64-51.64-23.166-51.64-51.64 23.166-51.64 51.64-51.64zm236.66 166.252c-24.725 60.735-81.838 99.979-145.501 99.979s-120.776-39.244-145.501-99.979c-3.124-7.673.564-16.425 8.237-19.549 7.671-3.122 16.425.564 19.549 8.237 20.103 49.382 66.309 81.29 117.715 81.29s97.612-31.908 117.715-81.29c3.124-7.673 11.878-11.361 19.549-8.237 7.672 3.124 11.36 11.876 8.237 19.549z"/><circle cx="165.032" cy="200.701" r="21.64"/></g></svg>