<svg id="Capa_1" enable-background="new 0 0 512 512" height="512" viewBox="0 0 512 512" width="512" xmlns="http://www.w3.org/2000/svg"><path d="m391 122c0 21.53-7.76 42.34-21.84 58.62-7.1 8.2-8.16 22.04-8.16 29.56v17.99c88.51-31.35 151-116.43 151-213.17 0-8.28-6.72-15-15-15-33.85 0-66.62 7.53-97.42 22.39-15.7 7.57-30.57 17-44.19 27.95 21.62 16.45 35.61 42.45 35.61 71.66z"/><path d="m148.39 259.07-7.41-2.62c-19.29-6.84-37.51-15.87-54.4-26.9-52.601 41.097-86.58 105.348-86.58 177.45 0 8.28 6.72 15 15 15 16.05 0 32.03-1.72 47.63-5.1 11.842-102.672 83.036-154.653 85.76-157.83z"/><path d="m151 228.17v-17.99c0-7.52-1.06-21.36-8.16-29.56-14.08-16.27-21.84-37.09-21.84-58.62 0-29.17 13.94-55.21 35.58-71.68-13.61-10.94-28.48-20.36-44.16-27.93-30.8-14.86-63.57-22.39-97.42-22.39-8.28 0-15 6.72-15 15 0 96.74 62.49 181.82 151 213.17z"/><path d="m424.72 230.01c-16.69 10.82-34.67 19.7-53.7 26.44l-7.53 2.67c3.044 3.668 74.617 55.891 86.05 158.82 15.54 3.35 31.47 5.06 47.46 5.06 8.28 0 15-6.72 15-15 0-72.358-34.267-136.939-87.28-177.99z"/><path d="m151 122c0 14.32 5.16 28.17 14.53 38.99 5.46 6.32 9.08 13.62 11.43 21.01h158.08c2.35-7.39 5.97-14.69 11.43-21.01 9.37-10.82 14.53-24.67 14.53-38.99 0-22.156-12.085-41.534-30-51.926v-55.074c0-8.284-6.716-15-15-15s-15 6.716-15 15v47c-.1.02-24.66-.9-45.39 16.9-13.353-10.788-32.979-16.87-44.61-16.93v-46.97c0-8.284-6.716-15-15-15s-15 6.716-15 15v55.054c-17.921 10.388-30 29.783-30 51.946z"/><path d="m181 212h150v30h-150z"/><path d="m345.35 283.25c-3.75-3.15-6.85-6.96-9.19-11.25h-160.42c-2.32 4.19-5.36 7.93-9.05 11.02-48.04 40.28-75.62 99.09-75.66 161.36 0 4.56 2.07 8.87 5.63 11.72l.39.31c13.05 10.42 28.96 16.11 46.02 16.46 16.48.35 32.52-4.32 46.38-13.48 13.2 24.22 35.31 43.01 61.81 51.84 1.54.51 3.14.77 4.74.77s3.2-.26 4.74-.77c26.5-8.83 48.61-27.62 61.81-51.84l1 .67c28.33 18.89 65.23 17.29 91.82-3.99 3.56-2.84 5.63-7.15 5.63-11.71 0-62.11-27.57-120.83-75.65-161.11z"/></svg>