<?xml version="1.0"?>
<svg xmlns="http://www.w3.org/2000/svg" height="512px" viewBox="0 0 56 54" width="512px"><g id="Page-1" fill="none" fill-rule="evenodd"><g id="020---Bandaged-Hand" fill="rgb(0,0,0)" fill-rule="nonzero"><path id="Shape" d="m55.12 23.77-5.26 5.26-17.93-25.55 2.1-2.09c.577916-.58247024 1.3644767-.91008418 2.185-.91008418s1.607084.32761394 2.185.91008418c.5807232.57619123.9081834 1.35985801.9100597 2.17792417.0018763.81806617-.3219857 1.6032268-.9000597 2.18207583-.2869635.24240293-.4138747.62517806-.3285739.99100729.0853009.36582922.3684234.65299628.7330059.74347738.3645826.09048109.7491193-.03098816.995568-.31448467h.01l1.45-1.44c1.2196326-1.17520993 3.1503674-1.17520993 4.37 0 .5823698.57593483.9100881 1.36094231.9100881 2.18s-.3277183 1.60406517-.9100881 2.18c-.4059293.3755536-.4305536 1.0090707-.055 1.415.3755537.4059292 1.0090707.4305536 1.415.055.02-.02.11-.09.13-.11 1.1712702-1.1698135 3.0687298-1.1698135 4.24 0l.13.13c.5616843.5605338.8773321 1.3214716.8773321 2.115s-.3156478 1.5544662-.8773321 2.115l-2.17 2.17c-.2536586.2536586-.3527235.623374-.259878.969878.0928454.3465041.3634959.6171546.71.71.346504.0928455.7162194-.0062194.969878-.259878 1.187403-1.130159 3.052597-1.130159 4.24 0l.13.13c1.1698135 1.1712702 1.1698135 3.0687298 0 4.24z" fill="#616161"/><path id="Shape" d="m48.42 30.47-1.38 1.38-5.71 5.61-7.98-14.77c-.0173618-.0401418-.0409895-.077271-.07-.11l-7.18-13.27 3.59-3.58.81-.81z" fill="#616161"/><path id="Shape" d="m21.04 47.68-5.83 5.79-15.2-15.21 5.11-5.11z" fill="#616161"/><path id="Shape" d="m29.65 43.87c-.18.05-.36.09-.55.14l-3.7.85c-1.0627302.2556054-2.0540406.7478422-2.9 1.44l-15.96-14.56 1.01-1.01c.82099363-.8365912 1.42815332-1.8588148 1.77-2.98l17.12 8.48z" fill="#616161"/><path id="Shape" d="m26.57 6.01996344-3.54 3.53003656c-.8089459.8173283-1.5234335 1.7230168-2.13 2.7-.8254701 1.3150065-1.4364417 2.752984-1.81 4.26l-.02.08-6.09-2 1.72-6.23c.3391841-1.37948983 1.57944-2.34688947 3-2.34z" fill="#616161"/><path id="Shape" d="m39.84 38.92-1.54 1.52h-.01c-.6.6-2.25 1.71-6.68 2.93l-3.47-8.25c-.0192872-.0485824-.0427064-.0954208-.07-.14l-7.24-17.2.2-.78c.5734645-2.2823945 1.7554537-4.3664281 3.42-6.03l.18-.18 6.95 12.85c.0199139.0356007.0433658.0691034.07.1z" fill="#616161"/><path id="Shape" d="m25.23 33.4-15.35-7.61 2.56-9.27 6.6 2.16z" fill="#616161"/></g></g></svg>
