<?xml version="1.0"?>
<svg xmlns="http://www.w3.org/2000/svg" id="Capa_1" enable-background="new 0 0 512 512" height="512px" viewBox="0 0 512 512" width="512px"><g><path d="m0 372.766c8.657-8.098 18.793-14.516 30.006-18.918l15.026-5.899c-8.787-12.396-14.621-27.106-16.423-43.173l-2.302-20.529c-16.05 9.951-26.307 27.636-26.307 47.38z" fill="#616161"/><path d="m200.031 381.773-27.533-10.809c-14.868 10.112-32.799 15.974-51.997 15.974-19.199 0-37.13-5.863-51.998-15.974l-27.534 10.809c-24.888 9.771-40.969 33.361-40.969 60.098v70.129h241v-70.129c0-26.737-16.081-50.327-40.969-60.098z" fill="#616161"/><path d="m89.927 281.119c-6.443.785-12.523 1.099-18.13 1.099-5.745 0-10.987-.332-15.622-.825l2.248 20.04c3.548 31.643 30.236 55.505 62.078 55.505s58.529-23.862 62.077-55.504l4.513-40.235c1.049-9.354.092-18.723-2.669-27.524-33.904 33.397-69.319 44.378-94.495 47.444z" fill="#616161"/><path d="m53.564 250.796c7.853 1.261 19.875 2.266 34.11.367 30.208-4.03 57.355-18.869 80.848-44.142-12.576-12.927-29.914-20.299-48.022-20.299-19.049 0-37.255 8.144-49.952 22.344-10.366 11.594-16.306 26.388-16.984 41.73z" fill="#616161"/><path d="m256 205.05 94.869-94.869c25.205-25.205 25.205-66.071 0-91.277-25.205-25.205-66.071-25.205-91.277 0l-3.592 3.592-3.592-3.592c-25.205-25.205-66.071-25.205-91.277 0-25.205 25.206-25.205 66.072 0 91.277z" fill="#616161"/><path d="m391.5 424.461c14.407 0 26.688-10.771 28.568-25.055l2.34-17.779c-9.69 3.431-20.093 5.31-30.907 5.31s-21.218-1.879-30.908-5.31l2.339 17.779c1.88 14.284 14.162 25.055 28.568 25.055z" fill="#616161"/><path d="m471.031 381.773-17.481-6.863-3.739 28.41c-3.836 29.155-28.905 51.141-58.311 51.141s-54.475-21.985-58.312-51.141l-3.738-28.41-17.482 6.863c-24.887 9.771-40.968 33.361-40.968 60.098v70.129h241v-70.129c0-26.737-16.081-50.327-40.969-60.098z" fill="#616161"/><path d="m391.5 356.938c31.842 0 58.529-23.862 62.077-55.504l3.309-29.505c-.812.015-1.624.051-2.435.051-22.182 0-43.755-5.611-62.952-16.305-19.197 10.693-40.771 16.305-62.952 16.305-.81 0-1.623-.036-2.435-.051l3.309 29.504c3.55 31.643 30.238 55.505 62.079 55.505z" fill="#616161"/><path d="m328.548 241.98c19.537 0 38.451-5.659 54.699-16.364l8.253-5.438 8.253 5.438c16.247 10.706 35.162 16.364 54.698 16.364.991 0 1.984-.032 2.978-.062-2.172-12.101-7.631-23.515-15.978-32.851-12.697-14.2-30.903-22.344-49.952-22.344s-37.255 8.144-49.952 22.344c-8.347 9.335-13.806 20.75-15.978 32.851.995.029 1.988.062 2.979.062z" fill="#616161"/></g></svg>
