<?xml version="1.0" encoding="iso-8859-1"?>
<!-- Generator: Adobe Illustrator 19.0.0, SVG Export Plug-In . SVG Version: 6.00 Build 0)  -->
<svg version="1.1" id="Capa_1" xmlns="http://www.w3.org/2000/svg" xmlns:xlink="http://www.w3.org/1999/xlink" x="0px" y="0px"
	 viewBox="0 0 512 512" style="enable-background:new 0 0 512 512;" xml:space="preserve">
<g>
	<g>
		<path d="M497,150h-23.344c-10.406-17.847-29.542-30-51.656-30h-60c-22.114,0-41.25,12.153-51.656,30H201.656
			c-10.406-17.847-29.542-30-51.656-30H90c-22.114,0-41.25,12.153-51.656,30H15c-8.291,0-15,6.709-15,15s6.709,15,15,15h15v30
			c0,13.228,8.862,25.063,21.563,28.784l8.716,2.563l24.902,126.541C87.964,381.863,100.342,392,114.595,392h10.811
			c14.253,0,26.631-10.137,29.414-24.111l24.902-126.541l8.716-2.563C201.138,235.063,210,223.228,210,210v-30h92v30
			c0,13.228,8.862,25.063,21.563,28.784l8.716,2.563l24.902,126.541C359.964,381.863,372.342,392,386.595,392h10.811
			c14.253,0,26.631-10.137,29.414-24.111l24.902-126.541l8.716-2.563C473.138,235.063,482,223.228,482,210v-30h15
			c8.291,0,15-6.709,15-15S505.291,150,497,150z"/>
	</g>
</g>
<g>
	<g>
		<path d="M256,362c-41.353,0-76,33.647-76,75c0,41.353,34.647,75,76,75c41.353,0,76-33.647,76-75C332,395.647,297.353,362,256,362z
			"/>
	</g>
</g>
<g>
	<g>
		<path d="M120,0C95.186,0,75,20.186,75,45c0,24.814,20.186,45,45,45c24.814,0,45-20.186,45-45C165,20.186,144.814,0,120,0z"/>
	</g>
</g>
<g>
	<g>
		<path d="M392,0c-24.814,0-45,20.186-45,45c0,24.814,20.186,45,45,45c24.814,0,45-20.186,45-45S416.814,0,392,0z"/>
	</g>
</g>
<g>
</g>
<g>
</g>
<g>
</g>
<g>
</g>
<g>
</g>
<g>
</g>
<g>
</g>
<g>
</g>
<g>
</g>
<g>
</g>
<g>
</g>
<g>
</g>
<g>
</g>
<g>
</g>
<g>
</g>
</svg>
