<?xml version="1.0"?>
<svg xmlns="http://www.w3.org/2000/svg" height="512px" viewBox="-9 0 512 512" width="512px"><path d="m406.5625 251.660156h-7.375c-4.792969 0-8.679688-3.882812-8.679688-8.675781h-5.121093l-6.074219 6.160156c-1.539062 1.503907-3.574219 2.398438-5.726562 2.515625l-173.558594 8.679688c-2.457032.148437-4.863282-.769532-6.59375-2.515625l-5.816406-5.902344-99.96875 7.722656c-1.21875.109375-2.230469.984375-2.519532 2.167969-1.804687 6.097656-4.007812 12.070312-6.59375 17.878906-1.773437 4.082032-6.335937 6.175782-10.585937 4.859375-3.269531-1.035156-6.394531-2.496093-9.285157-4.339843-.5 5.457031 1.257813 10.882812 4.859376 15.011718 3.351562 2.539063 4.378906 7.125 2.429687 10.847656-5.988281 11.804688-11.542969 21.871094-13.886719 25.949219v2.082031c44.652344-15.324218 91.652344-22.667968 138.847656-21.695312 3.515626.042969 7.027344.332031 10.5.867188.234376-.011719.472657.015624.695313.089843 3.632813.585938 7.226563 1.398438 10.761719 2.429688.257812.085937.519531.085937.867187.171875.097657.089844.214844.152344.347657.171875l.953124.261719c1.433594.4375 2.824219.988281 4.167969 1.648437 9.5625-.519531 19.117188 1.140625 27.941407 4.859375.652343-3.789062 2.101562-7.398438 4.253906-10.585938 4.046875-5.648437 10.667968-8.878906 17.613281-8.589843 20.65625 0 93.722656-5.730469 115.59375-7.550781 3.335937-.207032 5.929687-2.992188 5.898437-6.335938v-12.148438c0-4.792968 3.886719-8.679687 8.679688-8.679687h7.375c.710938-.015625 1.285156-.589844 1.300781-1.300781v-14.753906c-.015625-.710938-.589843-1.28125-1.300781-1.300782zm-128.433594 34.710938-164.882812 8.679687h-.433594c-4.792969.121094-8.773438-3.667969-8.894531-8.460937-.121094-4.792969 3.667969-8.773438 8.460937-8.894532l164.882813-8.679687c2.308593-.136719 4.574219.65625 6.289062 2.207031 1.714844 1.550782 2.730469 3.726563 2.820313 6.039063.121094 2.300781-.683594 4.554687-2.230469 6.265625-1.546875 1.710937-3.710937 2.734375-6.011719 2.84375zm0 0" fill="#616161"/><path d="m178.417969 393.113281-.519531-.347656-34.796876-20.828125c-3.085937-1.828125-4.730468-5.367188-4.132812-8.90625.59375-3.539062 3.304688-6.34375 6.820312-7.0625 19.625-3.867188 39.695313-4.949219 59.617188-3.210938h.523438c1.316406.078126 2.636718-.070312 3.902343-.433593.101563-.066407.226563-.097657.347657-.085938 1.1875-.410156 2.28125-1.0625 3.210937-1.910156.128906-.136719.273437-.253906.433594-.347656.847656-.863281 1.550781-1.859375 2.082031-2.949219.089844-.171875.175781-.257812.261719-.433594.414062-1.144531.648437-2.34375.695312-3.558594.011719-.40625-.019531-.8125-.085937-1.214843-.003906-.617188-.089844-1.230469-.261719-1.820313-.105469-.445312-.25-.882812-.433594-1.304687-.175781-.257813-.261719-.605469-.433593-.867188-.164063-.1875-.3125-.390625-.433594-.605469-.175782-.261718-.433594-.609374-.609375-.867187-.359375-.421875-.765625-.800781-1.214844-1.128906l-.171875-.175781c-.433594-.34375-.78125-.605469-1.128906-.867188-.132813-.0625-.25-.152344-.347656-.257812-.800782-.515626-1.679688-.898438-2.601563-1.128907-2.085937-.609375-4.167969-1.042969-6.164063-1.476562-1.128906-.261719-2.253906-.605469-3.296874-.78125-2.894532-.507813-5.824219-.765625-8.765626-.78125-92.332031 0-143.183593 24.90625-143.621093 25.082031-2.703125 1.363281-5.917969 1.234375-8.503907-.347656-.742187-.484375-1.414062-1.070313-1.996093-1.738282 0-.085937-.171875-.171874-.171875-.257812-9.796875 15.957031-22.171875 30.175781-36.621094 42.085938v102.226562c17.03125 4.261719 34.511719 6.445312 52.066406 6.507812 38.015625-.917968 74.945313-12.855468 106.304688-34.363281 4.070312-2.742187 6.511718-7.328125 6.511718-12.234375v-.089844l-12.585937-6.332031c-3.894531-2.34375-5.320313-7.296875-3.269531-11.351562 2.050781-4.058594 6.886718-5.84375 11.082031-4.097657l9.457031 4.773438c1.574219-4.34375 1.289063-9.144531-.78125-13.277344-.511718-.945312-.863281-1.972656-1.039062-3.035156l-15.449219-7.726562c-3.894531-2.339844-5.320313-7.292969-3.269531-11.347657 2.050781-4.058593 6.886718-5.84375 11.082031-4.097656l16.574219 8.246094c1.152344-.351563 2.351562-.527344 3.558594-.523438.53125.011719 1.042968-.195312 1.421874-.574219.375-.375.582032-.886718.574219-1.421874v-5.988282c0-2.765625-1.449219-5.335937-3.820312-6.765625zm0 0" fill="#616161"/><path d="m233.699219 336.617188c.085937.433593.085937.78125.171875 1.128906v.175781c.277344 1.574219.421875 3.171875.433594 4.769531 0 .261719-.085938.523438-.085938.78125-.042969.84375-.132812 1.683594-.261719 2.519532-.117187 1.140624-.320312 2.269531-.605469 3.382812-.175781.867188-.523437 1.734375-.78125 2.601562-.433593 1.042969-.78125 1.996094-1.214843 2.953126-.433594.78125-.957031 1.648437-1.390625 2.429687-.613282.929687-1.28125 1.828125-1.996094 2.6875-.269531.441406-.589844.851563-.953125 1.21875-.238281.28125-.5.539063-.78125.777344-.308594.300781-.601563.617187-.867187.957031-.519532.433594-1.128907.78125-1.734376 1.214844-.6875.597656-1.410156 1.148437-2.171874 1.648437-.867188.519531-1.734376.953125-2.601563 1.386719-.929687.488281-1.886719.921875-2.863281 1.304688-.828125.25-1.667969.453124-2.519532.605468-1.039062.261719-2.082031.609375-3.210937.78125-1.925781.246094-3.878906.273438-5.8125.085938-10.390625-.894532-20.835937-.980469-31.242187-.257813l11.890624 7.113281c42.433594 3.90625 59.269532-3.558593 64.5625-9.285156l.261719-.257812c.230469-.269532.433594-.558594.605469-.871094.089844-.085938.175781-.257812.261719-.34375.148437-.183594.265625-.390625.347656-.609375l.261719-.519531c-2.347656-7.554688-3.976563-15.3125-4.859375-23.171875-4.070313-2.222657-8.378907-3.96875-12.84375-5.207031zm0 0" fill="#616161"/><path d="m269.015625 104.136719c0 14.378906-11.65625 26.03125-26.03125 26.03125-14.378906 0-26.035156-11.652344-26.035156-26.03125 0-14.378907 11.65625-26.035157 26.035156-26.035157 14.375 0 26.03125 11.65625 26.03125 26.035157zm0 0" fill="#616161"/><path d="m242.984375 208.269531c4.792969 0 8.675781-3.882812 8.675781-8.675781v-9.121094c41.035156-4.179687 73.480469-36.625 77.660156-77.660156h9.121094c4.792969 0 8.675782-3.882812 8.675782-8.675781s-3.882813-8.679688-8.675782-8.679688h-9.121094c-4.179687-41.035156-36.625-73.480469-77.660156-77.660156v-9.117187c0-4.792969-3.882812-8.679688-8.675781-8.679688s-8.679687 3.886719-8.679687 8.679688v9.117187c-41.035157 4.179687-73.480469 36.625-77.660157 77.660156h-9.117187c-4.792969 0-8.679688 3.886719-8.679688 8.679688s3.886719 8.675781 8.679688 8.675781h9.117187c4.179688 41.035156 36.625 73.480469 77.660157 77.660156v9.121094c0 4.792969 3.886718 8.675781 8.679687 8.675781zm-68.828125-95.457031h8.082031c4.792969 0 8.675781-3.882812 8.675781-8.675781s-3.882812-8.679688-8.675781-8.679688h-8.082031c4.007812-31.410156 28.738281-56.140625 60.148438-60.144531v8.078125c0 4.792969 3.886718 8.675781 8.679687 8.675781s8.675781-3.882812 8.675781-8.675781v-8.078125c31.410156 4.003906 56.144532 28.734375 60.148438 60.144531h-8.078125c-4.792969 0-8.679688 3.886719-8.679688 8.679688s3.886719 8.675781 8.679688 8.675781h8.078125c-4.003906 31.410156-28.738282 56.144531-60.148438 60.148438v-8.078126c0-4.792968-3.882812-8.679687-8.675781-8.679687s-8.679687 3.886719-8.679687 8.679687v8.078126c-31.410157-4.003907-56.140626-28.738282-60.148438-60.148438zm0 0" fill="#616161"/><path d="m479.023438 468.609375c-4.140626.03125-8.015626 2.050781-10.414063 5.425781-2.398437-3.375-6.273437-5.394531-10.414063-5.425781-8.804687.179687-15.796874 7.464844-15.617187 16.273437 0 16.269532 26.03125 27.117188 26.03125 27.117188s26.035156-10.847656 26.035156-27.117188c.179688-8.808593-6.8125-16.09375-15.621093-16.273437zm0 0" fill="#616161"/><path d="m392.242188 468.609375c-4.140626.03125-8.011719 2.050781-10.410157 5.425781-2.402343-3.375-6.273437-5.394531-10.414062-5.425781-8.808594.179687-15.800781 7.464844-15.621094 16.273437 0 16.269532 26.035156 27.117188 26.035156 27.117188s26.03125-10.847656 26.03125-27.117188c.179688-8.808593-6.8125-16.09375-15.621093-16.273437zm0 0" fill="#616161"/><path d="m305.464844 468.609375c-4.140625.03125-8.015625 2.050781-10.414063 5.425781-2.398437-3.375-6.273437-5.394531-10.414062-5.425781-8.804688.179687-15.800781 7.464844-15.621094 16.273437 0 16.269532 26.035156 27.117188 26.035156 27.117188s26.035157-10.847656 26.035157-27.117188c.179687-8.808593-6.816407-16.09375-15.621094-16.273437zm0 0" fill="#616161"/></svg>
