<svg height="512pt" viewBox="0 0 512 512" width="512pt" xmlns="http://www.w3.org/2000/svg"><path d="m31 482v30h90v-30h-28.328125c2.960937-20.523438 11.757813-39.40625 25.625-54.816406 24.429687 33.136718 63.378906 54.816406 107.703125 54.816406h60c44.324219 0 83.273438-21.675781 107.703125-54.816406 13.867187 15.410156 22.664063 34.292968 25.625 54.816406h-28.328125v30h90v-30h-31.667969c-3.507812-31.335938-17.597656-60.003906-40.464843-81.90625 5.152343-11.992188 9.101562-24.625 10.617187-38.09375h-326.96875c1.515625 13.46875 5.464844 26.101562 10.617187 38.09375-22.867187 21.902344-36.957031 50.570312-40.464843 81.90625zm270-90h30v30h-30zm-120 0h30v30h-30zm0 0"/><path d="m241 0h-241v30h241v30h-30v35.449219c14.472656-3.4375 29.492188-5.449219 45-5.449219s30.527344 2.011719 45 5.449219v-35.449219h-30v-30h241v-30zm0 0"/><path d="m421 286c0-85.917969-66.03125-157.628906-150-165.238281v211.238281h150zm0 0"/><path d="m241 120.761719c-83.96875 7.609375-150 79.320312-150 165.238281v46h150zm0 0"/></svg>