<?xml version="1.0"?>
<svg xmlns="http://www.w3.org/2000/svg" id="Capa_1" enable-background="new 0 0 512 512" height="512px" viewBox="0 0 512 512" width="512px"><g><path d="m0 77.429h47.429v47.429h-47.429z" fill="#616161"/><path d="m0 0h47.429v47.429h-47.429z" fill="#616161"/><path d="m0 464.571h47.429v47.429h-47.429z" fill="#616161"/><path d="m271 60.979h-30v-60.979h-163.571v512h163.571v-59.528h30v59.528h163.571v-512h-163.571zm0 349.516h-30v-74.529h30zm0-116.506h-30v-74.528h30zm0-116.505h-30v-74.529h30z" fill="#616161"/><path d="m0 387.143h47.429v47.429h-47.429z" fill="#616161"/><path d="m0 309.714h47.429v47.429h-47.429z" fill="#616161"/><path d="m0 232.286h47.429v47.428h-47.429z" fill="#616161"/><path d="m0 154.857h47.429v47.429h-47.429z" fill="#616161"/><path d="m464.571 232.286h47.429v47.428h-47.429z" fill="#616161"/><path d="m464.571 309.714h47.429v47.429h-47.429z" fill="#616161"/><path d="m464.571 154.857h47.429v47.429h-47.429z" fill="#616161"/><path d="m464.571 77.429h47.429v47.429h-47.429z" fill="#616161"/><path d="m464.571 0h47.429v47.429h-47.429z" fill="#616161"/><path d="m464.571 464.571h47.429v47.429h-47.429z" fill="#616161"/><path d="m464.571 387.143h47.429v47.429h-47.429z" fill="#616161"/></g></svg>
