<?xml version="1.0"?>
<svg xmlns="http://www.w3.org/2000/svg" id="Capa_1" enable-background="new 0 0 512 512" height="512px" viewBox="0 0 512 512" width="512px"><g><path d="m376 150h35v60h-35z" fill="#616161"/><g><path d="m321 150h20v60h-20z" fill="#616161"/><path d="m456 0h-190c-24.813 0-45 20.187-45 45v7h25c38.994 0 71.119 29.916 74.662 68h25.338v-35c0-8.284 6.716-15 15-15s15 6.716 15 15v35h50c8.284 0 15 6.716 15 15v90c0 8.284-6.716 15-15 15h-50v105c0 8.284-6.716 15-15 15s-15-6.716-15-15v-105h-25v190h135c24.813 0 45-20.187 45-45v-340c0-24.813-20.187-45-45-45z" fill="#616161"/></g><path d="m246 82h-190c-24.813 0-45 20.187-45 45v340c0 24.813 20.187 45 45 45h190c24.813 0 45-20.187 45-45v-340c0-24.813-20.187-45-45-45zm-135 335h-5v25c0 8.284-6.716 15-15 15s-15-6.716-15-15v-25h-5c-8.284 0-15-6.716-15-15s6.716-15 15-15h5v-25c0-8.284 6.716-15 15-15s15 6.716 15 15v25h5c8.284 0 15 6.716 15 15s-6.716 15-15 15zm0-210h-5v25c0 8.284-6.716 15-15 15s-15-6.716-15-15v-25h-5c-8.284 0-15-6.716-15-15s6.716-15 15-15h5v-25c0-8.284 6.716-15 15-15s15 6.716 15 15v25h5c8.284 0 15 6.716 15 15s-6.716 15-15 15zm120 210h-5v25c0 8.284-6.716 15-15 15s-15-6.716-15-15v-25h-5c-8.284 0-15-6.716-15-15s6.716-15 15-15h5v-25c0-8.284 6.716-15 15-15s15 6.716 15 15v25h5c8.284 0 15 6.716 15 15s-6.716 15-15 15zm0-210h-5v25c0 8.284-6.716 15-15 15s-15-6.716-15-15v-25h-5c-8.284 0-15-6.716-15-15s6.716-15 15-15h5v-25c0-8.284 6.716-15 15-15s15 6.716 15 15v25h5c8.284 0 15 6.716 15 15s-6.716 15-15 15z" fill="#616161"/></g></svg>
