<?xml version="1.0" encoding="iso-8859-1"?>
<!-- Generator: Adobe Illustrator 19.0.0, SVG Export Plug-In . SVG Version: 6.00 Build 0)  -->
<svg version="1.1" id="Capa_1" xmlns="http://www.w3.org/2000/svg" xmlns:xlink="http://www.w3.org/1999/xlink" x="0px" y="0px"
	 viewBox="0 0 512 512" style="enable-background:new 0 0 512 512;" xml:space="preserve">
<g>
	<g>
		<path d="M345,246v-30h-30v30H165v-30h-30v30H0v200h55.361l8.182-30l21.818-80h92.059c-6.192,17.458-22.865,30-42.42,30h-26.725
			l-8.182,30H135c36.219,0,66.522-25.808,73.491-60H375v-90H345z"/>
	</g>
</g>
<g>
	<g>
		<rect x="255" y="366" width="30" height="30"/>
	</g>
</g>
<g>
	<g>
		<rect x="405" y="276" width="107" height="30"/>
	</g>
</g>
<g>
	<g>
		<path d="M330,66H150c-33.084,0-60,26.916-60,60s26.916,60,60,60h180c33.084,0,60-26.916,60-60S363.084,66,330,66z"/>
	</g>
</g>
<g>
</g>
<g>
</g>
<g>
</g>
<g>
</g>
<g>
</g>
<g>
</g>
<g>
</g>
<g>
</g>
<g>
</g>
<g>
</g>
<g>
</g>
<g>
</g>
<g>
</g>
<g>
</g>
<g>
</g>
</svg>
