<svg id="Solid" height="512" viewBox="0 0 32 32" width="512" xmlns="http://www.w3.org/2000/svg"><path d="m16 18.5c-2.481 0-4.5 1.57-4.5 3.5s2.019 3.5 4.5 3.5 4.5-1.57 4.5-3.5-2.019-3.5-4.5-3.5zm-2 4.5a1 1 0 1 1 1-1 1 1 0 0 1 -1 1zm4 0a1 1 0 1 1 1-1 1 1 0 0 1 -1 1z"/><path d="m28.289 11.09a8.325 8.325 0 0 0 .72-1.028c2.209-3.826.036-8.062.036-8.062s-4.387.227-6.689 3.642a16.257 16.257 0 0 1 5.933 5.448z"/><path d="m3.711 11.09a16.257 16.257 0 0 1 5.933-5.448c-2.302-3.415-6.689-3.642-6.689-3.642s-2.173 4.236.036 8.062a8.325 8.325 0 0 0 .72 1.028z"/><path d="m16 6c-7.18 0-13 6.82-13 14s5.82 10 13 10 13-2.82 13-10-5.82-14-13-14zm5 8a1 1 0 1 1 -1 1 1 1 0 0 1 1-1zm-10 0a1 1 0 1 1 -1 1 1 1 0 0 1 1-1zm5 13.5c-3.584 0-6.5-2.467-6.5-5.5s2.916-5.5 6.5-5.5 6.5 2.467 6.5 5.5-2.916 5.5-6.5 5.5z"/></svg>