<?xml version="1.0" encoding="iso-8859-1"?>
<!-- Generator: Adobe Illustrator 19.0.0, SVG Export Plug-In . SVG Version: 6.00 Build 0)  -->
<svg version="1.1" id="Capa_1" xmlns="http://www.w3.org/2000/svg" xmlns:xlink="http://www.w3.org/1999/xlink" x="0px" y="0px"
	 viewBox="0 0 511.998 511.998" style="enable-background:new 0 0 511.998 511.998;" xml:space="preserve">
<g>
	<g>
		<path d="M235.188,413.931c-0.033-0.059-0.027-0.126-0.06-0.185L141.199,248.9c-25.028-43.894-87.013-51.347-121.618-13.399
			c-28.073,30.783-25.52,78.116,4.83,105.852c0.026,0.024,0.033,0.06,0.06,0.084l141.221,127.827
			c17.224,15.675,43.726,15.733,60.828-0.212C240.886,455.661,246.141,433.282,235.188,413.931z M74.996,300.992
			c-8.284,0-15.001-6.716-15.001-15.001c0-8.284,6.716-15.001,15.001-15.001c8.284,0,15.001,6.716,15.001,15.001
			C89.997,294.276,83.28,300.992,74.996,300.992z"/>
	</g>
</g>
<g>
	<g>
		<path d="M256.003,30.982c-57.893,0-105.004,47.111-105.004,105.004S198.11,240.99,256.003,240.99s105.004-47.111,105.004-105.004
			S313.897,30.982,256.003,30.982z"/>
	</g>
</g>
<g>
	<g>
		<path d="M485.38,228.717c-35.793-30.277-90.345-20.556-113.573,20.185l-94.929,164.844c-0.033,0.059-0.027,0.126-0.06,0.185
			c-9.758,17.242-7.159,39.247,7.286,53.778c17.016,17.118,44.431,17.735,62.209,1.557l141.221-127.827
			c0.027-0.024,0.035-0.06,0.06-0.084C520.606,311.187,520.377,258.319,485.38,228.717z M437.01,300.992
			c-8.284,0-15.001-6.716-15.001-15.001c0-8.284,6.716-15.001,15.001-15.001c8.284,0,15.001,6.716,15.001,15.001
			C452.011,294.276,445.295,300.992,437.01,300.992z"/>
	</g>
</g>
<g>
</g>
<g>
</g>
<g>
</g>
<g>
</g>
<g>
</g>
<g>
</g>
<g>
</g>
<g>
</g>
<g>
</g>
<g>
</g>
<g>
</g>
<g>
</g>
<g>
</g>
<g>
</g>
<g>
</g>
</svg>
