<?xml version="1.0" encoding="iso-8859-1"?>
<!-- Generator: Adobe Illustrator 19.0.0, SVG Export Plug-In . SVG Version: 6.00 Build 0)  -->
<svg version="1.1" id="Capa_1" xmlns="http://www.w3.org/2000/svg" xmlns:xlink="http://www.w3.org/1999/xlink" x="0px" y="0px"
	 viewBox="0 0 512 512" style="enable-background:new 0 0 512 512;" xml:space="preserve">
<g>
	<g>
		<path d="M511.243,446.024v-15H404.888V261.241h-0.249c10.285-30.26,15.653-62.329,15.653-95.226v-1.722
			C420.293,73.702,346.592,0,256,0S91.706,73.702,91.706,164.293v1.722c0,32.636,5.279,64.456,15.405,94.505v170.505H0.757v15H0V512
			h30v-50.976h23.555V512h30v-50.976h23.556V512h30v-51.213c7.912-0.31,15.768-0.931,23.556-1.856V512h30v-58.212
			c7.953-1.791,15.811-3.907,23.555-6.344V512h30v-75.843c3.965-1.747,7.892-3.58,11.778-5.504
			c3.886,1.924,7.813,3.757,11.778,5.504V512h30v-64.556c7.744,2.438,15.602,4.553,23.555,6.344V512h30v-53.068
			c7.788,0.925,15.644,1.546,23.556,1.856V512h30v-50.976h23.556V512h30v-50.976H482V512h30v-65.976H511.243z M160.667,428.68
			c-7.778,1.031-15.635,1.732-23.556,2.077V323.462c7.07,11.16,14.943,21.881,23.556,32.115V428.68z M190.667,422.925v-36.477
			c10.544,9.402,21.645,17.989,33.242,25.695C213.102,416.472,201.998,420.062,190.667,422.925z M321.333,422.925
			c-11.331-2.863-22.436-6.453-33.242-10.782c11.598-7.706,22.698-16.294,33.242-25.696V422.925z M374.888,430.757
			c-7.921-0.346-15.777-1.046-23.556-2.077v-73.102c8.612-10.235,16.485-20.955,23.556-32.116V430.757z M374.659,256.084
			l-34.83-21.799l-57.999,92.668l35.174,22.015c-1.425,1.492-2.866,2.973-4.33,4.437c-17.124,17.124-36.18,31.617-56.674,43.273
			c-20.494-11.656-39.55-26.149-56.674-43.273c-50.054-50.054-77.62-116.604-77.62-187.39v-1.722
			c0-71.431,56.061-130.007,126.495-134.061l-13.35,33.517l101.563,40.453l14.047-35.267c13,12.879,23.388,28.387,30.292,45.653
			l-38.775-0.087l-0.243,109.323l42.244,0.095C381.553,234.859,378.438,245.597,374.659,256.084z"/>
	</g>
</g>
<g>
</g>
<g>
</g>
<g>
</g>
<g>
</g>
<g>
</g>
<g>
</g>
<g>
</g>
<g>
</g>
<g>
</g>
<g>
</g>
<g>
</g>
<g>
</g>
<g>
</g>
<g>
</g>
<g>
</g>
</svg>
