<svg id="Capa_1" enable-background="new 0 0 512 512" height="512" viewBox="0 0 512 512" width="512" xmlns="http://www.w3.org/2000/svg"><g><g><path d="m0 271h105v105h-105z"/><path d="m136 407h105v105h-105z"/><path d="m0 241h105v-105h-105zm52.5-67.5c8.284 0 15 6.714 15 15 0 8.284-6.716 15-15 15s-15-6.716-15-15c0-8.286 6.716-15 15-15z"/><path d="m271 407h105v105h-105z"/><path d="m271 136h105v105h-105z"/><path d="m136 0h105v105h-105z"/><path d="m105 105v-105h-90c-8.291 0-15 6.709-15 15v90zm-52.5-67.5c8.284 0 15 6.714 15 15 0 8.284-6.716 15-15 15s-15-6.716-15-15c0-8.286 6.716-15 15-15z"/><path d="m407 105h105v-90c0-8.291-6.709-15-15-15h-90z"/><path d="m407 407v105h90c8.291 0 15-6.709 15-15v-90zm52.5 67.5c-8.284 0-15-6.716-15-15 0-8.286 6.716-15 15-15s15 6.714 15 15c0 8.284-6.716 15-15 15z"/><path d="m407 271h105v105h-105z"/><path d="m105 407h-105v90c0 8.291 6.709 15 15 15h90zm-52.5 67.5c-8.284 0-15-6.716-15-15 0-8.286 6.716-15 15-15s15 6.714 15 15c0 8.284-6.716 15-15 15z"/></g><path d="m136 241h105v-105h-105zm52.5-67.5c8.284 0 15 6.714 15 15 0 8.284-6.716 15-15 15s-15-6.716-15-15c0-8.286 6.716-15 15-15z"/><path d="m407 241h105v-105h-105zm52.5-67.5c8.284 0 15 6.714 15 15 0 8.284-6.716 15-15 15s-15-6.716-15-15c0-8.286 6.716-15 15-15z"/><path d="m271 376h105v-105h-105zm52.5-67.5c8.284 0 15 6.714 15 15 0 8.284-6.716 15-15 15s-15-6.716-15-15c0-8.286 6.716-15 15-15z"/><path d="m136 376h105v-105h-105zm52.5-67.5c8.284 0 15 6.714 15 15 0 8.284-6.716 15-15 15s-15-6.716-15-15c0-8.286 6.716-15 15-15z"/><path d="m271 105h105v-105h-105zm52.5-67.5c8.284 0 15 6.714 15 15 0 8.284-6.716 15-15 15s-15-6.716-15-15c0-8.286 6.716-15 15-15z"/></g></svg>