<svg height="512" viewBox="0 0 64 64" width="512" xmlns="http://www.w3.org/2000/svg"><g id="Layer_22" data-name="Layer 22"><path d="m16 46a23 23 0 0 0 -3.05-2c3.37-5.49 10.11-9.34 18-9.67a34.41 34.41 0 0 1 4.43-12.94 2.29 2.29 0 0 1 1.23-.31 2.79 2.79 0 0 1 1.14.23 1.54 1.54 0 0 1 .77.76 30.16 30.16 0 0 0 -4.53 12.3c7.45.63 13.84 4.37 17.1 9.63a23.07 23.07 0 0 0 -3.09 2c-1.36 1-1.53 1.14-2.61 1.14s-1.23-.08-2.59-1.14a17 17 0 0 0 -21.61 0c-1.36 1-1.53 1.14-2.61 1.14s-1.26-.08-2.58-1.14zm42.49-.13c-1.3-1.11-3.33-.36-4.72.19a17.39 17.39 0 0 0 -3.91 2.34c-1.5 1.12-2.33 1.74-4.41 1.74s-2.91-.62-4.41-1.74a14 14 0 0 0 -18 0c-1.5 1.12-2.33 1.74-4.41 1.74s-2.91-.62-4.41-1.74a18 18 0 0 0 -4.22-2.4c-1.36-.53-3.24-1.19-4.5-.12a2.52 2.52 0 0 0 -.88 1.92v2.73a2.48 2.48 0 0 0 1.99 2.47 7.34 7.34 0 0 1 3 1.61 13.68 13.68 0 0 0 9 3.27 13.69 13.69 0 0 0 9-3.27c1.5-1.12 2.33-1.74 4.41-1.74s2.91.62 4.41 1.74a14 14 0 0 0 18 0 7.36 7.36 0 0 1 3-1.61 2.48 2.48 0 0 0 1.94-2.43v-2.74a2.52 2.52 0 0 0 -.92-1.91zm-36.12-28.87a1.18 1.18 0 0 0 .53.13 1.21 1.21 0 0 0 1-.59 3.49 3.49 0 0 1 3.1-1.64 4.29 4.29 0 0 1 1.71.36 4.06 4.06 0 0 1 .63.36 20.94 20.94 0 0 1 10.38-10.11c-.49 0-1-.08-1.5-.08a18.94 18.94 0 0 0 -7 1.39 17 17 0 0 0 -9.41 8.63 1.21 1.21 0 0 0 .56 1.55zm25.16 6.4a3.8 3.8 0 0 1 2.4 4.17 1.2 1.2 0 0 0 1.17 1.43 1.2 1.2 0 0 0 1.11-.75c2.37-5.83 1.42-13.45-3.09-18.27a27.51 27.51 0 0 1 -2.29 13.17 4.4 4.4 0 0 1 .7.26zm-16.53-3.58a1.36 1.36 0 0 0 .82 1.29 1.2 1.2 0 0 0 1.5-.49 3.7 3.7 0 0 1 3.21-1.51 4.8 4.8 0 0 1 2 .41 3.53 3.53 0 0 1 1.95 4.18 1.2 1.2 0 0 0 .67 1.44h.11a1.13 1.13 0 0 0 .46.1 1.21 1.21 0 0 0 .9-.41 24.48 24.48 0 0 0 3.23-17 1.23 1.23 0 0 0 -1.57-.83c-9.9 3-12.58 10-13.28 12.82z"/></g></svg>