<svg height="511pt" viewBox="0 0 511.93423 511" width="511pt" xmlns="http://www.w3.org/2000/svg"><path d="m91.875 143.726562c1.089844-3.257812 3.914062-5.625 7.3125-6.136718l102.582031-15.667969 39.808594-84.882813h-120.464844l-3.660156 1.9375-80.914063 120.457032 117.332032 159.507812 14.628906-89.601562-74.488281-76.351563c-2.386719-2.445312-3.210938-6.015625-2.136719-9.261719zm0 0"/><path d="m392.425781 152.980469-89.808593-13.714844c-3.015626-.460937-5.601563-2.394531-6.894532-5.15625l-39.753906-84.691406-39.753906 84.691406c-1.292969 2.761719-3.878906 4.695313-6.890625 5.15625l-89.8125 13.714844 65.289062 66.914062c2.027344 2.078125 2.945313 4.992188 2.476563 7.855469l-15.3125 93.886719 79.589844-43.996094c2.75-1.519531 6.089843-1.519531 8.839843 0l79.589844 43.996094-15.324219-93.878907c-.46875-2.863281.449219-5.785156 2.476563-7.863281zm-79.589843 115.855469c.566406 3.457031-.894532 6.933593-3.757813 8.949218s-6.625 2.21875-9.6875.523438l-43.421875-24-43.417969 24c-3.066406 1.695312-6.828125 1.492187-9.691406-.523438s-4.320313-5.492187-3.757813-8.949218l8.445313-51.800782-37.675781-38.621094c-2.394532-2.453124-3.214844-6.035156-2.128906-9.285156 1.085937-3.25 3.898437-5.617187 7.285156-6.136718l51.519531-7.863282 21.148437-45.039062c1.503907-3.210938 4.730469-5.261719 8.277344-5.261719s6.773438 2.050781 8.28125 5.261719l21.144532 45.039062 51.523437 7.863282c3.386719.519531 6.199219 2.886718 7.285156 6.136718 1.085938 3.25.261719 6.832032-2.128906 9.285156l-37.652344 38.628907zm0 0"/><path d="m270.910156 167.316406-14.941406-31.828125-14.9375 31.816407c-1.296875 2.761718-3.882812 4.695312-6.894531 5.15625l-38.746094 5.917968 28.46875 29.183594c2.023437 2.078125 2.945313 4.992188 2.476563 7.851562l-6.160157 37.769532 31.367188-17.371094c2.753906-1.519531 6.089843-1.519531 8.84375 0l31.367187 17.371094-6.160156-37.769532c-.46875-2.859374.453125-5.773437 2.476562-7.851562l28.46875-29.183594-38.746093-5.917968c-3.007813-.460938-5.589844-2.390626-6.882813-5.144532zm0 0"/><path d="m36.53125 159.46875v-.007812l-7.589844-5.09375zm0 0"/><path d="m507.195312 143.398438-87.375-130.285157c-5.320312-7.925781-14.246093-12.667969-23.792968-12.644531h-280.117188c-9.535156-.023438-18.457031 4.714844-23.773437 12.632812l-87.394531 130.296876c-6.550782 9.847656-6.292969 22.726562.640624 32.308593l242.707032 332.800781c1.90625 2.402344 4.804687 3.804688 7.875 3.804688 3.066406 0 5.96875-1.402344 7.875-3.804688l242.707031-332.800781c6.9375-9.578125 7.195313-22.457031.648437-32.308593zm-17.039062 25.984374-219.375 298.96875c-3.464844 4.722657-8.957031 7.519532-14.8125 7.542969-5.847656-.003906-11.34375-2.78125-14.820312-7.488281l-219.335938-298.164062c-4.546875-6.203126-4.730469-14.582032-.457031-20.976563l82.210937-122.382813c.839844-1.25 1.972656-2.277343 3.300782-2.984374l7.679687-4.074219c1.316406-.703125 2.789063-1.070313 4.28125-1.070313h274.285156c1.492188 0 2.960938.363282 4.277344 1.058594l7.652344 4.050781c1.328125.699219 2.460937 1.71875 3.300781 2.960938l82.203125 121.539062c4.308594 6.390625 4.148437 14.796875-.402344 21.019531zm0 0"/><path d="m171.433594 342.820312 84.40625 114.761719 84.382812-114.914062-84.253906-46.574219zm0 0"/><path d="m390.84375 37.039062h-120.484375l39.84375 84.882813 102.574219 15.6875c3.386718.519531 6.199218 2.890625 7.285156 6.140625 1.085938 3.246094.265625 6.832031-2.128906 9.285156l-74.484375 76.351563 14.535156 89.097656 117.414063-159.917969-80.925782-119.609375zm0 0"/></svg>