<?xml version="1.0" encoding="iso-8859-1"?>
<!-- Generator: Adobe Illustrator 19.0.0, SVG Export Plug-In . SVG Version: 6.00 Build 0)  -->
<svg version="1.1" id="Capa_1" xmlns="http://www.w3.org/2000/svg" xmlns:xlink="http://www.w3.org/1999/xlink" x="0px" y="0px"
	 viewBox="0 0 512 512" style="enable-background:new 0 0 512 512;" xml:space="preserve">
<g>
	<g>
		<path d="M509.354,23.861l-80.58,80.58l-21.215-21.215l80.58-80.58c-13.83-2.443-42.658-5.354-81.615,2.257
			c-31.434,6.142-63.306,17.899-94.729,34.944c-38.874,21.087-77.196,50.391-113.903,87.097
			c-27.789,27.789-51.783,55.517-72.398,82.063h177.498v177.497c26.545-20.614,54.274-44.608,82.063-72.397
			c36.706-36.706,66.01-75.028,87.098-113.902c17.046-31.424,28.803-63.295,34.943-94.729
			C514.709,66.519,511.797,37.69,509.354,23.861z"/>
	</g>
</g>
<g>
	<g>
		<path d="M103.221,239.009c-11.748,16.564-22.134,32.444-31.243,47.324h153.688v153.687c14.88-9.109,30.76-19.495,47.323-31.243
			V239.009H103.221z"/>
	</g>
</g>
<g>
	<g>
		<path d="M54.489,316.337c-4.016,7.257-7.681,14.152-11.006,20.635c-29.161,56.837-39.422,94.692-39.845,96.275L0,446.883
			l48.84,16.276L65.116,512l13.637-3.638c1.583-0.423,39.438-10.684,96.275-39.845c6.483-3.326,13.378-6.99,20.635-11.007V316.337
			H54.489z"/>
	</g>
</g>
<g>
</g>
<g>
</g>
<g>
</g>
<g>
</g>
<g>
</g>
<g>
</g>
<g>
</g>
<g>
</g>
<g>
</g>
<g>
</g>
<g>
</g>
<g>
</g>
<g>
</g>
<g>
</g>
<g>
</g>
</svg>
