<svg height="512pt" viewBox="-157 0 512 512" width="512pt" xmlns="http://www.w3.org/2000/svg"><path d="m171.824219 130.566406c0-18.238281-12.863281-33.519531-29.992188-37.277344l-8.257812-62.558593c-2.316407-17.519531-17.386719-30.730469-35.058594-30.730469s-32.742187 13.210938-35.054687 30.730469l-8.261719 62.558593c-17.128907 3.753907-29.992188 19.039063-29.992188 37.277344v5.765625h146.617188zm0 0"/><path d="m0 409.933594h197.03125v-157.03125h-197.03125zm86-127.15625c2.777344-4.203125 7.480469-6.730469 12.515625-6.730469 5.039063 0 9.738281 2.527344 12.515625 6.730469.289062.441406 7.199219 10.917968 14.207031 23.320312 13.832031 24.476563 15.605469 34.40625 15.605469 40.316406 0 22.265626-18.988281 40.375-42.328125 40.375-23.335937 0-42.324219-18.109374-42.324219-40.375 0-5.910156 1.773438-15.839843 15.605469-40.316406 7.003906-12.402344 13.914063-22.878906 14.203125-23.320312zm0 0"/><path d="m0 196.332031v26.570313h197.03125v-26.570313c0-16.566406-13.429688-30-30-30h-137.03125c-16.566406 0-30 13.433594-30 30zm0 0"/><path d="m98.515625 356.789062c6.75 0 12.246094-4.585937 12.324219-10.25-.386719-3.921874-5.394532-14.558593-12.320313-26.785156-6.933593 12.234375-11.941406 22.871094-12.328125 26.785156.078125 5.664063 5.578125 10.25 12.324219 10.25zm0 0"/><path d="m0 466.984375c0 24.863281 20.152344 45.015625 45.015625 45.015625h107c24.863281 0 45.015625-20.152344 45.015625-45.015625v-27.050781h-197.03125zm0 0"/></svg>