<svg id="Layer_1" enable-background="new 0 0 510 510" height="512" viewBox="0 0 510 510" width="512" xmlns="http://www.w3.org/2000/svg"><g><path id="XMLID_275_" d="m300 120h30c0-3.484.919-4.706 5.606-9.395 5.733-5.732 14.394-14.394 14.394-30.607s-8.661-24.875-14.394-30.607c-4.687-4.688-5.606-5.911-5.606-9.395 0-3.482.919-4.704 5.606-9.391 5.732-5.731 14.394-14.393 14.394-30.605h-30c0 3.482-.919 4.704-5.606 9.391-5.732 5.731-14.394 14.392-14.394 30.605s8.661 24.875 14.394 30.607c4.688 4.688 5.606 5.911 5.606 9.395s-.919 4.707-5.606 9.395c-5.733 5.731-14.394 14.394-14.394 30.607z"/><path id="XMLID_460_" d="m380 135h30c0-3.484.919-4.706 5.606-9.395 5.733-5.732 14.394-14.394 14.394-30.607s-8.661-24.875-14.394-30.607c-4.687-4.688-5.606-5.911-5.606-9.395 0-3.482.919-4.704 5.606-9.391 5.732-5.731 14.394-14.393 14.394-30.605h-30c0 3.482-.919 4.704-5.606 9.391-5.732 5.731-14.394 14.392-14.394 30.605s8.661 24.875 14.394 30.607c4.688 4.688 5.606 5.911 5.606 9.395s-.919 4.707-5.606 9.395c-5.733 5.731-14.394 14.394-14.394 30.607z"/><path id="XMLID_461_" d="m490 39.996c0-3.482.919-4.704 5.606-9.391 5.732-5.731 14.394-14.393 14.394-30.605h-30c0 3.482-.919 4.704-5.606 9.391-5.732 5.731-14.394 14.392-14.394 30.605s8.661 24.875 14.394 30.607c4.688 4.688 5.606 5.911 5.606 9.395s-.919 4.707-5.606 9.395c-5.733 5.731-14.394 14.394-14.394 30.607h30c0-3.484.919-4.706 5.606-9.395 5.733-5.732 14.394-14.394 14.394-30.607s-8.661-24.875-14.394-30.607c-4.687-4.688-5.606-5.911-5.606-9.395z"/><path id="XMLID_462_" d="m81.275 123.702c19.663 19.663 53.416 65.896 58.664 93.203 4.291 22.326 16.739 45.84 36.531 65.632 41.005 41.005 97.99 50.502 127.279 21.213s19.792-86.274-21.213-127.279c-19.793-19.792-43.306-32.241-65.632-36.531-27.308-5.248-73.54-39.001-93.203-58.664 17.983-17.983 17.564-47.399-1.257-64.85-17.096-15.853-43.94-15.877-61.066-.054-8.998 8.313-13.799 19.356-14.42 30.586-11.23.621-22.273 5.422-30.587 14.42-15.822 17.126-15.798 43.969.056 61.067 17.45 18.822 46.866 19.24 64.848 1.257z"/><path id="XMLID_463_" d="m135 510h240c41.802 0 77.966-24.558 94.847-60h-429.694c16.881 35.442 53.046 60 94.847 60z"/><path id="XMLID_464_" d="m417.709 390c4.481-2.334 8.838-4.788 13.04-7.374 41.433-25.498 64.251-60.169 64.251-97.626s-22.818-72.128-64.251-97.626c-35.917-22.104-82.434-35.091-132.19-37.093 1.758 1.62 3.491 3.276 5.191 4.976 24.216 24.216 40.32 54.159 45.346 84.314 5.561 33.37-3.234 64.494-24.133 85.391-16.63 16.63-39.994 25.789-65.787 25.789-.003 0-.004 0-.004 0-36.172-.001-74.047-17.133-103.915-47.001-23.29-23.291-39.193-52.123-44.778-81.183-.539-2.803-1.682-6.17-3.289-9.919-20.878 21.396-32.19 46.567-32.19 72.352 0 37.457 22.818 72.128 64.251 97.626 4.202 2.586 8.559 5.04 13.04 7.374h-122.291-30v30h15 16.076 447.848 16.076 15v-30h-30z"/></g></svg>