<?xml version="1.0"?>
<svg xmlns="http://www.w3.org/2000/svg" id="Capa_1" enable-background="new 0 0 512 512" height="512px" viewBox="0 0 512 512" width="512px"><g><path d="m271 201.5v-32.17c0-14.243 11.663-25.83 26-25.83 43.248 0 78.434-35.066 78.434-78.17v-40.83h-30v40.83c0 26.561-21.728 48.17-48.434 48.17-30.879 0-56 25.045-56 55.83v32.17h-241v286h512v-286zm113.53 64h32.14v30h-32.14zm-64.26 0h32.13v30h-32.13zm0 64v30h-32.14v-30zm-32.14-34h-32.13v-30h32.13zm-32.13 34v30h-32.13v-30zm-64.27-64h32.14v30h-32.14zm-64.26 0h32.13v30h-32.13zm-64.27 0h32.13v30h-32.13zm32.13 158h-32.13v-30h32.13zm0-94h32.14v30h-32.14zm64.27 94h-32.13v-30h32.13zm0-94h32.13v30h-32.13zm192.8 94h-160.67v-30h160.67zm0-94h32.13v30h-32.13zm64.27 94h-32.14v-30h32.14zm32.13-64h-32.13v-30h32.13z" fill="#616161"/></g></svg>
