<svg id="Capa_1" enable-background="new 0 0 512 512" height="512" viewBox="0 0 512 512" width="512" xmlns="http://www.w3.org/2000/svg"><g><path d="m296.606 215.394c-5.857-5.857-15.355-5.857-21.213 0s-5.858 15.355 0 21.213l4.393 4.394h-93.786c-8.284 0-15 6.716-15 15s6.716 15 15 15h93.787l-4.393 4.394c-5.858 5.857-5.858 15.355 0 21.213 5.857 5.857 15.355 5.857 21.213 0l30-30c5.858-5.857 5.858-15.355 0-21.213z"/><path d="m397.633 291h88.734l25.517-204.14c.497-3.973-.616-7.979-3.089-11.128l-55-70c-2.844-3.619-7.192-5.732-11.795-5.732s-8.951 2.113-11.795 5.732l-55 70c-2.474 3.148-3.586 7.155-3.089 11.128z"/><path d="m497 321h-110c-8.284 0-15 6.716-15 15s6.716 15 15 15h20v20h70v-20h20c8.284 0 15-6.716 15-15s-6.716-15-15-15z"/><path d="m407 477c0 19.33 15.67 35 35 35 19.33 0 35-15.67 35-35v-76h-70z"/><path d="m30.69 360h58.62l19.894-179.048c.503-4.529-1.08-9.041-4.302-12.263l-34.296-34.296c-5.858-5.858-15.355-5.858-21.213 0l-34.296 34.296c-3.222 3.222-4.805 7.734-4.302 12.263z"/><path d="m105 390h-90c-8.284 0-15 6.716-15 15s6.716 15 15 15h19.841l.159 67c0 13.807 11.193 25 25 25 13.807 0 25-11.193 25-25l-.159-67h20.159c8.284 0 15-6.716 15-15s-6.716-15-15-15z"/></g></svg>