<?xml version="1.0" encoding="iso-8859-1"?>
<!-- Generator: Adobe Illustrator 16.0.0, SVG Export Plug-In . SVG Version: 6.00 Build 0)  -->
<!DOCTYPE svg PUBLIC "-//W3C//DTD SVG 1.1//EN" "http://www.w3.org/Graphics/SVG/1.1/DTD/svg11.dtd">
<svg version="1.1" id="Capa_1" xmlns="http://www.w3.org/2000/svg" xmlns:xlink="http://www.w3.org/1999/xlink" x="0px" y="0px"
	 width="45.904px" height="45.904px" viewBox="0 0 45.904 45.904" style="enable-background:new 0 0 45.904 45.904;"
	 xml:space="preserve">
<g>
	<path d="M45.636,22.083c-0.774-1.112-1.458-2.376-2.003-3.761c-0.869-2.199-1.276-4.409-1.271-6.419
		c0.001-0.759-0.915-1.167-1.479-0.658c-2.529,2.278-6.789,4.046-11.938,4.903c0.496-2.443,0.48-5.291-0.92-8.007
		c-0.251-0.487-0.931-0.543-1.252-0.1c-0.408,0.563-0.837,1.397-0.837,2.42h-5.97c0-1.023-0.428-1.857-0.836-2.42
		c-0.321-0.444-1-0.388-1.252,0.1c-1.4,2.715-1.415,5.559-0.919,8.002c-5.149-0.857-9.41-2.624-11.938-4.901
		c-0.564-0.508-1.479-0.099-1.479,0.66c0.006,2.01-0.402,4.221-1.271,6.419c-0.545,1.385-1.229,2.65-2.003,3.761
		c-0.585,0.838-0.169,2.014,0.806,2.322c0.893,0.281,1.805,0.679,2.7,1.192c3.095,1.773,4.929,4.448,5.302,6.684
		c0.103,0.616,0.318,0.854,1.166,0.718c2.108-0.342,4.969-0.112,7.721,1.465c1.515,0.869,2.768,1.951,3.674,3.089
		c0.295,0.37,0.683,0.613,1.315,0.613c0.62,0,1.012-0.245,1.306-0.614c0.907-1.139,2.164-2.219,3.68-3.087
		c2.753-1.578,5.614-1.808,7.724-1.466c0.848,0.137,1.062-0.103,1.166-0.719c0.373-2.235,2.208-4.91,5.303-6.684
		c0.896-0.514,1.81-0.911,2.7-1.192C45.805,24.097,46.22,22.921,45.636,22.083z"/>
</g>
<g>
</g>
<g>
</g>
<g>
</g>
<g>
</g>
<g>
</g>
<g>
</g>
<g>
</g>
<g>
</g>
<g>
</g>
<g>
</g>
<g>
</g>
<g>
</g>
<g>
</g>
<g>
</g>
<g>
</g>
</svg>
