<svg id="Capa_1" enable-background="new 0 0 512.024 512.024" height="512" viewBox="0 0 512.024 512.024" width="512" xmlns="http://www.w3.org/2000/svg"><g id="Veterinary"><g><path d="m256.009 152.024c-125.566 0-195 124.175-195 210 0 82.705 87.48 150 195 150s195-67.295 195-150c0-85.825-69.434-210-195-210zm105 240h-60v60h-90v-60h-60v-90h60v-60h90v60h60z"/><path d="m271.009 272.024h-30v60h-60v30h60v60h30v-60h60v-30h-60z"/></g><g><g><path d="m17.723 142.279c-21.608-25.59-19.306-63.327 7.456-80.464 26.254-16.952 61.17-3.891 76.128 26.47 14.297 28.975 9.478 60.981-11.221 74.458-22.39 14.243-53.597 1.836-72.363-20.464z"/></g><g><path d="m138.309 72.476c-10.087-32.101 6.106-65.498 36.914-71.499 30.654-6.414 58.295 19.62 60.864 52.793 2.505 31.919-13.784 59.854-37.896 64.98-26.938 5.193-51.162-18.331-59.882-46.274z"/></g><g><path d="m321.253 119.483c-25.95 0-48.262-28.247-45.322-65.713 2.501-32.623 29.571-59.186 61.025-52.764 30.296 5.906 46.92 38.998 36.753 71.47-8.76 28.052-30.469 47.007-52.456 47.007z"/></g><g><path d="m422.064 162.83c-20.83-13.564-25.649-45.571-11.353-74.546 14.936-30.372 49.855-43.404 76.172-26.455 26.653 17.098 29.078 54.777 7.412 80.464-18.2 21.624-49.501 34.974-72.231 20.537z"/></g></g></g></svg>