<svg height="512pt" viewBox="-32 0 511 512" width="512pt" xmlns="http://www.w3.org/2000/svg"><path d="m136 512h-.433594c-21.320312 0-38.667968-17.347656-38.667968-38.664062 0-48.457032 39.183593-87.734376 87.71875-87.734376h71.898437c9.4375 0 17.117187-7.679687 17.117187-17.117187 0-9.554687-7.738281-17.148437-17.132812-17.148437h-160.667969c-52.652343 0-95.332031-42.605469-95.332031-95.335938 0-52.566406 42.765625-95.332031 95.332031-95.332031h257.066407c9.59375 0 17.132812-7.808594 17.132812-17.132813 0-9.59375-7.804688-17.132812-17.132812-17.132812h-39.75c-48.367188 0-87.714844-39.351563-87.714844-87.71875 0-21.335938 17.34375-38.683594 38.664062-38.683594h.433594c21.5625 0 39.101562 17.539062 39.101562 39.101562 0 5.015626 4.082032 9.097657 9.101563 9.097657h40.164063c52.566406 0 95.335937 42.769531 95.335937 95.335937s-42.769531 95.332032-95.335937 95.332032h-257.066407c-9.59375 0-17.132812 7.808593-17.132812 17.132812 0 9.597656 7.808593 17.136719 17.132812 17.136719h160.667969c52.644531 0 95.332031 42.59375 95.332031 95.332031 0 52.566406-42.765625 95.332031-95.332031 95.332031h-72.300781c-5.019531 0-9.101563 4.082031-9.101563 9.101563 0 21.558594-17.539062 39.097656-39.097656 39.097656zm0 0"/></svg>