<svg id="Bold" height="512" viewBox="0 0 24 24" width="512" xmlns="http://www.w3.org/2000/svg"><circle cx="12" cy="19" r="5"/><path d="m12 13.5c-.414 0-.75-.336-.75-.75v-3.75c0-.414.336-.75.75-.75s.75.336.75.75v3.75c0 .414-.336.75-.75.75z"/><path d="m13.5 15.5c-.414 0-.75-.336-.75-.75v-1c0-.138-.112-.25-.25-.25h-1c-.138 0-.25.112-.25.25v1c0 .414-.336.75-.75.75s-.75-.336-.75-.75v-1c0-.965.785-1.75 1.75-1.75h1c.965 0 1.75.785 1.75 1.75v1c0 .414-.336.75-.75.75z"/><path d="m15.462 3.513-1-3c-.103-.306-.389-.513-.712-.513h-3.5c-.323 0-.609.207-.712.513l-1 3c-.076.229-.037.48.104.676.14.195.367.311.608.311h5.5c.241 0 .468-.116.608-.312.141-.195.18-.446.104-.675z"/><path d="m12 6.5c-.414 0-.75-.336-.75-.75v-2c0-.414.336-.75.75-.75s.75.336.75.75v2c0 .414-.336.75-.75.75z"/><path d="m12 9.5c-1.24 0-2.25-1.009-2.25-2.25 0-.414.336-.75.75-.75s.75.336.75.75.337.75.75.75.75-.336.75-.75-.337-.75-.75-.75c-.414 0-.75-.336-.75-.75s.336-.75.75-.75c1.24 0 2.25 1.009 2.25 2.25s-1.01 2.25-2.25 2.25z"/></svg>