<svg height="511pt" viewBox="-12 1 511 511.999" width="511pt" xmlns="http://www.w3.org/2000/svg"><path d="m390.054688 108.265625c0-17.183594-13.980469-31.160156-31.164063-31.160156-.585937 0-1.0625-.480469-1.0625-1.066407v-7.089843c0-15.402344-12.535156-27.9375-27.9375-27.9375h-22.273437c-1.105469-14.402344-13.175782-25.78125-27.855469-25.78125h-11.125v-15.230469h-45.191407c-77.90625 0-141.289062 63.382812-141.289062 141.289062v208.703126c0 89.328124 72.675781 162.007812 162.007812 162.007812 89.332032 0 162.007813-72.679688 162.007813-162.007812v-203.734376h-16.121094v-37.992187zm-31.828126 37.992187h-30.097656v-14.246093c0-8.3125 6.738282-15.050781 15.046875-15.050781 8.3125 0 15.050781 6.738281 15.050781 15.050781zm-58.011718 0h-30.09375v-14.246093c0-8.3125 6.734375-15.050781 15.046875-15.050781s15.046875 6.738281 15.046875 15.050781zm-24.082032-66.464843h-7.492187v-30.097657h7.492187c8.3125 0 15.050782 6.738282 15.050782 15.046876 0 8.3125-6.738282 15.050781-15.050782 15.050781zm-100.234374 220.542969c-13.21875 0-23.9375-10.714844-23.9375-23.9375v-13.78125h-16.839844c-8.3125 0-15.050782-6.738282-15.050782-15.046876 0-8.3125 6.738282-15.050781 15.050782-15.050781h81.558594c8.308593 0 15.046874 6.738281 15.046874 15.050781 0 8.308594-6.738281 15.046876-15.046874 15.046876h-16.84375v13.78125c.003906 13.222656-10.714844 23.9375-23.9375 23.9375zm81.792968 25.203124c7.691406-3.148437 16.476563.539063 19.625 8.230469 3.148438 7.691407-.539062 16.480469-8.230468 19.625-8.035157 3.289063-16.476563 4.933594-24.921876 4.933594-8.441406 0-16.882812-1.644531-24.917968-4.933594-7.691406-3.144531-11.378906-11.933593-8.230469-19.625 3.148437-7.691406 11.933594-11.375 19.625-8.230469 8.722656 3.566407 18.328125 3.566407 27.050781 0zm13.484375 128.625h-54.019531c-1.675781 0-3.324219-.125-4.9375-.351562v2.792969c0 8.308593-6.738281 15.046875-15.046875 15.046875-8.3125 0-15.046875-6.738282-15.046875-15.046875v-37.46875c0-19.316407 15.714844-35.035157 35.03125-35.035157h54.019531c19.316407 0 35.03125 15.714844 35.03125 35.03125 0 19.316407-15.714843 35.03125-35.03125 35.03125zm82.035157-191.546874h-16.839844v13.78125c0 13.21875-10.71875 23.9375-23.941406 23.9375-13.21875 0-23.9375-10.71875-23.9375-23.9375v-13.78125h-16.84375c-8.308594 0-15.046876-6.738282-15.046876-15.050782 0-8.308594 6.738282-15.046875 15.046876-15.046875h81.558593c8.3125 0 15.050781 6.738281 15.050781 15.046875 0 8.3125-6.734374 15.050782-15.046874 15.050782zm0 0"/><path d="m38.542969 176.742188c-20.976563 0-38.042969 17.070312-38.042969 38.046874v95.222657c0 20.980469 17.066406 38.046875 38.042969 38.046875h5.570312c2.722657 0 5.382813-.296875 7.945313-.84375v-169.628906c-2.5625-.546876-5.222656-.84375-7.945313-.84375zm0 0"/><path d="m449.789062 176.742188h-5.570312c-2.726562 0-5.382812.296874-7.945312.84375v169.628906c2.5625.550781 5.21875.84375 7.945312.84375h5.570312c20.976563 0 38.042969-17.066406 38.042969-38.042969v-95.226563c0-20.976562-17.066406-38.046874-38.042969-38.046874zm0 0"/></svg>