<svg id="Layer_1" enable-background="new 0 0 100 100" height="512" viewBox="0 0 100 100" width="512" xmlns="http://www.w3.org/2000/svg"><path d="m83.4696655 16.4208984v-1.4208984c0-2.7614136-2.2384644-5-5-5-2.7613525 0-5 2.2385864-5 5v1.4208984h-46.9393921v-1.4208984c0-2.7614136-2.2385864-5-5-5-2.7613525 0-5 2.2385864-5 5v1.4208984h-6.5302734v56.6671143h6.5302734v16.9119873h10v-16.9119873h46.9393921v16.9119873h10v-16.9119873h6.5303345v-56.6671143zm-31.6828613 15.7056275c.1965332-1.9263916 1.0634766-3.6863403 2.3199463-4.7071533.8565063-.6959839 1.8274536-1.0108643 2.7988281-.9078979 2.4801636.2581787 4.2191162 3.1968384 3.8768311 6.5501709-.1965332 1.9263916-1.0635376 3.6863403-2.3199463 4.7071533-.7507324.6102295-1.5877686.9269409-2.4397583.9269409-.119812 0-.2391968-.0063477-.3590698-.019043-2.4801636-.2581787-4.2191163-3.1968384-3.8768311-6.5501709zm-8.6920166-5.6150513c.9768066-.1029663 1.9431763.2123413 2.7988281.9078979 1.2564087 1.020813 2.1234131 2.7807617 2.3199463 4.7071533.3422241 3.3533325-1.3967285 6.2919922-3.8768921 6.5501709-.119812.0126953-.239624.019043-.3590088.019043-.8519897 0-1.6890259-.3167114-2.4398193-.9264526-1.2559204-1.0213013-2.1233521-2.7807617-2.3203735-4.7076416-.3417969-3.3533325 1.397583-6.2919922 3.8773193-6.5501709zm-8.661377 18.6123657c-.4039917 0-.8220215-.0671387-1.2455444-.2019043-1.4656982-.4664307-2.8405762-1.72229-3.6780396-3.3596802-1.4611206-2.8574219-.9300537-6.0809937 1.1837769-7.185791.8370361-.4378052 1.8115845-.4995117 2.8179321-.1791992 1.46521.4659424 2.8405762 1.722229 3.6784668 3.3596802 1.4606934 2.8569946.9296265 6.0805664-1.1842651 7.1862183-.4847412.2536621-1.0153809.3806762-1.5723267.3806762zm29.1621705 12.9868775c-.5278931 2.3900757-2.2346191 4.2752075-4.6838989 5.1717529-.7008667.2567749-1.4289551.3815918-2.1538696.3815918-1.7879028 0-3.5581665-.7576904-4.8623047-2.159668-.4951783-.5321655-1.168335-.8252563-1.8955079-.8252563s-1.4003296.2930908-1.8955078.8252563c-1.8329468 1.9708862-4.5877075 2.6673584-7.0161743 1.7780762-2.4492798-.8965454-4.1560059-2.7816772-4.6838989-5.1717529-.5137939-2.3284302.1851807-4.723999 1.8701172-6.4081421l5.3162231-5.9725952c1.626831-1.8265992 3.9626465-2.8742066 6.4092407-2.8742066s4.7824097 1.0476074 6.4092407 2.8742065l5.3348389 5.9920654c1.6663208 1.664673 2.3652954 4.0602418 1.8515015 6.388672zm6.8945922-16.5484619c-.8374634 1.6373901-2.2123413 2.8932495-3.6780396 3.3596802-.4235229.1347656-.8415527.2019043-1.2455444.2019043-.5569458 0-1.0875854-.1270142-1.5723267-.3806763-2.1138916-1.1056519-2.6449585-4.3292236-1.1842651-7.1862183.8378906-1.6374512 2.2132568-2.8937378 3.6784668-3.3596802 1.0063477-.3203125 1.980896-.258606 2.8179321.1791992 2.1138307 1.1047974 2.6448975 4.3283692 1.1837769 7.1857911z"/></svg>